<?xml version="1.0" encoding="UTF-8" standalone="no"?>
<!-- Created with Inkscape (http://www.inkscape.org/) -->

<svg
   width="288"
   height="680"
   viewBox="0 0 76.200001 179.91668"
   version="1.1"
   id="svg5"
   inkscape:version="1.2.1 (9c6d41e, 2022-07-14)"
   sodipodi:docname="fig-4.svg"
   xmlns:inkscape="http://www.inkscape.org/namespaces/inkscape"
   xmlns:sodipodi="http://sodipodi.sourceforge.net/DTD/sodipodi-0.dtd"
   xmlns="http://www.w3.org/2000/svg"
   xmlns:svg="http://www.w3.org/2000/svg">
  <sodipodi:namedview
     id="namedview7"
     pagecolor="#ffffff"
     bordercolor="#999999"
     borderopacity="1"
     inkscape:showpageshadow="0"
     inkscape:pageopacity="0"
     inkscape:pagecheckerboard="0"
     inkscape:deskcolor="#d1d1d1"
     inkscape:document-units="px"
     showgrid="false"
     inkscape:zoom="0.8640223"
     inkscape:cx="156.24597"
     inkscape:cy="330.43129"
     inkscape:window-width="1512"
     inkscape:window-height="843"
     inkscape:window-x="0"
     inkscape:window-y="38"
     inkscape:window-maximized="1"
     inkscape:current-layer="layer1" />
  <defs
     id="defs2">
    <rect
       x="1592.5861"
       y="439.47516"
       width="152.62964"
       height="61.788406"
       id="rect11569" />
  </defs>
  <g
     inkscape:label="Layer 1"
     inkscape:groupmode="layer"
     id="layer1"
     transform="translate(-165.09577,-13.229166)">
    <g
       id="g6770"
       transform="translate(2.8553761,3.4614933)">
      <path
         id="circle11113"
         style="fill:none;stroke:#000000;stroke-width:0.798406;stroke-linejoin:bevel"
         transform="rotate(90)"
         d="m 19.092424,-195.61688 a 2.2909579,2.2909579 0 0 1 -2.290958,2.29096 2.2909579,2.2909579 0 0 1 -2.290958,-2.29096 2.2909579,2.2909579 0 0 1 2.290958,-2.29096 2.2909579,2.2909579 0 0 1 2.290958,2.29096 z" />
      <g
         id="g11119"
         transform="rotate(90,98.257408,93.8804)">
        <path
           style="fill:none;fill-opacity:1;stroke:#000000;stroke-width:0.635;stroke-linecap:round;stroke-linejoin:bevel;stroke-dasharray:none;stroke-opacity:1;paint-order:normal"
           d="m 19.011962,-23.392467 3.948608,3.948609"
           id="path11115" />
        <path
           style="fill:none;fill-opacity:1;stroke:#000000;stroke-width:0.635;stroke-linecap:round;stroke-linejoin:bevel;stroke-dasharray:none;stroke-opacity:1;paint-order:normal"
           d="m 22.960571,-23.392466 -3.948609,3.948608"
           id="path11117" />
      </g>
      <path
         id="circle11121"
         style="fill:none;stroke:#000000;stroke-width:0.798406;stroke-linejoin:bevel"
         d="m 206.94165,25.642679 a 2.2909579,2.2909579 0 0 1 -2.29095,2.290958 2.2909579,2.2909579 0 0 1 -2.29096,-2.290958 2.2909579,2.2909579 0 0 1 2.29096,-2.290958 2.2909579,2.2909579 0 0 1 2.29095,2.290958 z" />
      <g
         id="g11139"
         transform="rotate(180,156.76265,32.839079)">
        <g
           id="g11131"
           transform="rotate(90,112.9151,93.665602)">
          <path
             style="fill:none;fill-opacity:1;stroke:#000000;stroke-width:0.635;stroke-linecap:round;stroke-dasharray:none;stroke-opacity:1"
             d="M 47.188971,93.282978 H 71.38099"
             id="path11123" />
          <path
             style="fill:none;fill-opacity:1;stroke:#000000;stroke-width:0.635;stroke-linecap:round;stroke-dasharray:none;stroke-opacity:1"
             d="M 47.188971,102.20399 H 71.38099"
             id="path11125" />
          <path
             style="fill:none;fill-opacity:1;stroke:#000000;stroke-width:0.635;stroke-linecap:round;stroke-dasharray:none;stroke-opacity:1"
             d="M 63.708076,85.610064 V 109.80208"
             id="path11127" />
          <path
             style="fill:none;fill-opacity:1;stroke:#000000;stroke-width:0.635;stroke-linecap:round;stroke-dasharray:none;stroke-opacity:1"
             d="M 54.787064,85.610064 V 109.80208"
             id="path11129" />
        </g>
        <g
           id="g11137"
           transform="rotate(90,43.172974,53.188774)">
          <path
             style="fill:none;fill-opacity:1;stroke:#000000;stroke-width:0.635;stroke-linecap:round;stroke-linejoin:bevel;stroke-dasharray:none;stroke-opacity:1;paint-order:normal"
             d="m 19.011962,-23.392467 3.948608,3.948609"
             id="path11133" />
          <path
             style="fill:none;fill-opacity:1;stroke:#000000;stroke-width:0.635;stroke-linecap:round;stroke-linejoin:bevel;stroke-dasharray:none;stroke-opacity:1;paint-order:normal"
             d="m 22.960571,-23.392466 -3.948609,3.948608"
             id="path11135" />
        </g>
      </g>
      <path
         id="circle11141"
         style="fill:none;stroke:#000000;stroke-width:0.798406;stroke-linejoin:bevel"
         transform="rotate(90)"
         d="m 56.13409,-177.09605 a 2.2909579,2.2909579 0 0 1 -2.290958,2.29095 2.2909579,2.2909579 0 0 1 -2.290958,-2.29095 2.2909579,2.2909579 0 0 1 2.290958,-2.29096 2.2909579,2.2909579 0 0 1 2.290958,2.29096 z" />
      <g
         id="g11149"
         transform="translate(126.09133,5.2916653)">
        <g
           id="g11147"
           transform="rotate(90,10.076322,37.449316)">
          <path
             style="fill:none;fill-opacity:1;stroke:#000000;stroke-width:0.635;stroke-linecap:round;stroke-linejoin:bevel;stroke-dasharray:none;stroke-opacity:1;paint-order:normal"
             d="m 19.011962,-23.392467 3.948608,3.948609"
             id="path11143" />
          <path
             style="fill:none;fill-opacity:1;stroke:#000000;stroke-width:0.635;stroke-linecap:round;stroke-linejoin:bevel;stroke-dasharray:none;stroke-opacity:1;paint-order:normal"
             d="m 22.960571,-23.392466 -3.948609,3.948608"
             id="path11145" />
        </g>
      </g>
      <path
         id="circle11151"
         style="fill:none;stroke:#000000;stroke-width:0.798406;stroke-linejoin:bevel"
         d="m 188.42084,62.684345 a 2.2909579,2.2909579 0 0 1 -2.29096,2.290958 2.2909579,2.2909579 0 0 1 -2.29096,-2.290958 2.2909579,2.2909579 0 0 1 2.29096,-2.290958 2.2909579,2.2909579 0 0 1 2.29096,2.290958 z" />
      <g
         id="g11157"
         transform="rotate(-90,145.67338,-52.969349)">
        <path
           style="fill:none;fill-opacity:1;stroke:#000000;stroke-width:0.635;stroke-linecap:round;stroke-linejoin:bevel;stroke-dasharray:none;stroke-opacity:1;paint-order:normal"
           d="m 19.011962,-23.392467 3.948608,3.948609"
           id="path11153" />
        <path
           style="fill:none;fill-opacity:1;stroke:#000000;stroke-width:0.635;stroke-linecap:round;stroke-linejoin:bevel;stroke-dasharray:none;stroke-opacity:1;paint-order:normal"
           d="m 22.960571,-23.392466 -3.948609,3.948608"
           id="path11155" />
      </g>
      <g
         id="g11177"
         transform="rotate(90,120.43834,123.08418)">
        <g
           id="g11167"
           transform="rotate(-90,39.505047,77.172611)">
          <path
             style="fill:none;fill-opacity:1;stroke:#000000;stroke-width:0.635;stroke-linecap:round;stroke-dasharray:none;stroke-opacity:1"
             d="M 47.188971,93.282978 H 71.38099"
             id="path11159" />
          <path
             style="fill:none;fill-opacity:1;stroke:#000000;stroke-width:0.635;stroke-linecap:round;stroke-dasharray:none;stroke-opacity:1"
             d="M 47.188971,102.20399 H 71.38099"
             id="path11161" />
          <path
             style="fill:none;fill-opacity:1;stroke:#000000;stroke-width:0.635;stroke-linecap:round;stroke-dasharray:none;stroke-opacity:1"
             d="M 63.708076,85.610064 V 109.80208"
             id="path11163" />
          <path
             style="fill:none;fill-opacity:1;stroke:#000000;stroke-width:0.635;stroke-linecap:round;stroke-dasharray:none;stroke-opacity:1"
             d="M 54.787064,85.610064 V 109.80208"
             id="path11165" />
        </g>
        <g
           id="g11175">
          <g
             id="g11173"
             transform="rotate(90,10.076322,37.449316)">
            <path
               style="fill:none;fill-opacity:1;stroke:#000000;stroke-width:0.635;stroke-linecap:round;stroke-linejoin:bevel;stroke-dasharray:none;stroke-opacity:1;paint-order:normal"
               d="m 19.011962,-23.392467 3.948608,3.948609"
               id="path11169" />
            <path
               style="fill:none;fill-opacity:1;stroke:#000000;stroke-width:0.635;stroke-linecap:round;stroke-linejoin:bevel;stroke-dasharray:none;stroke-opacity:1;paint-order:normal"
               d="m 22.960571,-23.392466 -3.948609,3.948608"
               id="path11171" />
          </g>
        </g>
      </g>
      <path
         id="circle11179"
         style="fill:none;stroke:#000000;stroke-width:0.798406;stroke-linejoin:bevel"
         transform="rotate(90)"
         d="m 56.13409,-214.13773 a 2.2909579,2.2909579 0 0 1 -2.290958,2.29096 2.2909579,2.2909579 0 0 1 -2.290958,-2.29096 2.2909579,2.2909579 0 0 1 2.290958,-2.29095 2.2909579,2.2909579 0 0 1 2.290958,2.29095 z" />
      <g
         id="g11185"
         transform="rotate(90,88.996984,121.66164)">
        <path
           style="fill:none;fill-opacity:1;stroke:#000000;stroke-width:0.635;stroke-linecap:round;stroke-linejoin:bevel;stroke-dasharray:none;stroke-opacity:1;paint-order:normal"
           d="m 19.011962,-23.392467 3.948608,3.948609"
           id="path11181" />
        <path
           style="fill:none;fill-opacity:1;stroke:#000000;stroke-width:0.635;stroke-linecap:round;stroke-linejoin:bevel;stroke-dasharray:none;stroke-opacity:1;paint-order:normal"
           d="m 22.960571,-23.392466 -3.948609,3.948608"
           id="path11183" />
      </g>
      <path
         id="circle11187"
         style="fill:none;stroke:#000000;stroke-width:0.798406;stroke-linejoin:bevel"
         d="m 225.46248,62.684345 a 2.2909579,2.2909579 0 0 1 -2.29096,2.290958 2.2909579,2.2909579 0 0 1 -2.29095,-2.290958 2.2909579,2.2909579 0 0 1 2.29095,-2.290958 2.2909579,2.2909579 0 0 1 2.29096,2.290958 z" />
      <g
         id="g11205"
         transform="rotate(90,157.48001,123.08418)">
        <g
           id="g11193"
           transform="rotate(-90,94.027246,-24.471026)">
          <path
             style="fill:none;fill-opacity:1;stroke:#000000;stroke-width:0.635;stroke-linecap:round;stroke-linejoin:bevel;stroke-dasharray:none;stroke-opacity:1;paint-order:normal"
             d="m 19.011962,-23.392467 3.948608,3.948609"
             id="path11189" />
          <path
             style="fill:none;fill-opacity:1;stroke:#000000;stroke-width:0.635;stroke-linecap:round;stroke-linejoin:bevel;stroke-dasharray:none;stroke-opacity:1;paint-order:normal"
             d="m 22.960571,-23.392466 -3.948609,3.948608"
             id="path11191" />
        </g>
        <g
           id="g11203"
           transform="rotate(-90,58.025878,58.65178)">
          <path
             style="fill:none;fill-opacity:1;stroke:#000000;stroke-width:0.635;stroke-linecap:round;stroke-dasharray:none;stroke-opacity:1"
             d="M 47.188971,93.282978 H 71.38099"
             id="path11195" />
          <path
             style="fill:none;fill-opacity:1;stroke:#000000;stroke-width:0.635;stroke-linecap:round;stroke-dasharray:none;stroke-opacity:1"
             d="M 47.188971,102.20399 H 71.38099"
             id="path11197" />
          <path
             style="fill:none;fill-opacity:1;stroke:#000000;stroke-width:0.635;stroke-linecap:round;stroke-dasharray:none;stroke-opacity:1"
             d="M 63.708076,85.610064 V 109.80208"
             id="path11199" />
          <path
             style="fill:none;fill-opacity:1;stroke:#000000;stroke-width:0.635;stroke-linecap:round;stroke-dasharray:none;stroke-opacity:1"
             d="M 54.787064,85.610064 V 109.80208"
             id="path11201" />
        </g>
      </g>
      <g
         id="g11211"
         transform="rotate(-90,164.19421,-71.490181)">
        <path
           style="fill:none;fill-opacity:1;stroke:#000000;stroke-width:0.635;stroke-linecap:round;stroke-linejoin:bevel;stroke-dasharray:none;stroke-opacity:1;paint-order:normal"
           d="m 19.011962,-23.392467 3.948608,3.948609"
           id="path11207" />
        <path
           style="fill:none;fill-opacity:1;stroke:#000000;stroke-width:0.635;stroke-linecap:round;stroke-linejoin:bevel;stroke-dasharray:none;stroke-opacity:1;paint-order:normal"
           d="m 22.960571,-23.392466 -3.948609,3.948608"
           id="path11209" />
      </g>
      <g
         aria-label="0/0"
         id="text11215"
         style="font-size:6.0457px;fill:#868e96;stroke:#868e96;stroke-width:0.396875;stroke-linecap:round;stroke-linejoin:bevel">
        <path
           d="m 202.87654,42.329144 q 0,1.183752 -0.37196,1.738729 -0.369,0.552024 -1.14833,0.552024 -0.79113,0 -1.15718,-0.56088 -0.3631,-0.560881 -0.3631,-1.723969 0,-1.171945 0.369,-1.729873 0.369,-0.560881 1.15128,-0.560881 0.79114,0 1.15424,0.569737 0.36605,0.566784 0.36605,1.715113 z m -0.77638,1.340209 q 0.10332,-0.239113 0.13874,-0.560881 0.0384,-0.32472 0.0384,-0.779328 0,-0.448705 -0.0384,-0.779329 -0.0354,-0.330624 -0.14169,-0.56088 -0.10332,-0.227304 -0.2834,-0.342432 -0.17712,-0.115129 -0.45756,-0.115129 -0.27748,0 -0.46051,0.115129 -0.18007,0.115128 -0.28634,0.348336 -0.10037,0.218448 -0.13875,0.569736 -0.0354,0.351288 -0.0354,0.770473 0,0.460512 0.0325,0.770472 0.0325,0.30996 0.13875,0.554977 0.0974,0.230256 0.27453,0.351288 0.18007,0.121032 0.47527,0.121032 0.27749,0 0.46052,-0.115128 0.18302,-0.115128 0.28339,-0.348336 z"
           id="path1358" />
        <path
           d="m 205.81378,39.93507 -2.11659,5.490724 h -0.51069 l 2.10773,-5.490724 z"
           id="path1360" />
        <path
           d="m 209.4654,42.329144 q 0,1.183752 -0.37195,1.738729 -0.369,0.552024 -1.14833,0.552024 -0.79113,0 -1.15718,-0.56088 -0.3631,-0.560881 -0.3631,-1.723969 0,-1.171945 0.369,-1.729873 0.369,-0.560881 1.15128,-0.560881 0.79114,0 1.15424,0.569737 0.36604,0.566784 0.36604,1.715113 z m -0.77637,1.340209 q 0.10332,-0.239113 0.13874,-0.560881 0.0384,-0.32472 0.0384,-0.779328 0,-0.448705 -0.0384,-0.779329 -0.0354,-0.330624 -0.14169,-0.56088 -0.10333,-0.227304 -0.2834,-0.342432 -0.17712,-0.115129 -0.45756,-0.115129 -0.27749,0 -0.46051,0.115129 -0.18007,0.115128 -0.28634,0.348336 -0.10037,0.218448 -0.13875,0.569736 -0.0354,0.351288 -0.0354,0.770473 0,0.460512 0.0325,0.770472 0.0325,0.30996 0.13874,0.554977 0.0974,0.230256 0.27454,0.351288 0.18007,0.121032 0.47527,0.121032 0.27749,0 0.46051,-0.115128 0.18303,-0.115128 0.2834,-0.348336 z"
           id="path1362" />
      </g>
      <path
         id="circle11217"
         style="fill:none;stroke:#000000;stroke-width:0.798406;stroke-linejoin:bevel"
         transform="rotate(90)"
         d="m 56.134094,-177.09605 a 2.2909579,2.2909579 0 0 1 -2.290958,2.29095 2.2909579,2.2909579 0 0 1 -2.290958,-2.29095 2.2909579,2.2909579 0 0 1 2.290958,-2.29096 2.2909579,2.2909579 0 0 1 2.290958,2.29096 z" />
      <g
         id="g11223"
         transform="rotate(90,70.476157,103.14082)">
        <path
           style="fill:none;fill-opacity:1;stroke:#000000;stroke-width:0.635;stroke-linecap:round;stroke-linejoin:bevel;stroke-dasharray:none;stroke-opacity:1;paint-order:normal"
           d="m 19.011962,-23.392467 3.948608,3.948609"
           id="path11219" />
        <path
           style="fill:none;fill-opacity:1;stroke:#000000;stroke-width:0.635;stroke-linecap:round;stroke-linejoin:bevel;stroke-dasharray:none;stroke-opacity:1;paint-order:normal"
           d="m 22.960571,-23.392466 -3.948609,3.948608"
           id="path11221" />
      </g>
      <path
         id="circle11225"
         style="fill:none;stroke:#000000;stroke-width:0.798406;stroke-linejoin:bevel"
         d="m 188.42084,62.684349 a 2.2909579,2.2909579 0 0 1 -2.29096,2.290958 2.2909579,2.2909579 0 0 1 -2.29096,-2.290958 2.2909579,2.2909579 0 0 1 2.29096,-2.290958 2.2909579,2.2909579 0 0 1 2.29096,2.290958 z" />
      <g
         aria-label="0/0"
         id="text11229"
         style="font-size:6.0457px;fill:#868e96;stroke:#868e96;stroke-width:0.396875;stroke-linecap:round;stroke-linejoin:bevel">
        <path
           d="m 184.35571,79.370812 q 0,1.183752 -0.37196,1.738729 -0.369,0.552024 -1.14832,0.552024 -0.79114,0 -1.15719,-0.56088 -0.36309,-0.560881 -0.36309,-1.723969 0,-1.171945 0.369,-1.729874 0.369,-0.56088 1.15128,-0.56088 0.79113,0 1.15423,0.569736 0.36605,0.566785 0.36605,1.715114 z m -0.77638,1.340209 q 0.10332,-0.239113 0.13874,-0.560881 0.0384,-0.32472 0.0384,-0.779328 0,-0.448705 -0.0384,-0.779329 -0.0354,-0.330624 -0.14169,-0.56088 -0.10332,-0.227304 -0.28339,-0.342433 -0.17712,-0.115128 -0.45756,-0.115128 -0.27749,0 -0.46052,0.115128 -0.18007,0.115129 -0.28634,0.348337 -0.10037,0.218448 -0.13874,0.569736 -0.0354,0.351288 -0.0354,0.770473 0,0.460512 0.0325,0.770472 0.0325,0.30996 0.13875,0.554977 0.0974,0.230256 0.27453,0.351288 0.18008,0.121032 0.47528,0.121032 0.27748,0 0.46051,-0.115128 0.18302,-0.115128 0.28339,-0.348336 z"
           id="path1367" />
        <path
           d="m 187.29295,76.976738 -2.11659,5.490724 h -0.51069 l 2.10773,-5.490724 z"
           id="path1369" />
        <path
           d="m 190.94458,79.370812 q 0,1.183752 -0.37196,1.738729 -0.369,0.552024 -1.14833,0.552024 -0.79113,0 -1.15718,-0.56088 -0.3631,-0.560881 -0.3631,-1.723969 0,-1.171945 0.369,-1.729874 0.369,-0.56088 1.15128,-0.56088 0.79114,0 1.15424,0.569736 0.36605,0.566785 0.36605,1.715114 z m -0.77638,1.340209 q 0.10332,-0.239113 0.13874,-0.560881 0.0384,-0.32472 0.0384,-0.779328 0,-0.448705 -0.0384,-0.779329 -0.0354,-0.330624 -0.14169,-0.56088 -0.10332,-0.227304 -0.2834,-0.342433 -0.17712,-0.115128 -0.45756,-0.115128 -0.27748,0 -0.46051,0.115128 -0.18007,0.115129 -0.28634,0.348337 -0.10037,0.218448 -0.13875,0.569736 -0.0354,0.351288 -0.0354,0.770473 0,0.460512 0.0325,0.770472 0.0325,0.30996 0.13875,0.554977 0.0974,0.230256 0.27453,0.351288 0.18007,0.121032 0.47527,0.121032 0.27749,0 0.46052,-0.115128 0.18302,-0.115128 0.28339,-0.348336 z"
           id="path1371" />
      </g>
      <g
         aria-label="0/0"
         id="text11233"
         style="font-size:6.0457px;fill:#868e96;stroke:#868e96;stroke-width:0.396875;stroke-linecap:round;stroke-linejoin:bevel">
        <path
           d="m 221.39736,79.370812 q 0,1.183752 -0.37195,1.738729 -0.369,0.552024 -1.14833,0.552024 -0.79113,0 -1.15718,-0.56088 -0.3631,-0.560881 -0.3631,-1.723969 0,-1.171945 0.369,-1.729874 0.369,-0.56088 1.15128,-0.56088 0.79114,0 1.15424,0.569736 0.36604,0.566785 0.36604,1.715114 z m -0.77637,1.340209 q 0.10332,-0.239113 0.13874,-0.560881 0.0384,-0.32472 0.0384,-0.779328 0,-0.448705 -0.0384,-0.779329 -0.0354,-0.330624 -0.14169,-0.56088 -0.10332,-0.227304 -0.2834,-0.342433 -0.17712,-0.115128 -0.45756,-0.115128 -0.27749,0 -0.46051,0.115128 -0.18007,0.115129 -0.28634,0.348337 -0.10037,0.218448 -0.13875,0.569736 -0.0354,0.351288 -0.0354,0.770473 0,0.460512 0.0325,0.770472 0.0325,0.30996 0.13874,0.554977 0.0974,0.230256 0.27454,0.351288 0.18007,0.121032 0.47527,0.121032 0.27749,0 0.46051,-0.115128 0.18303,-0.115128 0.2834,-0.348336 z"
           id="path1374" />
        <path
           d="m 224.33461,76.976738 -2.11659,5.490724 h -0.5107 l 2.10773,-5.490724 z"
           id="path1376" />
        <path
           d="m 227.98623,79.370812 q 0,1.183752 -0.37195,1.738729 -0.369,0.552024 -1.14833,0.552024 -0.79114,0 -1.15718,-0.56088 -0.3631,-0.560881 -0.3631,-1.723969 0,-1.171945 0.369,-1.729874 0.369,-0.56088 1.15128,-0.56088 0.79114,0 1.15423,0.569736 0.36605,0.566785 0.36605,1.715114 z m -0.77637,1.340209 q 0.10332,-0.239113 0.13874,-0.560881 0.0384,-0.32472 0.0384,-0.779328 0,-0.448705 -0.0384,-0.779329 -0.0354,-0.330624 -0.1417,-0.56088 -0.10332,-0.227304 -0.28339,-0.342433 -0.17712,-0.115128 -0.45756,-0.115128 -0.27749,0 -0.46051,0.115128 -0.18007,0.115129 -0.28635,0.348337 -0.10036,0.218448 -0.13874,0.569736 -0.0354,0.351288 -0.0354,0.770473 0,0.460512 0.0325,0.770472 0.0325,0.30996 0.13874,0.554977 0.0974,0.230256 0.27454,0.351288 0.18007,0.121032 0.47527,0.121032 0.27749,0 0.46051,-0.115128 0.18303,-0.115128 0.2834,-0.348336 z"
           id="path1378" />
      </g>
      <path
         style="fill:none;fill-opacity:1;stroke:#66a80f;stroke-width:0.396875;stroke-linecap:round;stroke-linejoin:bevel;stroke-dasharray:none;stroke-opacity:1"
         d="m 195.35306,39.465143 c 0,0 -6.40668,2.178272 -7.55988,8.713083"
         id="path11235" />
      <path
         style="fill:none;fill-opacity:1;stroke:#66a80f;stroke-width:0.396875;stroke-linecap:round;stroke-linejoin:bevel;stroke-dasharray:none;stroke-opacity:1"
         d="m 213.29176,37.92754 c 0,0 7.04735,1.537603 9.61002,9.866287"
         id="path11237" />
    </g>
    <path
       id="circle2438"
       style="fill:none;stroke:#000000;stroke-width:0.798406;stroke-linejoin:bevel"
       transform="rotate(90)"
       d="m 96.637249,-179.95155 a 2.2909579,2.2909579 0 0 1 -2.290958,2.29095 2.2909579,2.2909579 0 0 1 -2.290958,-2.29095 2.2909579,2.2909579 0 0 1 2.290958,-2.29096 2.2909579,2.2909579 0 0 1 2.290958,2.29096 z" />
    <g
       id="g2446"
       transform="translate(128.94684,45.794819)">
      <g
         id="g2444"
         transform="rotate(90,10.076322,37.449316)">
        <path
           style="fill:none;fill-opacity:1;stroke:#000000;stroke-width:0.635;stroke-linecap:round;stroke-linejoin:bevel;stroke-dasharray:none;stroke-opacity:1;paint-order:normal"
           d="m 19.011962,-23.392467 3.948608,3.948609"
           id="path2440" />
        <path
           style="fill:none;fill-opacity:1;stroke:#000000;stroke-width:0.635;stroke-linecap:round;stroke-linejoin:bevel;stroke-dasharray:none;stroke-opacity:1;paint-order:normal"
           d="m 22.960571,-23.392466 -3.948609,3.948608"
           id="path2442" />
      </g>
    </g>
    <path
       id="circle2448"
       style="fill:none;stroke:#000000;stroke-width:0.798406;stroke-linejoin:bevel"
       d="m 191.27634,103.1875 a 2.2909579,2.2909579 0 0 1 -2.29096,2.29096 2.2909579,2.2909579 0 0 1 -2.29096,-2.29096 2.2909579,2.2909579 0 0 1 2.29096,-2.29096 2.2909579,2.2909579 0 0 1 2.29096,2.29096 z" />
    <g
       id="g2454"
       transform="rotate(-90,167.3527,-34.145522)">
      <path
         style="fill:none;fill-opacity:1;stroke:#000000;stroke-width:0.635;stroke-linecap:round;stroke-linejoin:bevel;stroke-dasharray:none;stroke-opacity:1;paint-order:normal"
         d="m 19.011962,-23.392467 3.948608,3.948609"
         id="path2450" />
      <path
         style="fill:none;fill-opacity:1;stroke:#000000;stroke-width:0.635;stroke-linecap:round;stroke-linejoin:bevel;stroke-dasharray:none;stroke-opacity:1;paint-order:normal"
         d="m 22.960571,-23.392466 -3.948609,3.948608"
         id="path2452" />
    </g>
    <g
       id="g2474"
       transform="rotate(90,101.61451,144.7635)">
      <g
         id="g2464"
         transform="rotate(-90,39.505047,77.172611)">
        <path
           style="fill:none;fill-opacity:1;stroke:#000000;stroke-width:0.635;stroke-linecap:round;stroke-dasharray:none;stroke-opacity:1"
           d="M 47.188971,93.282978 H 71.38099"
           id="path2456" />
        <path
           style="fill:none;fill-opacity:1;stroke:#000000;stroke-width:0.635;stroke-linecap:round;stroke-dasharray:none;stroke-opacity:1"
           d="M 47.188971,102.20399 H 71.38099"
           id="path2458" />
        <path
           style="fill:none;fill-opacity:1;stroke:#000000;stroke-width:0.635;stroke-linecap:round;stroke-dasharray:none;stroke-opacity:1"
           d="M 63.708076,85.610064 V 109.80208"
           id="path2460" />
        <path
           style="fill:none;fill-opacity:1;stroke:#000000;stroke-width:0.635;stroke-linecap:round;stroke-dasharray:none;stroke-opacity:1"
           d="M 54.787064,85.610064 V 109.80208"
           id="path2462" />
      </g>
      <g
         id="g2472">
        <g
           id="g2470"
           transform="rotate(90,10.076322,37.449316)">
          <path
             style="fill:none;fill-opacity:1;stroke:#000000;stroke-width:0.635;stroke-linecap:round;stroke-linejoin:bevel;stroke-dasharray:none;stroke-opacity:1;paint-order:normal"
             d="m 19.011962,-23.392467 3.948608,3.948609"
             id="path2466" />
          <path
             style="fill:none;fill-opacity:1;stroke:#000000;stroke-width:0.635;stroke-linecap:round;stroke-linejoin:bevel;stroke-dasharray:none;stroke-opacity:1;paint-order:normal"
             d="m 22.960571,-23.392466 -3.948609,3.948608"
             id="path2468" />
        </g>
      </g>
    </g>
    <path
       id="circle2840"
       style="fill:none;stroke:#000000;stroke-width:0.798406;stroke-linejoin:bevel"
       d="m 191.27631,112.22132 a 2.2909579,2.2909579 0 0 1 -2.29096,2.29096 2.2909579,2.2909579 0 0 1 -2.29096,-2.29096 2.2909579,2.2909579 0 0 1 2.29096,-2.29096 2.2909579,2.2909579 0 0 1 2.29096,2.29096 z" />
    <g
       id="g2846"
       transform="rotate(-90,162.87724,-47.526195)">
      <path
         style="fill:none;fill-opacity:1;stroke:#000000;stroke-width:0.635;stroke-linecap:round;stroke-linejoin:bevel;stroke-dasharray:none;stroke-opacity:1;paint-order:normal"
         d="m 19.011962,-23.392467 3.948608,3.948609"
         id="path2842" />
      <path
         style="fill:none;fill-opacity:1;stroke:#000000;stroke-width:0.635;stroke-linecap:round;stroke-linejoin:bevel;stroke-dasharray:none;stroke-opacity:1;paint-order:normal"
         d="m 22.960571,-23.392466 -3.948609,3.948608"
         id="path2844" />
    </g>
    <path
       id="circle3350"
       style="fill:none;stroke:#000000;stroke-width:0.798406;stroke-linejoin:bevel"
       transform="rotate(90)"
       d="m 133.67891,-179.95155 a 2.2909579,2.2909579 0 0 1 -2.29096,2.29095 2.2909579,2.2909579 0 0 1 -2.29095,-2.29095 2.2909579,2.2909579 0 0 1 2.29095,-2.29096 2.2909579,2.2909579 0 0 1 2.29096,2.29096 z" />
    <g
       id="g3356"
       transform="rotate(90,33.131496,143.34097)">
      <path
         style="fill:none;fill-opacity:1;stroke:#000000;stroke-width:0.635;stroke-linecap:round;stroke-linejoin:bevel;stroke-dasharray:none;stroke-opacity:1;paint-order:normal"
         d="m 19.011962,-23.392467 3.948608,3.948609"
         id="path3352" />
      <path
         style="fill:none;fill-opacity:1;stroke:#000000;stroke-width:0.635;stroke-linecap:round;stroke-linejoin:bevel;stroke-dasharray:none;stroke-opacity:1;paint-order:normal"
         d="m 22.960571,-23.392466 -3.948609,3.948608"
         id="path3354" />
    </g>
    <path
       id="circle3360"
       style="fill:none;stroke:#000000;stroke-width:0.798406;stroke-linejoin:bevel"
       d="m 191.27634,140.22916 a 2.2909579,2.2909579 0 0 1 -2.29096,2.29095 2.2909579,2.2909579 0 0 1 -2.29096,-2.29095 2.2909579,2.2909579 0 0 1 2.29096,-2.29096 2.2909579,2.2909579 0 0 1 2.29096,2.29096 z" />
    <path
       style="fill:none;fill-opacity:1;stroke:#000000;stroke-width:0.635;stroke-linecap:round;stroke-linejoin:bevel;stroke-dasharray:none;stroke-opacity:1;paint-order:normal"
       d="m 178.10576,151.23688 3.94861,-3.94861"
       id="path3362" />
    <path
       style="fill:none;fill-opacity:1;stroke:#000000;stroke-width:0.635;stroke-linecap:round;stroke-linejoin:bevel;stroke-dasharray:none;stroke-opacity:1;paint-order:normal"
       d="m 178.10576,147.28827 3.94861,3.94861"
       id="path3364" />
    <g
       id="g3382"
       transform="rotate(180,109.50251,63.858148)">
      <path
         style="fill:none;fill-opacity:1;stroke:#000000;stroke-width:0.635;stroke-linecap:round;stroke-linejoin:bevel;stroke-dasharray:none;stroke-opacity:1;paint-order:normal"
         d="m 19.011962,-23.392467 3.948608,3.948609"
         id="path3378" />
      <path
         style="fill:none;fill-opacity:1;stroke:#000000;stroke-width:0.635;stroke-linecap:round;stroke-linejoin:bevel;stroke-dasharray:none;stroke-opacity:1;paint-order:normal"
         d="m 22.960571,-23.392466 -3.948609,3.948608"
         id="path3380" />
    </g>
    <path
       id="circle3388"
       style="fill:none;stroke:#000000;stroke-width:0.798406;stroke-linejoin:bevel"
       d="m 191.27631,149.26299 a 2.2909579,2.2909579 0 0 1 -2.29096,2.29095 2.2909579,2.2909579 0 0 1 -2.29096,-2.29095 2.2909579,2.2909579 0 0 1 2.29096,-2.29096 2.2909579,2.2909579 0 0 1 2.29096,2.29096 z" />
    <path
       style="fill:none;fill-opacity:1;stroke:#000000;stroke-width:0.635;stroke-linecap:round;stroke-linejoin:bevel;stroke-dasharray:none;stroke-opacity:1;paint-order:normal"
       d="m 187.01097,133.38075 3.94861,-3.94861"
       id="path3390" />
    <path
       style="fill:none;fill-opacity:1;stroke:#000000;stroke-width:0.635;stroke-linecap:round;stroke-linejoin:bevel;stroke-dasharray:none;stroke-opacity:1;paint-order:normal"
       d="m 187.01097,129.43214 3.94861,3.94861"
       id="path3392" />
    <g
       id="g3376"
       transform="rotate(-90,145.3967,54.117439)">
      <path
         style="fill:none;fill-opacity:1;stroke:#000000;stroke-width:0.635;stroke-linecap:round;stroke-dasharray:none;stroke-opacity:1"
         d="M 47.188971,93.282978 H 71.38099"
         id="path3368" />
      <path
         style="fill:none;fill-opacity:1;stroke:#000000;stroke-width:0.635;stroke-linecap:round;stroke-dasharray:none;stroke-opacity:1"
         d="M 47.188971,102.20399 H 71.38099"
         id="path3370" />
      <path
         style="fill:none;fill-opacity:1;stroke:#000000;stroke-width:0.635;stroke-linecap:round;stroke-dasharray:none;stroke-opacity:1"
         d="M 63.708076,85.610064 V 109.80208"
         id="path3372" />
      <path
         style="fill:none;fill-opacity:1;stroke:#000000;stroke-width:0.635;stroke-linecap:round;stroke-dasharray:none;stroke-opacity:1"
         d="M 54.787064,85.610064 V 109.80208"
         id="path3374" />
    </g>
    <g
       id="g3797"
       transform="rotate(180,100.57444,59.405532)">
      <path
         style="fill:none;fill-opacity:1;stroke:#000000;stroke-width:0.635;stroke-linecap:round;stroke-linejoin:bevel;stroke-dasharray:none;stroke-opacity:1;paint-order:normal"
         d="m 19.011962,-23.392467 3.948608,3.948609"
         id="path3793" />
      <path
         style="fill:none;fill-opacity:1;stroke:#000000;stroke-width:0.635;stroke-linecap:round;stroke-linejoin:bevel;stroke-dasharray:none;stroke-opacity:1;paint-order:normal"
         d="m 22.960571,-23.392466 -3.948609,3.948608"
         id="path3795" />
    </g>
    <path
       id="circle4049"
       style="fill:none;stroke:#000000;stroke-width:0.798406;stroke-linejoin:bevel"
       transform="rotate(90)"
       d="m 170.72058,-179.95155 a 2.2909579,2.2909579 0 0 1 -2.29095,2.29095 2.2909579,2.2909579 0 0 1 -2.29096,-2.29095 2.2909579,2.2909579 0 0 1 2.29096,-2.29096 2.2909579,2.2909579 0 0 1 2.29095,2.29096 z" />
    <g
       id="g4055"
       transform="rotate(90,14.610658,161.86181)">
      <path
         style="fill:none;fill-opacity:1;stroke:#000000;stroke-width:0.635;stroke-linecap:round;stroke-linejoin:bevel;stroke-dasharray:none;stroke-opacity:1;paint-order:normal"
         d="m 19.011962,-23.392467 3.948608,3.948609"
         id="path4051" />
      <path
         style="fill:none;fill-opacity:1;stroke:#000000;stroke-width:0.635;stroke-linecap:round;stroke-linejoin:bevel;stroke-dasharray:none;stroke-opacity:1;paint-order:normal"
         d="m 22.960571,-23.392466 -3.948609,3.948608"
         id="path4053" />
    </g>
    <path
       id="circle4057"
       style="fill:none;stroke:#000000;stroke-width:0.798406;stroke-linejoin:bevel"
       d="m 191.27634,177.27083 a 2.2909579,2.2909579 0 0 1 -2.29096,2.29096 2.2909579,2.2909579 0 0 1 -2.29096,-2.29096 2.2909579,2.2909579 0 0 1 2.29096,-2.29096 2.2909579,2.2909579 0 0 1 2.29096,2.29096 z" />
    <path
       style="fill:none;fill-opacity:1;stroke:#000000;stroke-width:0.635;stroke-linecap:round;stroke-linejoin:bevel;stroke-dasharray:none;stroke-opacity:1;paint-order:normal"
       d="m 178.10576,188.27856 3.94861,-3.94861"
       id="path4059" />
    <path
       style="fill:none;fill-opacity:1;stroke:#000000;stroke-width:0.635;stroke-linecap:round;stroke-linejoin:bevel;stroke-dasharray:none;stroke-opacity:1;paint-order:normal"
       d="m 178.10576,184.32995 3.94861,3.94861"
       id="path4061" />
    <g
       id="g4067"
       transform="rotate(180,109.50251,82.378986)">
      <path
         style="fill:none;fill-opacity:1;stroke:#000000;stroke-width:0.635;stroke-linecap:round;stroke-linejoin:bevel;stroke-dasharray:none;stroke-opacity:1;paint-order:normal"
         d="m 19.011962,-23.392467 3.948608,3.948609"
         id="path4063" />
      <path
         style="fill:none;fill-opacity:1;stroke:#000000;stroke-width:0.635;stroke-linecap:round;stroke-linejoin:bevel;stroke-dasharray:none;stroke-opacity:1;paint-order:normal"
         d="m 22.960571,-23.392466 -3.948609,3.948608"
         id="path4065" />
    </g>
    <path
       id="circle4069"
       style="fill:none;stroke:#000000;stroke-width:0.798406;stroke-linejoin:bevel"
       d="m 191.27631,186.30466 a 2.2909579,2.2909579 0 0 1 -2.29096,2.29095 2.2909579,2.2909579 0 0 1 -2.29096,-2.29095 2.2909579,2.2909579 0 0 1 2.29096,-2.29096 2.2909579,2.2909579 0 0 1 2.29096,2.29096 z" />
    <path
       style="fill:none;fill-opacity:1;stroke:#000000;stroke-width:0.635;stroke-linecap:round;stroke-linejoin:bevel;stroke-dasharray:none;stroke-opacity:1;paint-order:normal"
       d="m 187.01097,170.42243 3.94861,-3.94861"
       id="path4071" />
    <path
       style="fill:none;fill-opacity:1;stroke:#000000;stroke-width:0.635;stroke-linecap:round;stroke-linejoin:bevel;stroke-dasharray:none;stroke-opacity:1;paint-order:normal"
       d="m 187.01097,166.47382 3.94861,3.94861"
       id="path4073" />
    <g
       id="g4089"
       transform="rotate(180,100.57444,77.92637)">
      <path
         style="fill:none;fill-opacity:1;stroke:#000000;stroke-width:0.635;stroke-linecap:round;stroke-linejoin:bevel;stroke-dasharray:none;stroke-opacity:1;paint-order:normal"
         d="m 19.011962,-23.392467 3.948608,3.948609"
         id="path4085" />
      <path
         style="fill:none;fill-opacity:1;stroke:#000000;stroke-width:0.635;stroke-linecap:round;stroke-linejoin:bevel;stroke-dasharray:none;stroke-opacity:1;paint-order:normal"
         d="m 22.960571,-23.392466 -3.948609,3.948608"
         id="path4087" />
    </g>
    <g
       id="g4313"
       transform="rotate(-90,189.28839,174.11241)">
      <g
         id="g4083"
         transform="rotate(-90,160.75911,72.335218)">
        <path
           style="fill:none;fill-opacity:1;stroke:#000000;stroke-width:0.635;stroke-linecap:round;stroke-dasharray:none;stroke-opacity:1"
           d="M 47.188971,93.282978 H 71.38099"
           id="path4075" />
        <path
           style="fill:none;fill-opacity:1;stroke:#000000;stroke-width:0.635;stroke-linecap:round;stroke-dasharray:none;stroke-opacity:1"
           d="M 47.188971,102.20399 H 71.38099"
           id="path4077" />
        <path
           style="fill:none;fill-opacity:1;stroke:#000000;stroke-width:0.635;stroke-linecap:round;stroke-dasharray:none;stroke-opacity:1"
           d="M 63.708076,85.610064 V 109.80208"
           id="path4079" />
        <path
           style="fill:none;fill-opacity:1;stroke:#000000;stroke-width:0.635;stroke-linecap:round;stroke-dasharray:none;stroke-opacity:1"
           d="M 54.787064,85.610064 V 109.80208"
           id="path4081" />
      </g>
      <path
         id="circle4305"
         style="fill:none;stroke:#000000;stroke-width:0.798406;stroke-linejoin:bevel"
         d="m 188.42093,182.84317 a 2.2909579,2.2909579 0 0 1 -2.29096,2.29096 2.2909579,2.2909579 0 0 1 -2.29095,-2.29096 2.2909579,2.2909579 0 0 1 2.29095,-2.29096 2.2909579,2.2909579 0 0 1 2.29096,2.29096 z" />
    </g>
    <g
       id="g6265"
       style="stroke:#d6336c;stroke-opacity:1"
       transform="translate(2.8553761,3.4614933)">
      <path
         style="fill:none;stroke:#d6336c;stroke-width:0.396875;stroke-linecap:round;stroke-linejoin:bevel;stroke-opacity:1"
         d="m 169.48265,71.314565 c 0,0 -7.60863,10.392278 0.37116,22.825893"
         id="path4585" />
      <path
         style="fill:none;stroke:#d6336c;stroke-width:0.396875;stroke-linecap:round;stroke-linejoin:bevel;stroke-opacity:1"
         d="m 169.85381,102.30582 c 0,0 -10.02113,13.54707 -0.37116,30.62009"
         id="path4587" />
      <path
         style="fill:none;stroke:#d6336c;stroke-width:0.396875;stroke-linecap:round;stroke-linejoin:bevel;stroke-opacity:1"
         d="m 169.48265,143.87492 c 0,0 -8.16536,11.50574 -0.37115,23.93935"
         id="path4589" />
    </g>
    <text
       xml:space="preserve"
       transform="matrix(0.26458335,0,0,0.26458335,38.836899,13.229166)"
       id="text11567"
       style="white-space:pre;shape-inside:url(#rect11569);display:inline;fill:#d6336c;fill-opacity:1;stroke:#d6336c;stroke-width:1.5;stroke-linecap:round;stroke-linejoin:bevel;stroke-opacity:1" />
  </g>
</svg>
