<?xml version="1.0" encoding="UTF-8" standalone="no"?>
<!-- Created with Inkscape (http://www.inkscape.org/) -->

<svg
   width="256"
   height="300"
   viewBox="0 0 67.733334 79.375006"
   version="1.1"
   id="svg5"
   inkscape:version="1.2.1 (9c6d41e, 2022-07-14)"
   sodipodi:docname="fig-7.svg"
   xmlns:inkscape="http://www.inkscape.org/namespaces/inkscape"
   xmlns:sodipodi="http://sodipodi.sourceforge.net/DTD/sodipodi-0.dtd"
   xmlns="http://www.w3.org/2000/svg"
   xmlns:svg="http://www.w3.org/2000/svg">
  <sodipodi:namedview
     id="namedview7"
     pagecolor="#ffffff"
     bordercolor="#999999"
     borderopacity="1"
     inkscape:showpageshadow="0"
     inkscape:pageopacity="0"
     inkscape:pagecheckerboard="0"
     inkscape:deskcolor="#d1d1d1"
     inkscape:document-units="px"
     showgrid="false"
     inkscape:zoom="1.2219121"
     inkscape:cx="89.204453"
     inkscape:cy="151.81125"
     inkscape:window-width="1512"
     inkscape:window-height="843"
     inkscape:window-x="0"
     inkscape:window-y="38"
     inkscape:window-maximized="1"
     inkscape:current-layer="layer1" />
  <defs
     id="defs2">
    <rect
       x="1592.5861"
       y="439.47516"
       width="152.62964"
       height="61.788406"
       id="rect11569" />
  </defs>
  <g
     inkscape:label="Layer 1"
     inkscape:groupmode="layer"
     id="layer1"
     transform="translate(-348.60471,-13.229166)">
    <path
       id="circle8207"
       style="fill:none;stroke:#000000;stroke-width:0.798406;stroke-linejoin:bevel"
       d="m 373.43757,21.415726 a 2.2909579,2.2909579 0 0 1 -2.29096,-2.290958 2.2909579,2.2909579 0 0 1 2.29096,-2.290958 2.2909579,2.2909579 0 0 1 2.29096,2.290958 2.2909579,2.2909579 0 0 1 -2.29096,2.290958 z" />
    <g
       id="g8213"
       transform="rotate(90,186.00611,183.9524)">
      <path
         style="fill:none;fill-opacity:1;stroke:#000000;stroke-width:0.635;stroke-linecap:round;stroke-linejoin:bevel;stroke-dasharray:none;stroke-opacity:1;paint-order:normal"
         d="m 19.011962,-23.392467 3.948608,3.948609"
         id="path8209" />
      <path
         style="fill:none;fill-opacity:1;stroke:#000000;stroke-width:0.635;stroke-linecap:round;stroke-linejoin:bevel;stroke-dasharray:none;stroke-opacity:1;paint-order:normal"
         d="m 22.960571,-23.392466 -3.948609,3.948608"
         id="path8211" />
    </g>
    <path
       id="circle8215"
       style="fill:none;stroke:#000000;stroke-width:0.798406;stroke-linejoin:bevel"
       d="m 384.76234,27.96598 a 2.2909579,2.2909579 0 0 1 -2.29096,2.290958 2.2909579,2.2909579 0 0 1 -2.29096,-2.290958 2.2909579,2.2909579 0 0 1 2.29096,-2.290958 2.2909579,2.2909579 0 0 1 2.29096,2.290958 z" />
    <g
       id="g8233"
       transform="rotate(180,245.673,34.00073)">
      <g
         id="g8225"
         transform="rotate(90,112.9151,93.665602)">
        <path
           style="fill:none;fill-opacity:1;stroke:#000000;stroke-width:0.635;stroke-linecap:round;stroke-dasharray:none;stroke-opacity:1"
           d="M 47.188971,93.282978 H 71.38099"
           id="path8217" />
        <path
           style="fill:none;fill-opacity:1;stroke:#000000;stroke-width:0.635;stroke-linecap:round;stroke-dasharray:none;stroke-opacity:1"
           d="M 47.188971,102.20399 H 71.38099"
           id="path8219" />
        <path
           style="fill:none;fill-opacity:1;stroke:#000000;stroke-width:0.635;stroke-linecap:round;stroke-dasharray:none;stroke-opacity:1"
           d="M 63.708076,85.610064 V 109.80208"
           id="path8221" />
        <path
           style="fill:none;fill-opacity:1;stroke:#000000;stroke-width:0.635;stroke-linecap:round;stroke-dasharray:none;stroke-opacity:1"
           d="M 54.787064,85.610064 V 109.80208"
           id="path8223" />
      </g>
      <g
         id="g8231"
         transform="rotate(90,43.172974,53.188774)">
        <path
           style="fill:none;fill-opacity:1;stroke:#000000;stroke-width:0.635;stroke-linecap:round;stroke-linejoin:bevel;stroke-dasharray:none;stroke-opacity:1;paint-order:normal"
           d="m 19.011962,-23.392467 3.948608,3.948609"
           id="path8227" />
        <path
           style="fill:none;fill-opacity:1;stroke:#000000;stroke-width:0.635;stroke-linecap:round;stroke-linejoin:bevel;stroke-dasharray:none;stroke-opacity:1;paint-order:normal"
           d="m 22.960571,-23.392466 -3.948609,3.948608"
           id="path8229" />
      </g>
    </g>
    <g
       aria-label="0.5/2"
       id="text8309"
       style="font-size:6.0457px;fill:#868e96;stroke:#868e96;stroke-width:0.396875;stroke-linecap:round;stroke-linejoin:bevel"
       transform="translate(2.9323206,2.3233015)">
      <path
         d="m 374.86604,42.329144 q 0,1.183752 -0.37195,1.738729 -0.36901,0.552024 -1.14833,0.552024 -0.79114,0 -1.15719,-0.56088 -0.36309,-0.560881 -0.36309,-1.723969 0,-1.171945 0.369,-1.729873 0.369,-0.560881 1.15128,-0.560881 0.79113,0 1.15423,0.569737 0.36605,0.566784 0.36605,1.715113 z m -0.77638,1.340209 q 0.10332,-0.239113 0.13874,-0.560881 0.0384,-0.32472 0.0384,-0.779328 0,-0.448705 -0.0384,-0.779329 -0.0354,-0.330624 -0.14169,-0.56088 -0.10332,-0.227304 -0.28339,-0.342432 -0.17712,-0.115129 -0.45756,-0.115129 -0.27749,0 -0.46052,0.115129 -0.18007,0.115128 -0.28634,0.348336 -0.10037,0.218448 -0.13874,0.569736 -0.0354,0.351288 -0.0354,0.770473 0,0.460512 0.0325,0.770472 0.0325,0.30996 0.13875,0.554977 0.0974,0.230256 0.27453,0.351288 0.18008,0.121032 0.47528,0.121032 0.27748,0 0.46051,-0.115128 0.18302,-0.115128 0.28339,-0.348336 z"
         id="path891" />
      <path
         d="m 376.71694,44.528385 h -0.70553 v -0.84132 h 0.70553 z"
         id="path893" />
      <path
         d="m 380.87927,43.132088 q 0,0.307008 -0.11218,0.587449 -0.11218,0.28044 -0.30701,0.47232 -0.21254,0.20664 -0.50774,0.318816 -0.29225,0.109224 -0.67896,0.109224 -0.36015,0 -0.69372,-0.07675 -0.33358,-0.0738 -0.56384,-0.180072 v -0.622872 h 0.0413 q 0.24207,0.153504 0.56679,0.262728 0.32472,0.106272 0.63763,0.106272 0.20959,0 0.40442,-0.05904 0.19779,-0.05904 0.35129,-0.20664 0.12989,-0.126936 0.19483,-0.304057 0.0679,-0.17712 0.0679,-0.410328 0,-0.227304 -0.0797,-0.38376 -0.0768,-0.156456 -0.21549,-0.25092 -0.15351,-0.112176 -0.37491,-0.156456 -0.21844,-0.04723 -0.49003,-0.04723 -0.25977,0 -0.50184,0.03542 -0.23911,0.03542 -0.41328,0.07085 v -2.264186 h 2.645 v 0.516601 h -2.07526 v 1.168992 q 0.12693,-0.01181 0.25977,-0.01771 0.13284,-0.0059 0.23026,-0.0059 0.35719,0 0.62582,0.06199 0.26864,0.05904 0.49299,0.212545 0.23616,0.16236 0.36605,0.419184 0.12989,0.256824 0.12989,0.643536 z"
         id="path895" />
      <path
         d="m 383.84603,39.93507 -2.11659,5.490724 h -0.51069 l 2.10772,-5.490724 z"
         id="path897" />
      <path
         d="m 387.50356,44.528385 h -2.97562 v -0.616968 q 0.30996,-0.26568 0.61992,-0.531361 0.31291,-0.26568 0.58154,-0.528408 0.56679,-0.549072 0.77638,-0.870841 0.20959,-0.32472 0.20959,-0.699624 0,-0.342432 -0.2273,-0.534312 -0.22435,-0.194833 -0.62878,-0.194833 -0.26863,0 -0.58154,0.09446 -0.31291,0.09446 -0.61107,0.289296 h -0.0295 v -0.619921 q 0.2096,-0.10332 0.55793,-0.188928 0.35129,-0.08561 0.67896,-0.08561 0.67601,0 1.05977,0.327672 0.38376,0.324721 0.38376,0.882649 0,0.25092 -0.0649,0.469368 -0.062,0.215496 -0.18598,0.410329 -0.11513,0.183024 -0.27158,0.360144 -0.15351,0.17712 -0.37491,0.392616 -0.31586,0.30996 -0.65239,0.602208 -0.33653,0.289297 -0.62878,0.537265 h 2.36456 z"
         id="path899" />
    </g>
    <g
       id="g1316">
      <path
         id="circle8235"
         style="fill:none;stroke:#000000;stroke-width:0.798406;stroke-linejoin:bevel"
         d="m 354.91676,58.457392 a 2.2909579,2.2909579 0 0 1 -2.29096,-2.290958 2.2909579,2.2909579 0 0 1 2.29096,-2.290958 2.2909579,2.2909579 0 0 1 2.29095,2.290958 2.2909579,2.2909579 0 0 1 -2.29095,2.290958 z" />
      <g
         id="g8243"
         transform="translate(303.91203,7.6149668)">
        <g
           id="g8241"
           transform="rotate(90,10.076322,37.449316)">
          <path
             style="fill:none;fill-opacity:1;stroke:#000000;stroke-width:0.635;stroke-linecap:round;stroke-linejoin:bevel;stroke-dasharray:none;stroke-opacity:1;paint-order:normal"
             d="m 19.011962,-23.392467 3.948608,3.948609"
             id="path8237" />
          <path
             style="fill:none;fill-opacity:1;stroke:#000000;stroke-width:0.635;stroke-linecap:round;stroke-linejoin:bevel;stroke-dasharray:none;stroke-opacity:1;paint-order:normal"
             d="m 22.960571,-23.392466 -3.948609,3.948608"
             id="path8239" />
        </g>
      </g>
      <path
         id="circle8245"
         style="fill:none;stroke:#000000;stroke-width:0.798406;stroke-linejoin:bevel"
         d="m 366.24153,65.007647 a 2.2909579,2.2909579 0 0 1 -2.29096,2.290957 2.2909579,2.2909579 0 0 1 -2.29096,-2.290958 2.2909579,2.2909579 0 0 1 2.29096,-2.290958 2.2909579,2.2909579 0 0 1 2.29096,2.290959 z" />
      <g
         id="g8251"
         transform="rotate(-90,235.74538,-140.71805)">
        <path
           style="fill:none;fill-opacity:1;stroke:#000000;stroke-width:0.635;stroke-linecap:round;stroke-linejoin:bevel;stroke-dasharray:none;stroke-opacity:1;paint-order:normal"
           d="m 19.011962,-23.392467 3.948608,3.948609"
           id="path8247" />
        <path
           style="fill:none;fill-opacity:1;stroke:#000000;stroke-width:0.635;stroke-linecap:round;stroke-linejoin:bevel;stroke-dasharray:none;stroke-opacity:1;paint-order:normal"
           d="m 22.960571,-23.392466 -3.948609,3.948608"
           id="path8249" />
      </g>
      <g
         id="g8271"
         transform="rotate(90,208.18704,213.15618)">
        <g
           id="g8261"
           transform="rotate(-90,39.505047,77.172611)">
          <path
             style="fill:none;fill-opacity:1;stroke:#000000;stroke-width:0.635;stroke-linecap:round;stroke-dasharray:none;stroke-opacity:1"
             d="M 47.188971,93.282978 H 71.38099"
             id="path8253" />
          <path
             style="fill:none;fill-opacity:1;stroke:#000000;stroke-width:0.635;stroke-linecap:round;stroke-dasharray:none;stroke-opacity:1"
             d="M 47.188971,102.20399 H 71.38099"
             id="path8255" />
          <path
             style="fill:none;fill-opacity:1;stroke:#000000;stroke-width:0.635;stroke-linecap:round;stroke-dasharray:none;stroke-opacity:1"
             d="M 63.708076,85.610064 V 109.80208"
             id="path8257" />
          <path
             style="fill:none;fill-opacity:1;stroke:#000000;stroke-width:0.635;stroke-linecap:round;stroke-dasharray:none;stroke-opacity:1"
             d="M 54.787064,85.610064 V 109.80208"
             id="path8259" />
        </g>
        <g
           id="g8269">
          <g
             id="g8267"
             transform="rotate(90,10.076322,37.449316)">
            <path
               style="fill:none;fill-opacity:1;stroke:#000000;stroke-width:0.635;stroke-linecap:round;stroke-linejoin:bevel;stroke-dasharray:none;stroke-opacity:1;paint-order:normal"
               d="m 19.011962,-23.392467 3.948608,3.948609"
               id="path8263" />
            <path
               style="fill:none;fill-opacity:1;stroke:#000000;stroke-width:0.635;stroke-linecap:round;stroke-linejoin:bevel;stroke-dasharray:none;stroke-opacity:1;paint-order:normal"
               d="m 22.960571,-23.392466 -3.948609,3.948608"
               id="path8265" />
          </g>
        </g>
      </g>
      <path
         id="circle8311"
         style="fill:none;stroke:#000000;stroke-width:0.798406;stroke-linejoin:bevel"
         d="m 354.91676,58.457396 a 2.2909579,2.2909579 0 0 1 -2.29096,-2.290958 2.2909579,2.2909579 0 0 1 2.29096,-2.290958 2.2909579,2.2909579 0 0 1 2.29095,2.290958 2.2909579,2.2909579 0 0 1 -2.29095,2.290958 z" />
      <g
         id="g8317"
         transform="rotate(90,158.22486,193.21282)">
        <path
           style="fill:none;fill-opacity:1;stroke:#000000;stroke-width:0.635;stroke-linecap:round;stroke-linejoin:bevel;stroke-dasharray:none;stroke-opacity:1;paint-order:normal"
           d="m 19.011962,-23.392467 3.948608,3.948609"
           id="path8313" />
        <path
           style="fill:none;fill-opacity:1;stroke:#000000;stroke-width:0.635;stroke-linecap:round;stroke-linejoin:bevel;stroke-dasharray:none;stroke-opacity:1;paint-order:normal"
           d="m 22.960571,-23.392466 -3.948609,3.948608"
           id="path8315" />
      </g>
      <path
         id="circle8319"
         style="fill:none;stroke:#000000;stroke-width:0.798406;stroke-linejoin:bevel"
         d="m 366.24153,65.00765 a 2.2909579,2.2909579 0 0 1 -2.29096,2.290958 2.2909579,2.2909579 0 0 1 -2.29096,-2.290958 2.2909579,2.2909579 0 0 1 2.29096,-2.290958 2.2909579,2.2909579 0 0 1 2.29096,2.290958 z" />
      <g
         aria-label="0.5/1"
         id="text8323"
         style="font-size:6.0457px;fill:#868e96;stroke:#868e96;stroke-width:0.396875;stroke-linecap:round;stroke-linejoin:bevel"
         transform="translate(2.9323206,2.3233015)">
        <path
           d="m 356.34519,79.370812 q 0,1.183752 -0.37195,1.738729 -0.369,0.552024 -1.14833,0.552024 -0.79113,0 -1.15718,-0.56088 -0.3631,-0.560881 -0.3631,-1.723969 0,-1.171945 0.369,-1.729874 0.369,-0.56088 1.15128,-0.56088 0.79114,0 1.15424,0.569736 0.36604,0.566785 0.36604,1.715114 z m -0.77637,1.340209 q 0.10332,-0.239113 0.13874,-0.560881 0.0384,-0.32472 0.0384,-0.779328 0,-0.448705 -0.0384,-0.779329 -0.0354,-0.330624 -0.14169,-0.56088 -0.10332,-0.227304 -0.2834,-0.342433 -0.17712,-0.115128 -0.45756,-0.115128 -0.27749,0 -0.46051,0.115128 -0.18007,0.115129 -0.28634,0.348337 -0.10037,0.218448 -0.13875,0.569736 -0.0354,0.351288 -0.0354,0.770473 0,0.460512 0.0325,0.770472 0.0325,0.30996 0.13874,0.554977 0.0974,0.230256 0.27454,0.351288 0.18007,0.121032 0.47527,0.121032 0.27749,0 0.46052,-0.115128 0.18302,-0.115128 0.28339,-0.348336 z"
           id="path878" />
        <path
           d="m 358.1961,81.570053 h -0.70553 v -0.84132 h 0.70553 z"
           id="path880" />
        <path
           d="m 362.35842,80.173756 q 0,0.307008 -0.11217,0.587449 -0.11218,0.28044 -0.30701,0.47232 -0.21255,0.20664 -0.50775,0.318816 -0.29225,0.109224 -0.67896,0.109224 -0.36014,0 -0.69372,-0.07675 -0.33357,-0.0738 -0.56383,-0.180072 v -0.622872 h 0.0413 q 0.24206,0.153504 0.56678,0.262728 0.32472,0.106272 0.63763,0.106272 0.2096,0 0.40443,-0.05904 0.19778,-0.05904 0.35129,-0.20664 0.12989,-0.126936 0.19483,-0.304057 0.0679,-0.17712 0.0679,-0.410328 0,-0.227304 -0.0797,-0.38376 -0.0768,-0.156456 -0.21549,-0.25092 -0.15351,-0.112176 -0.37491,-0.156456 -0.21845,-0.04723 -0.49003,-0.04723 -0.25978,0 -0.50184,0.03542 -0.23911,0.03542 -0.41328,0.07085 v -2.264186 h 2.64499 v 0.5166 h -2.07526 v 1.168993 q 0.12694,-0.01181 0.25978,-0.01771 0.13284,-0.0059 0.23026,-0.0059 0.35719,0 0.62582,0.06199 0.26863,0.05904 0.49299,0.212544 0.23616,0.162361 0.36604,0.419185 0.12989,0.256824 0.12989,0.643536 z"
           id="path882" />
        <path
           d="m 365.32518,76.976738 -2.11658,5.490724 h -0.5107 l 2.10773,-5.490724 z"
           id="path884" />
        <path
           d="m 368.73179,81.570053 h -2.37931 v -0.448704 h 0.91512 v -2.946098 h -0.91512 v -0.401472 q 0.18598,0 0.39852,-0.02952 0.21255,-0.03247 0.32177,-0.09151 0.13579,-0.0738 0.21254,-0.185976 0.0797,-0.115128 0.0915,-0.307008 h 0.45756 v 3.961587 h 0.8974 z"
           id="path886" />
      </g>
    </g>
    <g
       id="g1693">
      <path
         id="circle8273"
         style="fill:none;stroke:#000000;stroke-width:0.798406;stroke-linejoin:bevel"
         d="m 391.95841,58.457392 a 2.2909579,2.2909579 0 0 1 -2.29096,-2.290958 2.2909579,2.2909579 0 0 1 2.29096,-2.290958 2.2909579,2.2909579 0 0 1 2.29096,2.290958 2.2909579,2.2909579 0 0 1 -2.29096,2.290958 z" />
      <g
         id="g8279"
         transform="rotate(90,176.74569,211.73364)">
        <path
           style="fill:none;fill-opacity:1;stroke:#000000;stroke-width:0.635;stroke-linecap:round;stroke-linejoin:bevel;stroke-dasharray:none;stroke-opacity:1;paint-order:normal"
           d="m 19.011962,-23.392467 3.948608,3.948609"
           id="path8275" />
        <path
           style="fill:none;fill-opacity:1;stroke:#000000;stroke-width:0.635;stroke-linecap:round;stroke-linejoin:bevel;stroke-dasharray:none;stroke-opacity:1;paint-order:normal"
           d="m 22.960571,-23.392466 -3.948609,3.948608"
           id="path8277" />
      </g>
      <path
         id="circle8281"
         style="fill:none;stroke:#000000;stroke-width:0.798406;stroke-linejoin:bevel"
         d="m 403.28318,65.007647 a 2.2909579,2.2909579 0 0 1 -2.29095,2.290957 2.2909579,2.2909579 0 0 1 -2.29096,-2.290958 2.2909579,2.2909579 0 0 1 2.29096,-2.290958 2.2909579,2.2909579 0 0 1 2.29095,2.290959 z" />
      <g
         id="g8299"
         transform="rotate(90,245.22871,213.15618)">
        <g
           id="g8287"
           transform="rotate(-90,94.027246,-24.471026)">
          <path
             style="fill:none;fill-opacity:1;stroke:#000000;stroke-width:0.635;stroke-linecap:round;stroke-linejoin:bevel;stroke-dasharray:none;stroke-opacity:1;paint-order:normal"
             d="m 19.011962,-23.392467 3.948608,3.948609"
             id="path8283" />
          <path
             style="fill:none;fill-opacity:1;stroke:#000000;stroke-width:0.635;stroke-linecap:round;stroke-linejoin:bevel;stroke-dasharray:none;stroke-opacity:1;paint-order:normal"
             d="m 22.960571,-23.392466 -3.948609,3.948608"
             id="path8285" />
        </g>
        <g
           id="g8297"
           transform="rotate(-90,58.025878,58.65178)">
          <path
             style="fill:none;fill-opacity:1;stroke:#000000;stroke-width:0.635;stroke-linecap:round;stroke-dasharray:none;stroke-opacity:1"
             d="M 47.188971,93.282978 H 71.38099"
             id="path8289" />
          <path
             style="fill:none;fill-opacity:1;stroke:#000000;stroke-width:0.635;stroke-linecap:round;stroke-dasharray:none;stroke-opacity:1"
             d="M 47.188971,102.20399 H 71.38099"
             id="path8291" />
          <path
             style="fill:none;fill-opacity:1;stroke:#000000;stroke-width:0.635;stroke-linecap:round;stroke-dasharray:none;stroke-opacity:1"
             d="M 63.708076,85.610064 V 109.80208"
             id="path8293" />
          <path
             style="fill:none;fill-opacity:1;stroke:#000000;stroke-width:0.635;stroke-linecap:round;stroke-dasharray:none;stroke-opacity:1"
             d="M 54.787064,85.610064 V 109.80208"
             id="path8295" />
        </g>
      </g>
      <g
         id="g8305"
         transform="rotate(-90,254.26621,-159.23888)">
        <path
           style="fill:none;fill-opacity:1;stroke:#000000;stroke-width:0.635;stroke-linecap:round;stroke-linejoin:bevel;stroke-dasharray:none;stroke-opacity:1;paint-order:normal"
           d="m 19.011962,-23.392467 3.948608,3.948609"
           id="path8301" />
        <path
           style="fill:none;fill-opacity:1;stroke:#000000;stroke-width:0.635;stroke-linecap:round;stroke-linejoin:bevel;stroke-dasharray:none;stroke-opacity:1;paint-order:normal"
           d="m 22.960571,-23.392466 -3.948609,3.948608"
           id="path8303" />
      </g>
      <g
         aria-label="0/1"
         id="text8327"
         style="font-size:6.0457px;fill:#868e96;stroke:#868e96;stroke-width:0.396875;stroke-linecap:round;stroke-linejoin:bevel"
         transform="translate(2.9323206,2.3233015)">
        <path
           d="m 396.28575,79.370812 q 0,1.183752 -0.37196,1.738729 -0.369,0.552024 -1.14833,0.552024 -0.79113,0 -1.15718,-0.56088 -0.3631,-0.560881 -0.3631,-1.723969 0,-1.171945 0.369,-1.729874 0.369,-0.56088 1.15128,-0.56088 0.79114,0 1.15424,0.569736 0.36605,0.566785 0.36605,1.715114 z m -0.77638,1.340209 q 0.10332,-0.239113 0.13874,-0.560881 0.0384,-0.32472 0.0384,-0.779328 0,-0.448705 -0.0384,-0.779329 -0.0354,-0.330624 -0.14169,-0.56088 -0.10332,-0.227304 -0.2834,-0.342433 -0.17712,-0.115128 -0.45756,-0.115128 -0.27748,0 -0.46051,0.115128 -0.18007,0.115129 -0.28634,0.348337 -0.10037,0.218448 -0.13875,0.569736 -0.0354,0.351288 -0.0354,0.770473 0,0.460512 0.0325,0.770472 0.0325,0.30996 0.13875,0.554977 0.0974,0.230256 0.27453,0.351288 0.18007,0.121032 0.47527,0.121032 0.27749,0 0.46052,-0.115128 0.18302,-0.115128 0.28339,-0.348336 z"
           id="path871" />
        <path
           d="m 399.22299,76.976738 -2.11659,5.490724 h -0.51069 l 2.10773,-5.490724 z"
           id="path873" />
        <path
           d="m 402.6296,81.570053 h -2.37932 v -0.448704 h 0.91512 v -2.946098 h -0.91512 v -0.401472 q 0.18598,0 0.39852,-0.02952 0.21255,-0.03247 0.32177,-0.09151 0.13579,-0.0738 0.21255,-0.185976 0.0797,-0.115128 0.0915,-0.307008 h 0.45756 v 3.961587 h 0.89741 z"
           id="path875" />
      </g>
    </g>
    <path
       style="fill:none;fill-opacity:1;stroke:#66a80f;stroke-width:0.396875;stroke-linecap:round;stroke-linejoin:bevel;stroke-dasharray:none;stroke-opacity:1"
       d="m 373.17376,41.788444 c 0,0 -6.40668,2.178272 -7.55988,8.713083"
       id="path8329" />
    <path
       style="fill:none;fill-opacity:1;stroke:#66a80f;stroke-width:0.396875;stroke-linecap:round;stroke-linejoin:bevel;stroke-dasharray:none;stroke-opacity:1"
       d="m 391.11246,40.250841 c 0,0 7.04735,1.537603 9.61002,9.866287"
       id="path8331" />
    <g
       transform="matrix(0.26458335,0,0,0.26458335,41.76922,15.552467)"
       id="text11567"
       style="white-space:pre;shape-inside:url(#rect11569);display:inline;fill:#d6336c;stroke:#d6336c;stroke-width:1.5;stroke-linecap:round;stroke-linejoin:bevel" />
    <g
       aria-label="UCT: 2.165"
       id="text363"
       style="font-size:3.175px;fill:#d6336c;stroke:#d6336c;stroke-width:0.264583;stroke-linecap:round;stroke-linejoin:bevel">
      <path
         d="m 356.98586,89.387561 q 0,0.251148 -0.0558,0.438733 -0.0543,0.186035 -0.17983,0.310059 -0.11937,0.117822 -0.27905,0.172082 -0.15968,0.05426 -0.37207,0.05426 -0.21704,0 -0.37827,-0.05736 -0.16124,-0.05736 -0.27131,-0.168981 -0.12557,-0.127124 -0.18138,-0.306958 -0.0543,-0.179834 -0.0543,-0.441834 V 88.00625 h 0.30696 v 1.396814 q 0,0.187585 0.0248,0.296106 0.0264,0.10852 0.0868,0.196887 0.0682,0.100769 0.18448,0.151929 0.11783,0.05116 0.28216,0.05116 0.16588,0 0.28215,-0.04961 0.11627,-0.05116 0.18604,-0.153479 0.0605,-0.08837 0.0853,-0.201538 0.0264,-0.114722 0.0264,-0.283704 V 88.00625 h 0.30695 z"
         id="path387" />
      <path
         d="m 359.35471,90.147205 q -0.0853,0.03721 -0.15503,0.06976 -0.0682,0.03256 -0.17983,0.06821 -0.0946,0.02945 -0.20619,0.04961 -0.11007,0.0217 -0.2434,0.0217 -0.25114,0 -0.45733,-0.06976 -0.20464,-0.07131 -0.35657,-0.221692 -0.14883,-0.147278 -0.23254,-0.373621 -0.0837,-0.227893 -0.0837,-0.528649 0,-0.285254 0.0806,-0.510047 0.0806,-0.224792 0.23254,-0.379822 0.14728,-0.150378 0.35502,-0.229443 0.20929,-0.07906 0.46353,-0.07906 0.18604,0 0.37052,0.04496 0.18604,0.04496 0.41238,0.15813 v 0.364318 h -0.0233 q -0.19069,-0.15968 -0.37827,-0.232544 -0.18759,-0.07286 -0.40153,-0.07286 -0.17518,0 -0.31626,0.05736 -0.13953,0.05581 -0.2496,0.175184 -0.10697,0.116272 -0.16743,0.294555 -0.0589,0.176734 -0.0589,0.409278 0,0.243396 0.0651,0.418579 0.0667,0.175183 0.17053,0.285254 0.10853,0.114721 0.2527,0.170532 0.14573,0.05426 0.30696,0.05426 0.22169,0 0.41548,-0.07596 0.19379,-0.07596 0.36277,-0.227893 h 0.0217 z"
         id="path389" />
      <path
         d="m 361.4352,88.279102 h -0.82475 v 2.035534 h -0.30696 v -2.035534 h -0.82476 V 88.00625 h 1.95647 z"
         id="path391" />
      <path
         d="m 362.03207,89.024792 h -0.37052 v -0.441833 h 0.37052 z m 0,1.289844 h -0.37052 v -0.441833 h 0.37052 z"
         id="path393" />
      <path
         d="m 365.49542,90.314636 h -1.56269 v -0.324011 q 0.16278,-0.139526 0.32556,-0.279053 0.16433,-0.139526 0.30541,-0.277502 0.29765,-0.288355 0.40772,-0.457337 0.11007,-0.170532 0.11007,-0.367419 0,-0.179834 -0.11937,-0.280603 -0.11782,-0.102319 -0.33021,-0.102319 -0.14108,0 -0.30541,0.04961 -0.16433,0.04961 -0.32091,0.151929 h -0.0155 v -0.325562 q 0.11007,-0.05426 0.293,-0.09922 0.18449,-0.04496 0.35657,-0.04496 0.35502,0 0.55656,0.172082 0.20153,0.170533 0.20153,0.463538 0,0.131775 -0.0341,0.246497 -0.0326,0.113171 -0.0977,0.21549 -0.0605,0.09612 -0.14263,0.189136 -0.0806,0.09302 -0.19689,0.206189 -0.16588,0.162781 -0.34261,0.31626 -0.17673,0.151929 -0.33021,0.282153 h 1.24178 z"
         id="path395" />
      <path
         d="m 366.46436,90.314636 h -0.37052 v -0.441833 h 0.37052 z"
         id="path397" />
      <path
         d="m 368.5371,90.314636 h -1.24954 v -0.235644 h 0.48059 v -1.547193 h -0.48059 V 88.32096 q 0.0977,0 0.20929,-0.0155 0.11162,-0.01705 0.16898,-0.04806 0.0713,-0.03876 0.11162,-0.09767 0.0419,-0.06046 0.0481,-0.16123 h 0.2403 v 2.080493 h 0.47129 z"
         id="path399" />
      <path
         d="m 370.72146,89.565845 q 0,0.351916 -0.23254,0.575158 -0.231,0.221692 -0.56741,0.221692 -0.17053,0 -0.31006,-0.05271 -0.13953,-0.05271 -0.2465,-0.156579 -0.13332,-0.128675 -0.20619,-0.341065 -0.0713,-0.21239 -0.0713,-0.511596 0,-0.306958 0.0651,-0.544153 0.0667,-0.237195 0.21084,-0.42168 0.13643,-0.175183 0.35192,-0.272851 0.21549,-0.09922 0.50229,-0.09922 0.0915,0 0.15348,0.0078 0.062,0.0078 0.12558,0.02791 v 0.296106 h -0.0155 q -0.0434,-0.02326 -0.13177,-0.04341 -0.0868,-0.0217 -0.17828,-0.0217 -0.33332,0 -0.53175,0.20929 -0.19844,0.207739 -0.231,0.562756 0.13023,-0.07906 0.2558,-0.119372 0.12712,-0.04186 0.29301,-0.04186 0.14727,0 0.25889,0.02791 0.11318,0.02636 0.231,0.10852 0.13642,0.09457 0.20464,0.238746 0.0698,0.144177 0.0698,0.350366 z m -0.31471,0.0124 q 0,-0.144177 -0.0434,-0.238745 -0.0419,-0.09457 -0.13952,-0.164331 -0.0713,-0.04961 -0.15813,-0.06511 -0.0868,-0.0155 -0.18139,-0.0155 -0.13177,0 -0.24494,0.03101 -0.11318,0.031 -0.23255,0.09612 -0.003,0.03411 -0.005,0.06666 -0.002,0.03101 -0.002,0.07906 0,0.244947 0.0496,0.387573 0.0512,0.141077 0.13953,0.223243 0.0713,0.06821 0.15348,0.100769 0.0837,0.03101 0.18138,0.03101 0.22479,0 0.35347,-0.136426 0.12867,-0.137976 0.12867,-0.395325 z"
         id="path401" />
      <path
         d="m 372.68723,89.581348 q 0,0.16123 -0.0589,0.308508 -0.0589,0.147278 -0.16123,0.248047 -0.11162,0.10852 -0.26665,0.167431 -0.15348,0.05736 -0.35657,0.05736 -0.18913,0 -0.36432,-0.04031 -0.17518,-0.03876 -0.2961,-0.09457 v -0.327112 h 0.0217 q 0.12713,0.08062 0.29766,0.137976 0.17053,0.05581 0.33486,0.05581 0.11007,0 0.21239,-0.03101 0.10387,-0.03101 0.18449,-0.108521 0.0682,-0.06666 0.10232,-0.15968 0.0357,-0.09302 0.0357,-0.215491 0,-0.119372 -0.0419,-0.201538 -0.0403,-0.08217 -0.11317,-0.131775 -0.0806,-0.05891 -0.19688,-0.08216 -0.11473,-0.02481 -0.25735,-0.02481 -0.13643,0 -0.26355,0.0186 -0.12558,0.0186 -0.21704,0.03721 V 88.00625 h 1.38906 v 0.271301 h -1.08986 v 0.613916 q 0.0667,-0.0062 0.13643,-0.0093 0.0698,-0.0031 0.12092,-0.0031 0.18759,0 0.32866,0.03256 0.14108,0.03101 0.2589,0.111621 0.12403,0.08527 0.19224,0.220142 0.0682,0.134875 0.0682,0.337964 z"
         id="path403" />
    </g>
    <g
       aria-label="UCT: 1.665"
       id="text1484"
       style="font-size:3.175px;fill:#d6336c;stroke:#d6336c;stroke-width:0.264583;stroke-linecap:round;stroke-linejoin:bevel">
      <path
         d="m 394.02752,89.387561 q 0,0.251148 -0.0558,0.438733 -0.0543,0.186035 -0.17983,0.310059 -0.11938,0.117822 -0.27906,0.172082 -0.15968,0.05426 -0.37207,0.05426 -0.21704,0 -0.37827,-0.05736 -0.16123,-0.05736 -0.2713,-0.168981 -0.12557,-0.127124 -0.18138,-0.306958 -0.0543,-0.179834 -0.0543,-0.441834 V 88.00625 h 0.30695 v 1.396814 q 0,0.187585 0.0248,0.296106 0.0263,0.10852 0.0868,0.196887 0.0682,0.100769 0.18449,0.151929 0.11782,0.05116 0.28215,0.05116 0.16588,0 0.28216,-0.04961 0.11627,-0.05116 0.18603,-0.153479 0.0605,-0.08837 0.0853,-0.201538 0.0263,-0.114722 0.0263,-0.283704 V 88.00625 h 0.30696 z"
         id="path368" />
      <path
         d="m 396.39637,90.147205 q -0.0853,0.03721 -0.15503,0.06976 -0.0682,0.03256 -0.17984,0.06821 -0.0946,0.02945 -0.20618,0.04961 -0.11007,0.0217 -0.2434,0.0217 -0.25115,0 -0.45734,-0.06976 -0.20464,-0.07131 -0.35656,-0.221692 -0.14883,-0.147278 -0.23255,-0.373621 -0.0837,-0.227893 -0.0837,-0.528649 0,-0.285254 0.0806,-0.510047 0.0806,-0.224792 0.23255,-0.379822 0.14727,-0.150378 0.35501,-0.229443 0.20929,-0.07906 0.46354,-0.07906 0.18604,0 0.37052,0.04496 0.18604,0.04496 0.41238,0.15813 v 0.364318 h -0.0233 q -0.19068,-0.15968 -0.37827,-0.232544 -0.18758,-0.07286 -0.40152,-0.07286 -0.17519,0 -0.31626,0.05736 -0.13953,0.05581 -0.2496,0.175184 -0.10697,0.116272 -0.16743,0.294555 -0.0589,0.176734 -0.0589,0.409278 0,0.243396 0.0651,0.418579 0.0667,0.175183 0.17053,0.285254 0.10852,0.114721 0.2527,0.170532 0.14573,0.05426 0.30696,0.05426 0.22169,0 0.41548,-0.07596 0.19378,-0.07596 0.36276,-0.227893 h 0.0217 z"
         id="path370" />
      <path
         d="m 398.47686,88.279102 h -0.82475 v 2.035534 h -0.30696 v -2.035534 h -0.82476 V 88.00625 h 1.95647 z"
         id="path372" />
      <path
         d="m 399.07372,89.024792 h -0.37052 v -0.441833 h 0.37052 z m 0,1.289844 h -0.37052 v -0.441833 h 0.37052 z"
         id="path374" />
      <path
         d="m 402.4053,90.314636 h -1.24953 v -0.235644 h 0.48059 v -1.547193 h -0.48059 V 88.32096 q 0.0977,0 0.20929,-0.0155 0.11162,-0.01705 0.16898,-0.04806 0.0713,-0.03876 0.11162,-0.09767 0.0419,-0.06046 0.0481,-0.16123 h 0.24029 v 2.080493 h 0.47129 z"
         id="path376" />
      <path
         d="m 403.50601,90.314636 h -0.37052 v -0.441833 h 0.37052 z"
         id="path378" />
      <path
         d="m 405.74464,89.565845 q 0,0.351916 -0.23255,0.575158 -0.23099,0.221692 -0.56741,0.221692 -0.17053,0 -0.31005,-0.05271 -0.13953,-0.05271 -0.2465,-0.156579 -0.13333,-0.128675 -0.20619,-0.341065 -0.0713,-0.21239 -0.0713,-0.511596 0,-0.306958 0.0651,-0.544153 0.0667,-0.237195 0.21084,-0.42168 0.13642,-0.175183 0.35192,-0.272851 0.21549,-0.09922 0.50229,-0.09922 0.0915,0 0.15348,0.0078 0.062,0.0078 0.12557,0.02791 v 0.296106 h -0.0155 q -0.0434,-0.02326 -0.13178,-0.04341 -0.0868,-0.0217 -0.17828,-0.0217 -0.33331,0 -0.53175,0.20929 -0.19844,0.207739 -0.23099,0.562756 0.13022,-0.07906 0.2558,-0.119372 0.12712,-0.04186 0.293,-0.04186 0.14728,0 0.2589,0.02791 0.11317,0.02636 0.23099,0.10852 0.13643,0.09457 0.20464,0.238746 0.0698,0.144177 0.0698,0.350366 z m -0.31471,0.0124 q 0,-0.144177 -0.0434,-0.238745 -0.0419,-0.09457 -0.13953,-0.164331 -0.0713,-0.04961 -0.15813,-0.06511 -0.0868,-0.0155 -0.18138,-0.0155 -0.13178,0 -0.24495,0.03101 -0.11317,0.031 -0.23254,0.09612 -0.003,0.03411 -0.005,0.06666 -0.002,0.03101 -0.002,0.07906 0,0.244947 0.0496,0.387573 0.0512,0.141077 0.13953,0.223243 0.0713,0.06821 0.15348,0.100769 0.0837,0.03101 0.18138,0.03101 0.2248,0 0.35347,-0.136426 0.12868,-0.137976 0.12868,-0.395325 z"
         id="path380" />
      <path
         d="m 407.76312,89.565845 q 0,0.351916 -0.23255,0.575158 -0.23099,0.221692 -0.5674,0.221692 -0.17054,0 -0.31006,-0.05271 -0.13953,-0.05271 -0.2465,-0.156579 -0.13333,-0.128675 -0.20619,-0.341065 -0.0713,-0.21239 -0.0713,-0.511596 0,-0.306958 0.0651,-0.544153 0.0667,-0.237195 0.21084,-0.42168 0.13643,-0.175183 0.35192,-0.272851 0.21549,-0.09922 0.50229,-0.09922 0.0915,0 0.15348,0.0078 0.062,0.0078 0.12557,0.02791 v 0.296106 h -0.0155 q -0.0434,-0.02326 -0.13177,-0.04341 -0.0868,-0.0217 -0.17829,-0.0217 -0.33331,0 -0.53175,0.20929 -0.19844,0.207739 -0.23099,0.562756 0.13022,-0.07906 0.2558,-0.119372 0.12712,-0.04186 0.293,-0.04186 0.14728,0 0.2589,0.02791 0.11317,0.02636 0.23099,0.10852 0.13643,0.09457 0.20464,0.238746 0.0698,0.144177 0.0698,0.350366 z m -0.31471,0.0124 q 0,-0.144177 -0.0434,-0.238745 -0.0419,-0.09457 -0.13953,-0.164331 -0.0713,-0.04961 -0.15813,-0.06511 -0.0868,-0.0155 -0.18138,-0.0155 -0.13178,0 -0.24495,0.03101 -0.11317,0.031 -0.23254,0.09612 -0.003,0.03411 -0.005,0.06666 -0.002,0.03101 -0.002,0.07906 0,0.244947 0.0496,0.387573 0.0512,0.141077 0.13952,0.223243 0.0713,0.06821 0.15348,0.100769 0.0837,0.03101 0.18139,0.03101 0.22479,0 0.35346,-0.136426 0.12868,-0.137976 0.12868,-0.395325 z"
         id="path382" />
      <path
         d="m 409.72889,89.581348 q 0,0.16123 -0.0589,0.308508 -0.0589,0.147278 -0.16123,0.248047 -0.11162,0.10852 -0.26665,0.167431 -0.15348,0.05736 -0.35657,0.05736 -0.18914,0 -0.36432,-0.04031 -0.17518,-0.03876 -0.29611,-0.09457 v -0.327112 h 0.0217 q 0.12712,0.08062 0.29765,0.137976 0.17054,0.05581 0.33487,0.05581 0.11007,0 0.21239,-0.03101 0.10387,-0.03101 0.18448,-0.108521 0.0682,-0.06666 0.10232,-0.15968 0.0357,-0.09302 0.0357,-0.215491 0,-0.119372 -0.0419,-0.201538 -0.0403,-0.08217 -0.11317,-0.131775 -0.0806,-0.05891 -0.19689,-0.08216 -0.11472,-0.02481 -0.25735,-0.02481 -0.13642,0 -0.26355,0.0186 -0.12557,0.0186 -0.21704,0.03721 V 88.00625 h 1.38906 v 0.271301 h -1.08985 v 0.613916 q 0.0667,-0.0062 0.13642,-0.0093 0.0698,-0.0031 0.12093,-0.0031 0.18758,0 0.32866,0.03256 0.14108,0.03101 0.2589,0.111621 0.12402,0.08527 0.19223,0.220142 0.0682,0.134875 0.0682,0.337964 z"
         id="path384" />
    </g>
  </g>
</svg>
