<?xml version="1.0" encoding="UTF-8" standalone="no"?>
<!-- Created with Inkscape (http://www.inkscape.org/) -->

<svg
   width="540"
   height="456"
   viewBox="0 0 142.875 120.65001"
   version="1.1"
   id="svg5"
   inkscape:version="1.2.1 (9c6d41e, 2022-07-14)"
   sodipodi:docname="fig-8.svg"
   xmlns:inkscape="http://www.inkscape.org/namespaces/inkscape"
   xmlns:sodipodi="http://sodipodi.sourceforge.net/DTD/sodipodi-0.dtd"
   xmlns="http://www.w3.org/2000/svg"
   xmlns:svg="http://www.w3.org/2000/svg">
  <sodipodi:namedview
     id="namedview7"
     pagecolor="#ffffff"
     bordercolor="#999999"
     borderopacity="1"
     inkscape:showpageshadow="0"
     inkscape:pageopacity="0"
     inkscape:pagecheckerboard="0"
     inkscape:deskcolor="#d1d1d1"
     inkscape:document-units="px"
     showgrid="false"
     inkscape:zoom="0.61095603"
     inkscape:cx="38.464307"
     inkscape:cy="304.44089"
     inkscape:window-width="1309"
     inkscape:window-height="456"
     inkscape:window-x="0"
     inkscape:window-y="38"
     inkscape:window-maximized="0"
     inkscape:current-layer="layer1" />
  <defs
     id="defs2">
    <rect
       x="1592.5861"
       y="439.47516"
       width="152.62964"
       height="61.788406"
       id="rect11569" />
  </defs>
  <g
     inkscape:label="Layer 1"
     inkscape:groupmode="layer"
     id="layer1"
     transform="translate(-429.86789,-13.229166)">
    <g
       id="g1374"
       transform="translate(3.4702485,4.4399698)">
      <g
         transform="matrix(0.26458335,0,0,0.26458335,38.836899,13.229166)"
         id="text11567"
         style="white-space:pre;shape-inside:url(#rect11569);display:inline;fill:#d6336c;stroke:#d6336c;stroke-width:1.5;stroke-linecap:round;stroke-linejoin:bevel" />
      <path
         id="circle9442"
         style="fill:none;stroke:#000000;stroke-width:0.798406;stroke-linejoin:bevel"
         transform="rotate(90)"
         d="m 19.092424,-503.55365 a 2.2909579,2.2909579 0 0 1 -2.290958,2.29096 2.2909579,2.2909579 0 0 1 -2.290958,-2.29096 2.2909579,2.2909579 0 0 1 2.290958,-2.29096 2.2909579,2.2909579 0 0 1 2.290958,2.29096 z" />
      <path
         style="fill:none;fill-opacity:1;stroke:#000000;stroke-width:0.635;stroke-linecap:round;stroke-linejoin:bevel;stroke-dasharray:none;stroke-opacity:1;paint-order:normal"
         d="m 523.46706,14.634952 -3.94861,3.948608"
         id="path9444" />
      <path
         style="fill:none;fill-opacity:1;stroke:#000000;stroke-width:0.635;stroke-linecap:round;stroke-linejoin:bevel;stroke-dasharray:none;stroke-opacity:1;paint-order:normal"
         d="m 523.46706,18.583561 -3.94861,-3.948609"
         id="path9446" />
      <path
         id="circle9450"
         style="fill:none;stroke:#000000;stroke-width:0.798406;stroke-linejoin:bevel"
         d="m 514.87842,25.642679 a 2.2909579,2.2909579 0 0 1 -2.29096,2.290958 2.2909579,2.2909579 0 0 1 -2.29095,-2.290958 2.2909579,2.2909579 0 0 1 2.29095,-2.290958 2.2909579,2.2909579 0 0 1 2.29096,2.290958 z" />
      <g
         id="g9460"
         transform="rotate(-90,249.90452,-164.97686)">
        <path
           style="fill:none;fill-opacity:1;stroke:#000000;stroke-width:0.635;stroke-linecap:round;stroke-dasharray:none;stroke-opacity:1"
           d="M 47.188971,93.282978 H 71.38099"
           id="path9452" />
        <path
           style="fill:none;fill-opacity:1;stroke:#000000;stroke-width:0.635;stroke-linecap:round;stroke-dasharray:none;stroke-opacity:1"
           d="M 47.188971,102.20399 H 71.38099"
           id="path9454" />
        <path
           style="fill:none;fill-opacity:1;stroke:#000000;stroke-width:0.635;stroke-linecap:round;stroke-dasharray:none;stroke-opacity:1"
           d="M 63.708076,85.610064 V 109.80208"
           id="path9456" />
        <path
           style="fill:none;fill-opacity:1;stroke:#000000;stroke-width:0.635;stroke-linecap:round;stroke-dasharray:none;stroke-opacity:1"
           d="M 54.787064,85.610064 V 109.80208"
           id="path9458" />
      </g>
      <g
         id="g9466"
         transform="rotate(-90,290.38134,-234.71899)">
        <path
           style="fill:none;fill-opacity:1;stroke:#000000;stroke-width:0.635;stroke-linecap:round;stroke-linejoin:bevel;stroke-dasharray:none;stroke-opacity:1;paint-order:normal"
           d="m 19.011962,-23.392467 3.948608,3.948609"
           id="path9462" />
        <path
           style="fill:none;fill-opacity:1;stroke:#000000;stroke-width:0.635;stroke-linecap:round;stroke-linejoin:bevel;stroke-dasharray:none;stroke-opacity:1;paint-order:normal"
           d="m 22.960571,-23.392466 -3.948609,3.948608"
           id="path9464" />
      </g>
      <path
         id="circle9470"
         style="fill:none;stroke:#000000;stroke-width:0.798406;stroke-linejoin:bevel"
         transform="rotate(90)"
         d="m 56.13409,-485.03284 a 2.2909579,2.2909579 0 0 1 -2.290958,2.29096 2.2909579,2.2909579 0 0 1 -2.290958,-2.29096 2.2909579,2.2909579 0 0 1 2.290958,-2.29095 2.2909579,2.2909579 0 0 1 2.290958,2.29095 z" />
      <g
         id="g9476"
         transform="rotate(90,224.44454,257.1092)">
        <path
           style="fill:none;fill-opacity:1;stroke:#000000;stroke-width:0.635;stroke-linecap:round;stroke-linejoin:bevel;stroke-dasharray:none;stroke-opacity:1;paint-order:normal"
           d="m 19.011962,-23.392467 3.948608,3.948609"
           id="path9472" />
        <path
           style="fill:none;fill-opacity:1;stroke:#000000;stroke-width:0.635;stroke-linecap:round;stroke-linejoin:bevel;stroke-dasharray:none;stroke-opacity:1;paint-order:normal"
           d="m 22.960571,-23.392466 -3.948609,3.948608"
           id="path9474" />
      </g>
      <path
         id="circle9480"
         style="fill:none;stroke:#000000;stroke-width:0.798406;stroke-linejoin:bevel"
         d="m 496.35761,62.684345 a 2.2909579,2.2909579 0 0 1 -2.29096,2.290958 2.2909579,2.2909579 0 0 1 -2.29096,-2.290958 2.2909579,2.2909579 0 0 1 2.29096,-2.290958 2.2909579,2.2909579 0 0 1 2.29096,2.290958 z" />
      <path
         style="fill:none;fill-opacity:1;stroke:#000000;stroke-width:0.635;stroke-linecap:round;stroke-linejoin:bevel;stroke-dasharray:none;stroke-opacity:1;paint-order:normal"
         d="m 483.18704,73.692068 3.94861,-3.948608"
         id="path9482" />
      <path
         style="fill:none;fill-opacity:1;stroke:#000000;stroke-width:0.635;stroke-linecap:round;stroke-linejoin:bevel;stroke-dasharray:none;stroke-opacity:1;paint-order:normal"
         d="m 483.18704,69.743459 3.94861,3.948609"
         id="path9484" />
      <g
         id="g9496"
         transform="translate(434.78164,-35.021724)">
        <path
           style="fill:none;fill-opacity:1;stroke:#000000;stroke-width:0.635;stroke-linecap:round;stroke-dasharray:none;stroke-opacity:1"
           d="M 47.188971,93.282978 H 71.38099"
           id="path9488" />
        <path
           style="fill:none;fill-opacity:1;stroke:#000000;stroke-width:0.635;stroke-linecap:round;stroke-dasharray:none;stroke-opacity:1"
           d="M 47.188971,102.20399 H 71.38099"
           id="path9490" />
        <path
           style="fill:none;fill-opacity:1;stroke:#000000;stroke-width:0.635;stroke-linecap:round;stroke-dasharray:none;stroke-opacity:1"
           d="M 63.708076,85.610064 V 109.80208"
           id="path9492" />
        <path
           style="fill:none;fill-opacity:1;stroke:#000000;stroke-width:0.635;stroke-linecap:round;stroke-dasharray:none;stroke-opacity:1"
           d="M 54.787064,85.610064 V 109.80208"
           id="path9494" />
      </g>
      <g
         id="g9504"
         transform="rotate(90,274.40673,277.05257)">
        <g
           id="g9502"
           transform="rotate(90,10.076322,37.449316)">
          <path
             style="fill:none;fill-opacity:1;stroke:#000000;stroke-width:0.635;stroke-linecap:round;stroke-linejoin:bevel;stroke-dasharray:none;stroke-opacity:1;paint-order:normal"
             d="m 19.011962,-23.392467 3.948608,3.948609"
             id="path9498" />
          <path
             style="fill:none;fill-opacity:1;stroke:#000000;stroke-width:0.635;stroke-linecap:round;stroke-linejoin:bevel;stroke-dasharray:none;stroke-opacity:1;paint-order:normal"
             d="m 22.960571,-23.392466 -3.948609,3.948608"
             id="path9500" />
        </g>
      </g>
      <path
         id="circle9508"
         style="fill:none;stroke:#000000;stroke-width:0.798406;stroke-linejoin:bevel"
         transform="rotate(90)"
         d="m 56.13409,-522.07452 a 2.2909579,2.2909579 0 0 1 -2.290958,2.29095 2.2909579,2.2909579 0 0 1 -2.290958,-2.29095 2.2909579,2.2909579 0 0 1 2.290958,-2.29096 2.2909579,2.2909579 0 0 1 2.290958,2.29096 z" />
      <path
         style="fill:none;fill-opacity:1;stroke:#000000;stroke-width:0.635;stroke-linecap:round;stroke-linejoin:bevel;stroke-dasharray:none;stroke-opacity:1;paint-order:normal"
         d="m 541.98788,51.676612 -3.94861,3.948608"
         id="path9510" />
      <path
         style="fill:none;fill-opacity:1;stroke:#000000;stroke-width:0.635;stroke-linecap:round;stroke-linejoin:bevel;stroke-dasharray:none;stroke-opacity:1;paint-order:normal"
         d="m 541.98788,55.625221 -3.94861,-3.948609"
         id="path9512" />
      <path
         id="circle9516"
         style="fill:none;stroke:#000000;stroke-width:0.798406;stroke-linejoin:bevel"
         d="m 533.3993,62.684345 a 2.2909579,2.2909579 0 0 1 -2.29096,2.290958 2.2909579,2.2909579 0 0 1 -2.29096,-2.290958 2.2909579,2.2909579 0 0 1 2.29096,-2.290958 2.2909579,2.2909579 0 0 1 2.29096,2.290958 z" />
      <g
         id="g9522"
         transform="translate(518.94475,84.102442)">
        <path
           style="fill:none;fill-opacity:1;stroke:#000000;stroke-width:0.635;stroke-linecap:round;stroke-linejoin:bevel;stroke-dasharray:none;stroke-opacity:1;paint-order:normal"
           d="m 19.011962,-23.392467 3.948608,3.948609"
           id="path9518" />
        <path
           style="fill:none;fill-opacity:1;stroke:#000000;stroke-width:0.635;stroke-linecap:round;stroke-linejoin:bevel;stroke-dasharray:none;stroke-opacity:1;paint-order:normal"
           d="m 22.960571,-23.392466 -3.948609,3.948608"
           id="path9520" />
      </g>
      <g
         id="g9532"
         transform="translate(471.82331,-35.021732)">
        <path
           style="fill:none;fill-opacity:1;stroke:#000000;stroke-width:0.635;stroke-linecap:round;stroke-dasharray:none;stroke-opacity:1"
           d="M 47.188971,93.282978 H 71.38099"
           id="path9524" />
        <path
           style="fill:none;fill-opacity:1;stroke:#000000;stroke-width:0.635;stroke-linecap:round;stroke-dasharray:none;stroke-opacity:1"
           d="M 47.188971,102.20399 H 71.38099"
           id="path9526" />
        <path
           style="fill:none;fill-opacity:1;stroke:#000000;stroke-width:0.635;stroke-linecap:round;stroke-dasharray:none;stroke-opacity:1"
           d="M 63.708076,85.610064 V 109.80208"
           id="path9528" />
        <path
           style="fill:none;fill-opacity:1;stroke:#000000;stroke-width:0.635;stroke-linecap:round;stroke-dasharray:none;stroke-opacity:1"
           d="M 54.787064,85.610064 V 109.80208"
           id="path9530" />
      </g>
      <path
         style="fill:none;fill-opacity:1;stroke:#000000;stroke-width:0.635;stroke-linecap:round;stroke-linejoin:bevel;stroke-dasharray:none;stroke-opacity:1;paint-order:normal"
         d="m 520.2287,73.692068 3.94861,-3.948608"
         id="path9536" />
      <path
         style="fill:none;fill-opacity:1;stroke:#000000;stroke-width:0.635;stroke-linecap:round;stroke-linejoin:bevel;stroke-dasharray:none;stroke-opacity:1;paint-order:normal"
         d="m 520.2287,69.743459 3.94861,3.948609"
         id="path9538" />
      <g
         aria-label="0.5/2"
         id="text9544"
         style="font-size:6.0457px;fill:#868e96;stroke:#868e96;stroke-width:0.396875;stroke-linecap:round;stroke-linejoin:bevel">
        <path
           d="m 507.91444,42.329144 q 0,1.183752 -0.37195,1.738729 -0.369,0.552024 -1.14833,0.552024 -0.79114,0 -1.15719,-0.56088 -0.36309,-0.560881 -0.36309,-1.723969 0,-1.171945 0.369,-1.729873 0.369,-0.560881 1.15128,-0.560881 0.79113,0 1.15423,0.569737 0.36605,0.566784 0.36605,1.715113 z m -0.77638,1.340209 q 0.10332,-0.239113 0.13875,-0.560881 0.0384,-0.32472 0.0384,-0.779328 0,-0.448705 -0.0384,-0.779329 -0.0354,-0.330624 -0.1417,-0.56088 -0.10332,-0.227304 -0.28339,-0.342432 -0.17712,-0.115129 -0.45756,-0.115129 -0.27749,0 -0.46052,0.115129 -0.18007,0.115128 -0.28634,0.348336 -0.10037,0.218448 -0.13874,0.569736 -0.0354,0.351288 -0.0354,0.770473 0,0.460512 0.0325,0.770472 0.0325,0.30996 0.13875,0.554977 0.0974,0.230256 0.27453,0.351288 0.18008,0.121032 0.47528,0.121032 0.27749,0 0.46051,-0.115128 0.18302,-0.115128 0.28339,-0.348336 z"
           id="path334" />
        <path
           d="m 509.76534,44.528385 h -0.70553 v -0.84132 h 0.70553 z"
           id="path336" />
        <path
           d="m 513.92767,43.132088 q 0,0.307008 -0.11218,0.587449 -0.11218,0.28044 -0.30701,0.47232 -0.21254,0.20664 -0.50774,0.318816 -0.29225,0.109224 -0.67896,0.109224 -0.36015,0 -0.69372,-0.07675 -0.33358,-0.0738 -0.56384,-0.180072 v -0.622872 h 0.0413 q 0.24207,0.153504 0.56679,0.262728 0.32472,0.106272 0.63763,0.106272 0.20959,0 0.40442,-0.05904 0.19779,-0.05904 0.35129,-0.20664 0.12989,-0.126936 0.19483,-0.304057 0.0679,-0.17712 0.0679,-0.410328 0,-0.227304 -0.0797,-0.38376 -0.0768,-0.156456 -0.2155,-0.25092 -0.1535,-0.112176 -0.3749,-0.156456 -0.21845,-0.04723 -0.49004,-0.04723 -0.25977,0 -0.50184,0.03542 -0.23911,0.03542 -0.41328,0.07085 v -2.264186 h 2.645 v 0.516601 h -2.07526 v 1.168992 q 0.12693,-0.01181 0.25977,-0.01771 0.13285,-0.0059 0.23026,-0.0059 0.35719,0 0.62583,0.06199 0.26863,0.05904 0.49298,0.212545 0.23616,0.16236 0.36605,0.419184 0.12989,0.256824 0.12989,0.643536 z"
           id="path338" />
        <path
           d="m 516.89443,39.93507 -2.11659,5.490724 h -0.51069 l 2.10773,-5.490724 z"
           id="path340" />
        <path
           d="m 520.55196,44.528385 h -2.97562 v -0.616968 q 0.30996,-0.26568 0.61992,-0.531361 0.31291,-0.26568 0.58155,-0.528408 0.56678,-0.549072 0.77637,-0.870841 0.20959,-0.32472 0.20959,-0.699624 0,-0.342432 -0.2273,-0.534312 -0.22435,-0.194833 -0.62878,-0.194833 -0.26863,0 -0.58154,0.09446 -0.31291,0.09446 -0.61107,0.289296 h -0.0295 v -0.619921 q 0.2096,-0.10332 0.55793,-0.188928 0.35129,-0.08561 0.67896,-0.08561 0.67601,0 1.05977,0.327672 0.38376,0.324721 0.38376,0.882649 0,0.25092 -0.0649,0.469368 -0.062,0.215496 -0.18598,0.410329 -0.11513,0.183024 -0.27158,0.360144 -0.15351,0.17712 -0.37491,0.392616 -0.31586,0.30996 -0.65239,0.602208 -0.33653,0.289297 -0.62877,0.537265 h 2.36455 z"
           id="path342" />
      </g>
      <path
         id="circle9546"
         style="fill:none;stroke:#000000;stroke-width:0.798406;stroke-linejoin:bevel"
         transform="rotate(90)"
         d="m 56.134094,-485.03284 a 2.2909579,2.2909579 0 0 1 -2.290958,2.29096 2.2909579,2.2909579 0 0 1 -2.290958,-2.29096 2.2909579,2.2909579 0 0 1 2.290958,-2.29095 2.2909579,2.2909579 0 0 1 2.290958,2.29095 z" />
      <path
         style="fill:none;fill-opacity:1;stroke:#000000;stroke-width:0.635;stroke-linecap:round;stroke-linejoin:bevel;stroke-dasharray:none;stroke-opacity:1;paint-order:normal"
         d="m 504.94623,51.676622 -3.94861,3.948608"
         id="path9548" />
      <path
         style="fill:none;fill-opacity:1;stroke:#000000;stroke-width:0.635;stroke-linecap:round;stroke-linejoin:bevel;stroke-dasharray:none;stroke-opacity:1;paint-order:normal"
         d="m 504.94623,55.625231 -3.94861,-3.948609"
         id="path9550" />
      <path
         id="circle9554"
         style="fill:none;stroke:#000000;stroke-width:0.798406;stroke-linejoin:bevel"
         d="m 496.35761,62.684349 a 2.2909579,2.2909579 0 0 1 -2.29096,2.290958 2.2909579,2.2909579 0 0 1 -2.29096,-2.290958 2.2909579,2.2909579 0 0 1 2.29096,-2.290958 2.2909579,2.2909579 0 0 1 2.29096,2.290958 z" />
      <g
         aria-label="0.5/1"
         id="text9558"
         style="font-size:6.0457px;fill:#868e96;stroke:#868e96;stroke-width:0.396875;stroke-linecap:round;stroke-linejoin:bevel">
        <path
           d="m 489.39359,79.370812 q 0,1.183752 -0.37195,1.738729 -0.369,0.552024 -1.14833,0.552024 -0.79113,0 -1.15718,-0.56088 -0.3631,-0.560881 -0.3631,-1.723969 0,-1.171945 0.369,-1.729874 0.369,-0.56088 1.15128,-0.56088 0.79114,0 1.15424,0.569736 0.36604,0.566785 0.36604,1.715114 z m -0.77637,1.340209 q 0.10332,-0.239113 0.13874,-0.560881 0.0384,-0.32472 0.0384,-0.779328 0,-0.448705 -0.0384,-0.779329 -0.0354,-0.330624 -0.14169,-0.56088 -0.10332,-0.227304 -0.2834,-0.342433 -0.17712,-0.115128 -0.45756,-0.115128 -0.27748,0 -0.46051,0.115128 -0.18007,0.115129 -0.28634,0.348337 -0.10037,0.218448 -0.13875,0.569736 -0.0354,0.351288 -0.0354,0.770473 0,0.460512 0.0325,0.770472 0.0325,0.30996 0.13875,0.554977 0.0974,0.230256 0.27453,0.351288 0.18007,0.121032 0.47527,0.121032 0.27749,0 0.46052,-0.115128 0.18302,-0.115128 0.28339,-0.348336 z"
           id="path347" />
        <path
           d="m 491.2445,81.570053 h -0.70553 v -0.84132 h 0.70553 z"
           id="path349" />
        <path
           d="m 495.40682,80.173756 q 0,0.307008 -0.11217,0.587449 -0.11218,0.28044 -0.30701,0.47232 -0.21255,0.20664 -0.50775,0.318816 -0.29224,0.109224 -0.67896,0.109224 -0.36014,0 -0.69372,-0.07675 -0.33357,-0.0738 -0.56383,-0.180072 v -0.622872 h 0.0413 q 0.24206,0.153504 0.56678,0.262728 0.32472,0.106272 0.63764,0.106272 0.20959,0 0.40442,-0.05904 0.19778,-0.05904 0.35129,-0.20664 0.12989,-0.126936 0.19483,-0.304057 0.0679,-0.17712 0.0679,-0.410328 0,-0.227304 -0.0797,-0.38376 -0.0768,-0.156456 -0.21549,-0.25092 -0.15351,-0.112176 -0.37491,-0.156456 -0.21845,-0.04723 -0.49003,-0.04723 -0.25978,0 -0.50184,0.03542 -0.23911,0.03542 -0.41328,0.07085 v -2.264186 h 2.64499 v 0.5166 h -2.07525 v 1.168993 q 0.12693,-0.01181 0.25977,-0.01771 0.13284,-0.0059 0.23026,-0.0059 0.35719,0 0.62582,0.06199 0.26863,0.05904 0.49299,0.212544 0.23616,0.162361 0.36604,0.419185 0.12989,0.256824 0.12989,0.643536 z"
           id="path351" />
        <path
           d="m 498.37358,76.976738 -2.11658,5.490724 h -0.5107 l 2.10773,-5.490724 z"
           id="path353" />
        <path
           d="m 501.7802,81.570053 h -2.37932 v -0.448704 h 0.91512 v -2.946098 h -0.91512 v -0.401472 q 0.18598,0 0.39852,-0.02952 0.21255,-0.03247 0.32177,-0.09151 0.13579,-0.0738 0.21254,-0.185976 0.0797,-0.115128 0.0915,-0.307008 h 0.45756 v 3.961587 h 0.89741 z"
           id="path355" />
      </g>
      <g
         aria-label="0/1"
         id="text9562"
         style="font-size:6.0457px;fill:#868e96;stroke:#868e96;stroke-width:0.396875;stroke-linecap:round;stroke-linejoin:bevel">
        <path
           d="m 529.33415,79.370812 q 0,1.183752 -0.37196,1.738729 -0.369,0.552024 -1.14832,0.552024 -0.79114,0 -1.15719,-0.56088 -0.3631,-0.560881 -0.3631,-1.723969 0,-1.171945 0.369,-1.729874 0.369,-0.56088 1.15129,-0.56088 0.79113,0 1.15423,0.569736 0.36605,0.566785 0.36605,1.715114 z m -0.77638,1.340209 q 0.10332,-0.239113 0.13874,-0.560881 0.0384,-0.32472 0.0384,-0.779328 0,-0.448705 -0.0384,-0.779329 -0.0354,-0.330624 -0.14169,-0.56088 -0.10332,-0.227304 -0.28339,-0.342433 -0.17712,-0.115128 -0.45756,-0.115128 -0.27749,0 -0.46052,0.115128 -0.18007,0.115129 -0.28634,0.348337 -0.10037,0.218448 -0.13875,0.569736 -0.0354,0.351288 -0.0354,0.770473 0,0.460512 0.0325,0.770472 0.0325,0.30996 0.13875,0.554977 0.0974,0.230256 0.27453,0.351288 0.18008,0.121032 0.47528,0.121032 0.27748,0 0.46051,-0.115128 0.18302,-0.115128 0.28339,-0.348336 z"
           id="path358" />
        <path
           d="m 532.27139,76.976738 -2.11659,5.490724 h -0.51069 l 2.10773,-5.490724 z"
           id="path360" />
        <path
           d="m 535.678,81.570053 h -2.37932 v -0.448704 h 0.91513 v -2.946098 h -0.91513 v -0.401472 q 0.18598,0 0.39853,-0.02952 0.21254,-0.03247 0.32176,-0.09151 0.1358,-0.0738 0.21255,-0.185976 0.0797,-0.115128 0.0915,-0.307008 h 0.45756 v 3.961587 h 0.89741 z"
           id="path362" />
      </g>
      <path
         style="fill:none;fill-opacity:1;stroke:#66a80f;stroke-width:0.396875;stroke-linecap:round;stroke-linejoin:bevel;stroke-dasharray:none;stroke-opacity:1"
         d="m 503.28984,39.465143 c 0,0 -6.40668,2.178272 -7.55988,8.713083"
         id="path9564" />
      <path
         style="fill:none;fill-opacity:1;stroke:#66a80f;stroke-width:0.396875;stroke-linecap:round;stroke-linejoin:bevel;stroke-dasharray:none;stroke-opacity:1"
         d="m 521.22854,37.92754 c 0,0 7.04735,1.537603 9.61002,9.866287"
         id="path9566" />
      <g
         aria-label="0/0"
         id="text10029"
         style="font-size:6.0457px;fill:#868e96;stroke:#868e96;stroke-width:0.396875;stroke-linecap:round;stroke-linejoin:bevel">
        <path
           d="m 440.50721,121.70414 q 0,1.18375 -0.37195,1.73873 -0.369,0.55202 -1.14833,0.55202 -0.79114,0 -1.15718,-0.56088 -0.3631,-0.56088 -0.3631,-1.72397 0,-1.17194 0.369,-1.72987 0.369,-0.56088 1.15128,-0.56088 0.79114,0 1.15423,0.56974 0.36605,0.56678 0.36605,1.71511 z m -0.77637,1.34021 q 0.10332,-0.23911 0.13874,-0.56088 0.0384,-0.32472 0.0384,-0.77933 0,-0.4487 -0.0384,-0.77933 -0.0354,-0.33062 -0.1417,-0.56088 -0.10332,-0.2273 -0.28339,-0.34243 -0.17712,-0.11513 -0.45756,-0.11513 -0.27749,0 -0.46051,0.11513 -0.18007,0.11513 -0.28635,0.34833 -0.10036,0.21845 -0.13874,0.56974 -0.0354,0.35129 -0.0354,0.77047 0,0.46052 0.0325,0.77048 0.0325,0.30996 0.13874,0.55497 0.0974,0.23026 0.27454,0.35129 0.18007,0.12103 0.47527,0.12103 0.27749,0 0.46051,-0.11512 0.18303,-0.11513 0.2834,-0.34834 z"
           id="path365" />
        <path
           d="m 443.44445,119.31007 -2.11658,5.49072 h -0.5107 l 2.10773,-5.49072 z"
           id="path367" />
        <path
           d="m 447.09608,121.70414 q 0,1.18375 -0.37195,1.73873 -0.369,0.55202 -1.14833,0.55202 -0.79114,0 -1.15719,-0.56088 -0.36309,-0.56088 -0.36309,-1.72397 0,-1.17194 0.369,-1.72987 0.369,-0.56088 1.15128,-0.56088 0.79114,0 1.15423,0.56974 0.36605,0.56678 0.36605,1.71511 z m -0.77638,1.34021 q 0.10332,-0.23911 0.13875,-0.56088 0.0384,-0.32472 0.0384,-0.77933 0,-0.4487 -0.0384,-0.77933 -0.0354,-0.33062 -0.1417,-0.56088 -0.10332,-0.2273 -0.28339,-0.34243 -0.17712,-0.11513 -0.45756,-0.11513 -0.27749,0 -0.46051,0.11513 -0.18008,0.11513 -0.28635,0.34833 -0.10037,0.21845 -0.13874,0.56974 -0.0354,0.35129 -0.0354,0.77047 0,0.46052 0.0325,0.77048 0.0325,0.30996 0.13874,0.55497 0.0974,0.23026 0.27454,0.35129 0.18007,0.12103 0.47527,0.12103 0.27749,0 0.46051,-0.11512 0.18303,-0.11513 0.28339,-0.34834 z"
           id="path369" />
      </g>
      <g
         aria-label="0/0"
         id="text11102"
         style="font-size:6.0457px;fill:#868e96;stroke:#868e96;stroke-width:0.396875;stroke-linecap:round;stroke-linejoin:bevel">
        <path
           d="m 477.5489,121.70414 q 0,1.18375 -0.37195,1.73873 -0.369,0.55202 -1.14833,0.55202 -0.79114,0 -1.15719,-0.56088 -0.36309,-0.56088 -0.36309,-1.72397 0,-1.17194 0.369,-1.72987 0.369,-0.56088 1.15128,-0.56088 0.79113,0 1.15423,0.56974 0.36605,0.56678 0.36605,1.71511 z m -0.77638,1.34021 q 0.10332,-0.23911 0.13875,-0.56088 0.0384,-0.32472 0.0384,-0.77933 0,-0.4487 -0.0384,-0.77933 -0.0354,-0.33062 -0.1417,-0.56088 -0.10332,-0.2273 -0.28339,-0.34243 -0.17712,-0.11513 -0.45756,-0.11513 -0.27749,0 -0.46051,0.11513 -0.18008,0.11513 -0.28635,0.34833 -0.10037,0.21845 -0.13874,0.56974 -0.0354,0.35129 -0.0354,0.77047 0,0.46052 0.0325,0.77048 0.0325,0.30996 0.13874,0.55497 0.0974,0.23026 0.27454,0.35129 0.18007,0.12103 0.47527,0.12103 0.27749,0 0.46051,-0.11512 0.18302,-0.11513 0.28339,-0.34834 z"
           id="path372" />
        <path
           d="m 480.48614,119.31007 -2.11658,5.49072 h -0.5107 l 2.10773,-5.49072 z"
           id="path374" />
        <path
           d="m 484.13777,121.70414 q 0,1.18375 -0.37196,1.73873 -0.369,0.55202 -1.14832,0.55202 -0.79114,0 -1.15719,-0.56088 -0.3631,-0.56088 -0.3631,-1.72397 0,-1.17194 0.36901,-1.72987 0.369,-0.56088 1.15128,-0.56088 0.79113,0 1.15423,0.56974 0.36605,0.56678 0.36605,1.71511 z m -0.77638,1.34021 q 0.10332,-0.23911 0.13874,-0.56088 0.0384,-0.32472 0.0384,-0.77933 0,-0.4487 -0.0384,-0.77933 -0.0354,-0.33062 -0.14169,-0.56088 -0.10332,-0.2273 -0.28339,-0.34243 -0.17712,-0.11513 -0.45756,-0.11513 -0.27749,0 -0.46052,0.11513 -0.18007,0.11513 -0.28634,0.34833 -0.10037,0.21845 -0.13874,0.56974 -0.0354,0.35129 -0.0354,0.77047 0,0.46052 0.0325,0.77048 0.0325,0.30996 0.13875,0.55497 0.0974,0.23026 0.27453,0.35129 0.18008,0.12103 0.47528,0.12103 0.27748,0 0.46051,-0.11512 0.18302,-0.11513 0.28339,-0.34834 z"
           id="path376" />
      </g>
      <path
         id="circle12119"
         style="fill:none;stroke:#000000;stroke-width:0.798406;stroke-linejoin:bevel"
         transform="rotate(90)"
         d="m 98.467426,-433.24759 a 2.2909579,2.2909579 0 0 1 -2.290958,2.29096 2.2909579,2.2909579 0 0 1 -2.290958,-2.29096 2.2909579,2.2909579 0 0 1 2.290958,-2.29096 2.2909579,2.2909579 0 0 1 2.290958,2.29096 z" />
      <g
         id="g12127"
         transform="translate(382.2429,47.624996)">
        <g
           id="g12125"
           transform="rotate(90,10.076322,37.449316)">
          <path
             style="fill:none;fill-opacity:1;stroke:#000000;stroke-width:0.635;stroke-linecap:round;stroke-linejoin:bevel;stroke-dasharray:none;stroke-opacity:1;paint-order:normal"
             d="m 19.011962,-23.392467 3.948608,3.948609"
             id="path12121" />
          <path
             style="fill:none;fill-opacity:1;stroke:#000000;stroke-width:0.635;stroke-linecap:round;stroke-linejoin:bevel;stroke-dasharray:none;stroke-opacity:1;paint-order:normal"
             d="m 22.960571,-23.392466 -3.948609,3.948608"
             id="path12123" />
        </g>
      </g>
      <path
         id="circle12129"
         style="fill:none;stroke:#000000;stroke-width:0.798406;stroke-linejoin:bevel"
         d="m 444.57236,105.01768 a 2.2909579,2.2909579 0 0 1 -2.29096,2.29096 2.2909579,2.2909579 0 0 1 -2.29096,-2.29096 2.2909579,2.2909579 0 0 1 2.29096,-2.29096 2.2909579,2.2909579 0 0 1 2.29096,2.29096 z" />
      <g
         id="g12135"
         transform="rotate(-90,294.91582,-159.87846)">
        <path
           style="fill:none;fill-opacity:1;stroke:#000000;stroke-width:0.635;stroke-linecap:round;stroke-linejoin:bevel;stroke-dasharray:none;stroke-opacity:1;paint-order:normal"
           d="m 19.011962,-23.392467 3.948608,3.948609"
           id="path12131" />
        <path
           style="fill:none;fill-opacity:1;stroke:#000000;stroke-width:0.635;stroke-linecap:round;stroke-linejoin:bevel;stroke-dasharray:none;stroke-opacity:1;paint-order:normal"
           d="m 22.960571,-23.392466 -3.948609,3.948608"
           id="path12133" />
      </g>
      <g
         id="g12153"
         transform="rotate(90,227.34745,272.32662)">
        <g
           id="g12151"
           transform="rotate(90,10.076322,37.449316)">
          <path
             style="fill:none;fill-opacity:1;stroke:#000000;stroke-width:0.635;stroke-linecap:round;stroke-linejoin:bevel;stroke-dasharray:none;stroke-opacity:1;paint-order:normal"
             d="m 19.011962,-23.392467 3.948608,3.948609"
             id="path12147" />
          <path
             style="fill:none;fill-opacity:1;stroke:#000000;stroke-width:0.635;stroke-linecap:round;stroke-linejoin:bevel;stroke-dasharray:none;stroke-opacity:1;paint-order:normal"
             d="m 22.960571,-23.392466 -3.948609,3.948608"
             id="path12149" />
        </g>
      </g>
      <g
         id="g12980"
         transform="rotate(-90,448.08565,105.53027)">
        <g
           id="g12145"
           transform="translate(389.31326,2.019936)">
          <path
             style="fill:none;fill-opacity:1;stroke:#000000;stroke-width:0.635;stroke-linecap:round;stroke-dasharray:none;stroke-opacity:1"
             d="M 47.188971,93.282978 H 71.38099"
             id="path12137" />
          <path
             style="fill:none;fill-opacity:1;stroke:#000000;stroke-width:0.635;stroke-linecap:round;stroke-dasharray:none;stroke-opacity:1"
             d="M 47.188971,102.20399 H 71.38099"
             id="path12139" />
          <path
             style="fill:none;fill-opacity:1;stroke:#000000;stroke-width:0.635;stroke-linecap:round;stroke-dasharray:none;stroke-opacity:1"
             d="M 63.708076,85.610064 V 109.80208"
             id="path12141" />
          <path
             style="fill:none;fill-opacity:1;stroke:#000000;stroke-width:0.635;stroke-linecap:round;stroke-dasharray:none;stroke-opacity:1"
             d="M 54.787064,85.610064 V 109.80208"
             id="path12143" />
        </g>
        <path
           id="circle12157"
           style="fill:none;stroke:#000000;stroke-width:0.798406;stroke-linejoin:bevel"
           d="m 450.88919,108.75983 a 2.2909579,2.2909579 0 0 1 -2.29095,2.29095 2.2909579,2.2909579 0 0 1 -2.29096,-2.29095 2.2909579,2.2909579 0 0 1 2.29096,-2.29096 2.2909579,2.2909579 0 0 1 2.29095,2.29096 z" />
      </g>
      <path
         id="circle13447"
         style="fill:none;stroke:#000000;stroke-width:0.798406;stroke-linejoin:bevel"
         transform="rotate(90)"
         d="m 98.467426,-470.28925 a 2.2909579,2.2909579 0 0 1 -2.290958,2.29096 2.2909579,2.2909579 0 0 1 -2.290958,-2.29096 2.2909579,2.2909579 0 0 1 2.290958,-2.29095 2.2909579,2.2909579 0 0 1 2.290958,2.29095 z" />
      <g
         id="g13455"
         transform="translate(419.28456,47.624996)">
        <g
           id="g13453"
           transform="rotate(90,10.076322,37.449316)">
          <path
             style="fill:none;fill-opacity:1;stroke:#000000;stroke-width:0.635;stroke-linecap:round;stroke-linejoin:bevel;stroke-dasharray:none;stroke-opacity:1;paint-order:normal"
             d="m 19.011962,-23.392467 3.948608,3.948609"
             id="path13449" />
          <path
             style="fill:none;fill-opacity:1;stroke:#000000;stroke-width:0.635;stroke-linecap:round;stroke-linejoin:bevel;stroke-dasharray:none;stroke-opacity:1;paint-order:normal"
             d="m 22.960571,-23.392466 -3.948609,3.948608"
             id="path13451" />
        </g>
      </g>
      <path
         id="circle13457"
         style="fill:none;stroke:#000000;stroke-width:0.798406;stroke-linejoin:bevel"
         d="m 481.61402,105.01768 a 2.2909579,2.2909579 0 0 1 -2.29096,2.29096 2.2909579,2.2909579 0 0 1 -2.29096,-2.29096 2.2909579,2.2909579 0 0 1 2.29096,-2.29096 2.2909579,2.2909579 0 0 1 2.29096,2.29096 z" />
      <g
         id="g13463"
         transform="rotate(-90,313.43665,-178.39929)">
        <path
           style="fill:none;fill-opacity:1;stroke:#000000;stroke-width:0.635;stroke-linecap:round;stroke-linejoin:bevel;stroke-dasharray:none;stroke-opacity:1;paint-order:normal"
           d="m 19.011962,-23.392467 3.948608,3.948609"
           id="path13459" />
        <path
           style="fill:none;fill-opacity:1;stroke:#000000;stroke-width:0.635;stroke-linecap:round;stroke-linejoin:bevel;stroke-dasharray:none;stroke-opacity:1;paint-order:normal"
           d="m 22.960571,-23.392466 -3.948609,3.948608"
           id="path13461" />
      </g>
      <g
         id="g13471"
         transform="rotate(90,245.86828,290.84745)">
        <g
           id="g13469"
           transform="rotate(90,10.076322,37.449316)">
          <path
             style="fill:none;fill-opacity:1;stroke:#000000;stroke-width:0.635;stroke-linecap:round;stroke-linejoin:bevel;stroke-dasharray:none;stroke-opacity:1;paint-order:normal"
             d="m 19.011962,-23.392467 3.948608,3.948609"
             id="path13465" />
          <path
             style="fill:none;fill-opacity:1;stroke:#000000;stroke-width:0.635;stroke-linecap:round;stroke-linejoin:bevel;stroke-dasharray:none;stroke-opacity:1;paint-order:normal"
             d="m 22.960571,-23.392466 -3.948609,3.948608"
             id="path13467" />
        </g>
      </g>
      <g
         id="g13485"
         transform="rotate(90,461.31481,117.73425)">
        <g
           id="g13481"
           transform="translate(389.31326,2.019936)">
          <path
             style="fill:none;fill-opacity:1;stroke:#000000;stroke-width:0.635;stroke-linecap:round;stroke-dasharray:none;stroke-opacity:1"
             d="M 47.188971,93.282978 H 71.38099"
             id="path13473" />
          <path
             style="fill:none;fill-opacity:1;stroke:#000000;stroke-width:0.635;stroke-linecap:round;stroke-dasharray:none;stroke-opacity:1"
             d="M 47.188971,102.20399 H 71.38099"
             id="path13475" />
          <path
             style="fill:none;fill-opacity:1;stroke:#000000;stroke-width:0.635;stroke-linecap:round;stroke-dasharray:none;stroke-opacity:1"
             d="M 63.708076,85.610064 V 109.80208"
             id="path13477" />
          <path
             style="fill:none;fill-opacity:1;stroke:#000000;stroke-width:0.635;stroke-linecap:round;stroke-dasharray:none;stroke-opacity:1"
             d="M 54.787064,85.610064 V 109.80208"
             id="path13479" />
        </g>
        <path
           id="circle13483"
           style="fill:none;stroke:#000000;stroke-width:0.798406;stroke-linejoin:bevel"
           d="m 450.88919,108.75983 a 2.2909579,2.2909579 0 0 1 -2.29095,2.29095 2.2909579,2.2909579 0 0 1 -2.29096,-2.29095 2.2909579,2.2909579 0 0 1 2.29096,-2.29096 2.2909579,2.2909579 0 0 1 2.29095,2.29096 z" />
      </g>
      <g
         aria-label="0/0"
         id="text14884"
         style="font-size:6.0457px;fill:#868e96;stroke:#868e96;stroke-width:0.396875;stroke-linecap:round;stroke-linejoin:bevel">
        <path
           d="m 514.59059,121.70414 q 0,1.18375 -0.37196,1.73873 -0.369,0.55202 -1.14833,0.55202 -0.79113,0 -1.15718,-0.56088 -0.3631,-0.56088 -0.3631,-1.72397 0,-1.17194 0.369,-1.72987 0.369,-0.56088 1.15128,-0.56088 0.79114,0 1.15424,0.56974 0.36605,0.56678 0.36605,1.71511 z m -0.77638,1.34021 q 0.10332,-0.23911 0.13874,-0.56088 0.0384,-0.32472 0.0384,-0.77933 0,-0.4487 -0.0384,-0.77933 -0.0354,-0.33062 -0.14169,-0.56088 -0.10332,-0.2273 -0.2834,-0.34243 -0.17712,-0.11513 -0.45756,-0.11513 -0.27748,0 -0.46051,0.11513 -0.18007,0.11513 -0.28634,0.34833 -0.10037,0.21845 -0.13875,0.56974 -0.0354,0.35129 -0.0354,0.77047 0,0.46052 0.0325,0.77048 0.0325,0.30996 0.13875,0.55497 0.0974,0.23026 0.27453,0.35129 0.18007,0.12103 0.47527,0.12103 0.27749,0 0.46052,-0.11512 0.18302,-0.11513 0.28339,-0.34834 z"
           id="path385" />
        <path
           d="m 517.52783,119.31007 -2.11659,5.49072 h -0.51069 l 2.10773,-5.49072 z"
           id="path387" />
        <path
           d="m 521.17945,121.70414 q 0,1.18375 -0.37195,1.73873 -0.369,0.55202 -1.14833,0.55202 -0.79113,0 -1.15718,-0.56088 -0.3631,-0.56088 -0.3631,-1.72397 0,-1.17194 0.369,-1.72987 0.369,-0.56088 1.15128,-0.56088 0.79114,0 1.15424,0.56974 0.36604,0.56678 0.36604,1.71511 z m -0.77637,1.34021 q 0.10332,-0.23911 0.13874,-0.56088 0.0384,-0.32472 0.0384,-0.77933 0,-0.4487 -0.0384,-0.77933 -0.0354,-0.33062 -0.14169,-0.56088 -0.10332,-0.2273 -0.2834,-0.34243 -0.17712,-0.11513 -0.45756,-0.11513 -0.27749,0 -0.46051,0.11513 -0.18007,0.11513 -0.28634,0.34833 -0.10037,0.21845 -0.13875,0.56974 -0.0354,0.35129 -0.0354,0.77047 0,0.46052 0.0325,0.77048 0.0325,0.30996 0.13874,0.55497 0.0974,0.23026 0.27454,0.35129 0.18007,0.12103 0.47527,0.12103 0.27749,0 0.46052,-0.11512 0.18302,-0.11513 0.28339,-0.34834 z"
           id="path389" />
      </g>
      <path
         id="circle14886"
         style="fill:none;stroke:#000000;stroke-width:0.798406;stroke-linejoin:bevel"
         transform="rotate(90)"
         d="m 98.467426,-507.33093 a 2.2909579,2.2909579 0 0 1 -2.290958,2.29096 2.2909579,2.2909579 0 0 1 -2.290958,-2.29096 2.2909579,2.2909579 0 0 1 2.290958,-2.29096 2.2909579,2.2909579 0 0 1 2.290958,2.29096 z" />
      <g
         id="g14894"
         transform="translate(456.32624,47.624996)">
        <g
           id="g14892"
           transform="rotate(90,10.076322,37.449316)">
          <path
             style="fill:none;fill-opacity:1;stroke:#000000;stroke-width:0.635;stroke-linecap:round;stroke-linejoin:bevel;stroke-dasharray:none;stroke-opacity:1;paint-order:normal"
             d="m 19.011962,-23.392467 3.948608,3.948609"
             id="path14888" />
          <path
             style="fill:none;fill-opacity:1;stroke:#000000;stroke-width:0.635;stroke-linecap:round;stroke-linejoin:bevel;stroke-dasharray:none;stroke-opacity:1;paint-order:normal"
             d="m 22.960571,-23.392466 -3.948609,3.948608"
             id="path14890" />
        </g>
      </g>
      <path
         id="circle14896"
         style="fill:none;stroke:#000000;stroke-width:0.798406;stroke-linejoin:bevel"
         d="m 518.6557,105.01768 a 2.2909579,2.2909579 0 0 1 -2.29095,2.29096 2.2909579,2.2909579 0 0 1 -2.29096,-2.29096 2.2909579,2.2909579 0 0 1 2.29096,-2.29096 2.2909579,2.2909579 0 0 1 2.29095,2.29096 z" />
      <g
         id="g14902"
         transform="rotate(-90,331.95749,-196.92013)">
        <path
           style="fill:none;fill-opacity:1;stroke:#000000;stroke-width:0.635;stroke-linecap:round;stroke-linejoin:bevel;stroke-dasharray:none;stroke-opacity:1;paint-order:normal"
           d="m 19.011962,-23.392467 3.948608,3.948609"
           id="path14898" />
        <path
           style="fill:none;fill-opacity:1;stroke:#000000;stroke-width:0.635;stroke-linecap:round;stroke-linejoin:bevel;stroke-dasharray:none;stroke-opacity:1;paint-order:normal"
           d="m 22.960571,-23.392466 -3.948609,3.948608"
           id="path14900" />
      </g>
      <g
         id="g14910"
         transform="rotate(90,264.38912,309.36829)">
        <g
           id="g14908"
           transform="rotate(90,10.076322,37.449316)">
          <path
             style="fill:none;fill-opacity:1;stroke:#000000;stroke-width:0.635;stroke-linecap:round;stroke-linejoin:bevel;stroke-dasharray:none;stroke-opacity:1;paint-order:normal"
             d="m 19.011962,-23.392467 3.948608,3.948609"
             id="path14904" />
          <path
             style="fill:none;fill-opacity:1;stroke:#000000;stroke-width:0.635;stroke-linecap:round;stroke-linejoin:bevel;stroke-dasharray:none;stroke-opacity:1;paint-order:normal"
             d="m 22.960571,-23.392466 -3.948609,3.948608"
             id="path14906" />
        </g>
      </g>
      <g
         id="g14924"
         transform="translate(67.766503,5.2916696)">
        <g
           id="g14920"
           transform="translate(389.31326,2.019936)">
          <path
             style="fill:none;fill-opacity:1;stroke:#000000;stroke-width:0.635;stroke-linecap:round;stroke-dasharray:none;stroke-opacity:1"
             d="M 47.188971,93.282978 H 71.38099"
             id="path14912" />
          <path
             style="fill:none;fill-opacity:1;stroke:#000000;stroke-width:0.635;stroke-linecap:round;stroke-dasharray:none;stroke-opacity:1"
             d="M 47.188971,102.20399 H 71.38099"
             id="path14914" />
          <path
             style="fill:none;fill-opacity:1;stroke:#000000;stroke-width:0.635;stroke-linecap:round;stroke-dasharray:none;stroke-opacity:1"
             d="M 63.708076,85.610064 V 109.80208"
             id="path14916" />
          <path
             style="fill:none;fill-opacity:1;stroke:#000000;stroke-width:0.635;stroke-linecap:round;stroke-dasharray:none;stroke-opacity:1"
             d="M 54.787064,85.610064 V 109.80208"
             id="path14918" />
        </g>
        <path
           id="circle14922"
           style="fill:none;stroke:#000000;stroke-width:0.798406;stroke-linejoin:bevel"
           d="m 450.88919,108.75983 a 2.2909579,2.2909579 0 0 1 -2.29095,2.29095 2.2909579,2.2909579 0 0 1 -2.29096,-2.29095 2.2909579,2.2909579 0 0 1 2.29096,-2.29096 2.2909579,2.2909579 0 0 1 2.29095,2.29096 z" />
      </g>
      <g
         aria-label="0/0"
         id="text19190"
         style="font-size:6.0457px;fill:#868e96;stroke:#868e96;stroke-width:0.396875;stroke-linecap:round;stroke-linejoin:bevel">
        <path
           d="m 551.61765,121.70414 q 0,1.18375 -0.37195,1.73873 -0.369,0.55202 -1.14833,0.55202 -0.79113,0 -1.15718,-0.56088 -0.3631,-0.56088 -0.3631,-1.72397 0,-1.17194 0.369,-1.72987 0.369,-0.56088 1.15128,-0.56088 0.79114,0 1.15424,0.56974 0.36604,0.56678 0.36604,1.71511 z m -0.77637,1.34021 q 0.10332,-0.23911 0.13874,-0.56088 0.0384,-0.32472 0.0384,-0.77933 0,-0.4487 -0.0384,-0.77933 -0.0354,-0.33062 -0.14169,-0.56088 -0.10332,-0.2273 -0.2834,-0.34243 -0.17712,-0.11513 -0.45756,-0.11513 -0.27748,0 -0.46051,0.11513 -0.18007,0.11513 -0.28634,0.34833 -0.10037,0.21845 -0.13875,0.56974 -0.0354,0.35129 -0.0354,0.77047 0,0.46052 0.0325,0.77048 0.0325,0.30996 0.13875,0.55497 0.0974,0.23026 0.27453,0.35129 0.18007,0.12103 0.47527,0.12103 0.27749,0 0.46052,-0.11512 0.18302,-0.11513 0.28339,-0.34834 z"
           id="path395" />
        <path
           d="m 554.5549,119.31007 -2.11659,5.49072 h -0.5107 l 2.10773,-5.49072 z"
           id="path397" />
        <path
           d="m 558.20652,121.70414 q 0,1.18375 -0.37195,1.73873 -0.369,0.55202 -1.14833,0.55202 -0.79113,0 -1.15718,-0.56088 -0.3631,-0.56088 -0.3631,-1.72397 0,-1.17194 0.369,-1.72987 0.369,-0.56088 1.15128,-0.56088 0.79114,0 1.15423,0.56974 0.36605,0.56678 0.36605,1.71511 z m -0.77637,1.34021 q 0.10332,-0.23911 0.13874,-0.56088 0.0384,-0.32472 0.0384,-0.77933 0,-0.4487 -0.0384,-0.77933 -0.0354,-0.33062 -0.1417,-0.56088 -0.10332,-0.2273 -0.28339,-0.34243 -0.17712,-0.11513 -0.45756,-0.11513 -0.27749,0 -0.46051,0.11513 -0.18007,0.11513 -0.28634,0.34833 -0.10037,0.21845 -0.13875,0.56974 -0.0354,0.35129 -0.0354,0.77047 0,0.46052 0.0325,0.77048 0.0325,0.30996 0.13874,0.55497 0.0974,0.23026 0.27454,0.35129 0.18007,0.12103 0.47527,0.12103 0.27749,0 0.46051,-0.11512 0.18303,-0.11513 0.2834,-0.34834 z"
           id="path399" />
      </g>
      <path
         id="circle19192"
         style="fill:none;stroke:#000000;stroke-width:0.798406;stroke-linejoin:bevel"
         transform="rotate(90)"
         d="m 98.467426,-544.35797 a 2.2909579,2.2909579 0 0 1 -2.290958,2.29096 2.2909579,2.2909579 0 0 1 -2.290958,-2.29096 2.2909579,2.2909579 0 0 1 2.290958,-2.29096 2.2909579,2.2909579 0 0 1 2.290958,2.29096 z" />
      <g
         id="g19200"
         transform="translate(493.35325,47.624996)">
        <g
           id="g19198"
           transform="rotate(90,10.076322,37.449316)">
          <path
             style="fill:none;fill-opacity:1;stroke:#000000;stroke-width:0.635;stroke-linecap:round;stroke-linejoin:bevel;stroke-dasharray:none;stroke-opacity:1;paint-order:normal"
             d="m 19.011962,-23.392467 3.948608,3.948609"
             id="path19194" />
          <path
             style="fill:none;fill-opacity:1;stroke:#000000;stroke-width:0.635;stroke-linecap:round;stroke-linejoin:bevel;stroke-dasharray:none;stroke-opacity:1;paint-order:normal"
             d="m 22.960571,-23.392466 -3.948609,3.948608"
             id="path19196" />
        </g>
      </g>
      <path
         id="circle19202"
         style="fill:none;stroke:#000000;stroke-width:0.798406;stroke-linejoin:bevel"
         d="m 555.68274,105.01768 a 2.2909579,2.2909579 0 0 1 -2.29096,2.29096 2.2909579,2.2909579 0 0 1 -2.29095,-2.29096 2.2909579,2.2909579 0 0 1 2.29095,-2.29096 2.2909579,2.2909579 0 0 1 2.29096,2.29096 z" />
      <g
         id="g19208"
         transform="rotate(-90,350.471,-215.43364)">
        <path
           style="fill:none;fill-opacity:1;stroke:#000000;stroke-width:0.635;stroke-linecap:round;stroke-linejoin:bevel;stroke-dasharray:none;stroke-opacity:1;paint-order:normal"
           d="m 19.011962,-23.392467 3.948608,3.948609"
           id="path19204" />
        <path
           style="fill:none;fill-opacity:1;stroke:#000000;stroke-width:0.635;stroke-linecap:round;stroke-linejoin:bevel;stroke-dasharray:none;stroke-opacity:1;paint-order:normal"
           d="m 22.960571,-23.392466 -3.948609,3.948608"
           id="path19206" />
      </g>
      <g
         id="g19216"
         transform="rotate(90,282.90263,327.8818)">
        <g
           id="g19214"
           transform="rotate(90,10.076322,37.449316)">
          <path
             style="fill:none;fill-opacity:1;stroke:#000000;stroke-width:0.635;stroke-linecap:round;stroke-linejoin:bevel;stroke-dasharray:none;stroke-opacity:1;paint-order:normal"
             d="m 19.011962,-23.392467 3.948608,3.948609"
             id="path19210" />
          <path
             style="fill:none;fill-opacity:1;stroke:#000000;stroke-width:0.635;stroke-linecap:round;stroke-linejoin:bevel;stroke-dasharray:none;stroke-opacity:1;paint-order:normal"
             d="m 22.960571,-23.392466 -3.948609,3.948608"
             id="path19212" />
        </g>
      </g>
      <g
         id="g19226"
         transform="rotate(180,306.33694,101.36297)">
        <path
           style="fill:none;fill-opacity:1;stroke:#000000;stroke-width:0.635;stroke-linecap:round;stroke-dasharray:none;stroke-opacity:1"
           d="M 47.188971,93.282978 H 71.38099"
           id="path19218" />
        <path
           style="fill:none;fill-opacity:1;stroke:#000000;stroke-width:0.635;stroke-linecap:round;stroke-dasharray:none;stroke-opacity:1"
           d="M 47.188971,102.20399 H 71.38099"
           id="path19220" />
        <path
           style="fill:none;fill-opacity:1;stroke:#000000;stroke-width:0.635;stroke-linecap:round;stroke-dasharray:none;stroke-opacity:1"
           d="M 63.708076,85.610064 V 109.80208"
           id="path19222" />
        <path
           style="fill:none;fill-opacity:1;stroke:#000000;stroke-width:0.635;stroke-linecap:round;stroke-dasharray:none;stroke-opacity:1"
           d="M 54.787064,85.610064 V 109.80208"
           id="path19224" />
      </g>
      <path
         id="circle19228"
         style="fill:none;stroke:#000000;stroke-width:0.798406;stroke-linejoin:bevel"
         transform="scale(-1)"
         d="m -551.09802,-96.088081 a 2.2909579,2.2909579 0 0 1 -2.29096,2.290958 2.2909579,2.2909579 0 0 1 -2.29095,-2.290958 2.2909579,2.2909579 0 0 1 2.29095,-2.290958 2.2909579,2.2909579 0 0 1 2.29096,2.290958 z" />
      <path
         style="fill:none;fill-opacity:1;stroke:#d6336c;stroke-width:0.396875;stroke-linecap:round;stroke-linejoin:bevel;stroke-opacity:1"
         d="m 480.10399,76.157956 c 0,0 -21.2825,0.153111 -28.93806,14.086251"
         id="path21337" />
      <path
         style="fill:none;fill-opacity:1;stroke:#d6336c;stroke-width:0.396875;stroke-linecap:round;stroke-linejoin:bevel;stroke-opacity:1"
         d="m 489.13755,83.507303 c 0,0 -3.67466,1.224892 -5.51201,5.971345"
         id="path21339" />
      <path
         style="fill:none;fill-opacity:1;stroke:#d6336c;stroke-width:0.396875;stroke-linecap:round;stroke-linejoin:bevel;stroke-opacity:1"
         d="m 504.90804,80.291965 c 0,0 7.19622,1.990447 10.7178,9.79913"
         id="path21341" />
      <path
         style="fill:none;fill-opacity:1;stroke:#d6336c;stroke-width:0.396875;stroke-linecap:round;stroke-linejoin:bevel;stroke-opacity:1"
         d="m 509.04205,78.76085 c 0,0 26.79449,3.674674 36.59363,12.402024"
         id="path21343" />
    </g>
  </g>
</svg>
