<?xml version="1.0" encoding="UTF-8" standalone="no"?>
<!-- Created with Inkscape (http://www.inkscape.org/) -->

<svg
   width="256"
   height="280"
   viewBox="0 0 67.733334 74.083339"
   version="1.1"
   id="svg5"
   inkscape:version="1.2.1 (9c6d41e, 2022-07-14)"
   sodipodi:docname="fig-5.svg"
   xmlns:inkscape="http://www.inkscape.org/namespaces/inkscape"
   xmlns:sodipodi="http://sodipodi.sourceforge.net/DTD/sodipodi-0.dtd"
   xmlns="http://www.w3.org/2000/svg"
   xmlns:svg="http://www.w3.org/2000/svg">
  <sodipodi:namedview
     id="namedview7"
     pagecolor="#ffffff"
     bordercolor="#999999"
     borderopacity="1"
     inkscape:showpageshadow="0"
     inkscape:pageopacity="0"
     inkscape:pagecheckerboard="0"
     inkscape:deskcolor="#d1d1d1"
     inkscape:document-units="px"
     showgrid="false"
     inkscape:zoom="1.2219121"
     inkscape:cx="204.59738"
     inkscape:cy="229.55826"
     inkscape:window-width="1512"
     inkscape:window-height="843"
     inkscape:window-x="0"
     inkscape:window-y="38"
     inkscape:window-maximized="1"
     inkscape:current-layer="layer1" />
  <defs
     id="defs2">
    <rect
       x="1592.5861"
       y="439.47516"
       width="152.62964"
       height="61.788406"
       id="rect11569" />
  </defs>
  <g
     inkscape:label="Layer 1"
     inkscape:groupmode="layer"
     id="layer1"
     transform="translate(-256.43165,-13.229166)">
    <g
       id="g975"
       transform="translate(2.9323206,2.3233015)">
      <path
         id="circle6772"
         style="fill:none;stroke:#000000;stroke-width:0.798406;stroke-linejoin:bevel"
         transform="rotate(90)"
         d="m 19.092424,-278.33218 a 2.2909579,2.2909579 0 0 1 -2.290958,2.29095 2.2909579,2.2909579 0 0 1 -2.290958,-2.29095 2.2909579,2.2909579 0 0 1 2.290958,-2.29096 2.2909579,2.2909579 0 0 1 2.290958,2.29096 z" />
      <g
         id="g6778"
         transform="rotate(90,139.61506,135.23806)">
        <path
           style="fill:none;fill-opacity:1;stroke:#000000;stroke-width:0.635;stroke-linecap:round;stroke-linejoin:bevel;stroke-dasharray:none;stroke-opacity:1;paint-order:normal"
           d="m 19.011962,-23.392467 3.948608,3.948609"
           id="path6774" />
        <path
           style="fill:none;fill-opacity:1;stroke:#000000;stroke-width:0.635;stroke-linecap:round;stroke-linejoin:bevel;stroke-dasharray:none;stroke-opacity:1;paint-order:normal"
           d="m 22.960571,-23.392466 -3.948609,3.948608"
           id="path6776" />
      </g>
      <path
         id="circle6780"
         style="fill:none;stroke:#000000;stroke-width:0.798406;stroke-linejoin:bevel"
         d="m 289.65696,25.642679 a 2.2909579,2.2909579 0 0 1 -2.29096,2.290958 2.2909579,2.2909579 0 0 1 -2.29096,-2.290958 2.2909579,2.2909579 0 0 1 2.29096,-2.290958 2.2909579,2.2909579 0 0 1 2.29096,2.290958 z" />
      <g
         id="g6798"
         transform="rotate(180,198.12031,32.839079)">
        <g
           id="g6790"
           transform="rotate(90,112.9151,93.665602)">
          <path
             style="fill:none;fill-opacity:1;stroke:#000000;stroke-width:0.635;stroke-linecap:round;stroke-dasharray:none;stroke-opacity:1"
             d="M 47.188971,93.282978 H 71.38099"
             id="path6782" />
          <path
             style="fill:none;fill-opacity:1;stroke:#000000;stroke-width:0.635;stroke-linecap:round;stroke-dasharray:none;stroke-opacity:1"
             d="M 47.188971,102.20399 H 71.38099"
             id="path6784" />
          <path
             style="fill:none;fill-opacity:1;stroke:#000000;stroke-width:0.635;stroke-linecap:round;stroke-dasharray:none;stroke-opacity:1"
             d="M 63.708076,85.610064 V 109.80208"
             id="path6786" />
          <path
             style="fill:none;fill-opacity:1;stroke:#000000;stroke-width:0.635;stroke-linecap:round;stroke-dasharray:none;stroke-opacity:1"
             d="M 54.787064,85.610064 V 109.80208"
             id="path6788" />
        </g>
        <g
           id="g6796"
           transform="rotate(90,43.172974,53.188774)">
          <path
             style="fill:none;fill-opacity:1;stroke:#000000;stroke-width:0.635;stroke-linecap:round;stroke-linejoin:bevel;stroke-dasharray:none;stroke-opacity:1;paint-order:normal"
             d="m 19.011962,-23.392467 3.948608,3.948609"
             id="path6792" />
          <path
             style="fill:none;fill-opacity:1;stroke:#000000;stroke-width:0.635;stroke-linecap:round;stroke-linejoin:bevel;stroke-dasharray:none;stroke-opacity:1;paint-order:normal"
             d="m 22.960571,-23.392466 -3.948609,3.948608"
             id="path6794" />
        </g>
      </g>
      <path
         id="circle6800"
         style="fill:none;stroke:#000000;stroke-width:0.798406;stroke-linejoin:bevel"
         transform="rotate(90)"
         d="m 56.13409,-259.81137 a 2.2909579,2.2909579 0 0 1 -2.290958,2.29096 2.2909579,2.2909579 0 0 1 -2.290958,-2.29096 2.2909579,2.2909579 0 0 1 2.290958,-2.29096 2.2909579,2.2909579 0 0 1 2.290958,2.29096 z" />
      <g
         id="g6808"
         transform="translate(208.80664,5.2916653)">
        <g
           id="g6806"
           transform="rotate(90,10.076322,37.449316)">
          <path
             style="fill:none;fill-opacity:1;stroke:#000000;stroke-width:0.635;stroke-linecap:round;stroke-linejoin:bevel;stroke-dasharray:none;stroke-opacity:1;paint-order:normal"
             d="m 19.011962,-23.392467 3.948608,3.948609"
             id="path6802" />
          <path
             style="fill:none;fill-opacity:1;stroke:#000000;stroke-width:0.635;stroke-linecap:round;stroke-linejoin:bevel;stroke-dasharray:none;stroke-opacity:1;paint-order:normal"
             d="m 22.960571,-23.392466 -3.948609,3.948608"
             id="path6804" />
        </g>
      </g>
      <path
         id="circle6810"
         style="fill:none;stroke:#000000;stroke-width:0.798406;stroke-linejoin:bevel"
         d="m 271.13614,62.684345 a 2.2909579,2.2909579 0 0 1 -2.29096,2.290958 2.2909579,2.2909579 0 0 1 -2.29095,-2.290958 2.2909579,2.2909579 0 0 1 2.29095,-2.290958 2.2909579,2.2909579 0 0 1 2.29096,2.290958 z" />
      <g
         id="g6816"
         transform="rotate(-90,187.03104,-94.327005)">
        <path
           style="fill:none;fill-opacity:1;stroke:#000000;stroke-width:0.635;stroke-linecap:round;stroke-linejoin:bevel;stroke-dasharray:none;stroke-opacity:1;paint-order:normal"
           d="m 19.011962,-23.392467 3.948608,3.948609"
           id="path6812" />
        <path
           style="fill:none;fill-opacity:1;stroke:#000000;stroke-width:0.635;stroke-linecap:round;stroke-linejoin:bevel;stroke-dasharray:none;stroke-opacity:1;paint-order:normal"
           d="m 22.960571,-23.392466 -3.948609,3.948608"
           id="path6814" />
      </g>
      <g
         id="g6836"
         transform="rotate(90,161.796,164.44184)">
        <g
           id="g6826"
           transform="rotate(-90,39.505047,77.172611)">
          <path
             style="fill:none;fill-opacity:1;stroke:#000000;stroke-width:0.635;stroke-linecap:round;stroke-dasharray:none;stroke-opacity:1"
             d="M 47.188971,93.282978 H 71.38099"
             id="path6818" />
          <path
             style="fill:none;fill-opacity:1;stroke:#000000;stroke-width:0.635;stroke-linecap:round;stroke-dasharray:none;stroke-opacity:1"
             d="M 47.188971,102.20399 H 71.38099"
             id="path6820" />
          <path
             style="fill:none;fill-opacity:1;stroke:#000000;stroke-width:0.635;stroke-linecap:round;stroke-dasharray:none;stroke-opacity:1"
             d="M 63.708076,85.610064 V 109.80208"
             id="path6822" />
          <path
             style="fill:none;fill-opacity:1;stroke:#000000;stroke-width:0.635;stroke-linecap:round;stroke-dasharray:none;stroke-opacity:1"
             d="M 54.787064,85.610064 V 109.80208"
             id="path6824" />
        </g>
        <g
           id="g6834">
          <g
             id="g6832"
             transform="rotate(90,10.076322,37.449316)">
            <path
               style="fill:none;fill-opacity:1;stroke:#000000;stroke-width:0.635;stroke-linecap:round;stroke-linejoin:bevel;stroke-dasharray:none;stroke-opacity:1;paint-order:normal"
               d="m 19.011962,-23.392467 3.948608,3.948609"
               id="path6828" />
            <path
               style="fill:none;fill-opacity:1;stroke:#000000;stroke-width:0.635;stroke-linecap:round;stroke-linejoin:bevel;stroke-dasharray:none;stroke-opacity:1;paint-order:normal"
               d="m 22.960571,-23.392466 -3.948609,3.948608"
               id="path6830" />
          </g>
        </g>
      </g>
      <path
         id="circle6838"
         style="fill:none;stroke:#000000;stroke-width:0.798406;stroke-linejoin:bevel"
         transform="rotate(90)"
         d="m 56.13409,-296.85303 a 2.2909579,2.2909579 0 0 1 -2.290958,2.29096 2.2909579,2.2909579 0 0 1 -2.290958,-2.29096 2.2909579,2.2909579 0 0 1 2.290958,-2.29096 2.2909579,2.2909579 0 0 1 2.290958,2.29096 z" />
      <g
         id="g6844"
         transform="rotate(90,130.35464,163.0193)">
        <path
           style="fill:none;fill-opacity:1;stroke:#000000;stroke-width:0.635;stroke-linecap:round;stroke-linejoin:bevel;stroke-dasharray:none;stroke-opacity:1;paint-order:normal"
           d="m 19.011962,-23.392467 3.948608,3.948609"
           id="path6840" />
        <path
           style="fill:none;fill-opacity:1;stroke:#000000;stroke-width:0.635;stroke-linecap:round;stroke-linejoin:bevel;stroke-dasharray:none;stroke-opacity:1;paint-order:normal"
           d="m 22.960571,-23.392466 -3.948609,3.948608"
           id="path6842" />
      </g>
      <path
         id="circle6846"
         style="fill:none;stroke:#000000;stroke-width:0.798406;stroke-linejoin:bevel"
         d="m 308.1778,62.684345 a 2.2909579,2.2909579 0 0 1 -2.29096,2.290958 2.2909579,2.2909579 0 0 1 -2.29096,-2.290958 2.2909579,2.2909579 0 0 1 2.29096,-2.290958 2.2909579,2.2909579 0 0 1 2.29096,2.290958 z" />
      <g
         id="g6864"
         transform="rotate(90,198.83767,164.44184)">
        <g
           id="g6852"
           transform="rotate(-90,94.027246,-24.471026)">
          <path
             style="fill:none;fill-opacity:1;stroke:#000000;stroke-width:0.635;stroke-linecap:round;stroke-linejoin:bevel;stroke-dasharray:none;stroke-opacity:1;paint-order:normal"
             d="m 19.011962,-23.392467 3.948608,3.948609"
             id="path6848" />
          <path
             style="fill:none;fill-opacity:1;stroke:#000000;stroke-width:0.635;stroke-linecap:round;stroke-linejoin:bevel;stroke-dasharray:none;stroke-opacity:1;paint-order:normal"
             d="m 22.960571,-23.392466 -3.948609,3.948608"
             id="path6850" />
        </g>
        <g
           id="g6862"
           transform="rotate(-90,58.025878,58.65178)">
          <path
             style="fill:none;fill-opacity:1;stroke:#000000;stroke-width:0.635;stroke-linecap:round;stroke-dasharray:none;stroke-opacity:1"
             d="M 47.188971,93.282978 H 71.38099"
             id="path6854" />
          <path
             style="fill:none;fill-opacity:1;stroke:#000000;stroke-width:0.635;stroke-linecap:round;stroke-dasharray:none;stroke-opacity:1"
             d="M 47.188971,102.20399 H 71.38099"
             id="path6856" />
          <path
             style="fill:none;fill-opacity:1;stroke:#000000;stroke-width:0.635;stroke-linecap:round;stroke-dasharray:none;stroke-opacity:1"
             d="M 63.708076,85.610064 V 109.80208"
             id="path6858" />
          <path
             style="fill:none;fill-opacity:1;stroke:#000000;stroke-width:0.635;stroke-linecap:round;stroke-dasharray:none;stroke-opacity:1"
             d="M 54.787064,85.610064 V 109.80208"
             id="path6860" />
        </g>
      </g>
      <g
         id="g6870"
         transform="rotate(-90,205.55187,-112.84784)">
        <path
           style="fill:none;fill-opacity:1;stroke:#000000;stroke-width:0.635;stroke-linecap:round;stroke-linejoin:bevel;stroke-dasharray:none;stroke-opacity:1;paint-order:normal"
           d="m 19.011962,-23.392467 3.948608,3.948609"
           id="path6866" />
        <path
           style="fill:none;fill-opacity:1;stroke:#000000;stroke-width:0.635;stroke-linecap:round;stroke-linejoin:bevel;stroke-dasharray:none;stroke-opacity:1;paint-order:normal"
           d="m 22.960571,-23.392466 -3.948609,3.948608"
           id="path6868" />
      </g>
      <g
         aria-label="0.5/1"
         id="text6874"
         style="font-size:6.0457px;fill:#868e96;stroke:#868e96;stroke-width:0.396875;stroke-linecap:round;stroke-linejoin:bevel">
        <path
           d="m 282.69297,42.329144 q 0,1.183752 -0.37195,1.738729 -0.369,0.552024 -1.14833,0.552024 -0.79114,0 -1.15718,-0.56088 -0.3631,-0.560881 -0.3631,-1.723969 0,-1.171945 0.369,-1.729873 0.369,-0.560881 1.15128,-0.560881 0.79114,0 1.15423,0.569737 0.36605,0.566784 0.36605,1.715113 z m -0.77637,1.340209 q 0.10332,-0.239113 0.13874,-0.560881 0.0384,-0.32472 0.0384,-0.779328 0,-0.448705 -0.0384,-0.779329 -0.0354,-0.330624 -0.1417,-0.56088 -0.10332,-0.227304 -0.28339,-0.342432 -0.17712,-0.115129 -0.45756,-0.115129 -0.27749,0 -0.46051,0.115129 -0.18007,0.115128 -0.28635,0.348336 -0.10036,0.218448 -0.13874,0.569736 -0.0354,0.351288 -0.0354,0.770473 0,0.460512 0.0325,0.770472 0.0325,0.30996 0.13874,0.554977 0.0974,0.230256 0.27454,0.351288 0.18007,0.121032 0.47527,0.121032 0.27749,0 0.46051,-0.115128 0.18303,-0.115128 0.2834,-0.348336 z"
           id="path738" />
        <path
           d="m 284.54388,44.528385 h -0.70553 v -0.84132 h 0.70553 z"
           id="path740" />
        <path
           d="m 288.7062,43.132088 q 0,0.307008 -0.11218,0.587449 -0.11217,0.28044 -0.307,0.47232 -0.21255,0.20664 -0.50775,0.318816 -0.29225,0.109224 -0.67896,0.109224 -0.36014,0 -0.69372,-0.07675 -0.33358,-0.0738 -0.56383,-0.180072 v -0.622872 h 0.0413 q 0.24206,0.153504 0.56678,0.262728 0.32472,0.106272 0.63763,0.106272 0.2096,0 0.40443,-0.05904 0.19778,-0.05904 0.35129,-0.20664 0.12988,-0.126936 0.19483,-0.304057 0.0679,-0.17712 0.0679,-0.410328 0,-0.227304 -0.0797,-0.38376 -0.0768,-0.156456 -0.2155,-0.25092 -0.1535,-0.112176 -0.3749,-0.156456 -0.21845,-0.04723 -0.49003,-0.04723 -0.25978,0 -0.50184,0.03542 -0.23912,0.03542 -0.41328,0.07085 v -2.264186 h 2.64499 v 0.516601 h -2.07526 v 1.168992 q 0.12694,-0.01181 0.25978,-0.01771 0.13284,-0.0059 0.23026,-0.0059 0.35719,0 0.62582,0.06199 0.26863,0.05904 0.49298,0.212545 0.23616,0.16236 0.36605,0.419184 0.12989,0.256824 0.12989,0.643536 z"
           id="path742" />
        <path
           d="m 291.67296,39.93507 -2.11658,5.490724 h -0.5107 l 2.10773,-5.490724 z"
           id="path744" />
        <path
           d="m 295.07957,44.528385 h -2.37931 v -0.448704 h 0.91512 v -2.946098 h -0.91512 v -0.401472 q 0.18598,0 0.39852,-0.02952 0.21254,-0.03247 0.32177,-0.09151 0.13579,-0.0738 0.21254,-0.185977 0.0797,-0.115128 0.0915,-0.307008 h 0.45756 v 3.961587 h 0.89741 z"
           id="path746" />
      </g>
      <path
         id="circle6876"
         style="fill:none;stroke:#000000;stroke-width:0.798406;stroke-linejoin:bevel"
         transform="rotate(90)"
         d="m 56.134094,-259.81137 a 2.2909579,2.2909579 0 0 1 -2.290958,2.29096 2.2909579,2.2909579 0 0 1 -2.290958,-2.29096 2.2909579,2.2909579 0 0 1 2.290958,-2.29096 2.2909579,2.2909579 0 0 1 2.290958,2.29096 z" />
      <g
         id="g6882"
         transform="rotate(90,111.83381,144.49848)">
        <path
           style="fill:none;fill-opacity:1;stroke:#000000;stroke-width:0.635;stroke-linecap:round;stroke-linejoin:bevel;stroke-dasharray:none;stroke-opacity:1;paint-order:normal"
           d="m 19.011962,-23.392467 3.948608,3.948609"
           id="path6878" />
        <path
           style="fill:none;fill-opacity:1;stroke:#000000;stroke-width:0.635;stroke-linecap:round;stroke-linejoin:bevel;stroke-dasharray:none;stroke-opacity:1;paint-order:normal"
           d="m 22.960571,-23.392466 -3.948609,3.948608"
           id="path6880" />
      </g>
      <path
         id="circle6884"
         style="fill:none;stroke:#000000;stroke-width:0.798406;stroke-linejoin:bevel"
         d="m 271.13614,62.684349 a 2.2909579,2.2909579 0 0 1 -2.29096,2.290958 2.2909579,2.2909579 0 0 1 -2.29095,-2.290958 2.2909579,2.2909579 0 0 1 2.29095,-2.290958 2.2909579,2.2909579 0 0 1 2.29096,2.290958 z" />
      <g
         aria-label="0.5/1"
         id="text6888"
         style="font-size:6.0457px;fill:#868e96;stroke:#868e96;stroke-width:0.396875;stroke-linecap:round;stroke-linejoin:bevel">
        <path
           d="m 264.17213,79.370812 q 0,1.183752 -0.37195,1.738729 -0.369,0.552024 -1.14833,0.552024 -0.79114,0 -1.15719,-0.56088 -0.36309,-0.560881 -0.36309,-1.723969 0,-1.171945 0.369,-1.729874 0.369,-0.56088 1.15128,-0.56088 0.79113,0 1.15423,0.569736 0.36605,0.566785 0.36605,1.715114 z m -0.77638,1.340209 q 0.10332,-0.239113 0.13875,-0.560881 0.0384,-0.32472 0.0384,-0.779328 0,-0.448705 -0.0384,-0.779329 -0.0354,-0.330624 -0.1417,-0.56088 -0.10332,-0.227304 -0.28339,-0.342433 -0.17712,-0.115128 -0.45756,-0.115128 -0.27749,0 -0.46051,0.115128 -0.18008,0.115129 -0.28635,0.348337 -0.10037,0.218448 -0.13874,0.569736 -0.0354,0.351288 -0.0354,0.770473 0,0.460512 0.0325,0.770472 0.0325,0.30996 0.13874,0.554977 0.0974,0.230256 0.27454,0.351288 0.18007,0.121032 0.47527,0.121032 0.27749,0 0.46051,-0.115128 0.18302,-0.115128 0.28339,-0.348336 z"
           id="path751" />
        <path
           d="m 266.02303,81.570053 h -0.70552 v -0.84132 h 0.70552 z"
           id="path753" />
        <path
           d="m 270.18536,80.173756 q 0,0.307008 -0.11218,0.587449 -0.11218,0.28044 -0.30701,0.47232 -0.21254,0.20664 -0.50774,0.318816 -0.29225,0.109224 -0.67896,0.109224 -0.36015,0 -0.69372,-0.07675 -0.33358,-0.0738 -0.56384,-0.180072 v -0.622872 h 0.0413 q 0.24207,0.153504 0.56679,0.262728 0.32472,0.106272 0.63763,0.106272 0.20959,0 0.40442,-0.05904 0.19779,-0.05904 0.35129,-0.20664 0.12989,-0.126936 0.19483,-0.304057 0.0679,-0.17712 0.0679,-0.410328 0,-0.227304 -0.0797,-0.38376 -0.0768,-0.156456 -0.2155,-0.25092 -0.1535,-0.112176 -0.3749,-0.156456 -0.21845,-0.04723 -0.49004,-0.04723 -0.25977,0 -0.50184,0.03542 -0.23911,0.03542 -0.41328,0.07085 v -2.264186 h 2.645 v 0.5166 h -2.07526 v 1.168993 q 0.12694,-0.01181 0.25978,-0.01771 0.13284,-0.0059 0.23025,-0.0059 0.35719,0 0.62583,0.06199 0.26863,0.05904 0.49298,0.212544 0.23616,0.162361 0.36605,0.419185 0.12989,0.256824 0.12989,0.643536 z"
           id="path755" />
        <path
           d="m 273.15212,76.976738 -2.11659,5.490724 h -0.51069 l 2.10773,-5.490724 z"
           id="path757" />
        <path
           d="m 276.55873,81.570053 h -2.37931 v -0.448704 h 0.91512 v -2.946098 h -0.91512 v -0.401472 q 0.18597,0 0.39852,-0.02952 0.21254,-0.03247 0.32176,-0.09151 0.1358,-0.0738 0.21255,-0.185976 0.0797,-0.115128 0.0915,-0.307008 h 0.45756 v 3.961587 h 0.89741 z"
           id="path759" />
      </g>
      <g
         aria-label="0/0"
         id="text6892"
         style="font-size:6.0457px;fill:#868e96;stroke:#868e96;stroke-width:0.396875;stroke-linecap:round;stroke-linejoin:bevel">
        <path
           d="m 304.11268,79.370812 q 0,1.183752 -0.37195,1.738729 -0.369,0.552024 -1.14833,0.552024 -0.79114,0 -1.15719,-0.56088 -0.36309,-0.560881 -0.36309,-1.723969 0,-1.171945 0.369,-1.729874 0.369,-0.56088 1.15128,-0.56088 0.79114,0 1.15423,0.569736 0.36605,0.566785 0.36605,1.715114 z m -0.77638,1.340209 q 0.10332,-0.239113 0.13875,-0.560881 0.0384,-0.32472 0.0384,-0.779328 0,-0.448705 -0.0384,-0.779329 -0.0354,-0.330624 -0.1417,-0.56088 -0.10332,-0.227304 -0.28339,-0.342433 -0.17712,-0.115128 -0.45756,-0.115128 -0.27749,0 -0.46051,0.115128 -0.18008,0.115129 -0.28635,0.348337 -0.10037,0.218448 -0.13874,0.569736 -0.0354,0.351288 -0.0354,0.770473 0,0.460512 0.0325,0.770472 0.0325,0.30996 0.13874,0.554977 0.0974,0.230256 0.27454,0.351288 0.18007,0.121032 0.47527,0.121032 0.27749,0 0.46051,-0.115128 0.18303,-0.115128 0.28339,-0.348336 z"
           id="path762" />
        <path
           d="m 307.04992,76.976738 -2.11658,5.490724 h -0.5107 l 2.10773,-5.490724 z"
           id="path764" />
        <path
           d="m 310.70155,79.370812 q 0,1.183752 -0.37195,1.738729 -0.369,0.552024 -1.14833,0.552024 -0.79114,0 -1.15719,-0.56088 -0.36309,-0.560881 -0.36309,-1.723969 0,-1.171945 0.369,-1.729874 0.369,-0.56088 1.15128,-0.56088 0.79113,0 1.15423,0.569736 0.36605,0.566785 0.36605,1.715114 z m -0.77638,1.340209 q 0.10332,-0.239113 0.13875,-0.560881 0.0384,-0.32472 0.0384,-0.779328 0,-0.448705 -0.0384,-0.779329 -0.0354,-0.330624 -0.1417,-0.56088 -0.10332,-0.227304 -0.28339,-0.342433 -0.17712,-0.115128 -0.45756,-0.115128 -0.27749,0 -0.46051,0.115128 -0.18008,0.115129 -0.28635,0.348337 -0.10037,0.218448 -0.13874,0.569736 -0.0354,0.351288 -0.0354,0.770473 0,0.460512 0.0325,0.770472 0.0325,0.30996 0.13875,0.554977 0.0974,0.230256 0.27454,0.351288 0.18007,0.121032 0.47527,0.121032 0.27749,0 0.46051,-0.115128 0.18302,-0.115128 0.28339,-0.348336 z"
           id="path766" />
      </g>
      <path
         style="fill:none;fill-opacity:1;stroke:#66a80f;stroke-width:0.396875;stroke-linecap:round;stroke-linejoin:bevel;stroke-dasharray:none;stroke-opacity:1"
         d="m 278.06837,39.465143 c 0,0 -6.40668,2.178272 -7.55988,8.713083"
         id="path6894" />
      <path
         style="fill:none;fill-opacity:1;stroke:#66a80f;stroke-width:0.396875;stroke-linecap:round;stroke-linejoin:bevel;stroke-dasharray:none;stroke-opacity:1"
         d="m 296.00707,37.92754 c 0,0 7.04735,1.537603 9.61002,9.866287"
         id="path6896" />
    </g>
    <text
       xml:space="preserve"
       transform="matrix(0.26458335,0,0,0.26458335,38.836899,13.229166)"
       id="text11567"
       style="white-space:pre;shape-inside:url(#rect11569);display:inline;fill:#d6336c;fill-opacity:1;stroke:#d6336c;stroke-width:1.5;stroke-linecap:round;stroke-linejoin:bevel;stroke-opacity:1" />
  </g>
</svg>
