<?xml version="1.0" encoding="UTF-8" standalone="no"?>
<!-- Created with Inkscape (http://www.inkscape.org/) -->

<svg
   width="256"
   height="280"
   viewBox="0 0 67.733334 74.083339"
   version="1.1"
   id="svg5"
   inkscape:version="1.2.1 (9c6d41e, 2022-07-14)"
   sodipodi:docname="fig-3.svg"
   xmlns:inkscape="http://www.inkscape.org/namespaces/inkscape"
   xmlns:sodipodi="http://sodipodi.sourceforge.net/DTD/sodipodi-0.dtd"
   xmlns="http://www.w3.org/2000/svg"
   xmlns:svg="http://www.w3.org/2000/svg">
  <sodipodi:namedview
     id="namedview7"
     pagecolor="#ffffff"
     bordercolor="#999999"
     borderopacity="1"
     inkscape:showpageshadow="0"
     inkscape:pageopacity="0"
     inkscape:pagecheckerboard="0"
     inkscape:deskcolor="#d1d1d1"
     inkscape:document-units="px"
     showgrid="false"
     inkscape:zoom="1.2219121"
     inkscape:cx="134.21588"
     inkscape:cy="132.98829"
     inkscape:window-width="1512"
     inkscape:window-height="843"
     inkscape:window-x="0"
     inkscape:window-y="38"
     inkscape:window-maximized="1"
     inkscape:current-layer="layer1" />
  <defs
     id="defs2">
    <rect
       x="1592.5861"
       y="439.47516"
       width="152.62964"
       height="61.788406"
       id="rect11569" />
  </defs>
  <g
     inkscape:label="Layer 1"
     inkscape:groupmode="layer"
     id="layer1"
     transform="translate(-86.204356,-13.229166)">
    <g
       id="g960"
       transform="translate(2.9323256,2.3233015)">
      <path
         id="circle2903"
         style="fill:none;stroke:#000000;stroke-width:0.798406;stroke-linejoin:bevel"
         transform="rotate(90)"
         d="m 19.092424,-108.1049 a 2.2909579,2.2909579 0 0 1 -2.290958,2.29096 2.2909579,2.2909579 0 0 1 -2.290958,-2.29096 2.2909579,2.2909579 0 0 1 2.290958,-2.29095 2.2909579,2.2909579 0 0 1 2.290958,2.29095 z" />
      <g
         id="g2909"
         transform="rotate(90,54.501419,50.124411)">
        <path
           style="fill:none;fill-opacity:1;stroke:#000000;stroke-width:0.635;stroke-linecap:round;stroke-linejoin:bevel;stroke-dasharray:none;stroke-opacity:1;paint-order:normal"
           d="m 19.011962,-23.392467 3.948608,3.948609"
           id="path2905" />
        <path
           style="fill:none;fill-opacity:1;stroke:#000000;stroke-width:0.635;stroke-linecap:round;stroke-linejoin:bevel;stroke-dasharray:none;stroke-opacity:1;paint-order:normal"
           d="m 22.960571,-23.392466 -3.948609,3.948608"
           id="path2907" />
      </g>
      <path
         id="circle2911"
         style="fill:none;stroke:#000000;stroke-width:0.798406;stroke-linejoin:bevel"
         d="m 119.42967,25.642679 a 2.2909579,2.2909579 0 0 1 -2.29096,2.290958 2.2909579,2.2909579 0 0 1 -2.29096,-2.290958 2.2909579,2.2909579 0 0 1 2.29096,-2.290958 2.2909579,2.2909579 0 0 1 2.29096,2.290958 z" />
      <g
         id="g2929"
         transform="rotate(180,113.00666,32.839079)">
        <g
           id="g2921"
           transform="rotate(90,112.9151,93.665602)">
          <path
             style="fill:none;fill-opacity:1;stroke:#000000;stroke-width:0.635;stroke-linecap:round;stroke-dasharray:none;stroke-opacity:1"
             d="M 47.188971,93.282978 H 71.38099"
             id="path2913" />
          <path
             style="fill:none;fill-opacity:1;stroke:#000000;stroke-width:0.635;stroke-linecap:round;stroke-dasharray:none;stroke-opacity:1"
             d="M 47.188971,102.20399 H 71.38099"
             id="path2915" />
          <path
             style="fill:none;fill-opacity:1;stroke:#000000;stroke-width:0.635;stroke-linecap:round;stroke-dasharray:none;stroke-opacity:1"
             d="M 63.708076,85.610064 V 109.80208"
             id="path2917" />
          <path
             style="fill:none;fill-opacity:1;stroke:#000000;stroke-width:0.635;stroke-linecap:round;stroke-dasharray:none;stroke-opacity:1"
             d="M 54.787064,85.610064 V 109.80208"
             id="path2919" />
        </g>
        <g
           id="g2927"
           transform="rotate(90,43.172974,53.188774)">
          <path
             style="fill:none;fill-opacity:1;stroke:#000000;stroke-width:0.635;stroke-linecap:round;stroke-linejoin:bevel;stroke-dasharray:none;stroke-opacity:1;paint-order:normal"
             d="m 19.011962,-23.392467 3.948608,3.948609"
             id="path2923" />
          <path
             style="fill:none;fill-opacity:1;stroke:#000000;stroke-width:0.635;stroke-linecap:round;stroke-linejoin:bevel;stroke-dasharray:none;stroke-opacity:1;paint-order:normal"
             d="m 22.960571,-23.392466 -3.948609,3.948608"
             id="path2925" />
        </g>
      </g>
      <path
         id="circle3106"
         style="fill:none;stroke:#000000;stroke-width:0.798406;stroke-linejoin:bevel"
         transform="rotate(90)"
         d="m 56.13409,-89.584076 a 2.2909579,2.2909579 0 0 1 -2.290958,2.290958 2.2909579,2.2909579 0 0 1 -2.290958,-2.290958 2.2909579,2.2909579 0 0 1 2.290958,-2.290958 2.2909579,2.2909579 0 0 1 2.290958,2.290958 z" />
      <g
         id="g3448"
         transform="translate(38.579358,5.2916653)">
        <g
           id="g3112"
           transform="rotate(90,10.076322,37.449316)">
          <path
             style="fill:none;fill-opacity:1;stroke:#000000;stroke-width:0.635;stroke-linecap:round;stroke-linejoin:bevel;stroke-dasharray:none;stroke-opacity:1;paint-order:normal"
             d="m 19.011962,-23.392467 3.948608,3.948609"
             id="path3108" />
          <path
             style="fill:none;fill-opacity:1;stroke:#000000;stroke-width:0.635;stroke-linecap:round;stroke-linejoin:bevel;stroke-dasharray:none;stroke-opacity:1;paint-order:normal"
             d="m 22.960571,-23.392466 -3.948609,3.948608"
             id="path3110" />
        </g>
      </g>
      <path
         id="circle3114"
         style="fill:none;stroke:#000000;stroke-width:0.798406;stroke-linejoin:bevel"
         d="m 100.90885,62.684345 a 2.2909579,2.2909579 0 0 1 -2.290953,2.290958 2.2909579,2.2909579 0 0 1 -2.290958,-2.290958 2.2909579,2.2909579 0 0 1 2.290958,-2.290958 2.2909579,2.2909579 0 0 1 2.290953,2.290958 z" />
      <g
         id="g3130"
         transform="rotate(-90,101.91739,-9.2133611)">
        <path
           style="fill:none;fill-opacity:1;stroke:#000000;stroke-width:0.635;stroke-linecap:round;stroke-linejoin:bevel;stroke-dasharray:none;stroke-opacity:1;paint-order:normal"
           d="m 19.011962,-23.392467 3.948608,3.948609"
           id="path3126" />
        <path
           style="fill:none;fill-opacity:1;stroke:#000000;stroke-width:0.635;stroke-linecap:round;stroke-linejoin:bevel;stroke-dasharray:none;stroke-opacity:1;paint-order:normal"
           d="m 22.960571,-23.392466 -3.948609,3.948608"
           id="path3128" />
      </g>
      <g
         id="g3467"
         transform="rotate(90,76.682354,79.328189)">
        <g
           id="g3124"
           transform="rotate(-90,39.505047,77.172611)">
          <path
             style="fill:none;fill-opacity:1;stroke:#000000;stroke-width:0.635;stroke-linecap:round;stroke-dasharray:none;stroke-opacity:1"
             d="M 47.188971,93.282978 H 71.38099"
             id="path3116" />
          <path
             style="fill:none;fill-opacity:1;stroke:#000000;stroke-width:0.635;stroke-linecap:round;stroke-dasharray:none;stroke-opacity:1"
             d="M 47.188971,102.20399 H 71.38099"
             id="path3118" />
          <path
             style="fill:none;fill-opacity:1;stroke:#000000;stroke-width:0.635;stroke-linecap:round;stroke-dasharray:none;stroke-opacity:1"
             d="M 63.708076,85.610064 V 109.80208"
             id="path3120" />
          <path
             style="fill:none;fill-opacity:1;stroke:#000000;stroke-width:0.635;stroke-linecap:round;stroke-dasharray:none;stroke-opacity:1"
             d="M 54.787064,85.610064 V 109.80208"
             id="path3122" />
        </g>
        <g
           id="g3456">
          <g
             id="g3454"
             transform="rotate(90,10.076322,37.449316)">
            <path
               style="fill:none;fill-opacity:1;stroke:#000000;stroke-width:0.635;stroke-linecap:round;stroke-linejoin:bevel;stroke-dasharray:none;stroke-opacity:1;paint-order:normal"
               d="m 19.011962,-23.392467 3.948608,3.948609"
               id="path3450" />
            <path
               style="fill:none;fill-opacity:1;stroke:#000000;stroke-width:0.635;stroke-linecap:round;stroke-linejoin:bevel;stroke-dasharray:none;stroke-opacity:1;paint-order:normal"
               d="m 22.960571,-23.392466 -3.948609,3.948608"
               id="path3452" />
          </g>
        </g>
      </g>
      <path
         id="circle3581"
         style="fill:none;stroke:#000000;stroke-width:0.798406;stroke-linejoin:bevel"
         transform="rotate(90)"
         d="m 56.13409,-126.62574 a 2.2909579,2.2909579 0 0 1 -2.290958,2.29096 2.2909579,2.2909579 0 0 1 -2.290958,-2.29096 2.2909579,2.2909579 0 0 1 2.290958,-2.29096 2.2909579,2.2909579 0 0 1 2.290958,2.29096 z" />
      <g
         id="g3587"
         transform="rotate(90,45.240995,77.905657)">
        <path
           style="fill:none;fill-opacity:1;stroke:#000000;stroke-width:0.635;stroke-linecap:round;stroke-linejoin:bevel;stroke-dasharray:none;stroke-opacity:1;paint-order:normal"
           d="m 19.011962,-23.392467 3.948608,3.948609"
           id="path3583" />
        <path
           style="fill:none;fill-opacity:1;stroke:#000000;stroke-width:0.635;stroke-linecap:round;stroke-linejoin:bevel;stroke-dasharray:none;stroke-opacity:1;paint-order:normal"
           d="m 22.960571,-23.392466 -3.948609,3.948608"
           id="path3585" />
      </g>
      <path
         id="circle3589"
         style="fill:none;stroke:#000000;stroke-width:0.798406;stroke-linejoin:bevel"
         d="m 137.9505,62.684345 a 2.2909579,2.2909579 0 0 1 -2.29095,2.290958 2.2909579,2.2909579 0 0 1 -2.29096,-2.290958 2.2909579,2.2909579 0 0 1 2.29096,-2.290958 2.2909579,2.2909579 0 0 1 2.29095,2.290958 z" />
      <g
         id="g3818"
         transform="rotate(90,113.72402,79.328189)">
        <g
           id="g3579"
           transform="rotate(-90,94.027246,-24.471026)">
          <path
             style="fill:none;fill-opacity:1;stroke:#000000;stroke-width:0.635;stroke-linecap:round;stroke-linejoin:bevel;stroke-dasharray:none;stroke-opacity:1;paint-order:normal"
             d="m 19.011962,-23.392467 3.948608,3.948609"
             id="path3575" />
          <path
             style="fill:none;fill-opacity:1;stroke:#000000;stroke-width:0.635;stroke-linecap:round;stroke-linejoin:bevel;stroke-dasharray:none;stroke-opacity:1;paint-order:normal"
             d="m 22.960571,-23.392466 -3.948609,3.948608"
             id="path3577" />
        </g>
        <g
           id="g3599"
           transform="rotate(-90,58.025878,58.65178)">
          <path
             style="fill:none;fill-opacity:1;stroke:#000000;stroke-width:0.635;stroke-linecap:round;stroke-dasharray:none;stroke-opacity:1"
             d="M 47.188971,93.282978 H 71.38099"
             id="path3591" />
          <path
             style="fill:none;fill-opacity:1;stroke:#000000;stroke-width:0.635;stroke-linecap:round;stroke-dasharray:none;stroke-opacity:1"
             d="M 47.188971,102.20399 H 71.38099"
             id="path3593" />
          <path
             style="fill:none;fill-opacity:1;stroke:#000000;stroke-width:0.635;stroke-linecap:round;stroke-dasharray:none;stroke-opacity:1"
             d="M 63.708076,85.610064 V 109.80208"
             id="path3595" />
          <path
             style="fill:none;fill-opacity:1;stroke:#000000;stroke-width:0.635;stroke-linecap:round;stroke-dasharray:none;stroke-opacity:1"
             d="M 54.787064,85.610064 V 109.80208"
             id="path3597" />
        </g>
      </g>
      <g
         id="g3605"
         transform="rotate(-90,120.43822,-27.734192)">
        <path
           style="fill:none;fill-opacity:1;stroke:#000000;stroke-width:0.635;stroke-linecap:round;stroke-linejoin:bevel;stroke-dasharray:none;stroke-opacity:1;paint-order:normal"
           d="m 19.011962,-23.392467 3.948608,3.948609"
           id="path3601" />
        <path
           style="fill:none;fill-opacity:1;stroke:#000000;stroke-width:0.635;stroke-linecap:round;stroke-linejoin:bevel;stroke-dasharray:none;stroke-opacity:1;paint-order:normal"
           d="m 22.960571,-23.392466 -3.948609,3.948608"
           id="path3603" />
      </g>
      <g
         aria-label="0/0"
         id="text4069"
         style="font-size:6.0457px;fill:#868e96;stroke:#868e96;stroke-width:0.396875;stroke-linecap:round;stroke-linejoin:bevel">
        <path
           d="m 115.36456,42.329144 q 0,1.183752 -0.37196,1.738729 -0.369,0.552024 -1.14832,0.552024 -0.79114,0 -1.15719,-0.56088 -0.36309,-0.560881 -0.36309,-1.723969 0,-1.171945 0.369,-1.729873 0.369,-0.560881 1.15128,-0.560881 0.79113,0 1.15423,0.569737 0.36605,0.566784 0.36605,1.715113 z m -0.77638,1.340209 q 0.10332,-0.239113 0.13874,-0.560881 0.0384,-0.32472 0.0384,-0.779328 0,-0.448705 -0.0384,-0.779329 -0.0354,-0.330624 -0.14169,-0.56088 -0.10332,-0.227304 -0.28339,-0.342432 -0.17712,-0.115129 -0.45756,-0.115129 -0.27749,0 -0.46052,0.115129 -0.18007,0.115128 -0.28634,0.348336 -0.10037,0.218448 -0.13874,0.569736 -0.0354,0.351288 -0.0354,0.770473 0,0.460512 0.0325,0.770472 0.0325,0.30996 0.13875,0.554977 0.0974,0.230256 0.27453,0.351288 0.18008,0.121032 0.47528,0.121032 0.27748,0 0.46051,-0.115128 0.18302,-0.115128 0.28339,-0.348336 z"
           id="path749" />
        <path
           d="m 118.3018,39.93507 -2.11659,5.490724 h -0.51069 l 2.10773,-5.490724 z"
           id="path751" />
        <path
           d="m 121.95343,42.329144 q 0,1.183752 -0.37196,1.738729 -0.369,0.552024 -1.14833,0.552024 -0.79113,0 -1.15718,-0.56088 -0.3631,-0.560881 -0.3631,-1.723969 0,-1.171945 0.369,-1.729873 0.369,-0.560881 1.15128,-0.560881 0.79114,0 1.15424,0.569737 0.36605,0.566784 0.36605,1.715113 z m -0.77638,1.340209 q 0.10332,-0.239113 0.13874,-0.560881 0.0384,-0.32472 0.0384,-0.779328 0,-0.448705 -0.0384,-0.779329 -0.0354,-0.330624 -0.14169,-0.56088 -0.10332,-0.227304 -0.2834,-0.342432 -0.17712,-0.115129 -0.45756,-0.115129 -0.27748,0 -0.46051,0.115129 -0.18007,0.115128 -0.28634,0.348336 -0.10037,0.218448 -0.13875,0.569736 -0.0354,0.351288 -0.0354,0.770473 0,0.460512 0.0325,0.770472 0.0325,0.30996 0.13875,0.554977 0.0974,0.230256 0.27453,0.351288 0.18007,0.121032 0.47527,0.121032 0.27749,0 0.46052,-0.115128 0.18302,-0.115128 0.28339,-0.348336 z"
           id="path753" />
      </g>
      <path
         id="circle4872"
         style="fill:none;stroke:#000000;stroke-width:0.798406;stroke-linejoin:bevel"
         transform="rotate(90)"
         d="m 56.134094,-89.584076 a 2.2909579,2.2909579 0 0 1 -2.290958,2.290958 2.2909579,2.2909579 0 0 1 -2.290958,-2.290958 2.2909579,2.2909579 0 0 1 2.290958,-2.290958 2.2909579,2.2909579 0 0 1 2.290958,2.290958 z" />
      <g
         id="g4878"
         transform="rotate(90,26.720168,59.384828)">
        <path
           style="fill:none;fill-opacity:1;stroke:#000000;stroke-width:0.635;stroke-linecap:round;stroke-linejoin:bevel;stroke-dasharray:none;stroke-opacity:1;paint-order:normal"
           d="m 19.011962,-23.392467 3.948608,3.948609"
           id="path4874" />
        <path
           style="fill:none;fill-opacity:1;stroke:#000000;stroke-width:0.635;stroke-linecap:round;stroke-linejoin:bevel;stroke-dasharray:none;stroke-opacity:1;paint-order:normal"
           d="m 22.960571,-23.392466 -3.948609,3.948608"
           id="path4876" />
      </g>
      <path
         id="circle4880"
         style="fill:none;stroke:#000000;stroke-width:0.798406;stroke-linejoin:bevel"
         d="m 100.90885,62.684349 a 2.2909579,2.2909579 0 0 1 -2.290953,2.290958 2.2909579,2.2909579 0 0 1 -2.290958,-2.290958 2.2909579,2.2909579 0 0 1 2.290958,-2.290958 2.2909579,2.2909579 0 0 1 2.290953,2.290958 z" />
      <g
         aria-label="0/0"
         id="text4902"
         style="font-size:6.0457px;fill:#868e96;stroke:#868e96;stroke-width:0.396875;stroke-linecap:round;stroke-linejoin:bevel">
        <path
           d="m 96.843721,79.370812 q 0,1.183752 -0.371952,1.738729 -0.369,0.552024 -1.148329,0.552024 -0.791136,0 -1.157184,-0.56088 -0.363097,-0.560881 -0.363097,-1.723969 0,-1.171945 0.369001,-1.729874 0.369,-0.56088 1.15128,-0.56088 0.791137,0 1.154233,0.569736 0.366048,0.566785 0.366048,1.715114 z m -0.776376,1.340209 q 0.10332,-0.239113 0.138744,-0.560881 0.03838,-0.32472 0.03838,-0.779328 0,-0.448705 -0.03838,-0.779329 -0.03542,-0.330624 -0.141696,-0.56088 -0.10332,-0.227304 -0.283392,-0.342433 -0.17712,-0.115128 -0.457561,-0.115128 -0.277488,0 -0.460512,0.115128 -0.180072,0.115129 -0.286344,0.348337 -0.100368,0.218448 -0.138744,0.569736 -0.03542,0.351288 -0.03542,0.770473 0,0.460512 0.03247,0.770472 0.03247,0.30996 0.138744,0.554977 0.09742,0.230256 0.274536,0.351288 0.180072,0.121032 0.475272,0.121032 0.277489,0 0.460513,-0.115128 0.183024,-0.115128 0.283392,-0.348336 z"
           id="path740" />
        <path
           d="m 99.780963,76.976738 -2.116585,5.490724 h -0.510696 l 2.107729,-5.490724 z"
           id="path742" />
        <path
           d="m 103.43259,79.370812 q 0,1.183752 -0.37195,1.738729 -0.369,0.552024 -1.14833,0.552024 -0.79114,0 -1.15719,-0.56088 -0.36309,-0.560881 -0.36309,-1.723969 0,-1.171945 0.369,-1.729874 0.369,-0.56088 1.15128,-0.56088 0.79114,0 1.15423,0.569736 0.36605,0.566785 0.36605,1.715114 z m -0.77638,1.340209 q 0.10332,-0.239113 0.13875,-0.560881 0.0384,-0.32472 0.0384,-0.779328 0,-0.448705 -0.0384,-0.779329 -0.0354,-0.330624 -0.1417,-0.56088 -0.10332,-0.227304 -0.28339,-0.342433 -0.17712,-0.115128 -0.45756,-0.115128 -0.27749,0 -0.46051,0.115128 -0.18008,0.115129 -0.28635,0.348337 -0.10037,0.218448 -0.13874,0.569736 -0.0354,0.351288 -0.0354,0.770473 0,0.460512 0.0325,0.770472 0.0325,0.30996 0.13874,0.554977 0.0974,0.230256 0.27454,0.351288 0.18007,0.121032 0.47527,0.121032 0.27749,0 0.46051,-0.115128 0.18302,-0.115128 0.28339,-0.348336 z"
           id="path744" />
      </g>
      <g
         aria-label="0/0"
         id="text5008"
         style="font-size:6.0457px;fill:#868e96;stroke:#868e96;stroke-width:0.396875;stroke-linecap:round;stroke-linejoin:bevel">
        <path
           d="m 133.88539,79.370812 q 0,1.183752 -0.37196,1.738729 -0.369,0.552024 -1.14833,0.552024 -0.79113,0 -1.15718,-0.56088 -0.3631,-0.560881 -0.3631,-1.723969 0,-1.171945 0.369,-1.729874 0.369,-0.56088 1.15128,-0.56088 0.79114,0 1.15424,0.569736 0.36605,0.566785 0.36605,1.715114 z m -0.77638,1.340209 q 0.10332,-0.239113 0.13874,-0.560881 0.0384,-0.32472 0.0384,-0.779328 0,-0.448705 -0.0384,-0.779329 -0.0354,-0.330624 -0.14169,-0.56088 -0.10332,-0.227304 -0.2834,-0.342433 -0.17712,-0.115128 -0.45756,-0.115128 -0.27748,0 -0.46051,0.115128 -0.18007,0.115129 -0.28634,0.348337 -0.10037,0.218448 -0.13875,0.569736 -0.0354,0.351288 -0.0354,0.770473 0,0.460512 0.0325,0.770472 0.0325,0.30996 0.13875,0.554977 0.0974,0.230256 0.27453,0.351288 0.18007,0.121032 0.47527,0.121032 0.27749,0 0.46052,-0.115128 0.18302,-0.115128 0.28339,-0.348336 z"
           id="path733" />
        <path
           d="m 136.82263,76.976738 -2.11659,5.490724 h -0.51069 l 2.10773,-5.490724 z"
           id="path735" />
        <path
           d="m 140.47425,79.370812 q 0,1.183752 -0.37195,1.738729 -0.369,0.552024 -1.14833,0.552024 -0.79113,0 -1.15718,-0.56088 -0.3631,-0.560881 -0.3631,-1.723969 0,-1.171945 0.369,-1.729874 0.369,-0.56088 1.15128,-0.56088 0.79114,0 1.15424,0.569736 0.36604,0.566785 0.36604,1.715114 z m -0.77637,1.340209 q 0.10332,-0.239113 0.13874,-0.560881 0.0384,-0.32472 0.0384,-0.779328 0,-0.448705 -0.0384,-0.779329 -0.0354,-0.330624 -0.14169,-0.56088 -0.10332,-0.227304 -0.2834,-0.342433 -0.17712,-0.115128 -0.45756,-0.115128 -0.27749,0 -0.46051,0.115128 -0.18007,0.115129 -0.28634,0.348337 -0.10037,0.218448 -0.13875,0.569736 -0.0354,0.351288 -0.0354,0.770473 0,0.460512 0.0325,0.770472 0.0325,0.30996 0.13874,0.554977 0.0974,0.230256 0.27454,0.351288 0.18007,0.121032 0.47527,0.121032 0.27749,0 0.46051,-0.115128 0.18303,-0.115128 0.2834,-0.348336 z"
           id="path737" />
      </g>
      <path
         style="fill:none;fill-opacity:1;stroke:#66a80f;stroke-width:0.396875;stroke-linecap:round;stroke-linejoin:bevel;stroke-dasharray:none;stroke-opacity:1"
         d="m 107.84109,39.465143 c 0,0 -6.40668,2.178272 -7.55988,8.713083"
         id="path5544" />
      <path
         style="fill:none;fill-opacity:1;stroke:#66a80f;stroke-width:0.396875;stroke-linecap:round;stroke-linejoin:bevel;stroke-dasharray:none;stroke-opacity:1"
         d="m 125.77979,37.92754 c 0,0 7.04735,1.537603 9.61002,9.866287"
         id="path6411" />
    </g>
    <g
       transform="matrix(0.26458335,0,0,0.26458335,38.836899,13.229166)"
       id="text11567"
       style="white-space:pre;shape-inside:url(#rect11569);display:inline;fill:#d6336c;stroke:#d6336c;stroke-width:1.5;stroke-linecap:round;stroke-linejoin:bevel" />
  </g>
</svg>
