<?xml version="1.0" encoding="UTF-8" standalone="no"?>
<!-- Generator: Adobe Illustrator 17.1.0, SVG Export Plug-In . SVG Version: 6.00 Build 0)  -->

<svg
   version="1.1"
   id="Capa_1"
   x="0px"
   y="0px"
   viewBox="0 0 469.972 469.972"
   xml:space="preserve"
   sodipodi:docname="earmuffs.svg"
   inkscape:version="1.1 (c68e22c387, 2021-05-23)"
   style="enable-background:new 0 0 469.972 469.972;"
   xmlns:inkscape="http://www.inkscape.org/namespaces/inkscape"
   xmlns:sodipodi="http://sodipodi.sourceforge.net/DTD/sodipodi-0.dtd"
   xmlns="http://www.w3.org/2000/svg"
   xmlns:svg="http://www.w3.org/2000/svg"><defs
   id="defs45" /><sodipodi:namedview
   id="namedview43"
   pagecolor="#ffffff"
   bordercolor="#999999"
   borderopacity="1"
   inkscape:pageshadow="0"
   inkscape:pageopacity="0"
   inkscape:pagecheckerboard="0"
   showgrid="false"
   inkscape:zoom="0.91282038"
   inkscape:cx="190.07025"
   inkscape:cy="115.57586"
   inkscape:window-width="1920"
   inkscape:window-height="1017"
   inkscape:window-x="-8"
   inkscape:window-y="-8"
   inkscape:window-maximized="1"
   inkscape:current-layer="Capa_1"
   width="540px" />
<path
   style="fill:#faa2c1;fill-opacity:1;stroke-width:0.3;stroke-linecap:round;stroke-linejoin:round;paint-order:stroke fill markers"
   d="m 355.44838,435.4796 c -14.14029,-1.98432 -25.62314,-12.33118 -28.51105,-25.69046 -0.53416,-2.47102 -0.62041,-12.78024 -0.62041,-74.15725 0,-70.06535 0.0144,-71.34254 0.84256,-74.51356 4.41554,-16.90768 21.79724,-27.81447 38.89031,-24.40317 6.78136,1.35337 11.73952,3.91378 17.21944,8.89214 4.0527,3.68178 6.21788,4.67376 9.06634,4.15377 8.98264,-1.63982 16.23637,-0.70108 23.6925,3.06617 9.49789,4.79885 15.91853,13.71993 17.62806,24.49315 0.73282,4.6181 2.14823,6.63168 5.71905,8.13595 6.59699,2.77909 13.20161,9.17193 16.4458,15.91844 2.14913,4.46927 3.04723,8.54375 3.04723,13.82449 0,5.69963 -0.92322,9.48727 -3.66252,15.02597 -2.52213,5.09961 -2.50712,6.22716 0.15788,11.86069 2.76801,5.85127 3.58919,9.32312 3.52918,14.92112 -0.13216,12.32912 -6.82593,22.88693 -18.20517,28.71425 -5.61728,2.8766 -5.89766,3.26866 -7.32224,10.23837 -1.34495,6.58015 -4.01007,11.7608 -8.37063,16.27138 -8.30408,8.58981 -18.494,11.92811 -31.02717,10.16475 -4.88284,-0.68699 -6.09838,-0.25172 -10.45923,3.74543 -5.7864,5.3038 -12.23494,8.38192 -19.60232,9.35687 -3.68908,0.48819 -4.86522,0.48562 -8.45761,-0.0185 z"
   id="path3692" /><path
   style="fill:#faa2c1;fill-opacity:1;stroke-width:0.3;stroke-linecap:round;stroke-linejoin:round;paint-order:stroke fill markers"
   d="m 102.09761,437.34289 c -5.990163,-1.47015 -11.005334,-4.23143 -15.868259,-8.73683 l -4.204495,-3.89537 -10.694955,-0.007 c -10.27525,-0.008 -10.91994,-0.11388 -16.428028,-2.69809 -10.160944,-4.76719 -17.264302,-13.95879 -19.295704,-24.96826 -1.046468,-5.67148 -2.297557,-7.41072 -7.063854,-9.82013 -1.827441,-0.92379 -5.392107,-3.61803 -7.921478,-5.9872 -10.8634304,-10.17539 -13.8117306,-25.66387 -7.305866,-38.38038 2.57864,-5.04027 2.576623,-7.70137 -0.01025,-13.49501 -1.132858,-2.53721 -2.483601,-6.9283 -3.001651,-9.75797 -2.4132511,-13.18159 5.081091,-27.69061 17.760552,-34.38436 5.758997,-3.04029 6.183582,-3.62808 7.614029,-10.54071 2.869755,-13.86807 13.696301,-24.71755 27.211886,-27.2695 2.483142,-0.46886 7.572046,-0.60869 11.308675,-0.31074 l 6.793871,0.54172 5.052604,-4.3048 c 8.998158,-7.66641 17.943243,-10.52322 28.572653,-9.12532 10.7575,1.41474 20.49793,8.65482 25.38113,18.86583 l 2.71561,5.67849 v 77.52627 77.52625 l -2.36529,4.77074 c -4.83716,9.75649 -13.90326,16.90755 -24.11938,19.02462 -5.52164,1.14424 -8.67269,1.08812 -14.13182,-0.2517 z M 56.25879,318.33804 c -37.50586,-212.22536 -18.75293,-106.11268 0,0 z m 17.491896,-26.52771 c -49.167124,-194.54022 -24.583562,-97.27011 0,0 z"
   id="path1887"
   sodipodi:nodetypes="csccssssssssssscssscccsscccccc" /><g
   id="g10"
   style="fill:#212529;fill-opacity:1">
	<path
   d="M467.712,301.552c-3.648-11.226-11.45-20.596-21.714-26.247c-2.204-11.509-8.705-21.825-18.254-28.763   c-3.57-2.594-7.431-4.634-11.488-6.101c1.844-10.522,2.793-21.245,2.793-31.977c0-101.493-82.57-184.063-184.062-184.063   c-101.493,0-184.063,82.57-184.063,184.063c0,10.729,0.948,21.453,2.793,31.978c-4.057,1.467-7.917,3.507-11.487,6.101   c-9.549,6.938-16.05,17.254-18.254,28.763c-10.264,5.651-18.065,15.021-21.714,26.248c-3.647,11.226-2.843,23.393,2.14,33.998   c-4.982,10.606-5.787,22.773-2.14,33.999c3.648,11.226,11.45,20.596,21.714,26.248c2.204,11.508,8.705,21.824,18.254,28.762   c7.959,5.782,17.354,8.839,27.17,8.839c1.945,0,3.893-0.123,5.825-0.367c8.548,8.015,19.87,12.54,31.673,12.54   c25.532,0,46.304-20.771,46.304-46.303V271.834c0-25.532-20.771-46.303-46.304-46.303c-3.32,0-6.598,0.37-9.79,1.063   c-0.78-6-1.183-12.068-1.183-18.13c0-76.68,62.384-139.063,139.063-139.063s139.062,62.384,139.062,139.063   c0,6.065-0.403,12.133-1.183,18.13c-3.192-0.693-6.471-1.063-9.79-1.063c-25.532,0-46.304,20.771-46.304,46.303v127.435   c0,25.532,20.771,46.303,46.304,46.303c11.803,0,23.125-4.524,31.673-12.54c1.933,0.244,3.88,0.367,5.825,0.367   c9.816,0,19.212-3.057,27.17-8.839c9.549-6.938,16.05-17.254,18.254-28.762c10.264-5.652,18.065-15.022,21.714-26.249   c3.647-11.226,2.843-23.392-2.14-33.998C470.554,324.946,471.359,312.779,467.712,301.552z M138.2,271.834v127.435   c0,17.261-14.043,31.303-31.304,31.303c-8.95,0-17.493-3.852-23.44-10.568c-1.44-1.627-3.493-2.528-5.615-2.528   c-0.539,0-1.082,0.058-1.621,0.177c-2.237,0.495-4.532,0.747-6.821,0.747c-6.627,0-12.974-2.066-18.354-5.975   c-7.24-5.26-11.888-13.398-12.752-22.328c-0.262-2.712-1.974-5.068-4.472-6.155c-8.225-3.58-14.528-10.515-17.295-19.027   c-2.766-8.512-1.741-17.828,2.809-25.559c1.382-2.348,1.382-5.261,0-7.608c-4.551-7.731-5.574-17.047-2.809-25.559   c2.767-8.512,9.07-15.447,17.295-19.027c2.498-1.087,4.21-3.443,4.472-6.155c0.864-8.929,5.512-17.068,12.752-22.328   c5.379-3.909,11.726-5.974,18.354-5.974c2.288,0,4.583,0.251,6.821,0.746c2.658,0.589,5.429-0.311,7.235-2.351   c5.947-6.716,14.49-10.568,23.44-10.568C124.157,240.531,138.2,254.573,138.2,271.834z M234.986,54.4   c-84.951,0-154.063,69.113-154.063,154.063c0,7.991,0.63,15.996,1.853,23.87c-2.69,1.643-5.227,3.555-7.552,5.736   c-1.933-0.244-3.88-0.366-5.824-0.366c-0.312,0-0.622,0.012-0.933,0.018c-1.679-9.628-2.544-19.439-2.544-29.258   c0-93.222,75.842-169.063,169.063-169.063s169.062,75.842,169.062,169.063c0,9.821-0.864,19.632-2.543,29.258   c-0.311-0.006-0.621-0.018-0.932-0.018c-1.944,0-3.892,0.123-5.824,0.366c-2.326-2.181-4.862-4.093-7.552-5.736   c1.223-7.871,1.852-15.875,1.852-23.871C389.048,123.513,319.936,54.4,234.986,54.4z M450.637,339.355   c4.55,7.731,5.574,17.047,2.809,25.559c-2.767,8.512-9.07,15.448-17.295,19.027c-2.498,1.087-4.21,3.443-4.472,6.155   c-0.864,8.929-5.512,17.067-12.752,22.328c-5.379,3.908-11.726,5.974-18.354,5.975c-2.287,0-4.583-0.251-6.82-0.747   c-2.661-0.587-5.43,0.312-7.236,2.351c-5.947,6.716-14.49,10.568-23.44,10.568c-17.261,0-31.304-14.042-31.304-31.303V271.834   c0-17.261,14.043-31.303,31.304-31.303c8.95,0,17.493,3.852,23.44,10.568c1.806,2.04,4.574,2.94,7.235,2.351   c2.238-0.495,4.533-0.746,6.821-0.746c6.629,0,12.976,2.065,18.354,5.974c7.24,5.26,11.888,13.399,12.752,22.328   c0.262,2.712,1.974,5.068,4.472,6.155c8.225,3.58,14.528,10.515,17.295,19.026c2.766,8.512,1.742,17.828-2.809,25.559   C449.255,334.094,449.255,337.007,450.637,339.355z"
   id="path2"
   style="fill:#212529;fill-opacity:1" />
	
	
	
</g>
<g
   id="g12"
   style="fill:#212529;fill-opacity:1">
</g>
<g
   id="g14"
   style="fill:#212529;fill-opacity:1">
</g>
<g
   id="g16"
   style="fill:#212529;fill-opacity:1">
</g>
<g
   id="g18"
   style="fill:#212529;fill-opacity:1">
</g>
<g
   id="g20"
   style="fill:#212529;fill-opacity:1">
</g>
<g
   id="g22"
   style="fill:#212529;fill-opacity:1">
</g>
<g
   id="g24"
   style="fill:#212529;fill-opacity:1">
</g>
<g
   id="g26"
   style="fill:#212529;fill-opacity:1">
</g>
<g
   id="g28"
   style="fill:#212529;fill-opacity:1">
</g>
<g
   id="g30"
   style="fill:#212529;fill-opacity:1">
</g>
<g
   id="g32"
   style="fill:#212529;fill-opacity:1">
</g>
<g
   id="g34"
   style="fill:#212529;fill-opacity:1">
</g>
<g
   id="g36"
   style="fill:#212529;fill-opacity:1">
</g>
<g
   id="g38"
   style="fill:#212529;fill-opacity:1">
</g>
<g
   id="g40"
   style="fill:#212529;fill-opacity:1">
</g>
<path
   style="fill:#212529;fill-opacity:1;stroke-width:0.3;stroke-linecap:round;stroke-linejoin:round;paint-order:stroke fill markers"
   d="m 69.772041,235.72049 c -3.457408,-0.15268 -3.115473,0.34043 -3.963586,-5.71594 -1.739892,-12.42456 -2.096021,-29.1855 -0.858346,-40.39738 3.103784,-28.11663 12.350231,-53.8719 27.490691,-76.57319 16.51238,-24.758332 39.6374,-45.019968 66.29691,-58.087899 19.83614,-9.723256 39.69907,-15.141043 61.93238,-16.892589 7.30563,-0.57554 24.07563,-0.250168 31.41169,0.60945 19.04199,2.231285 37.70582,7.703141 54.63717,16.018509 17.62026,8.653716 31.66446,18.702578 45.51038,32.56345 27.58738,27.617179 43.9175,61.526209 48.66215,101.045559 0.52871,4.40372 0.67987,8.58857 0.66736,18.47491 -0.016,12.61786 -0.21804,15.60884 -1.7456,25.83865 l -0.446,2.98679 -3.15053,0.11177 -3.15053,0.11177 -2.74429,-2.13026 c -1.50937,-1.17164 -3.21923,-2.47885 -3.79971,-2.9049 l -1.05541,-0.77464 0.64683,-4.84149 c 0.85401,-6.39221 1.19643,-24.48792 0.59481,-31.43381 C 383.45834,156.20614 367.15375,121.76834 340.34236,95.79703 316.92937,73.117632 286.95888,58.340879 255.18034,53.808457 244.1069,52.229106 228.30445,51.887498 217.61032,52.99629 c -41.84011,4.338081 -79.18233,24.744825 -105.42465,57.61237 -15.761639,19.74088 -26.702912,43.97152 -31.089309,68.85066 -2.639359,14.97014 -3.027852,32.63952 -1.037075,47.16814 l 0.492558,3.59467 -1.381984,0.85195 c -0.760091,0.46857 -2.466073,1.77039 -3.79107,2.89294 -1.324997,1.12254 -2.457908,2.00591 -2.517579,1.96305 -0.05967,-0.0429 -1.449798,-0.13719 -3.08917,-0.20958 z"
   id="path1809" /><path
   style="fill:#212529;fill-opacity:1;stroke-width:0.3;stroke-linecap:round;stroke-linejoin:round;paint-order:stroke fill markers"
   d="m 69.772041,239.72049 c -3.457408,-0.15268 -3.115473,0.34043 -3.963586,-5.71594 -1.739892,-12.42456 -2.096021,-29.1855 -0.858346,-40.39738 3.103784,-28.11663 12.350231,-53.8719 27.490691,-76.57319 16.51238,-24.758332 39.6374,-45.019968 66.29691,-58.087899 19.83614,-9.723256 39.69907,-15.141043 61.93238,-16.892589 7.30563,-0.57554 24.07563,-0.250168 31.41169,0.60945 19.04199,2.231285 37.70582,7.703141 54.63717,16.018509 17.62026,8.653716 31.66446,18.702578 45.51038,32.56345 27.58738,27.617179 43.9175,61.526209 48.66215,101.045559 0.52871,4.40372 0.67987,8.58857 0.66736,18.47491 -0.016,12.61786 -0.21804,15.60884 -1.7456,25.83865 l -0.446,2.98679 -3.15053,0.11177 -3.15053,0.11177 -2.74429,-2.13026 c -1.50937,-1.17164 -3.21923,-2.47885 -3.79971,-2.9049 l -1.05541,-0.77464 0.64683,-4.84149 c 0.85401,-6.39221 1.19643,-24.48792 0.59481,-31.43381 C 383.45834,160.20614 367.15375,125.76834 340.34236,99.79703 316.92937,77.117632 286.95888,62.340879 255.18034,57.808457 244.1069,56.229106 228.30445,55.887498 217.61032,56.99629 c -41.84011,4.338081 -79.18233,24.744825 -105.42465,57.61237 -15.76164,19.74088 -26.702912,43.97152 -31.089309,68.85066 -2.639359,14.97014 -3.027852,32.63952 -1.037075,47.16814 l 0.492558,3.59467 -1.381984,0.85195 c -0.760091,0.46857 -2.466073,1.77039 -3.79107,2.89294 -1.324997,1.12254 -2.457908,2.00591 -2.517579,1.96305 -0.05967,-0.0429 -1.449798,-0.13719 -3.08917,-0.20958 z"
   id="path4016" /><path
   style="fill:#212529;fill-opacity:1;stroke-width:0.3;stroke-linecap:round;stroke-linejoin:round;paint-order:stroke fill markers"
   d="m 73.772041,237.72049 c -3.457408,-0.15268 -3.115473,0.34043 -3.963586,-5.71594 -1.739892,-12.42456 -2.096021,-29.1855 -0.858346,-40.39738 3.103784,-28.11663 12.350231,-53.8719 27.490691,-76.57319 16.51238,-24.758332 39.6374,-45.019968 66.29691,-58.087899 19.83614,-9.723256 39.69907,-15.141043 61.93238,-16.892589 7.30563,-0.57554 24.07563,-0.250168 31.41169,0.60945 19.04199,2.231285 37.70582,7.703141 54.63717,16.018509 17.62026,8.653716 31.66446,18.702578 45.51038,32.56345 27.58738,27.617179 43.9175,61.526209 48.66215,101.045559 0.52871,4.40372 0.67987,8.58857 0.66736,18.47491 -0.016,12.61786 -0.21804,15.60884 -1.7456,25.83865 l -0.446,2.98679 -3.15053,0.11177 -3.15053,0.11177 -2.74429,-2.13026 c -1.50937,-1.17164 -3.21923,-2.47885 -3.79971,-2.9049 l -1.05541,-0.77464 0.64683,-4.84149 c 0.85401,-6.39221 1.19643,-24.48792 0.59481,-31.43381 C 387.45834,158.20614 371.15375,123.76834 344.34236,97.79703 320.92937,75.117632 290.95888,60.340879 259.18034,55.808457 248.1069,54.229106 232.30445,53.887498 221.61032,54.99629 c -41.84011,4.338081 -79.18233,24.744825 -105.42465,57.61237 -15.76164,19.74088 -26.702912,43.97152 -31.089309,68.85066 -2.639359,14.97014 -3.027852,32.63952 -1.037075,47.16814 l 0.492558,3.59467 -1.381984,0.85195 c -0.760091,0.46857 -2.466073,1.77039 -3.79107,2.89294 -1.324997,1.12254 -2.457908,2.00591 -2.517579,1.96305 -0.05967,-0.0429 -1.449798,-0.13719 -3.08917,-0.20958 z"
   id="path4018" /></svg>
