<?xml version="1.0" encoding="UTF-8" standalone="no"?>
<!-- Created with Inkscape (http://www.inkscape.org/) -->

<svg
   width="230.70905mm"
   height="145.06058mm"
   viewBox="0 0 230.70905 145.06058"
   version="1.1"
   id="svg5"
   xml:space="preserve"
   sodipodi:docname="flowers.svg"
   inkscape:version="1.2.1 (9c6d41e, 2022-07-14)"
   inkscape:export-filename="flowers.png"
   inkscape:export-xdpi="96"
   inkscape:export-ydpi="96"
   xmlns:inkscape="http://www.inkscape.org/namespaces/inkscape"
   xmlns:sodipodi="http://sodipodi.sourceforge.net/DTD/sodipodi-0.dtd"
   xmlns="http://www.w3.org/2000/svg"
   xmlns:svg="http://www.w3.org/2000/svg"><sodipodi:namedview
     id="namedview7"
     pagecolor="#ffffff"
     bordercolor="#999999"
     borderopacity="1"
     inkscape:showpageshadow="0"
     inkscape:pageopacity="0"
     inkscape:pagecheckerboard="0"
     inkscape:deskcolor="#d1d1d1"
     inkscape:document-units="mm"
     showgrid="false"
     inkscape:zoom="0.6689633"
     inkscape:cx="559.07402"
     inkscape:cy="371.47031"
     inkscape:window-width="1512"
     inkscape:window-height="835"
     inkscape:window-x="0"
     inkscape:window-y="38"
     inkscape:window-maximized="1"
     inkscape:current-layer="layer1" /><defs
     id="defs2" /><g
     inkscape:label="Layer 1"
     inkscape:groupmode="layer"
     id="layer1"
     transform="translate(-221.95839,-145.96922)"><path
       style="fill:#343a40;fill-opacity:1;stroke-width:0.501442"
       d="m 243.70544,290.03048 c -0.4826,-0.57386 -1.93674,-2.09701 -3.23135,-3.38477 -2.7194,-2.70509 -3.29833,-4.41331 -2.40885,-7.10824 0.56984,-1.72685 0.52611,-2.0934 -0.43544,-3.64928 l -1.06898,-1.72961 1.02645,-1.30485 1.02641,-1.3049 -1.1523,-2.01764 c -0.63376,-1.1097 -1.28303,-2.01937 -1.44291,-2.02152 -0.15977,-0.002 -1.69277,1.26504 -3.40655,2.81591 -1.71376,1.55088 -3.27536,2.66085 -3.47022,2.46662 -0.19486,-0.19457 -0.43128,-2.70563 -0.52534,-5.58095 -0.16095,-4.92196 -0.0847,-5.41281 1.30763,-8.38794 0.81334,-1.73805 2.41914,-4.1486 3.56847,-5.3568 1.67688,-1.76275 1.96335,-2.3174 1.45024,-2.80763 -1.23949,-1.18436 -9.23534,-5.13764 -11.09807,-5.48709 l -1.88624,-0.35386 1.12837,-1.20112 c 1.42276,-1.51439 5.70175,-3.55859 8.32816,-3.97857 l 2.007,-0.32092 0.29014,-2.82959 c 0.18269,-1.78131 0.92754,-4.07364 2.01066,-6.18764 l 1.72051,-3.358 -1.46477,-0.32176 c -1.80894,-0.39729 -9.30411,0.51372 -13.08302,1.59022 -2.34003,0.66661 0.73969,-5.56864 4.22318,-8.55039 3.66037,-3.13314 6.86917,-4.39846 11.87896,-4.68405 l 4.4245,-0.25228 0.95656,-1.80184 c 0.5261,-0.99104 2.317,-3.1947 3.97984,-4.89701 l 3.02332,-3.09521 -1.1606,-1.68208 c -2.07844,-3.01242 -3.27969,-8.01522 -3.03657,-12.64675 0.1186,-2.26396 0.39645,-4.40807 0.61683,-4.76477 0.27606,-0.44687 1.13455,0.49421 2.76124,3.02744 1.29822,2.02176 3.2152,4.42303 4.25991,5.33612 1.6853,1.47305 1.9925,1.57868 2.72481,0.93679 1.70087,-1.49063 3.72987,-1.51849 7.19676,-0.0989 0.75604,0.30956 0.79974,0.1563 0.37612,-1.32132 -0.26359,-0.91938 -0.47944,-2.41766 -0.47944,-3.32946 0,-1.81753 1.2344,-4.61679 2.03596,-4.61679 0.31335,0 0.38589,-0.90625 0.1905,-2.3819 -0.34453,-2.60449 0.79979,-8.03601 2.12656,-10.09375 l 0.76929,-1.193 1.47346,2.69736 c 0.81035,1.48357 2.30919,3.57085 3.33072,4.63838 1.89999,1.98563 5.49737,4.82858 6.10985,4.82858 0.18733,0 0.0455,-1.41031 -0.31549,-3.13409 -0.96986,-4.62831 -0.89255,-6.39346 0.28012,-6.39346 0.89978,0 5.59046,3.34366 6.29898,4.49011 0.56176,0.90893 1.76922,0.56873 1.76922,-0.49846 0,-3.97978 8.00958,-11.26649 13.81134,-12.56487 2.35428,-0.52686 2.84993,-0.49371 4.01285,0.26822 0.72974,0.4781 1.70009,1.5255 2.15632,2.3275 0.82377,1.44807 0.86249,1.45819 5.59329,1.46813 2.62002,0.006 5.2611,0.14326 5.86897,0.30637 1.02105,0.27402 1.08332,0.1618 0.81821,-1.4724 -0.3244,-1.99897 0.51474,-6.01472 1.95753,-9.36798 l 0.97086,-2.25654 1.19681,2.33785 c 1.53068,2.99001 5.27095,6.15101 6.73031,5.68783 0.86281,-0.27401 0.99005,-0.60624 0.74076,-1.93513 -0.19891,-1.06195 0.0774,-2.61733 0.81813,-4.59965 1.39791,-3.74109 5.79013,-8.29831 10.48373,-10.87766 5.60732,-3.08143 5.30776,-3.25104 5.28494,2.99308 -0.0144,2.96494 0.15688,6.02431 0.37314,6.79863 l 0.39289,1.40779 1.91684,-1.51813 c 2.08472,-1.65113 4.41023,-2.70806 5.06632,-2.30253 0.22764,0.14064 0.10377,1.55258 -0.27518,3.13762 -0.37876,1.58506 -0.69678,3.58639 -0.70654,4.44747 -0.0203,1.43532 0.1441,1.59153 1.92991,1.87711 1.33053,0.21286 2.74207,1.02557 4.45379,2.56453 l 2.50593,2.25307 1.43819,-2.87654 c 1.86023,-3.72044 3.28703,-4.55733 6.27096,-3.6782 1.72508,0.50827 3.27353,1.74612 7.32405,5.85481 l 5.13647,5.21035 0.6795,-1.62162 c 1.01181,-2.41448 3.2076,-4.79372 5.50657,-5.96658 3.38683,-1.72777 9.74725,-0.61516 10.70167,1.8721 0.15398,0.40042 -0.27635,1.45908 -0.95555,2.35261 -2.10037,2.76319 -5.30345,10.15732 -4.67312,10.78763 0.12295,0.12294 0.89819,-0.2575 1.72326,-0.84502 4.29773,-3.06023 13.27344,-3.5032 16.88367,-0.83319 0.94647,0.70007 0.91002,0.79785 -1.07737,2.88794 -3.50551,3.68685 -3.73898,4.2105 -2.91647,6.54183 0.39118,1.10869 0.7112,2.66435 0.7112,3.45704 0,0.79276 0.16933,1.47344 0.37608,1.51271 0.20676,0.0393 1.1412,0.13367 2.07639,0.20993 1.83853,0.14963 2.42654,0.72638 2.88421,2.82864 0.25722,1.18013 0.47916,1.31804 1.72298,1.06928 2.16059,-0.43213 3.57688,0.10988 6.1089,2.33891 1.34863,1.18708 2.43697,1.81264 2.6248,1.5086 0.1766,-0.28563 1.1993,-0.96741 2.27279,-1.51502 2.92371,-1.49163 7.80797,-1.36871 11.05803,0.27837 1.38277,0.70066 2.62176,1.55442 2.75328,1.89727 0.13136,0.34277 -1.02537,2.53374 -2.57093,4.86869 -4.10775,6.20592 -5.48735,9.04348 -4.65363,9.5719 0.36859,0.23341 0.90806,0.42828 1.1988,0.43252 0.29076,0.006 1.54595,0.65282 2.78926,1.44131 2.17938,1.38215 5.6419,5.78535 5.31667,6.76106 -0.0872,0.26097 -2.17824,1.06414 -4.64712,1.78461 -4.20691,1.22763 -4.49927,1.40039 -4.65376,2.74983 -0.15455,1.35285 -0.0792,1.41835 1.25362,1.08307 0.78017,-0.19603 2.84012,-0.34629 4.57764,-0.3334 2.46853,0.0203 3.72914,0.32892 5.76664,1.42085 3.98224,2.13412 3.71274,3.15552 -1.82263,6.90714 -4.37436,2.96478 -4.4154,3.01178 -3.25934,3.73482 4.51949,2.827 8.47495,9.15812 9.41862,15.07559 0.60551,3.79691 0.69646,9.52757 0.15135,9.52722 -0.20675,-1.2e-4 -1.36018,-1.14294 -2.56296,-2.53962 -1.20278,-1.39659 -3.33489,-3.44682 -4.73805,-4.55592 l -2.55116,-2.01663 -1.23131,2.67578 c -0.78539,1.70671 -1.24871,3.65499 -1.27933,5.37955 -0.0409,2.30504 -0.24183,2.84879 -1.36421,3.68658 -1.14932,0.85812 -1.25141,1.15413 -0.80549,2.3355 1.28148,3.39511 -1.9209,11.54604 -5.233,13.31947 -1.61376,0.86406 -1.9945,0.90121 -3.11119,0.30357 -0.69983,-0.3745 -2.09828,-1.92485 -3.10767,-3.44508 -1.59294,-2.39909 -1.79781,-3.03782 -1.5513,-4.83638 0.23777,-1.7346 0.11392,-2.17831 -0.75862,-2.72341 -0.92104,-0.57516 -1.00549,-0.96781 -0.72375,-3.365 0.31394,-2.67109 0.29838,-2.71382 -0.98702,-2.71382 -2.03561,0 -4.11577,-1.51922 -4.95622,-3.61975 -1.00267,-2.50595 -0.96884,-3.20597 0.25024,-5.17863 l 1.01718,-1.64571 -2.6912,-1.27313 c -3.77658,-1.78659 -4.15068,-2.35372 -3.5349,-5.35947 0.48051,-2.34586 0.43805,-2.5255 -0.89974,-3.8072 -1.88932,-1.81011 -2.56412,-3.97873 -1.9281,-6.19648 0.27577,-0.96039 0.50085,-1.80047 0.50085,-1.86682 0,-0.0664 -0.94253,0.37065 -2.09451,0.97111 -2.89106,1.5069 -5.08335,1.33337 -7.85732,-0.62186 -1.26034,-0.88842 -2.35998,-1.4176 -2.44367,-1.17596 -0.45743,1.3208 -8.31957,13.72763 -8.6991,13.72763 -0.55601,0 -2.58092,-3.94744 -3.6554,-7.12589 -1.18552,-3.50708 -1.96464,-10.83619 -1.41291,-13.29167 0.36199,-1.61129 0.26126,-2.64912 -0.4602,-4.73802 -0.50803,-1.47111 -0.9311,-3.52094 -0.94012,-4.55515 -0.0116,-1.03425 -0.12004,-1.88043 -0.24705,-1.88043 -0.12672,0 -1.31152,1.1641 -2.63253,2.58685 -4.65764,5.0162 -10.5347,8.47323 -10.73363,6.3138 -0.35179,-3.81858 2.3231,-8.12371 7.74852,-12.47097 1.47884,-1.1849 2.16385,-2.0241 1.75505,-2.14995 -1.00884,-0.31065 -7.35507,-1.80143 -7.66847,-1.80143 -0.14992,0 -0.27316,0.77867 -0.27316,1.73035 0,2.52428 -0.98584,6.76694 -2.07064,8.91143 -1.9434,3.84172 -6.98975,8.41317 -9.28715,8.41317 -1.00812,0 -1.17833,-0.2491 -1.17833,-1.72228 0,-0.94723 0.34268,-3.3516 0.7616,-5.34304 0.61919,-2.94347 0.64262,-3.78193 0.12528,-4.48258 -0.34994,-0.47394 -1.61823,-2.12584 -2.81843,-3.67076 -1.20023,-1.54493 -2.71018,-4.10818 -3.35561,-5.69613 -0.68115,-1.67591 -1.27648,-2.57514 -1.41898,-2.14343 -1.31155,3.97288 -4.39826,15.42352 -4.64711,17.23908 -0.17399,1.26996 -0.54121,2.30903 -0.81589,2.30903 -0.9504,0 -3.80464,-3.51023 -5.19388,-6.38761 -1.13344,-2.34756 -1.39932,-3.59412 -1.41816,-6.64998 -0.0144,-2.06853 0.14412,-4.35667 0.34859,-5.08483 0.34056,-1.2124 0.22649,-1.35119 -1.34873,-1.64677 -1.0113,-0.18991 -2.23043,-0.92871 -2.95739,-1.79271 -1.0578,-1.25713 -1.32516,-1.36355 -1.84672,-0.73512 -0.33545,0.40414 -1.03352,0.73482 -1.55133,0.73482 -1.132,0 -1.12647,-0.0639 -0.18936,2.17912 1.14436,2.739 0.75124,9.16071 -0.81267,13.27415 -0.47565,1.251 -0.52635,1.21302 -2.2621,-1.69626 -3.23962,-5.42985 -7.57473,-8.99692 -12.13176,-9.98254 l -1.66747,-0.36064 0.7899,1.52758 c 1.11141,2.1492 0.98539,4.57917 -0.46083,8.88745 -1.66043,4.9464 -5.53914,13.19014 -6.87495,14.61209 l -1.06873,1.13758 -1.7962,-4.77854 c -0.98791,-2.62815 -1.9675,-4.78381 -2.17684,-4.79037 -0.20906,-0.006 -1.38935,0.13947 -2.62231,0.3243 -2.0856,0.31276 -6.88679,-0.24908 -8.90649,-1.04172 -0.71515,-0.28099 -0.87748,-0.071 -0.87748,1.13377 0,0.81305 -0.31076,2.51084 -0.69057,3.77287 l -0.69054,2.29458 1.95277,1.90684 c 1.07403,1.04878 2.39909,2.82881 2.94456,3.95561 1.05066,2.17037 1.84835,7.6285 1.31723,9.01267 -0.28416,0.74036 -0.46553,0.71797 -1.78293,-0.22038 -2.19654,-1.56409 -8.33239,-4.37682 -13.10731,-6.00861 -4.09345,-1.39885 -4.26784,-1.417 -5.23733,-0.54474 -0.55162,0.49626 -1.76591,1.35909 -2.69852,1.91725 l -1.6956,1.01494 2.33574,0.35029 c 2.42259,0.36328 5.07459,1.84623 6.02033,3.36645 1.31189,2.10872 -1.83364,3.62272 -6.4735,3.11582 -4.36208,-0.47663 -3.84026,-0.98469 1.01128,-0.98469 2.57055,0 4.83644,-0.16239 5.03533,-0.36044 0.63221,-0.6301 -1.29293,-2.95611 -3.05649,-3.69302 -0.935,-0.39064 -2.94834,-0.71029 -4.47406,-0.71029 -1.52572,0 -2.77404,-0.19921 -2.77404,-0.44257 0,-0.2436 1.23566,-1.0472 2.74594,-1.7861 3.06958,-1.50178 4.89484,-3.45993 4.67268,-5.01294 -0.18094,-1.26522 -2.34851,-1.63542 -4.45842,-0.76142 -1.3923,0.57665 -4.10273,3.28679 -5.28546,5.28479 -0.62044,1.04814 -0.73378,0.66395 -1.43392,-4.85989 -0.33871,-2.67198 -2.70012,-6.72252 -3.47022,-5.9524 -0.27259,0.27257 -0.58784,1.94314 -0.70049,3.71219 -0.16906,2.65533 0.0174,3.69849 1.06011,5.97942 l 1.26489,2.76289 -2.08666,0.34014 c -1.14768,0.18732 -3.41758,1.04263 -5.04428,1.90112 l -2.95762,1.56094 1.69734,0.69257 c 1.07708,0.4395 2.93673,0.62257 5.08877,0.50098 l 3.39141,-0.19108 v 4.67088 c 0,4.88489 0.9314,8.41056 2.12402,8.04027 1.28022,-0.39747 2.55166,-4.07175 2.89786,-8.37437 l 0.34632,-4.30399 0.074,3.54443 c 0.1241,5.94547 -2.19388,11.3992 -4.15335,9.77297 -1.19546,-0.99208 -1.96623,-4.04112 -2.0048,-7.93083 -0.0299,-3.03298 -0.1615,-3.58677 -0.78826,-3.32312 -0.41368,0.17398 -1.42913,0.56617 -2.25651,0.87145 -0.82739,0.30529 -1.60067,0.61837 -1.7185,0.69573 -0.11745,0.0771 0.40915,0.79126 1.17101,1.58643 1.30061,1.35759 1.36327,1.62508 1.0271,4.38246 -0.4655,3.81784 -2.035,8.91624 -2.98843,9.7075 -0.44433,0.36875 -0.7509,1.46739 -0.75133,2.69266 -9.6e-4,2.82394 -1.38445,5.32214 -3.56333,6.43511 -1.73256,0.885 -1.82191,1.06135 -2.11205,4.16857 -0.16645,1.78447 -0.56542,3.75347 -0.88622,4.37557 -1.70394,3.30435 -4.19954,4.30467 -5.84845,2.34416 z m 3.32959,-0.64522 c 0.32632,-0.39317 0.61992,-2.95228 0.68824,-5.99964 0.0936,-4.18607 0.29712,-5.49192 0.95777,-6.15245 0.5577,-0.55756 1.14563,-0.70611 1.75506,-0.44343 2.31544,0.99812 2.40305,0.86723 2.18649,-3.26658 -0.17138,-3.2655 -1.60309,-4.74703 -2.21847,-2.29517 -0.42699,1.70124 -2.72418,4.30098 -3.80046,4.30098 -1.91099,0 -5.48284,-4.79117 -6.26161,-8.39923 -0.40666,-1.88421 -0.73135,-1.97992 -2.32852,-0.68663 l -1.16469,0.94309 1.40015,2.11571 1.40014,2.11576 -1.15181,1.22602 c -0.95361,1.01509 -1.0466,1.37309 -0.54051,2.08104 1.2438,1.7398 1.625,3.15249 1.11036,4.11426 -0.27576,0.51533 -0.50154,1.76395 -0.50154,2.77463 0,1.4091 0.36317,2.1768 1.55737,3.29236 0.85653,0.80018 1.73686,1.45483 1.95624,1.45483 0.21923,0 0.8649,0.78975 1.43442,1.75504 1.08522,1.83929 2.52062,2.27521 3.52137,1.06941 z m 188.25609,-10.42124 c 0.60237,-0.31708 1.26102,-0.82477 1.46368,-1.12823 0.53152,-0.79615 0.4675,-4.72352 -0.0943,-5.77298 -0.37832,-0.70697 -0.16962,-1.12117 1.00294,-1.98787 1.58497,-1.17181 1.96949,-3.22628 0.95772,-5.11677 -0.40028,-0.74794 -0.35058,-1.04353 0.21168,-1.25936 0.99108,-0.3803 2.31709,-3.82215 2.31709,-6.01431 0,-2.23462 -0.66038,-3.54171 -2.8174,-5.57681 l -1.70476,-1.60828 0.3221,-4.19017 c 0.32121,-4.17897 0.3178,-4.19498 -1.26232,-5.99465 -1.48637,-1.6929 -1.69321,-1.77446 -3.34342,-1.31883 -0.96747,0.26707 -2.18065,0.35185 -2.69602,0.18819 -0.85066,-0.26996 -0.8964,-0.12264 -0.4962,1.60141 1.09567,4.71936 0.19051,10.9033 -1.87504,12.81141 -0.66806,0.61711 -1.52545,1.69709 -1.90526,2.39988 -0.66996,1.23975 -0.62827,1.30441 1.4012,2.17384 2.23759,0.9585 4.84964,3.14694 4.84964,4.06314 0,0.30667 -0.73338,0.83065 -1.62972,1.16433 -0.8963,0.3337 -2.17324,1.02757 -2.83767,1.54199 -1.17601,0.91057 -1.18737,0.98661 -0.43029,2.8788 0.82763,2.06842 0.88609,2.29351 0.88609,3.41203 0,0.92365 1.36872,2.29233 2.29233,2.29233 0.46165,0 0.71636,-0.53486 0.71636,-1.50433 0,-1.85392 0.61051,-1.91069 1.96938,-0.18326 1.13282,1.44015 1.34737,3.68492 0.50307,5.26261 -0.39045,0.72946 -0.37372,1.19779 0.0615,1.72207 0.72035,0.86797 0.75671,0.87041 2.13752,0.14353 z M 251.02689,253.03028 c -0.35171,-0.56319 -0.42063,-1.31276 -0.17283,-1.88042 0.22648,-0.51917 0.4314,-1.11322 0.45525,-1.32001 0.0261,-0.20676 0.19455,-0.31972 0.37902,-0.25084 0.18442,0.0691 0.86153,-0.35595 1.50429,-0.94427 1.58857,-1.4539 4.31446,-2.80461 6.43384,-3.18802 1.19347,-0.21574 1.69179,-0.54819 1.55739,-1.0386 -0.10872,-0.39656 -0.53327,-1.87892 -0.94345,-3.29396 -0.82068,-2.83144 -0.54276,-6.42525 0.61984,-8.01521 0.66992,-0.91614 0.72979,-0.90898 1.94491,0.23285 0.68956,0.6478 1.52369,1.82961 1.85369,2.62623 0.32992,0.79661 0.77834,1.33817 0.99644,1.2034 0.21805,-0.13485 0.26909,0.24153 0.11369,0.83695 -0.18529,0.70865 -0.0943,0.96519 0.26476,0.74345 0.37259,-0.23024 0.48712,0.32351 0.35822,1.73172 -0.1041,1.13865 -0.14353,1.98901 -0.0872,1.8898 0.0562,-0.0995 0.50936,-0.66569 1.00705,-1.25884 0.67808,-0.80815 0.75155,-1.17323 0.29325,-1.45647 -0.41634,-0.25751 -0.48206,-0.16819 -0.20617,0.27837 0.27024,0.43761 0.20994,0.53546 -0.18183,0.29354 -0.87234,-0.53912 -0.21514,-1.24069 0.89115,-0.95138 0.62763,0.16412 1.15039,-0.10585 1.5115,-0.78057 0.32888,-0.61452 0.85298,-0.91598 1.29655,-0.74576 0.40948,0.15687 0.74454,0.0809 0.74454,-0.16878 0,-0.25023 0.73421,-0.36872 1.63165,-0.26387 1.55568,0.18153 1.70707,0.0429 3.25272,-2.98403 0.89158,-1.74596 1.76884,-3.92646 1.9494,-4.84553 l 0.32837,-1.67106 -2.27794,0.34158 c -3.05885,0.45868 -4.38278,-0.0144 -4.38278,-1.55622 0,-1.45788 2.02313,-4.82551 3.53519,-5.8846 l 1.06976,-0.7493 -1.0361,-1.03605 c -1.53237,-1.53236 -3.31281,-1.79711 -5.77155,-0.85812 -2.36242,0.90225 -5.01157,3.26333 -3.77672,3.36601 0.39286,0.0328 0.88352,0.0328 1.0903,0 0.74651,-0.11773 0.35573,1.8396 -0.50142,2.51178 -0.79042,0.6199 -0.811,0.60326 -0.20764,-0.16731 0.90232,-1.15228 0.30181,-1.96182 -1.24696,-1.68098 -1.54182,0.27953 -2.77238,1.23318 -2.38996,1.85197 0.15455,0.25083 0.66006,0.0452 1.12275,-0.45653 0.4627,-0.50156 0.63011,-0.60201 0.37206,-0.22328 -0.31314,0.45965 -0.24908,0.8248 0.19311,1.09799 0.50289,0.31082 0.39005,0.55504 -0.46888,1.01467 -0.75352,0.4033 -1.01662,0.42014 -0.78811,0.0507 0.18877,-0.30525 -0.0116,-0.69036 -0.44093,-0.85585 -1.08344,-0.41573 -0.98134,-1.86525 0.20704,-2.94079 0.54505,-0.49328 0.84736,-1.1488 0.67177,-1.45663 -0.17572,-0.30792 -0.14557,-0.40338 0.067,-0.21255 0.21256,0.19109 1.2366,-0.18906 2.27592,-0.84528 1.03932,-0.65611 2.69318,-1.52867 3.67527,-1.93899 2.978,-1.2443 6.34433,-7.98755 5.5559,-11.12905 -0.34944,-1.39217 -2.00828,-2.99643 -3.80046,-3.67534 -1.25632,-0.47593 -1.36749,-0.40395 -1.6909,1.09485 -0.85074,3.94265 -3.66019,7.37092 -6.04038,7.37092 -1.71406,0 -2.38567,-1.65656 -2.0005,-4.93386 l 0.32565,-2.77067 -1.08909,0.96897 c -1.62878,1.44902 -3.44375,5.70326 -3.44929,8.08493 -0.002,1.1559 -0.23226,2.24203 -0.50989,2.41366 -0.92476,0.57156 -1.08341,-1.14199 -0.3665,-3.95702 0.70395,-2.76378 0.69971,-2.79169 -0.61627,-4.05245 -0.72879,-0.69821 -1.71882,-1.26946 -2.20005,-1.26946 -3.69818,0 -11.33588,9.64841 -11.35071,14.33884 -0.01,2.49189 1.40244,3.37561 4.97465,3.11724 2.23529,-0.1618 2.88592,-0.0691 2.52943,0.36065 -0.26387,0.31806 -0.37241,0.68594 -0.24097,0.81746 0.13137,0.13135 -0.83106,0.1018 -2.13901,-0.066 -5.80907,-0.74523 -9.74013,2.15056 -12.37966,9.1194 -2.00262,5.28737 0.25199,12.42807 3.92416,12.42807 1.70297,0 4.65365,-1.64468 5.39773,-3.00863 0.22588,-0.41371 1.10405,-2.55736 1.95186,-4.76371 0.84791,-2.20641 2.00297,-4.57572 2.56677,-5.26522 0.80891,-0.98922 0.94452,-1.04211 0.64283,-0.25083 -1.78263,4.67669 -3.16648,9.1295 -2.98987,9.62042 0.11773,0.32694 -0.0556,0.72187 -0.38483,0.87757 -0.45677,0.21604 -0.45115,0.35206 0.0261,0.57413 0.46762,0.21834 0.4215,0.49188 -0.1853,1.09893 -0.61286,0.61284 -0.74444,1.42053 -0.54489,3.34451 0.45308,4.36847 1.82382,6.17573 4.75077,6.26345 0.98244,0.0289 1.05502,-0.0902 0.54767,-0.90257 z m -2.91577,-4.04435 c -0.4239,-0.79209 -0.32856,-1.02953 0.52159,-1.29938 0.57216,-0.1818 1.17378,-0.19689 1.33686,-0.0336 0.16326,0.16325 -0.10584,0.29656 -0.59775,0.29656 -0.64734,0 -0.82182,0.27691 -0.63197,1.00281 0.3326,1.27185 0.042,1.28737 -0.62873,0.0337 z m 3.22234,-1.50716 c 0.16035,-0.25866 -0.10873,-0.70628 -0.5972,-0.99431 -0.70485,-0.41561 -0.56879,-0.46414 0.65955,-0.23544 1.05553,0.19688 1.80151,0.0341 2.34605,-0.51009 0.4391,-0.43912 1.32225,-0.7722 1.96248,-0.74025 1.02708,0.0516 1.04608,0.0872 0.16123,0.30467 -1.39933,0.34399 -2.30309,1.16195 -1.93747,1.75353 0.18966,0.30629 -0.10261,0.36801 -0.75769,0.16035 -0.6323,-0.20095 -1.06567,-0.12061 -1.06567,0.1969 0,0.29438 -0.23924,0.53526 -0.53105,0.53526 -0.29208,0 -0.40015,-0.21168 -0.24008,-0.47062 z m -2.73889,-1.56473 c 0,-0.2921 0.2259,-0.39158 0.50143,-0.22126 0.27576,0.17022 0.50147,0.40939 0.50147,0.53103 0,0.12151 -0.2259,0.22097 -0.50147,0.22097 -0.27577,0 -0.50143,-0.23894 -0.50143,-0.53101 z m -2.00577,-0.97333 c 0,-0.27576 0.22589,-0.50144 0.50144,-0.50144 0.27577,0 0.5014,0.22588 0.5014,0.50144 0,0.27577 -0.2259,0.50142 -0.5014,0.50142 -0.27576,0 -0.50144,-0.22588 -0.50144,-0.50142 z m 11.78399,-0.50144 c -0.55165,-0.23721 -0.7393,-0.44681 -0.41713,-0.4662 0.32222,-0.0203 0.90513,-0.15775 1.29544,-0.30755 0.42289,-0.16238 0.70959,0.0405 0.70959,0.50143 0,0.86367 -0.15138,0.88964 -1.5879,0.27228 z m -10.74151,-1.79686 c 0.0261,-0.58415 0.14266,-0.70297 0.30293,-0.30295 0.1447,0.36197 0.12701,0.79446 -0.0394,0.96111 -0.16643,0.16644 -0.28504,-0.12933 -0.26328,-0.65816 z m 20.52429,-4.46571 c -0.34082,-0.41068 -0.81973,-0.62301 -1.06431,-0.47184 -0.24474,0.15107 -0.44462,0.0495 -0.44462,-0.22532 0,-0.27488 0.44166,-0.46662 0.98135,-0.4259 0.53979,0.0406 0.88025,0.17514 0.75654,0.29876 -0.12353,0.12382 0.029,0.52769 0.33364,0.89782 0.3072,0.37012 0.44569,0.67291 0.30781,0.67291 -0.13773,0 -0.52961,-0.33599 -0.87041,-0.74662 z m -1.99214,-3.49366 c -0.3333,-0.40163 -0.47008,-0.95018 -0.30395,-1.21898 0.16644,-0.26881 0.0727,-0.63052 -0.20762,-0.80373 -0.28042,-0.17311 -0.50248,-0.58374 -0.49369,-0.9122 0.0116,-0.35952 0.25895,-0.2804 0.62682,0.19894 0.33598,0.4379 0.94932,0.70686 1.36305,0.59768 0.50506,-0.13309 0.46389,-0.0174 -0.12528,0.35699 -0.4826,0.30551 -0.8775,0.78324 -0.8775,1.06161 0,0.27838 0.22561,0.36663 0.50141,0.19633 0.27575,-0.17023 0.50147,0.0418 0.50147,0.47186 0,0.97185 -0.21168,0.98293 -0.98465,0.0516 z m 4.99624,-1.27558 c 0,-0.27577 0.5077,-0.49801 1.12823,-0.49377 0.91237,0.006 0.98433,0.10065 0.37608,0.49377 -0.97216,0.62821 -1.50431,0.62821 -1.50431,0 z m -15.8184,-4.74101 c -0.67692,-0.6769 -1.23079,-1.6472 -1.23079,-2.15619 0,-0.50899 -0.24185,-1.16749 -0.53803,-1.46344 -0.82039,-0.82039 -0.94708,-4.00841 -0.15948,-4.00841 0.87656,0 1.36165,1.37484 0.71373,2.02276 -0.92767,0.92769 -0.54473,1.34576 0.40543,0.44268 0.50788,-0.48264 0.85405,-1.01273 0.76929,-1.17805 -0.0847,-0.16529 0.41709,-0.60613 1.11513,-0.97974 1.54063,-0.8245 2.739,-0.23602 3.42235,1.68153 0.78231,2.19464 -1.10861,6.86976 -2.7786,6.86976 -0.2685,0 -1.04226,-0.55393 -1.71919,-1.2309 z m 3.13689,-1.28079 c 0.7678,-1.51766 0.84519,-4.82823 0.12354,-5.27438 -0.66729,-0.41241 -2.78905,0.96393 -3.48197,2.25868 -0.39336,0.73503 -0.33553,1.45829 0.22356,2.79654 0.87491,2.09396 2.14166,2.18255 3.13505,0.21892 z m -4.36768,-5.0692 c 0,-0.27577 -0.2259,-0.36203 -0.50145,-0.19139 -0.27577,0.17023 -0.50145,0.53557 -0.50145,0.81138 0,0.27577 0.22588,0.36198 0.50145,0.1911 0.27574,-0.17022 0.50145,-0.53556 0.50145,-0.81132 z m -2.72573,-0.0876 c 0.18819,-0.49455 0.46872,-0.77287 0.62309,-0.61846 0.15427,0.15426 3.6e-4,0.55898 -0.34237,0.89915 -0.49528,0.49157 -0.55283,0.43398 -0.28068,-0.28069 z m 3.58665,-2.21213 c 0.3132,-0.81627 0.38628,-0.81145 1.12135,0.0746 0.49042,0.59087 0.41971,0.71024 -0.38493,0.64963 -0.5839,-0.0442 -0.8841,-0.33911 -0.73642,-0.72383 z m 2.46788,-0.90031 c 0.15889,-0.4137 0.37731,-0.75219 0.48573,-0.75219 0.10838,0 0.19689,0.33849 0.19689,0.75219 0,0.41368 -0.21835,0.75214 -0.4857,0.75214 -0.26706,0 -0.35583,-0.33846 -0.19718,-0.75214 z m -1.46051,33.98405 c 0.13483,-0.35084 0.61552,-0.63443 1.06867,-0.6302 0.72005,0.01 0.72912,0.0755 0.0716,0.54876 -0.62556,0.45003 -0.59752,0.49089 0.16615,0.24329 0.50522,-0.16413 1.23857,-0.29807 1.62971,-0.29807 0.39118,0 0.71116,-0.2259 0.71116,-0.50142 0,-0.54969 -2.45938,-0.68077 -3.71694,-0.19834 -0.43464,0.16672 -0.69618,0.45557 -0.58115,0.64168 0.11507,0.18586 -0.39397,0.31215 -1.13114,0.2801 -0.78835,-0.034 -1.40368,-0.38424 -1.49419,-0.8497 -0.20558,-1.05695 -1.53891,-1.55875 -1.38676,-0.52193 0.26446,1.8019 4.06265,2.84943 4.66257,1.28598 z m 170.59686,-0.10377 c 3.23889,-3.23891 2.37007,-13.35089 -1.75528,-20.4305 -0.6715,-1.15225 -1.22086,-2.38076 -1.22086,-2.72999 0,-1.0841 2.36768,2.5117 3.51475,5.33795 1.27016,3.12951 2.73624,3.79244 5.67318,2.56525 1.56847,-0.65535 1.81025,-1.00684 2.12193,-3.0852 1.07578,-7.17383 -2.90973,-15.26714 -6.89533,-14.00212 -0.91591,0.2907 -1.00809,0.18123 -0.71592,-0.85171 2.38552,-8.43307 2.50682,-9.3235 1.59552,-11.70983 -1.2463,-3.26342 -4.26197,-6.85599 -6.95359,-8.28384 l -2.31048,-1.22576 -1.36879,1.02199 c -2.12512,1.58665 -3.16105,3.25841 -3.99282,6.4435 -0.75345,2.88529 -0.74499,2.97307 0.522,5.41512 1.27017,2.44812 1.73287,3.85429 0.78639,2.38971 -0.38681,-0.59859 -0.49367,-0.4962 -0.5232,0.50146 -0.0231,0.7793 -0.49422,-0.0748 -1.2453,-2.25651 -1.72345,-5.00661 -4.2766,-9.77625 -5.85933,-10.94612 -1.98882,-1.46994 -4.01438,-1.26226 -6.90726,0.70825 -6.84138,4.66008 -4.80556,12.1032 4.85754,17.75957 3.22872,1.88995 4.0235,2.9773 2.2556,3.08579 -0.691,0.0423 -1.01037,-0.0751 -0.70975,-0.2607 0.3092,-0.19109 -1.15362,-1.47679 -3.36823,-2.96042 -3.14544,-2.10712 -4.32189,-2.6226 -5.98569,-2.6226 -1.65977,0 -2.0708,0.17921 -2.0708,0.90262 0,1.23584 -0.97385,2.10609 -2.35677,2.10609 -1.08126,0 -1.15332,0.19688 -1.15332,3.15406 0,5.23643 2.3633,12.3672 3.97786,12.00224 0.33537,-0.0755 0.47185,0.0853 0.30342,0.35782 -0.16847,0.27258 0.13426,0.93633 0.67309,1.47498 0.53865,0.53865 0.82897,1.14346 0.64511,1.34401 -0.18386,0.20066 0.25459,-0.0144 0.97401,-0.47109 0.75807,-0.48419 1.68393,-0.69145 2.20145,-0.49282 0.85161,0.32674 0.8504,0.374 -0.0261,1.01424 -0.50512,0.36937 -1.14404,0.67156 -1.41984,0.67156 -0.27577,0 -0.0635,-0.33134 0.47193,-0.73625 1.05363,-0.79695 0.43071,-1.04399 -0.74943,-0.2972 -0.89726,0.56773 -0.19051,1.54684 2.16957,3.00538 1.28427,0.79372 1.95762,0.89775 3.5243,0.54439 1.06518,-0.24039 2.2998,-0.82364 2.74366,-1.29647 0.53996,-0.57522 0.57395,-0.72771 0.10261,-0.46086 -0.46059,0.26069 -0.58519,0.20588 -0.36001,-0.15861 0.18965,-0.30632 0.68391,-0.42668 1.09906,-0.26736 1.82937,0.702 3.15088,-2.33361 1.50616,-3.45985 -0.32898,-0.2256 -0.21343,-0.37134 0.29774,-0.37607 0.45964,-0.006 0.9653,-0.28968 1.12362,-0.63446 0.15832,-0.3447 0.15367,-0.0629 -0.0116,0.62682 -0.2891,1.21603 -0.27518,1.2235 0.46782,0.25083 0.68811,-0.90125 0.6855,-1.09196 -0.029,-1.8805 -0.48793,-0.54084 -0.56944,-0.8775 -0.21254,-0.8775 0.31854,0 0.57917,0.22589 0.57917,0.50142 0,0.27577 0.39491,0.49799 0.87754,0.49381 0.74286,-0.006 0.76307,-0.0801 0.13166,-0.47926 -0.59093,-0.37356 -0.52,-0.45455 0.34123,-0.38968 0.59798,0.0449 0.97063,0.27053 0.8281,0.50124 -0.14236,0.23052 -0.0116,0.71927 0.29412,1.08597 0.61231,0.73776 0.21749,2.29809 -0.58196,2.29809 -0.28737,0 -0.22938,-0.33711 0.13279,-0.77343 0.52217,-0.62916 0.5199,-0.88639 -0.0144,-1.37894 -0.35969,-0.33309 -0.51982,-0.36399 -0.35575,-0.0688 0.16412,0.29535 -0.16036,1.29142 -0.72131,2.21357 -0.57045,0.93797 -0.92062,2.19451 -0.79487,2.85223 0.17194,0.89915 0.0766,1.05292 -0.40408,0.65378 -0.47159,-0.39135 -0.7694,-0.11831 -1.19092,1.09055 -0.43511,1.24811 -0.4191,1.70323 0.0707,2.01416 0.47965,0.30451 0.45077,0.4044 -0.11947,0.41274 -0.42525,0.006 -0.098,0.44396 0.75222,1.00723 1.53742,1.01823 1.39884,1.38431 -0.20007,0.52857 -0.64999,-0.34789 -0.8864,-0.28853 -0.8864,0.2227 0,0.38342 0.13165,0.65331 0.29253,0.59971 0.16063,-0.0537 0.36498,0.12817 0.4536,0.40392 0.45082,1.40336 2.48551,2.8786 6.60844,4.79152 0.68947,0.31987 1.69779,0.81567 2.2407,1.10175 2.89122,1.52358 4.99786,1.66085 6.25135,0.40738 z m -7.20583,-2.09111 c 0.13135,-0.21283 -0.16036,-0.61973 -0.64887,-0.90406 -0.48843,-0.28449 -0.64097,-0.52391 -0.33899,-0.53229 0.30199,-0.01 0.92348,0.39845 1.38106,0.90411 0.68825,0.76045 0.70548,0.91927 0.0997,0.91927 -0.40275,0 -0.62456,-0.17427 -0.49302,-0.38703 z m -4.53576,-2.32911 c 0.3193,-1.16811 -0.49264,-1.61072 -0.91985,-0.50146 -0.13282,0.34474 -0.21633,0.11888 -0.18559,-0.50145 0.0641,-1.30492 0.47271,-1.429 1.32468,-0.40233 0.45158,0.54406 0.46096,0.95232 0.0377,1.6297 -0.50004,0.79987 -0.52958,0.77405 -0.25663,-0.22444 z m 1.80942,-0.0751 c -0.37829,-0.23953 -0.5854,-0.74335 -0.46007,-1.11925 0.15862,-0.47602 0.41087,-0.34144 0.83092,0.44342 0.66678,1.24588 0.63128,1.31061 -0.37085,0.67583 z m 0.16529,-2.59176 c -0.1821,-0.29459 -0.5936,-0.43487 -0.91458,-0.3117 -0.40847,0.1566 -0.50985,-0.397 -0.33786,-1.84622 0.23576,-1.98427 0.25257,-2.00217 0.41602,-0.43095 0.094,0.90154 0.35567,1.52464 0.58226,1.38458 0.22646,-0.14034 0.52931,0.19457 0.67277,0.74268 0.28591,1.09289 0.0989,1.29897 -0.41861,0.46161 z m -13.68327,-5.35637 c -0.24851,-0.48266 -0.33231,-1.216 -0.18704,-1.6297 0.22763,-0.64719 0.14731,-0.6554 -0.57538,-0.0589 -0.68641,0.56661 -0.72577,0.84154 -0.21546,1.50435 0.38489,0.49994 0.18704,0.4374 -0.51612,-0.16355 l -1.14041,-0.97411 1.1428,-0.61162 c 1.24775,-0.66773 2.08148,-0.44177 1.75105,0.47464 -0.11543,0.31946 -0.006,0.97569 0.24156,1.45839 0.2485,0.48265 0.33853,0.87752 0.20066,0.87752 -0.13803,0 -0.45382,-0.39487 -0.70206,-0.87752 z m 12.69786,0.37022 c -0.35748,-0.57847 1.62791,-3.27552 2.76162,-3.75146 0.41364,-0.1734 -0.006,0.46835 -0.93393,1.42674 -0.92733,0.95834 -1.53456,1.98765 -1.34939,2.28728 0.1853,0.29962 0.22386,0.54475 0.0864,0.54475 -0.13804,0 -0.39186,-0.22822 -0.56427,-0.50731 z m -2.42003,-0.82989 c -0.18386,-0.18355 -0.33432,-0.56746 -0.33432,-0.85242 0,-0.31424 0.23343,-0.28476 0.59341,0.0751 0.3263,0.32636 0.4768,0.70994 0.33426,0.85246 -0.14237,0.14237 -0.40946,0.10838 -0.59335,-0.0754 z m -8.35741,-1.17003 c 0.54306,-1.01482 1.09023,-1.24979 1.63688,-0.70316 0.56604,0.56606 -0.24009,1.70603 -1.20674,1.70603 -0.81152,0 -0.88064,-0.16093 -0.43014,-1.00287 z m 3.56759,-0.8954 c -0.38274,-0.7152 -0.28534,-0.89545 0.48382,-0.89545 0.52967,0 0.96301,0.19052 0.96301,0.42356 0,0.23315 0.26039,0.26272 0.57898,0.0658 0.35055,-0.21631 0.44308,-0.13832 0.23431,0.19893 -0.18937,0.30636 -0.71253,0.4157 -1.16263,0.243 -0.54707,-0.21024 -0.69816,-0.11919 -0.45581,0.27256 0.19892,0.32263 0.24445,0.58666 0.0997,0.58666 -0.1444,0 -0.47832,-0.40292 -0.7419,-0.89541 z m -9.80348,-1.75884 c 0.18819,-0.49452 0.46874,-0.77284 0.6231,-0.6184 0.15427,0.15427 3.1e-4,0.55901 -0.34237,0.89915 -0.49528,0.49153 -0.55284,0.43391 -0.2807,-0.28069 z m -1.00287,-0.5014 c 0.18848,-0.49462 0.46868,-0.77287 0.62306,-0.61848 0.15428,0.15455 3.4e-4,0.559 -0.34237,0.89916 -0.49524,0.49155 -0.55281,0.43396 -0.28069,-0.28071 z m 23.53575,0.14701 c 0.17021,-0.27575 0.52223,-0.50144 0.78177,-0.50144 0.25953,0 0.47184,0.22589 0.47184,0.50144 0,0.27577 -0.35177,0.5014 -0.78174,0.5014 -0.43,0 -0.64232,-0.22588 -0.47187,-0.5014 z m -1.00291,-1.50438 c 0.17022,-0.27576 0.40942,-0.50139 0.53107,-0.50139 0.12149,0 0.22096,0.22589 0.22096,0.50139 0,0.27576 -0.23894,0.50145 -0.53104,0.50145 -0.29208,0 -0.3916,-0.22588 -0.22125,-0.50145 z m -9.73863,-0.68818 c -0.0328,-0.77682 -0.16964,-0.83117 -0.79173,-0.31469 -0.51965,0.43131 -0.75218,0.45028 -0.75218,0.0614 0,-0.30962 0.22589,-0.56285 0.50145,-0.56285 0.27576,0 0.51575,-0.39491 0.53323,-0.87752 0.0232,-0.63243 0.16704,-0.53941 0.51575,0.33313 0.2662,0.6658 0.38254,1.45561 0.25836,1.75506 -0.1241,0.29942 -0.24328,0.12151 -0.26502,-0.39456 z m -11.90714,-0.54335 c 0,-0.40156 0.19169,-0.61162 0.42605,-0.4668 0.234,0.14469 0.29623,0.47335 0.13715,0.73014 -0.40544,0.65608 -0.5636,0.58222 -0.5636,-0.26331 z m 21.12131,-1.50354 c 0.0144,-0.65626 0.14644,-1.31637 0.29681,-1.46686 0.1502,-0.15049 0.26329,0.2633 0.25083,0.91971 -0.0144,0.65626 -0.14644,1.31636 -0.29679,1.46685 -0.15079,0.15051 -0.26329,-0.26329 -0.25083,-0.9197 z m -10.67893,-0.27373 c 0,-0.68948 0.11369,-0.9715 0.25286,-0.62676 0.13891,0.3447 0.13891,0.90887 0,1.25359 -0.13889,0.34472 -0.25286,0.0629 -0.25286,-0.62683 z m 1.46476,-1.2954 c 0.0261,-0.58412 0.14295,-0.70299 0.30299,-0.30298 0.14469,0.36202 0.127,0.79451 -0.0393,0.96116 -0.16673,0.16645 -0.28504,-0.12933 -0.26328,-0.65818 z m 6.22851,-0.71035 c -0.17022,-0.27576 -0.73456,-0.50148 -1.25361,-0.50148 -0.51902,0 -1.10687,-0.26388 -1.30631,-0.58665 -0.24155,-0.39077 -0.0924,-0.483 0.44636,-0.27634 0.56693,0.21777 0.72583,0.0937 0.53115,-0.41335 -0.15253,-0.39809 -0.4258,-0.6322 -0.60681,-0.52033 -0.18093,0.11185 -0.77791,-0.13832 -1.32645,-0.55624 -0.97833,-0.74511 -0.97628,-0.75329 0.11046,-0.42968 1.06301,0.31659 1.09598,0.22937 0.81405,-2.15099 -0.20878,-1.76455 -0.0608,-2.94833 0.51379,-4.09979 0.44418,-0.89036 0.6851,-1.81715 0.53536,-2.05942 -0.14964,-0.24242 0.17977,-0.44053 0.73284,-0.44053 0.5955,0 1.28539,0.56194 1.69279,1.37896 0.37818,0.75843 0.95461,1.32255 1.28096,1.25362 0.32635,-0.0691 0.53694,0.1566 0.468,0.50146 -0.0694,0.34472 0.1302,0.57925 0.44244,0.52108 0.31228,-0.0583 0.55881,0.1676 0.54782,0.50147 -0.0516,1.55728 0.1766,2.39745 0.58254,2.14665 0.24473,-0.15107 0.0203,0.56024 -0.50148,1.58076 -0.52028,1.02057 -0.94598,2.17782 -0.94598,2.57171 0,0.68388 -1.3712,2.03089 -2.10153,2.06448 -0.1908,0.0116 -0.48596,-0.20995 -0.65645,-0.48548 z m 2.1238,-2.5468 c 1.05514,-2.06816 0.76448,-3.91886 -0.87257,-5.55593 -1.73644,-1.73641 -2.55099,-1.66926 -3.06499,0.25257 -0.41033,1.53433 0.1334,3.86479 1.32693,5.6862 0.93652,1.42934 1.74656,1.31048 2.61063,-0.38298 z m -10.52038,0.79171 c -0.13166,-0.6895 -0.0452,-1.25362 0.19224,-1.25362 0.23749,0 0.43192,0.56412 0.43192,1.25362 0,0.68949 -0.0867,1.25361 -0.19225,1.25361 -0.10585,0 -0.30006,-0.56412 -0.43185,-1.25361 z m 3.41434,0.10376 c 0.18819,-0.49454 0.46872,-0.77283 0.62313,-0.61846 0.15426,0.15428 2.9e-4,0.55898 -0.3424,0.89918 -0.49521,0.4915 -0.55285,0.4339 -0.2807,-0.28069 z m -1.2858,-1.053 c 0,-0.10839 0.35017,-0.33148 0.7782,-0.49572 0.44625,-0.17166 0.64751,-0.0872 0.47182,0.19688 -0.29449,0.47653 -1.25002,0.70479 -1.25002,0.29867 z m 10.27964,-4.8174 c 0.17022,-0.27575 0.4094,-0.50145 0.53104,-0.50145 0.12149,0 0.22096,0.2259 0.22096,0.50145 0,0.27577 -0.23895,0.50149 -0.53104,0.50149 -0.29209,0 -0.39157,-0.22589 -0.22096,-0.50149 z m -2.60611,-4.40856 c -0.39597,-0.2517 -0.44127,-0.63324 -0.13308,-1.12057 0.39758,-0.62875 0.46841,-0.61435 0.47493,0.0968 0.006,0.45965 0.28969,0.94956 0.63453,1.08869 0.34476,0.13889 0.40114,0.26735 0.12527,0.28474 -0.27577,0.0203 -0.77159,-0.13976 -1.10178,-0.34973 z m -163.89258,34.80851 c 0.36797,0.14122 0.8409,-0.0405 1.05092,-0.40425 0.21024,-0.36354 0.20443,-0.50078 -0.0144,-0.30491 -0.2169,0.19573 -1.01858,0.0331 -1.78112,-0.36085 -1.37232,-0.70966 -1.38058,-0.70454 -0.81397,0.50504 0.31489,0.67209 0.64349,1.0164 0.73024,0.76511 0.087,-0.25113 0.45882,-0.34139 0.8268,-0.20008 z m 34.06533,-17.15228 c 1.43534,-3.42731 1.92128,-7.18192 1.13871,-8.79805 -0.3107,-0.64171 0.1421,-0.54996 2.12269,0.43031 4.10106,2.02958 12.08413,1.67188 12.08413,-0.54136 0,-1.93367 -7.55927,-5.80525 -10.1386,-5.19262 -0.62918,0.14904 -1.70808,0.42185 -2.39762,0.60527 -0.68942,0.18354 0.14587,-0.48215 1.8561,-1.47913 3.88548,-2.26502 5.16419,-3.83615 5.16419,-6.34518 0,-2.43474 -1.43109,-3.45057 -3.21469,-2.28194 -1.48029,0.96993 -4.17618,3.6719 -5.15663,5.16825 -1.26526,1.93105 -1.98233,1.39362 -2.87332,-2.15366 -1.29951,-5.17333 -3.09561,-8.20436 -4.8617,-8.20436 -2.37421,0 -2.22818,4.51714 0.30778,9.52165 0.69112,1.36385 1.25662,2.68356 1.25662,2.93268 0,0.24909 -0.9681,0.56196 -2.1513,0.69536 -3.39416,0.38255 -5.84105,1.81029 -7.44981,4.34702 -0.79338,1.25111 -1.37192,2.48692 -1.2855,2.74622 0.61118,1.83346 6.71515,0.57754 12.45546,-2.56284 0.1734,-0.0945 0.01,1.13472 -0.36824,2.73236 -1.27817,5.43206 -0.42275,12.67244 1.42484,12.0597 0.34865,-0.1157 1.28775,-1.77151 2.08689,-3.67968 z m 100.77157,-6.18731 c -0.0623,-4.06995 -0.25459,-4.99548 -1.60575,-7.72155 -1.89034,-3.81382 -1.54023,-4.36332 2.05512,-3.22504 1.44648,0.45794 2.96843,0.92508 3.38211,1.03806 0.87611,0.23923 2.50725,-0.49812 2.50725,-1.13356 0,-0.72608 -3.53029,-4.73332 -4.99901,-5.67438 -1.26336,-0.80949 -1.54958,-0.81923 -3.53134,-0.12005 -1.18605,0.41849 -2.27594,0.64145 -2.42185,0.49551 -0.14616,-0.14615 -0.30109,-2.34848 -0.34461,-4.89447 -0.14469,-8.44675 -1.67282,-10.91778 -4.10089,-6.63061 -1.42357,2.51363 -1.47095,5.75874 -0.12731,8.72037 0.55043,1.21319 0.89717,2.30943 0.77053,2.43604 -0.12642,0.12642 -1.64198,-0.62739 -3.36752,-1.67556 -3.3336,-2.02511 -5.2819,-2.31779 -7.9824,-1.1992 -1.46928,0.60861 -1.83967,1.64543 -1.03888,2.90853 0.45494,0.71757 8.07116,3.09678 9.91327,3.09678 2.06007,0 1.71595,0.89033 -1.32702,3.43291 -3.75984,3.14171 -5.24411,4.89226 -6.50614,7.67333 -1.16536,2.56832 -1.29822,4.43863 -0.31513,4.43863 1.05092,0 6.22266,-3.98871 9.29273,-7.16702 1.49527,-1.54804 2.87377,-2.71879 3.06333,-2.60167 0.18965,0.11744 0.49575,1.49899 0.68045,3.0708 0.40291,3.42812 1.77477,6.7069 3.54815,8.48029 2.10336,2.10336 2.53415,1.44565 2.45485,-3.74816 z m 2.30911,-9.13697 c 0.0261,-0.44331 -4.05576,-2.03982 -4.38135,-1.71424 -0.14441,0.1444 0.2752,1.27605 0.9321,2.51465 l 1.19468,2.25207 1.1183,-1.36548 c 0.61499,-0.75093 1.12636,-1.51015 1.13627,-1.687 z m -88.08633,-6.74158 c 0.88264,-0.43728 2.13724,-1.3963 2.78807,-2.13112 0.65081,-0.73482 1.01084,-1.01914 0.80006,-0.63179 -0.25546,0.46903 -0.18848,0.584 0.19893,0.34429 0.3204,-0.19805 0.93409,-1.03984 1.36374,-1.87077 0.71014,-1.37315 0.70792,-1.62272 -0.0261,-2.7403 -0.44311,-0.67625 -0.67013,-1.44885 -0.50447,-1.71688 0.16557,-0.26794 0.0812,-0.48727 -0.18791,-0.48727 -0.26938,0 -0.6188,0.28213 -0.77716,0.62683 -0.15832,0.34476 -0.15658,0.10261 0.006,-0.53737 0.18791,-0.75171 -0.0337,-1.52329 -0.62582,-2.17762 -0.98503,-1.08844 -2.99471,-2.33132 -2.51525,-1.55556 0.15918,0.25749 -0.0397,0.46787 -0.44093,0.46787 -0.40156,0 -0.61927,-0.11081 -0.48373,-0.24619 0.13569,-0.13571 -0.006,-0.5492 -0.31215,-0.91929 -0.41032,-0.49451 -0.41032,-0.85146 0,-1.3459 0.3072,-0.37014 0.39124,-0.85109 0.18705,-1.06872 -0.20473,-0.21806 0.1212,-0.0951 0.72408,0.2717 0.60268,0.3672 0.98084,0.85371 0.84029,1.08114 -0.14092,0.22705 -0.0696,0.38352 0.15775,0.34684 0.80114,-0.12903 2.65563,0.66201 2.4253,1.03471 -0.12845,0.20763 0.22241,0.78983 0.77939,1.29386 0.73558,0.66564 0.96059,0.71833 0.82254,0.19226 -0.10469,-0.39822 -0.0954,-0.55481 0.0203,-0.34794 0.4115,0.73581 1.74379,0.39019 1.44972,-0.37613 -0.41385,-1.07847 0.0516,-0.92861 0.6628,0.21344 0.35197,0.65756 0.35388,1.33732 0.006,2.13111 -0.4759,1.08636 -0.49174,1.07003 -0.23228,-0.23951 0.25489,-1.28638 0.19225,-1.35914 -0.74068,-0.8599 -0.56046,0.29998 -1.01905,0.66358 -1.01905,0.80805 0,0.14468 0.26388,0.0997 0.58666,-0.0997 0.39392,-0.24357 0.48199,-0.0899 0.26793,0.46791 -0.22416,0.58449 0.10618,1.04998 1.11474,1.57167 1.61753,0.83647 6.19989,1.41315 5.77578,0.72685 -0.15166,-0.24502 0.0571,-0.31816 0.46349,-0.16209 1.12594,0.43209 2.95448,-0.73407 2.59985,-1.65807 -0.25169,-0.65641 -0.17457,-0.67964 0.47312,-0.14208 0.66029,0.54795 1.27709,0.12643 4.19527,-2.86802 3.82581,-3.92572 5.86187,-7.48616 5.30551,-9.27764 -0.86024,-2.76986 -2.11467,-3.75917 -6.14591,-4.84691 l -3.92936,-1.06026 -3.15171,1.28062 c -1.73339,0.70437 -3.51833,1.21003 -3.96649,1.12373 -0.44817,-0.0864 1.29679,-1.03219 3.87763,-2.10195 5.45498,-2.26108 7.83728,-4.14364 8.64184,-6.82926 0.49472,-1.65111 0.43798,-2.18834 -0.40221,-3.80735 -1.40549,-2.70832 -3.80328,-3.78099 -9.13061,-4.08477 -3.53544,-0.20153 -4.76158,-0.0774 -6.25991,0.63353 -2.31539,1.09873 -4.85121,4.1475 -7.16142,8.60984 -1.40061,2.70548 -1.70957,3.06862 -1.47539,1.73404 0.28649,-1.63154 2.86951,-6.24301 4.69348,-8.37885 0.48892,-0.57246 1.50512,-1.44458 2.25831,-1.93809 1.69356,-1.1097 1.69519,-1.32068 0.0261,-3.30573 -1.23735,-1.47051 -1.53526,-1.57957 -3.73655,-1.36803 -4.23934,0.40735 -11.77943,5.77769 -13.5334,9.63909 -0.93953,2.06835 -1.31135,8.46396 -0.5582,9.60226 0.2027,0.30627 1.15815,0.96319 2.12345,1.45982 0.96532,0.49663 1.48833,0.99315 1.16226,1.10329 -0.32603,0.10988 -1.28118,-0.15571 -2.1225,-0.59067 -3.55072,-1.83614 -7.80299,-1.48522 -10.76609,0.88854 -1.24915,1.00066 -1.36864,1.30466 -0.87518,2.22666 0.40818,0.76275 0.4206,1.39821 0.0435,2.22468 -0.52261,1.14494 -3.50256,3.41343 -4.484,3.41343 -0.99221,0 -0.4903,0.89868 0.66366,1.18835 1.4475,0.36327 3.67631,2.07747 4.35844,3.35206 0.39332,0.73494 0.28852,1.1737 -0.45864,1.92088 -0.86767,0.86768 -0.89234,1.07715 -0.23721,2.01245 0.69012,0.98537 0.80097,0.99829 1.97261,0.23054 0.8593,-0.56308 1.14985,-1.10178 0.94403,-1.75022 -0.16384,-0.5154 -0.0568,-0.93685 0.23778,-0.93685 0.29435,0 0.56342,0.33846 0.59791,0.75216 0.14498,1.73671 0.21399,1.9309 0.75305,2.11058 0.3108,0.10353 0.6986,-0.15978 0.86184,-0.58506 0.16354,-0.4253 0.0786,-0.77336 -0.18936,-0.77336 -0.26707,0 -0.48574,-0.20065 -0.48574,-0.44575 0,-0.24502 0.39068,-0.41437 0.86812,-0.37605 0.57305,0.0458 0.89095,-0.31927 0.93522,-1.07448 0.0731,-1.24653 0.70393,-2.2183 0.70393,-1.0844 0,0.41532 0.31547,0.24617 0.78121,-0.41874 0.42967,-0.61342 0.61918,-1.39703 0.42107,-1.74125 -0.19806,-0.34429 -0.18733,-0.47031 0.0261,-0.28011 0.21139,0.19021 0.64259,0.12933 0.95794,-0.13455 1.26996,-1.06426 5.11743,-3.45312 5.57532,-3.46165 0.26879,-0.006 -1.19789,1.71412 -3.25945,3.82037 -2.06154,2.10619 -3.4098,3.64883 -2.99613,3.4281 0.41373,-0.22068 0.14064,0.18036 -0.60647,0.89149 -1.98788,1.89163 -2.18194,3.38124 -0.82548,6.33804 1.08181,2.35815 1.31556,2.55832 3.34109,2.86208 1.48677,0.22301 2.36482,0.12412 2.76698,-0.31125 0.46432,-0.50275 0.39772,-0.57032 -0.31448,-0.31906 -0.53715,0.18966 -0.77933,0.11744 -0.59721,-0.17717 0.16819,-0.27257 0.0144,-0.49913 -0.35001,-0.50336 -0.49233,-0.006 -0.47513,-0.12266 0.0691,-0.46645 0.40284,-0.25489 1.07466,-0.2717 1.51146,-0.038 1.00689,0.53883 2.37051,-0.4623 2.14158,-1.5723 -0.0942,-0.45695 0.1018,-0.99951 0.43531,-1.20575 0.3858,-0.23835 0.47637,-0.16412 0.24879,0.20386 -0.57894,0.93676 0.24852,1.86935 0.9144,1.03103 0.30711,-0.38656 1.07218,-1.1414 1.70011,-1.67758 0.97131,-0.82939 1.093,-0.84805 0.81567,-0.12527 -0.17921,0.46711 -0.52038,0.84936 -0.75801,0.84936 -0.2375,0 -0.36328,0.28214 -0.27926,0.62684 0.0843,0.34472 0.0575,0.45615 -0.0587,0.24763 -0.11628,-0.20877 -0.4285,-0.24502 -0.69391,-0.0812 -0.26562,0.16414 0.0922,0.87319 0.79499,1.57586 0.70264,0.70267 1.27756,1.43802 1.27756,1.63404 0,0.28185 1.68113,1.31474 2.40678,1.4786 0.0826,0.0203 0.87243,-0.3238 1.75507,-0.76106 z m -10.42997,-3.21649 c 0.17022,-0.27577 0.53561,-0.50146 0.81138,-0.50146 0.27576,0 0.362,0.2259 0.19138,0.50146 -0.17021,0.27576 -0.53555,0.50148 -0.81131,0.50148 -0.27576,0 -0.36204,-0.22589 -0.19139,-0.50148 z m 11.95116,-0.17021 c 0,-0.3397 0.41372,-0.61761 0.91935,-0.61761 0.50561,0 0.9193,0.0566 0.9193,0.12556 0,0.0694 -0.41369,0.34703 -0.9193,0.61767 -0.6602,0.3533 -0.91935,0.31787 -0.91935,-0.12556 z m 1.9003,-1.77142 c -1.17629,-0.90454 -1.17819,-0.92022 -0.14383,-1.19072 0.64289,-0.1679 1.29768,0.0449 1.69341,0.55167 0.57601,0.73715 0.55107,0.7519 -0.23227,0.13716 -0.98513,-0.77262 -1.20832,-0.0943 -0.27576,0.83866 0.89471,0.89466 0.3174,0.70777 -1.04151,-0.33717 z m -4.82536,-4.07558 c -0.17022,-0.27577 -0.071,-0.50146 0.22095,-0.50146 0.29206,0 0.53106,0.2259 0.53106,0.50146 0,0.27576 -0.0995,0.50144 -0.22096,0.50144 -0.1215,0 -0.36061,-0.22587 -0.53104,-0.50144 z m 1.34556,-0.6101 c -0.32643,-0.32634 -0.5934,-0.79002 -0.5934,-1.03036 0,-0.24039 0.36534,-0.0714 0.81183,0.3749 0.44653,0.44651 0.71357,0.9102 0.59343,1.03034 -0.12034,0.12004 -0.48553,-0.0485 -0.81186,-0.37488 z m -18.90132,-0.40102 c -0.17311,-0.28039 -0.51133,-0.3882 -0.75137,-0.23949 -0.23981,0.14874 -0.40327,-0.1711 -0.36273,-0.70928 0.0847,-1.12096 0.62754,-0.93124 1.38489,0.4838 0.53221,0.99456 0.30147,1.39121 -0.27084,0.46533 z m 32.3484,-1.24539 c 0,-0.4137 0.18791,-0.75212 0.41788,-0.75212 0.22967,0 0.41788,0.33842 0.41788,0.75212 0,0.4137 -0.1879,0.75219 -0.41788,0.75219 -0.22965,0 -0.41788,-0.33849 -0.41788,-0.75219 z m -32.48462,-0.82965 c 0.10585,-0.31839 0.74546,-0.78306 1.42076,-1.03253 l 1.2278,-0.45362 -1.10729,1.03252 c -1.23492,1.15156 -1.83258,1.32747 -1.54127,0.45363 z m 22.56127,-2.62987 c 0.35562,-0.38591 0.72559,-0.62659 0.82215,-0.53484 0.29749,0.28244 -0.45635,1.23642 -0.97711,1.23642 -0.27026,0 -0.20096,-0.31573 0.15483,-0.70158 z m -2.79413,-2.05639 c 0.1589,-0.4137 0.37729,-0.75219 0.4857,-0.75219 0.10838,0 0.19689,0.33849 0.19689,0.75219 0,0.41365 -0.21834,0.75215 -0.4857,0.75215 -0.26707,0 -0.35579,-0.3385 -0.19689,-0.75215 z m 1.85704,-2.13316 c 0.0918,-0.89741 0.31646,-1.78118 0.49919,-1.96396 0.52642,-0.52642 0.37076,2.00902 -0.17456,2.84351 -0.36288,0.55527 -0.44785,0.32511 -0.32465,-0.87955 z m -9.03229,-0.0203 c -1.31651,-0.82047 -1.27805,-2.90602 0.0832,-4.52407 2.37468,-2.82213 6.46107,-3.03691 6.8963,-0.36249 0.23575,1.4482 -0.56134,3.64649 -1.44496,3.98555 -0.41195,0.15804 -0.64545,0.45822 -0.51898,0.667 0.30106,0.49696 -4.25289,0.70944 -5.01575,0.23372 z m 4.65254,-1.86853 c 1.88511,-1.88509 0.79733,-4.63149 -1.55826,-3.93416 -2.32712,0.68897 -4.11925,3.66768 -2.92511,4.86185 0.78722,0.78721 3.28543,0.27025 4.48337,-0.92769 z m 6.02379,-1.24524 c 0.19747,-0.68947 0.31393,-1.98695 0.25867,-2.88329 -0.0551,-0.89639 0.13541,-1.62973 0.42309,-1.62973 0.63429,0 0.24358,3.73051 -0.51688,4.93593 -0.41171,0.65252 -0.44711,0.56184 -0.165,-0.42291 z m -5.04258,-4.366 c -0.27228,-0.71466 -0.2143,-0.77226 0.2807,-0.2807 0.34272,0.34017 0.49678,0.74477 0.34237,0.89914 -0.15427,0.15457 -0.43477,-0.12381 -0.62307,-0.61841 z m 7.27837,-0.94095 c 0.0261,-0.58414 0.14267,-0.703 0.30293,-0.30299 0.1447,0.36197 0.12701,0.7945 -0.0397,0.96115 -0.16645,0.16645 -0.28506,-0.12991 -0.2633,-0.65816 z m -2.54681,-0.69404 c 0,-0.26707 -0.39489,-0.33777 -0.87749,-0.15659 -0.76849,0.28794 -0.79203,0.22385 -0.18964,-0.51723 0.40714,-0.50052 0.47041,-0.84605 0.15484,-0.84605 -0.29328,0 -0.67273,0.2259 -0.84317,0.50147 -0.17023,0.27577 -0.57868,0.49644 -0.9071,0.4903 -0.56229,-0.0144 1.58999,-1.95961 2.19022,-1.9835 0.15397,-0.006 0.7183,0.3279 1.25361,0.74227 0.90671,0.70176 0.9093,0.73094 0.038,0.42558 -0.77858,-0.27285 -0.878,-0.14702 -0.59301,0.75094 0.1882,0.59333 0.2143,1.07874 0.0575,1.07874 -0.15629,0 -0.28447,-0.21835 -0.28447,-0.4857 z m 2.58642,-1.5201 c 0,-0.68945 0.11369,-0.97153 0.25285,-0.62678 0.1389,0.3447 0.1389,0.90888 0,1.25361 -0.1389,0.34473 -0.25285,0.0629 -0.25285,-0.62683 z m 78.41711,26.50483 c 2.72056,-2.50767 5.21735,-7.47932 5.5953,-11.14133 0.21399,-2.07039 0.0441,-3.07749 -0.79441,-4.72144 -3.39776,-6.66017 -10.80871,-10.2334 -16.38867,-7.90194 -0.98263,0.41059 -1.61114,0.49746 -1.42547,0.19689 0.21602,-0.34961 -0.029,-0.42323 -0.69634,-0.2108 -0.7047,0.22358 -1.19334,0.0435 -1.55194,-0.57304 -0.28795,-0.49479 -0.53028,-0.61748 -0.53866,-0.27287 -0.01,0.34478 -0.28911,0.62681 -0.62414,0.62681 -0.38453,0 -0.29801,-0.31091 0.23459,-0.84372 0.68625,-0.68627 1.77927,-0.83393 5.85633,-0.79109 l 5.01257,0.0525 1.57509,-1.79396 c 1.93103,-2.19929 1.80395,-4.00302 -0.52004,-7.38086 -4.13233,-6.00611 -10.30938,-11.30668 -13.17634,-11.30668 -1.80044,0 -3.56901,1.84351 -4.56071,4.75388 -0.70002,2.05447 -0.6721,2.36688 0.4994,5.59434 1.31486,3.62242 2.04617,4.83564 2.67908,4.44447 0.61017,-0.37713 1.63251,1.14211 1.21885,1.81133 -0.27489,0.44504 0.13802,0.52837 1.5865,0.32013 l 1.95838,-0.28156 -1.6526,0.71554 c -0.90895,0.39353 -1.51615,0.93636 -1.34935,1.20621 0.16672,0.26966 0.0774,0.49065 -0.19835,0.49065 -0.27576,0 -0.64087,-0.22617 -0.81132,-0.50147 -0.17021,-0.27577 -0.0439,-0.50147 0.28243,-0.50147 0.43375,0 0.42016,-0.2076 -0.0507,-0.77497 -0.35379,-0.42623 -0.99511,-0.63997 -1.42514,-0.47495 -0.43003,0.16501 -0.62693,0.1447 -0.43753,-0.0443 0.18964,-0.18935 -0.0853,-0.89054 -0.61023,-1.55795 -0.52501,-0.66748 -1.43278,-2.65066 -2.0173,-4.40707 -1.28738,-3.86848 -4.17745,-7.33876 -7.07855,-8.49955 -2.14772,-0.85934 -3.07839,-0.71243 -2.04336,0.32262 0.3264,0.32633 0.59337,1.06812 0.59337,1.64833 0,1.858 -4.98264,5.75756 -7.37142,5.76908 -0.68516,0.006 -0.44396,0.43885 1.00192,1.80921 1.04739,0.99268 2.2429,2.32154 2.65665,2.95305 0.41777,0.63756 1.4833,1.2853 2.3962,1.45657 0.9041,0.16962 2.07794,0.66076 2.60854,1.0914 0.92685,0.75234 0.91552,0.77156 -0.28881,0.49116 -0.6895,-0.16037 -1.76135,-0.42737 -2.38187,-0.59301 -0.98046,-0.26183 -1.12826,-0.11023 -1.12826,1.15723 0,1.92912 -0.82242,2.66226 -2.98359,2.66002 -1.98131,-0.002 -4.72696,-1.47124 -6.16411,-3.29827 l -0.9428,-1.19861 -2.46744,1.25036 c -3.68434,1.86699 -4.24544,2.99683 -3.48632,7.02017 0.73592,3.90032 3.31246,9.46845 5.28488,11.42133 1.47025,1.4557 4.12589,1.76785 3.85657,0.45332 -0.0731,-0.35785 0.15223,-0.59967 0.50141,-0.53733 1.06316,0.18994 4.36683,-1.69231 4.67499,-2.66339 0.15949,-0.50183 0.46384,-0.91245 0.67682,-0.91245 0.60866,0 1.60109,-2.522 1.2292,-3.12374 -0.20559,-0.3327 -0.0983,-0.39536 0.27838,-0.16238 0.38688,0.23894 1.27232,-0.3916 2.40129,-1.71057 1.24051,-1.44921 1.94851,-1.92923 2.311,-1.56678 0.3625,0.36249 0.26475,0.80753 -0.31911,1.45268 -0.46293,0.51153 -0.71339,1.05836 -0.55655,1.21524 0.15688,0.15688 0.0116,0.45546 -0.32708,0.66358 -0.41734,0.25808 -0.49395,0.15426 -0.24068,-0.32585 0.20472,-0.38738 -0.0943,-0.14063 -0.66352,0.5493 -0.56942,0.68949 -1.04028,1.52449 -1.04643,1.85556 -0.006,0.33101 -0.3638,0.7992 -0.79479,1.04042 -0.43105,0.24126 -0.83576,0.79375 -0.89952,1.22793 -0.0639,0.43418 -0.38666,1.11574 -0.71774,1.51459 -0.83287,1.0036 -1.29111,3.59744 -0.90634,5.13045 0.93545,3.72716 10.88414,8.80393 13.03595,6.65211 0.41466,-0.41464 0.64247,-0.86534 0.50625,-1.00157 -0.45779,-0.45781 3.80744,-1.87753 5.64069,-1.87753 1.13628,0 2.72311,0.5589 4.24432,1.49487 l 2.42945,1.49488 -0.80896,-2.02181 c -1.31091,-3.27633 0.002,-8.92624 2.42737,-10.44048 2.28847,-1.42916 3.91321,2.49187 3.91321,9.44389 0,2.41803 0.20588,4.04023 0.51265,4.04023 0.28186,0 1.52695,-0.93496 2.76663,-2.07766 z m -25.71899,0.19659 c 0.48262,-0.10897 0.87751,-0.61344 0.87751,-1.12086 0,-0.82284 0.1676,-0.85951 1.55612,-0.3393 1.12185,0.42052 1.31143,0.63241 0.67935,0.75941 -0.53111,0.10642 -0.66326,0.30807 -0.33518,0.5108 0.29779,0.18413 -0.40283,0.34668 -1.55695,0.36143 -1.15413,0.0174 -1.70349,-0.0623 -1.22085,-0.17194 z m -5.39058,-2.63197 c -0.17021,-0.27577 -0.0706,-0.50145 0.22096,-0.50145 0.29209,0 0.53105,0.22588 0.53105,0.50145 0,0.27577 -0.0997,0.50146 -0.22095,0.50146 -0.12151,0 -0.36062,-0.2259 -0.53106,-0.50146 z m 1.50435,-0.50145 c -0.17022,-0.27576 -0.071,-0.50143 0.22124,-0.50143 0.29207,0 0.53102,0.2259 0.53102,0.50143 0,0.27577 -0.0997,0.50145 -0.22097,0.50145 -0.12149,0 -0.36058,-0.2259 -0.53104,-0.50145 z m 0.88156,-0.8322 c -0.77804,-0.31427 0.0968,-2.18039 1.01649,-2.16882 0.45051,0.006 0.44148,0.11427 -0.0347,0.4162 -0.35489,0.22559 -0.49958,0.78428 -0.3224,1.24596 0.33991,0.88579 0.31897,0.90192 -0.65946,0.50666 z m 1.62571,-0.67213 c -0.17023,-0.27577 -0.0709,-0.50145 0.22095,-0.50145 0.29205,0 0.53108,0.22589 0.53108,0.50145 0,0.27577 -0.0997,0.50143 -0.22095,0.50143 -0.1215,0 -0.36062,-0.2259 -0.53106,-0.50143 z m -6.65945,-3.01756 c 0.0566,-1.98656 0.65217,-2.35477 0.7942,-0.49083 0.0601,0.79015 -0.10377,1.56839 -0.36412,1.72938 -0.26068,0.16092 -0.45407,-0.39571 -0.43008,-1.23855 z m 4.94396,-1.28654 c 0.0261,-0.58415 0.14297,-0.70296 0.303,-0.30294 0.14469,0.36194 0.127,0.7945 -0.0397,0.96115 -0.16645,0.16644 -0.28505,-0.12992 -0.2633,-0.65821 z m -13.10958,-1.27232 c -0.3334,-0.62288 -0.35844,-0.93319 -0.0602,-0.74908 0.27982,0.17254 0.59935,0.042 0.7102,-0.29018 0.1273,-0.38153 0.32216,-0.29015 0.52853,0.24763 0.1795,0.4687 0.0949,0.85217 -0.1882,0.85217 -0.28329,0 -0.37585,0.2259 -0.20559,0.50151 0.17022,0.27548 0.19168,0.50139 0.0473,0.50139 -0.1444,0 -0.51878,-0.4785 -0.8318,-1.06339 z m 2.08678,-0.63313 c -0.4389,-0.52876 -0.41828,-0.75401 0.087,-0.94775 0.39389,-0.15136 0.69136,0.12991 0.7338,0.69357 0.0849,1.13023 -0.0571,1.17427 -0.82056,0.2543 z m 11.2876,-0.0997 c -0.50771,-1.32298 -0.36441,-1.61063 1.18816,-2.38517 l 1.49253,-0.74455 -0.74039,1.77194 c -0.4072,0.97463 -0.74036,1.85728 -0.74036,1.9615 0,0.54952 -0.93862,0.0771 -1.19994,-0.60372 z m 1.19994,-0.96184 c 0,-0.4137 -0.22589,-0.7522 -0.50148,-0.7522 -0.27577,0 -0.5014,0.3385 -0.5014,0.7522 0,0.41367 0.22589,0.75216 0.5014,0.75216 0.27577,0 0.50148,-0.33849 0.50148,-0.75216 z m -11.03184,0.55509 c 0,-0.10838 0.35018,-0.33144 0.7782,-0.49575 0.44627,-0.17166 0.64751,-0.087 0.47187,0.19689 -0.29446,0.47649 -1.25007,0.70479 -1.25007,0.29863 z m 0,-1.30729 c 0,-0.27577 0.23893,-0.50145 0.53103,-0.50145 0.29212,0 0.3916,0.22589 0.22096,0.50145 -0.1705,0.27576 -0.40942,0.50145 -0.53103,0.50145 -0.12149,0 -0.22125,-0.22589 -0.22125,-0.50145 z m 23.81369,-0.50962 c -0.17311,-0.28041 -0.49945,-0.39561 -0.72496,-0.25635 -0.22588,0.13918 -0.71763,-0.13919 -1.09361,-0.61862 -0.61864,-0.78916 -0.60018,-0.80659 0.19429,-0.18384 1.22934,0.96413 1.15656,-0.17979 -0.0971,-1.52553 -0.88572,-0.95062 -1.04636,-0.97422 -1.76206,-0.25837 -0.71564,0.71572 -0.70682,0.83444 0.0971,1.30248 0.4865,0.28331 0.65888,0.51477 0.38305,0.51438 -0.62752,-9.6e-4 -2.25648,-1.21363 -2.25648,-1.67986 0,-0.19111 0.67666,-0.58283 1.50375,-0.87115 0.82704,-0.28823 1.37789,-0.72787 1.22403,-0.97677 -0.33532,-0.54248 0.31455,-0.58404 1.07648,-0.0691 0.29966,0.20298 1.16727,1.44033 1.92809,2.75032 1.08943,1.87598 1.21963,2.38189 0.61294,2.38189 -0.4236,0 -0.91191,-0.22937 -1.08516,-0.50965 z m -16.52144,-0.52764 c 0.16442,-0.26591 0.54717,-0.32993 0.85076,-0.14208 0.36392,0.22472 0.43365,0.0325 0.20472,-0.56417 -0.29584,-0.77097 -0.23227,-0.80979 0.42834,-0.26157 0.90221,0.74877 0.78526,0.95692 -0.69831,1.24266 -0.61353,0.11773 -0.95445,-9.6e-4 -0.78539,-0.2749 z m -6.28932,-0.4079 c 0,-0.27577 0.2259,-0.64094 0.50142,-0.81135 0.27577,-0.17022 0.50146,-0.0844 0.50146,0.19108 0,0.27577 -0.22589,0.64091 -0.50146,0.81133 -0.27577,0.17021 -0.50142,0.0844 -0.50142,-0.19109 z m 9.02603,-0.81135 c 0,-0.41371 0.22589,-0.75217 0.5014,-0.75217 0.27577,0 0.50148,0.33846 0.50148,0.75217 0,0.4137 -0.22589,0.75216 -0.50148,0.75216 -0.27577,0 -0.5014,-0.33846 -0.5014,-0.75216 z m -6.01738,-0.22097 c 0,-0.25952 0.22298,-0.60969 0.4957,-0.77823 0.28418,-0.17543 0.36831,0.0289 0.19689,0.47189 -0.33334,0.86869 -0.69278,1.02766 -0.69278,0.30634 z m 9.59272,-1.59822 c 0.10989,-1.2077 -0.0387,-1.6491 -0.51878,-1.54488 -0.44218,0.0957 -0.56252,-0.14064 -0.35148,-0.6904 0.17658,-0.45992 0.0639,-1.14609 -0.25083,-1.52483 -0.71652,-0.86334 -0.0976,-0.91034 0.75562,-0.0571 0.34724,0.3472 0.53798,0.91131 0.42389,1.25362 -0.1137,0.34226 0.0612,0.62229 0.38942,0.62229 0.32831,0 0.47756,0.311 0.33171,0.6911 -0.14616,0.3801 -0.076,0.8878 0.15513,1.12824 0.2314,0.24069 0.0812,0.74672 -0.3341,1.12504 -0.66021,0.60196 -0.73523,0.47665 -0.60087,-1.00286 z m -2.41478,0.18964 c -0.17195,-0.48262 -0.40366,-1.04676 -0.51531,-1.2536 -0.11172,-0.20675 0.0359,-0.3761 0.32801,-0.3761 0.29207,0 0.53104,0.33853 0.53104,0.75222 0,0.41364 0.22588,0.75217 0.50149,0.75217 0.27575,0 0.50144,0.22588 0.50144,0.50142 0,0.84143 -1.01418,0.55816 -1.34667,-0.37611 z m 4.98215,-0.14092 c -0.62055,-0.24965 -1.12825,-0.57359 -1.12825,-0.72038 0,-0.48671 0.79806,-0.27693 1.78458,0.46931 1.10934,0.83908 0.95422,0.89845 -0.65633,0.25084 z m -13.45665,-0.80549 c 0.16151,-0.42088 0.29369,-0.87569 0.29369,-1.01082 0,-0.13512 0.33845,0.0928 0.75216,0.50668 0.98135,0.98136 0.95291,1.0967 -0.29364,1.19063 -0.74731,0.0562 -0.96203,-0.13977 -0.75221,-0.68649 z m 14.61177,-0.1331 c -0.9079,-0.35524 -0.89197,-0.40391 0.22878,-0.697 0.66271,-0.17312 1.30877,-0.21109 1.43569,-0.0844 0.12701,0.12701 -0.0458,0.23082 -0.38375,0.23082 -0.33805,0 -0.47516,0.22588 -0.3047,0.50142 0.35121,0.56835 0.35101,0.56835 -0.97605,0.049 z m 4.06158,-1.13916 c -0.50466,-0.28243 -1.67163,-0.4255 -2.59321,-0.31788 -0.92156,0.10757 -1.55031,-0.01 -1.39728,-0.25489 0.15282,-0.24793 -0.16963,-0.30831 -0.71655,-0.13455 -0.60699,0.19283 -1.24194,0.0203 -1.62853,-0.44773 -0.43361,-0.52247 -0.45595,-0.76349 -0.0708,-0.76349 0.30952,0 0.56282,0.22588 0.56282,0.50142 0,0.27576 0.28214,0.49336 0.62687,0.48344 0.34472,-0.0116 -9.6e-4,-0.53193 -0.7685,-1.16001 -1.901,-1.55609 -2.23096,-3.57439 -0.74277,-4.5434 1.75225,-1.14084 3.96731,-1.36553 5.24027,-0.53148 1.0315,0.67586 1.10524,0.66378 0.84692,-0.13889 -0.23053,-0.71635 -0.18732,-0.74428 0.23313,-0.15109 0.2836,0.40049 0.40838,0.90185 0.27723,1.11405 -0.13079,0.21255 0.10989,0.91797 0.5363,1.56832 0.42611,0.65035 0.62355,1.33368 0.4387,1.5185 -0.18472,0.18472 0.0491,0.33608 0.51923,0.33608 0.755,0 0.73524,0.12906 -0.16762,1.09822 -0.75571,0.81117 -0.86288,1.19725 -0.41016,1.47707 0.96635,0.59724 0.23749,0.91843 -0.78533,0.34608 z m -0.3276,-2.4448 c 0,-1.71452 -1.44752,-3.95331 -2.77069,-4.28544 -0.78572,-0.19719 -1.72517,-5.1e-4 -2.53542,0.53018 -1.17532,0.77009 -1.22583,0.93841 -0.58093,1.93569 0.78583,1.21525 3.6546,2.84538 5.00951,2.84659 0.55058,4.6e-4 0.87753,-0.38217 0.87753,-1.02702 z m 3.04827,2.23963 c 0.0261,-0.58416 0.14266,-0.70306 0.30296,-0.30295 0.14469,0.36192 0.12701,0.79447 -0.0394,0.96106 -0.16675,0.16645 -0.28505,-0.1299 -0.26331,-0.65811 z m -17.39032,-0.33432 c -0.19835,-0.34471 -0.17573,-0.45952 0.0496,-0.25518 0.22616,0.20473 0.76961,0.0917 1.20867,-0.25082 0.70627,-0.55075 0.71902,-0.52134 0.10988,0.25517 -0.82027,1.04591 -0.90214,1.06097 -1.36839,0.25083 z m -1.84119,-0.84565 c -0.17573,-0.67195 -0.0427,-0.87969 0.44438,-0.69285 0.78956,0.30295 0.91107,0.96996 0.25082,1.37792 -0.24444,0.15106 -0.55733,-0.15716 -0.69537,-0.68507 z m 2.31912,-0.41301 c 0.1821,-0.29487 0.0479,-0.6504 -0.29862,-0.79005 -0.45089,-0.18183 -0.46015,-0.26533 -0.0328,-0.29358 0.86295,-0.0571 1.27748,0.83023 0.58712,1.25689 -0.34998,0.21631 -0.45329,0.14644 -0.25605,-0.17311 z m -0.1766,-2.01105 c 0,-0.63318 1.43462,-1.22024 2.05101,-0.83928 0.25084,0.15486 0.45271,0.5507 0.44854,0.8792 -0.006,0.37483 -0.17748,0.32915 -0.46326,-0.12294 -0.37749,-0.59659 -0.59089,-0.60758 -1.2459,-0.0639 -0.43863,0.364 -0.79039,0.42933 -0.79039,0.14671 z m 11.78755,-4.62233 c -0.17573,-0.28416 0.029,-0.36829 0.47182,-0.19689 0.86873,0.33333 1.02765,0.69275 0.30637,0.69275 -0.25951,0 -0.60967,-0.22298 -0.77819,-0.49565 z m 8.44164,-0.14498 c -0.23198,-0.39399 -0.76051,-0.8444 -1.17422,-1.00095 -0.63045,-0.23866 -0.62012,-0.29108 0.0639,-0.32425 0.87845,-0.0423 2.26397,1.30975 1.80853,1.76521 -0.15223,0.15223 -0.46613,-0.0458 -0.69826,-0.44001 z m -110.36639,25.7734 c 0.66838,-0.79433 1.59631,-2.80241 2.06209,-4.46245 l 0.84688,-3.01823 1.76958,0.54303 c 0.97321,0.29876 2.33826,1.07021 3.03338,1.71444 1.1281,1.04548 1.40741,1.10252 2.6002,0.5308 1.54942,-0.74258 1.96966,-2.08781 1.01394,-3.24566 -1.00423,-1.21668 -4.82023,-2.75496 -5.94697,-2.39737 -1.86848,0.59306 -0.98585,-0.19805 1.99136,-1.7849 3.64385,-1.94215 4.74067,-3.06849 4.30985,-4.42588 -0.70613,-2.22486 -3.9899,-1.60811 -7.40566,1.39099 l -1.79729,1.57804 0.23284,-3.89721 c 0.12817,-2.14346 0.0232,-4.20337 -0.23458,-4.57764 -0.73995,-1.07661 -2.5606,-0.18559 -3.45562,1.69133 -0.6759,1.41736 -0.71031,2.12303 -0.22212,4.55376 0.31776,1.58201 0.4764,2.97769 0.35261,3.10159 -0.12381,0.12381 -0.94731,-0.029 -1.82993,-0.33441 -2.66162,-0.92783 -5.16323,-0.70218 -6.30745,0.56891 -2.5127,2.79149 -1.80442,3.72654 3.17326,4.18919 l 3.51155,0.32634 -0.91622,1.79713 c -0.89329,1.75209 -1.27907,6.571 -0.58192,7.26817 0.78377,0.78375 2.67072,0.23284 3.80048,-1.10997 z m 73.58944,0.49653 c 0,-0.24533 1.02949,-1.84473 2.2878,-3.55398 l 2.28774,-3.1077 -2.56285,-2.70984 c -1.40956,-1.4904 -3.25016,-4.1786 -4.09022,-5.97377 -0.95746,-2.04596 -1.7436,-3.14273 -2.1068,-2.93902 -2.57843,1.44621 -6.4144,5.01251 -8.66521,8.05604 -1.48634,2.00986 -2.92653,3.6543 -3.20034,3.6543 -1.0527,0 -0.42457,0.85209 1.1988,1.6262 0.93314,0.44499 2.48608,1.50221 3.45094,2.3494 2.13322,1.87301 3.09544,1.93475 4.18723,0.26852 l 0.83331,-1.27182 0.89915,1.47851 c 0.49455,0.8132 1.30938,1.71713 1.81081,2.00875 1.11546,0.64879 3.66964,0.72841 3.66964,0.1145 z m 56.44193,-5.56833 c 1.4985,-2.03476 4.20902,-3.66527 7.06451,-4.24972 2.49682,-0.51098 4.89266,0.79354 6.79272,3.69893 1.82367,2.78839 2.65129,3.15973 3.09572,1.38895 0.16065,-0.64076 0.85633,-1.99595 1.5456,-3.01166 0.92721,-1.36639 1.17567,-2.23426 0.95517,-3.33688 -0.38662,-1.93305 -1.01068,-2.40547 -3.43877,-2.60349 -1.30927,-0.10653 -2.02889,-0.42133 -2.09295,-0.91489 -0.0537,-0.41375 -0.24097,-1.84029 -0.41633,-3.17023 -0.4347,-3.29722 -1.7408,-4.56143 -4.29127,-4.1536 -1.31076,0.20935 -2.48999,0.0406 -3.68155,-0.52761 -2.04704,-0.97619 -3.3055,-0.36131 -3.3055,1.61512 0,1.72406 -0.69939,1.85375 -2.31646,0.42945 -2.45406,-2.1614 -4.14369,-2.84036 -6.13737,-2.46634 -1.71754,0.32219 -1.7606,0.37703 -0.81656,1.03973 4.77279,3.35052 5.46809,4.62148 5.46588,9.99141 -9.6e-4,3.17187 -0.23517,4.45764 -1.11745,6.14269 l -1.11581,2.13118 h 1.16765 c 0.78144,0 1.65548,-0.66244 2.64277,-2.00304 z m -43.69607,-19.3621 c 1.17651,-0.45143 0.98783,-3.26938 -0.35235,-5.26268 -0.62999,-0.93717 -2.20304,-2.48843 -3.49557,-3.44725 l -2.35007,-1.74341 2.6331,-0.52572 c 2.63782,-0.5267 4.78924,-1.73882 6.55536,-3.69298 0.88524,-0.9796 0.89257,-1.122 0.11889,-2.30264 -0.45352,-0.6922 -1.40993,-1.40545 -2.12541,-1.585 -1.9104,-0.47948 -6.50334,0.70318 -8.16679,2.10291 -0.79508,0.66895 -1.5549,1.21632 -1.68849,1.21632 -0.13338,0 -0.0305,-0.99557 0.22908,-2.2124 0.61271,-2.87278 -0.19457,-5.92544 -1.92673,-7.28816 -1.71455,-1.34873 -2.47878,-1.29909 -3.47788,0.22588 -0.70513,1.07615 -0.7372,1.59601 -0.22444,3.63551 0.32898,1.30887 1.1681,3.12804 1.86472,4.04246 0.69658,0.91443 1.18203,1.74713 1.07882,1.85039 -0.10318,0.10318 -1.26665,-0.4838 -2.58534,-1.30462 -1.31876,-0.82072 -3.04208,-1.62118 -3.82964,-1.77868 -1.82936,-0.36592 -5.03186,0.67645 -5.03186,1.63775 0,1.6841 4.38466,4.67417 7.99964,5.45527 l 1.73155,0.37415 -1.76832,0.90718 c -3.45462,1.77233 -6.55925,6.20335 -5.77614,8.24398 0.73267,1.90944 5.31175,-0.19834 9.08231,-4.18078 l 1.99226,-2.1042 1.09279,2.14021 c 1.22779,2.40457 2.73266,3.95832 4.95165,5.11241 1.64688,0.85655 2.27155,0.94374 3.46909,0.4842 z m 16.93144,-4.81871 c -0.35983,-0.35985 -0.59341,-0.38948 -0.59341,-0.0751 0,0.66932 0.59309,1.26233 0.9277,0.92768 0.14266,-0.14237 -0.01,-0.52613 -0.33429,-0.8525 z"
       id="path325" /></g></svg>
