<?xml version="1.0" encoding="UTF-8" standalone="no"?>
<svg
   viewBox="0 0 512 512"
   version="1.1"
   id="svg4"
   sodipodi:docname="icycles.svg"
   inkscape:version="1.2.1 (9c6d41e, 2022-07-14)"
   xmlns:inkscape="http://www.inkscape.org/namespaces/inkscape"
   xmlns:sodipodi="http://sodipodi.sourceforge.net/DTD/sodipodi-0.dtd"
   xmlns="http://www.w3.org/2000/svg"
   xmlns:svg="http://www.w3.org/2000/svg">
  <defs
     id="defs8" />
  <sodipodi:namedview
     id="namedview6"
     pagecolor="#ffffff"
     bordercolor="#999999"
     borderopacity="1"
     inkscape:showpageshadow="0"
     inkscape:pageopacity="0"
     inkscape:pagecheckerboard="0"
     inkscape:deskcolor="#d1d1d1"
     showgrid="false"
     inkscape:zoom="0.4609375"
     inkscape:cx="257.08475"
     inkscape:cy="257.08475"
     inkscape:window-width="1512"
     inkscape:window-height="843"
     inkscape:window-x="0"
     inkscape:window-y="38"
     inkscape:window-maximized="1"
     inkscape:current-layer="svg4" />
  <!--! Font Awesome Pro 6.2.0 by @fontawesome - https://fontawesome.com License - https://fontawesome.com/license (Commercial License) Copyright 2022 Fonticons, Inc. -->
  <path
     d="M75.8 304.8L1 35.7c-.7-2.5-1-5-1-7.5C0 12.6 12.6 0 28.2 0H482.4C498.8 0 512 13.2 512 29.6c0 1.6-.1 3.3-.4 4.9L434.6 496.1c-1.5 9.2-9.5 15.9-18.8 15.9c-9.2 0-17.1-6.6-18.7-15.6L336 160 307.2 303.9c-1.9 9.3-10.1 16.1-19.6 16.1c-9.2 0-17.2-6.2-19.4-15.1L240 192 210.6 368.2c-1.5 9.1-9.4 15.8-18.6 15.8s-17.1-6.7-18.6-15.8L144 192 115.9 304.3c-2.3 9.2-10.6 15.7-20.1 15.7c-9.3 0-17.5-6.2-20-15.2z"
     id="path2"
     style="fill:#3bc9db;fill-opacity:1" />
</svg>
