<?xml version="1.0" encoding="UTF-8" standalone="no"?>
<svg
   xmlns:dc="http://purl.org/dc/elements/1.1/"
   xmlns:cc="http://creativecommons.org/ns#"
   xmlns:rdf="http://www.w3.org/1999/02/22-rdf-syntax-ns#"
   xmlns:svg="http://www.w3.org/2000/svg"
   xmlns="http://www.w3.org/2000/svg"
   xmlns:sodipodi="http://sodipodi.sourceforge.net/DTD/sodipodi-0.dtd"
   xmlns:inkscape="http://www.inkscape.org/namespaces/inkscape"
   width="1257.325"
   height="700"
   viewBox="0 0 332.66725 185.20833"
   version="1.1"
   id="svg8"
   inkscape:version="1.0beta2 (2b71d25, 2019-12-03)"
   sodipodi:docname="bg-1-trace.svg">
  <defs
     id="defs2" />
  <sodipodi:namedview
     id="base"
     pagecolor="#ffffff"
     bordercolor="#666666"
     borderopacity="1.0"
     inkscape:pageopacity="0.0"
     inkscape:pageshadow="2"
     inkscape:zoom="0.35"
     inkscape:cx="647.25183"
     inkscape:cy="-66.03025"
     inkscape:document-units="px"
     inkscape:current-layer="layer1"
     inkscape:document-rotation="0"
     showgrid="false"
     fit-margin-top="0"
     fit-margin-left="0"
     fit-margin-right="0"
     fit-margin-bottom="0"
     inkscape:window-width="1440"
     inkscape:window-height="791"
     inkscape:window-x="0"
     inkscape:window-y="23"
     inkscape:window-maximized="0"
     showguides="false"
     units="px" />
  <metadata
     id="metadata5">
    <rdf:RDF>
      <cc:Work
         rdf:about="">
        <dc:format>image/svg+xml</dc:format>
        <dc:type
           rdf:resource="http://purl.org/dc/dcmitype/StillImage" />
        <dc:title></dc:title>
      </cc:Work>
    </rdf:RDF>
  </metadata>
  <g
     inkscape:label="Layer 1"
     inkscape:groupmode="layer"
     id="layer1"
     transform="translate(-0.08732305,-63.343587)">
    <path
       style="fill:#e6e6e6;stroke-width:0.284284"
       d="m 163.2021,172.14877 c 0.10039,-0.17542 -1.95524,-0.82985 -5.6135,-1.78714 -5.58601,-1.46175 -5.80451,-1.54403 -6.78434,-2.55457 -1.09314,-1.12741 -1.07952,-1.12304 -9.84814,-3.16398 -3.28762,-0.76521 -3.59166,-0.89323 -5.72861,-2.41218 l -2.25673,-1.6041 -6.24939,-1.31482 c -5.22627,-1.09955 -6.39914,-1.42949 -7.16404,-2.01532 -0.72092,-0.55215 -1.56657,-0.81471 -3.99267,-1.23973 -2.08417,-0.36513 -4.47931,-1.04686 -7.41788,-2.11138 -2.38692,-0.86467 -4.9648,-1.79227 -5.72861,-2.06133 -0.76382,-0.26906 -3.654165,-1.01339 -6.422994,-1.65407 l -5.034235,-1.16486 -2.870684,-6.63412 c -1.578874,-3.64875 -3.023699,-7.00073 -3.210724,-7.44882 -1.597344,-3.82715 -2.389187,-5.41738 -2.549992,-5.12107 -0.104217,0.19204 -0.884816,2.28702 -1.734659,4.65551 -4.14206,11.54386 -4.084892,11.40602 -4.731028,11.40602 -0.337257,0 -1.07354,-0.0618 -1.636181,-0.13717 -0.992196,-0.13305 -1.058127,-0.22939 -2.190524,-3.20067 -0.642149,-1.68492 -1.354333,-3.48249 -1.582635,-3.9946 l -0.415092,-0.93109 -0.533309,1.28025 c -0.293318,0.70416 -0.94469,2.27181 -1.447491,3.48367 -0.5028,1.21187 -0.987867,2.2528 -1.077928,2.31319 -0.224795,0.15071 -5.078945,-0.68991 -5.621087,-0.97344 -0.240619,-0.12584 -0.681087,-0.8174 -0.978818,-1.5368 -0.297732,-0.71942 -0.829555,-1.98888 -1.181831,-2.82106 -0.352278,-0.83217 -1.268981,-3.03191 -2.037115,-4.8883 -0.768137,-1.85638 -2.109553,-5.06949 -2.980926,-7.14023 -1.394587,-3.31412 -1.959204,-5.29305 -1.403968,-4.92078 0.0992,0.0665 2.050797,4.61436 4.336903,10.10635 2.286104,5.49198 4.285879,10.18744 4.443941,10.43433 0.307877,0.48092 4.531734,1.43202 4.966345,1.1183 0.129949,-0.0938 0.652707,-1.2704 1.161683,-2.61468 1.576867,-4.16475 1.931909,-4.8714 2.388504,-4.75393 0.234769,0.0604 1.169703,1.96294 2.077628,4.22788 0.907927,2.26492 1.839855,4.1986 2.07095,4.29707 0.967889,0.41242 1.610795,0.18062 1.968355,-0.70965 0.368699,-0.91804 2.614031,-7.19053 4.617958,-12.90061 0.837884,-2.3875 1.251623,-3.1891 1.621896,-3.14235 0.52367,0.0661 0.790698,0.6347 5.386124,11.46854 1.466254,3.45673 2.900348,6.83182 3.186882,7.50021 l 0.520971,1.21525 4.886897,1.06001 c 3.735044,0.81016 6.213114,1.54732 10.513514,3.12749 4.40275,1.61777 6.37466,2.20011 9.06576,2.67732 1.89153,0.33541 3.59538,0.75515 3.78634,0.93274 0.19095,0.17759 0.50342,0.48217 0.69437,0.67683 0.19096,0.19465 3.15942,0.93379 6.59659,1.64254 l 6.24939,1.28863 2.14052,1.56287 2.14052,1.56286 6.3656,1.56206 c 6.14644,1.50828 6.40225,1.59676 7.43007,2.56989 0.99896,0.94581 1.44422,1.11166 7.23565,2.69514 l 6.17119,1.68732 2.58074,-0.26901 c 1.95023,-0.20329 3.51561,-0.20347 6.40705,-6.8e-4 l 3.82628,0.26823 9.74711,-1.7582 9.7471,-1.7582 4.90608,0.19837 4.90608,0.19836 4.51345,-1.01536 4.51345,-1.01536 6.52591,0.15855 c 6.35139,0.15432 6.631,0.14137 10.45658,-0.4842 l 3.93068,-0.64274 1.07232,-2.92744 c 1.30626,-3.56604 4.83487,-13.3145 7.5264,-20.79298 1.34586,-3.73958 2.13751,-5.52844 2.44656,-5.52844 0.25129,0 0.54072,0.18332 0.64317,0.40736 0.25291,0.55308 8.57033,20.71507 10.36836,25.1336 1.28687,3.16241 1.95957,4.1202 2.59472,3.69436 0.17086,-0.11456 2.30696,-6.14232 4.79219,-13.52294 2.67337,-7.9393 2.75675,-8.14716 3.26826,-8.14716 0.45958,0 3.06112,4.96223 3.17296,6.05217 l 0.0478,0.46555 0.1684,-0.46555 c 0.83593,-2.31095 7.05962,-19.34075 8.31558,-22.75384 0.98017,-2.66366 1.76965,-4.36454 2.02581,-4.36454 0.41893,0 0.76093,0.76116 6.43216,14.31572 8.82356,21.08879 10.99403,26.19397 11.19312,26.32745 0.0903,0.0606 0.57572,-0.0157 1.0788,-0.16939 0.99475,-0.30388 1.03272,-0.37306 2.47457,-4.50991 0.49084,-1.40829 0.98151,-2.75697 1.09038,-2.99705 0.14624,-0.32238 0.0747,-0.38799 -0.27325,-0.25095 -0.2979,0.11732 -0.26454,0.021 0.0908,-0.26181 0.3116,-0.24809 1.60306,-3.40266 2.89909,-7.0815 3.50076,-9.93702 10.10459,-28.56087 11.36989,-32.06486 0.69674,-1.92951 1.27747,-3.08429 1.55104,-3.08429 0.50309,0 0.16512,-0.7533 5.84845,13.03545 5.71763,13.87196 5.72279,13.88555 5.69069,14.99308 -0.0262,0.90433 -0.062,0.87036 -0.71277,-0.67736 -0.37685,-0.8962 -0.91214,-2.15318 -1.18952,-2.79331 -0.71583,-1.65195 -5.65065,-13.63319 -6.44898,-15.65749 -0.8824,-2.23745 -3.07925,-7.34913 -3.19051,-7.42372 -0.0482,-0.0323 -0.45321,1.01005 -0.8998,2.31651 -0.4466,1.30648 -1.63692,4.67989 -2.64515,7.49647 -1.00823,2.81659 -2.25655,6.32568 -2.77402,7.79799 -1.62403,4.62053 -3.17828,8.98355 -5.51439,15.47959 -1.2431,3.45672 -2.89634,8.11806 -3.67387,10.35853 -1.89373,5.45675 -1.8812,5.43452 -3.32095,5.89484 -1.81969,0.58179 -2.16781,0.50152 -2.59863,-0.59919 -0.21298,-0.54411 -0.68156,-1.67017 -1.04129,-2.50233 -1.36755,-3.16356 -7.24435,-17.17606 -7.81004,-18.62208 -0.32556,-0.83217 -1.0318,-2.50815 -1.56946,-3.72441 -0.53764,-1.21626 -1.20718,-2.78749 -1.48783,-3.49163 -0.51188,-1.28419 -2.12611,-5.08489 -3.36141,-7.91439 -0.36331,-0.83218 -0.76918,-1.82124 -0.90195,-2.19792 -0.18561,-0.52661 -1.34772,2.29729 -5.02915,12.22073 -2.63328,7.09809 -4.83514,13.11404 -4.89305,13.36879 -0.0579,0.25474 -0.34985,0.49439 -0.64874,0.53253 -0.41559,0.0531 -0.87383,-0.63094 -1.94776,-2.90732 -0.77237,-1.63725 -1.4892,-2.81962 -1.59294,-2.62759 -0.10371,0.19205 -0.43058,1.08241 -0.72629,1.97859 -0.2957,0.89619 -1.01344,2.99118 -1.59499,4.65553 -0.58153,1.66433 -1.89659,5.48769 -2.92234,8.49631 l -1.86501,5.47024 h -1.30188 -1.30188 l -1.00104,-2.32776 c -0.55058,-1.28028 -1.15869,-2.69439 -1.35135,-3.14248 -0.19268,-0.44809 -1.13615,-2.75258 -2.0966,-5.12106 -0.96045,-2.36849 -2.13268,-5.19673 -2.60494,-6.28494 -0.47226,-1.08825 -1.5613,-3.73867 -2.42008,-5.88985 -0.85878,-2.15116 -1.74874,-4.31363 -1.97769,-4.80548 l -0.41628,-0.89425 -0.60508,1.66301 c -0.33279,0.91466 -1.24333,3.44375 -2.02343,5.6202 -0.78009,2.17646 -1.64438,4.53331 -1.92064,5.23746 -0.27623,0.70414 -0.97824,2.642 -1.55998,4.30636 -0.58175,1.66434 -1.77618,4.98306 -2.6543,7.37492 l -1.59658,4.34885 -4.02127,0.62697 c -4.75112,0.74076 -4.62747,0.73535 -11.51317,0.50328 l -5.38288,-0.18142 -4.65874,1.06404 -4.65875,1.06404 -4.88748,-0.2118 -4.88748,-0.21179 -8.92251,1.58597 c -4.90739,0.87229 -9.46965,1.6548 -10.13839,1.73892 -0.66871,0.0841 -2.87251,0.0267 -4.89729,-0.12757 -2.67093,-0.20351 -4.27181,-0.21344 -5.83231,-0.0362 -4.02328,0.45702 -4.72417,0.48647 -4.55527,0.19138 z M 43.511575,140.98535 c -1.851407,-0.25927 -1.952984,-0.37139 -3.013264,-3.32606 -0.367536,-1.02421 -1.378769,-3.59057 -2.247178,-5.70301 -1.812165,-4.40816 -3.368632,-8.31752 -4.772869,-11.98796 -0.538785,-1.4083 -0.988397,-2.33615 -0.999136,-2.06192 -0.02928,0.74762 -2.102381,5.98622 -2.467955,6.23636 -0.17463,0.1195 -0.418575,0.14951 -0.5421,0.0667 -0.17355,-0.11637 -5.011443,-10.98438 -5.929114,-13.31939 -0.100635,-0.25605 -0.628835,-1.46067 -1.173788,-2.67692 -2.071648,-4.62364 -2.754061,-6.31236 -2.799829,-6.92861 -0.04647,-0.62585 -0.04986,-0.62678 -0.200044,-0.0546 -0.08402,0.32007 -0.753083,2.25792 -1.486808,4.30636 -0.733725,2.04843 -1.832556,5.13854 -2.441847,6.86689 -1.29714,3.67957 -4.22301,11.87662 -5.192961,14.54849 -2.0554918,5.66214 -3.1298491,8.77408 -3.1298491,9.06577 0,0.18063 -0.2255634,0.47963 -0.5012515,0.66447 -0.4368765,0.29291 -0.8716199,0.27737 -3.3850891,-0.12093 -1.5861103,-0.25133 -2.94893505,-0.49984 -3.02849912,-0.55221 -0.47674722,-0.31384 0.57431535,-0.31137 2.87121742,0.006 1.4440767,0.2 2.7042761,0.36362 2.8004433,0.36362 0.2269548,0 0.6507652,-1.05899 2.5152154,-6.28494 2.4785777,-6.94731 7.3481797,-20.78337 7.5371467,-21.41538 0.0957,-0.32007 0.817999,-2.31904 1.605119,-4.44215 1.530621,-4.12857 2.068024,-4.686572 2.754144,-2.85969 0.343261,0.91398 1.248066,3.02765 7.211142,16.84566 1.07736,2.49652 2.058075,4.61828 2.179369,4.71501 0.121295,0.0967 0.582249,-0.7827 1.024349,-1.95433 1.308923,-3.46882 1.425149,-3.69178 1.924449,-3.69178 0.54327,0 0.76706,0.42246 2.281145,4.30634 4.031126,10.34051 7.333425,18.39291 7.625437,18.59406 0.163499,0.11263 0.880107,0.21738 1.592458,0.23278 l 1.29518,0.028 3.377401,-9.07827 c 1.857572,-4.99304 3.395394,-8.71163 3.417385,-8.26354 0.02199,0.44809 -0.825348,3.17158 -1.882977,6.05218 -1.057627,2.88059 -2.394536,6.52864 -2.970906,8.10677 -1.175265,3.21791 -1.565697,4.01006 -1.956743,3.97005 -0.147942,-0.0151 -0.998166,-0.12963 -1.889393,-0.25443 z m 72.794075,-14.61569 c -0.72086,-0.38408 -1.5257,-0.69833 -1.78853,-0.69833 -0.26284,0 -2.15524,-0.27082 -4.20532,-0.60181 -3.96768,-0.64058 -4.94934,-1.03905 -9.14039,-3.71028 -0.87664,-0.55873 -2.250176,-1.19193 -3.052307,-1.40713 -0.802131,-0.21517 -1.394133,-0.43433 -1.31556,-0.48702 0.07857,-0.0526 0.91605,0.10858 1.861062,0.35829 l 1.718205,0.45407 0.63756,-0.79373 c 0.85166,-1.06029 4.20236,-3.17789 6.00287,-3.79374 5.99961,-2.05213 13.11533,-1.3081 17.88518,1.87008 2.44462,1.62887 3.96996,3.68218 4.3635,5.87384 0.15419,0.85877 0.18113,1.60251 0.0598,1.65278 -0.20943,0.0867 -11.2765,1.98131 -11.574,1.98131 -0.0778,0 -0.73126,-0.31426 -1.45212,-0.69833 z m 7.43741,-0.80246 c 2.7112,-0.42753 4.99136,-0.81883 5.06701,-0.86956 0.0757,-0.0507 -0.0824,-0.79721 -0.35132,-1.65887 -1.28556,-4.11952 -5.84381,-7.13253 -11.9405,-7.89271 -3.96008,-0.49376 -8.78283,0.43912 -11.85519,2.29319 -1.66587,1.00529 -3.46012,2.56321 -3.46012,3.00436 0,0.15898 1.28894,1.02009 2.86431,1.91358 l 2.86431,1.62451 4.7278,0.7412 c 3.74641,0.58735 4.87967,0.8583 5.4594,1.30533 0.40237,0.31028 0.94832,0.50838 1.21322,0.44022 0.26489,-0.0681 2.69988,-0.47372 5.41108,-0.90125 z m -28.442323,-6.4136 c -0.28643,-0.12411 -0.364548,-0.22564 -0.173593,-0.22564 0.190952,0 0.58154,0.10156 0.86797,0.22564 0.286432,0.12411 0.364548,0.22565 0.173595,0.22565 -0.190954,0 -0.58154,-0.10157 -0.867972,-0.22565 z m -2.777508,-0.69833 c -0.286432,-0.12411 -0.364548,-0.22564 -0.173595,-0.22564 0.190954,0 0.58154,0.10156 0.867972,0.22564 0.28643,0.12411 0.364548,0.22566 0.173593,0.22566 -0.190952,0 -0.58154,-0.10156 -0.86797,-0.22566 z m -2.348867,-0.86152 c -0.795461,-0.34581 -1.388317,-0.66762 -1.317459,-0.71513 0.152457,-0.10222 2.971949,1.06508 2.971949,1.23042 0,0.18623 -0.143902,0.14141 -1.65449,-0.51529 z"
       id="path1526"
       inkscape:connector-curvature="0"
       sodipodi:nodetypes="ccssccsccccccsccsscscccsccsccscscccccccscsccsscccscccccccccccccccccccccsssscsccccssscccccscssccccccscccccscccccsccccccccccccscccccccccccsccccccccccccscsccccsccsssscsccssccssccsscccscccccccscsccccsscccsccsccccssccccscscsccscscccsc" />
  </g>
</svg>
