<?xml version="1.0" encoding="UTF-8" standalone="no"?>
<svg
   sodipodi:docname="bg-trace-2.svg"
   inkscape:version="1.2.1 (9c6d41e, 2022-07-14)"
   id="svg8"
   version="1.1"
   viewBox="0 0 338.66666 190.5"
   height="190.5mm"
   width="338.66666mm"
   xmlns:inkscape="http://www.inkscape.org/namespaces/inkscape"
   xmlns:sodipodi="http://sodipodi.sourceforge.net/DTD/sodipodi-0.dtd"
   xmlns:xlink="http://www.w3.org/1999/xlink"
   xmlns="http://www.w3.org/2000/svg"
   xmlns:svg="http://www.w3.org/2000/svg"
   xmlns:rdf="http://www.w3.org/1999/02/22-rdf-syntax-ns#"
   xmlns:cc="http://creativecommons.org/ns#"
   xmlns:dc="http://purl.org/dc/elements/1.1/">
  <defs
     id="defs2">
    <linearGradient
       inkscape:collect="always"
       id="linearGradient1338">
      <stop
         style="stop-color:#e9ecef;stop-opacity:1"
         offset="0"
         id="stop1334" />
      <stop
         style="stop-color:#b7e1df;stop-opacity:1"
         offset="1"
         id="stop1336" />
    </linearGradient>
    <linearGradient
       inkscape:collect="always"
       id="linearGradient7926">
      <stop
         style="stop-color:#e9ecef;stop-opacity:1"
         offset="0"
         id="stop7922" />
      <stop
         style="stop-color:#f9d2e6;stop-opacity:1"
         offset="1"
         id="stop7924" />
    </linearGradient>
    <linearGradient
       inkscape:collect="always"
       xlink:href="#linearGradient1338"
       id="linearGradient3577"
       x1="749.97656"
       y1="174.0146"
       x2="771.64532"
       y2="174.0146"
       gradientUnits="userSpaceOnUse" />
    <linearGradient
       inkscape:collect="always"
       xlink:href="#linearGradient7926"
       id="linearGradient6449"
       x1="801.0957"
       y1="239.19792"
       x2="840.26202"
       y2="239.19792"
       gradientUnits="userSpaceOnUse" />
    <linearGradient
       inkscape:collect="always"
       xlink:href="#linearGradient1338"
       id="linearGradient6779"
       x1="712.55859"
       y1="305.90469"
       x2="730.75732"
       y2="305.90469"
       gradientUnits="userSpaceOnUse" />
    <linearGradient
       inkscape:collect="always"
       xlink:href="#linearGradient1338"
       id="linearGradient7028"
       x1="827.55859"
       y1="331.02148"
       x2="844.37109"
       y2="331.02148"
       gradientUnits="userSpaceOnUse" />
    <linearGradient
       inkscape:collect="always"
       xlink:href="#linearGradient1338"
       id="linearGradient7232"
       x1="882.29492"
       y1="389.42642"
       x2="913.64703"
       y2="389.42642"
       gradientUnits="userSpaceOnUse" />
    <linearGradient
       inkscape:collect="always"
       xlink:href="#linearGradient1338"
       id="linearGradient7481"
       x1="552.25"
       y1="404.51285"
       x2="612.69574"
       y2="404.51285"
       gradientUnits="userSpaceOnUse" />
  </defs>
  <sodipodi:namedview
     inkscape:window-maximized="1"
     inkscape:window-y="38"
     inkscape:window-x="0"
     inkscape:window-height="835"
     inkscape:window-width="1512"
     showgrid="false"
     inkscape:document-rotation="0"
     inkscape:current-layer="layer1"
     inkscape:document-units="px"
     inkscape:cy="441.34611"
     inkscape:cx="563.9959"
     inkscape:zoom="0.51773426"
     inkscape:pageshadow="2"
     inkscape:pageopacity="0.0"
     borderopacity="1.0"
     bordercolor="#666666"
     pagecolor="#ffffff"
     id="base"
     inkscape:pagecheckerboard="0"
     inkscape:showpageshadow="0"
     inkscape:deskcolor="#d1d1d1" />
  <metadata
     id="metadata5">
    <rdf:RDF>
      <cc:Work
         rdf:about="">
        <dc:format>image/svg+xml</dc:format>
        <dc:type
           rdf:resource="http://purl.org/dc/dcmitype/StillImage" />
      </cc:Work>
    </rdf:RDF>
  </metadata>
  <g
     inkscape:groupmode="layer"
     id="layer2"
     inkscape:label="Background"
     sodipodi:insensitive="true" />
  <g
     transform="translate(235.10118,119.44048)"
     id="layer1"
     inkscape:groupmode="layer"
     inkscape:label="Foreground">
    <g
       id="g486"
       transform="matrix(1.1576246,0,0,1.1576216,37.039946,12.386626)">
      <path
         inkscape:connector-curvature="0"
         id="path907"
         d="m -53.984144,-5.3483765 c 0,-0.208508 0.364635,-1.02259 0.8103,-1.809068 0.44568,-0.78648 0.734445,-1.505822 0.64173,-1.598542 -0.0927,-0.09272 -0.701085,-0.212584 -1.351905,-0.266363 -1.000875,-0.08271 -1.249815,-0.03533 -1.614496,0.307277 -0.74565,0.700494 -1.78962,0.219335 -1.21176,-0.558489 0.1251,-0.1684 -0.04245,-0.271967 -0.583125,-0.360345 -16.74629,-2.7374425 -38.557421,-9.8243245 -54.1626,-17.5985295 l -1.61169,-0.802912 -2.75394,0.321131 c -2.49302,0.290705 -12.00136,1.174406 -18.33128,1.703706 -4.97084,0.415651 -13.70845,0.988284 -18.4547,1.209456 -4.77503,0.222513 -4.9325,0.243695 -8.83047,1.18778 -5.68249,1.376296 -9.29834,2.220994 -11.01328,2.572812 -0.60028,0.12315 -2.5648,0.532965 -4.36563,0.910714 -7.49649,1.572492 -11.27622,2.28274 -19.94297,3.747479 -7.88573,1.332741 -15.36146,2.35778 -27.48361,3.768423 -4.09353,0.476361 -11.03048,1.003476 -10.6164,0.806703 0.1092,-0.05186 2.92199,-0.365305 6.25077,-0.696537 5.83704,-0.580815 11.30792,-1.214404 13.79143,-1.597203 0.65484,-0.100935 2.57472,-0.368221 4.2664,-0.593966 16.57292,-2.211563 41.54691,-7.205676 55.86017,-11.170502 0.98226,-0.272092 3.30399,-0.91248 5.15937,-1.423084 5.68713,-1.5651 13.04801,-3.824001 19.47405,-5.976195 2.08862,-0.699512 3.94154,-1.27184 4.11758,-1.27184 0.48074,0 0.38522,-0.303501 -0.17599,-0.559206 -0.27285,-0.12432 -0.4961,-0.157655 -0.4961,-0.07409 0,0.08358 -0.15723,0.163798 -0.34939,0.178273 -0.19217,0.0144 -2.40227,0.707098 -4.91134,1.53916 -8.19655,2.718165 -20.37533,6.273998 -25.49709,7.444383 -1.03683,0.236931 -2.28699,0.549175 -2.77812,0.693879 -4.37368,1.288625 -16.06286,3.851889 -27.97971,6.135525 -9.10407,1.744626 -25.61376,4.146562 -36.11563,5.254336 -7.30084,0.77012 -10.31876,0.99672 -10.31876,0.774785 0,-0.08483 0.37347,-0.15423 0.82994,-0.15423 0.45645,0 1.59498,-0.09036 2.53007,-0.200807 0.9351,-0.110445 4.20048,-0.469762 7.25641,-0.798482 3.05594,-0.328722 6.13668,-0.68454 6.84609,-0.790708 0.70941,-0.106166 2.67395,-0.373847 4.36564,-0.594843 5.45734,-0.712931 11.32485,-1.614393 16.96641,-2.606652 1.85538,-0.326333 3.90921,-0.678912 4.56405,-0.783509 0.65486,-0.104595 2.57474,-0.465509 4.26641,-0.802025 1.69168,-0.336516 3.70086,-0.728312 4.46485,-0.870655 2.07083,-0.385834 8.6782,-1.808497 14.03014,-3.020895 1.50849,-0.341727 1.36128,-0.346291 -11.21172,-0.347688 -15.81073,-0.0018 -27.3378,-0.481836 -43.10124,-1.795082 -5.28924,-0.440645 -12.09283,-1.11097 -12.18737,-1.200764 -0.2829,-0.268661 0.66429,-0.23122 5.26163,0.207984 11.89788,1.136657 24.77955,1.899824 38.67575,2.291321 6.21749,0.175168 21.37873,0.117511 24.71015,-0.09396 1.21778,-0.07731 1.5725,-0.05059 1.28516,0.0968 -0.47889,0.245638 -0.26781,0.210362 2.51418,-0.420186 1.98017,-0.448808 2.64654,-0.77141 1.59348,-0.77141 -0.34924,0 -0.63499,0.07012 -0.63499,0.155843 0,0.08571 -0.9153,0.13875 -2.03399,0.117855 -1.54008,-0.02876 -1.79306,-0.002 -1.0418,0.11064 0.5457,0.08174 0.84336,0.162651 0.66146,0.179799 -0.18191,0.01715 -0.37602,0.1428 -0.43139,0.279221 -0.0757,0.186541 -0.15198,0.17424 -0.30769,-0.0496 -0.17856,-0.256715 -1.18373,-0.291135 -7.30769,-0.25025 -15.43713,0.103065 -32.17702,-0.482654 -46.88736,-1.640555 -7.04493,-0.55453 -14.5036,-1.225301 -15.42852,-1.387512 -1.26249,-0.221413 -0.61916,-0.409033 0.89297,-0.260415 7.1506,0.70279 13.85899,1.258752 18.80196,1.558228 1.74624,0.105795 3.71078,0.236559 4.36562,0.29058 6.48567,0.535024 16.22795,0.784195 30.85705,0.789209 17.79579,0.0061 20.13342,-0.07278 22.72109,-0.766641 0.98227,-0.263388 2.67891,-0.717641 3.77031,-1.00945 1.90966,-0.510588 5.16366,-1.440188 10.41798,-2.976207 5.84081,-1.707472 15.31988,-4.915364 15.05381,-5.094489 -0.14865,-0.10005 -0.62741,-0.370075 -1.06397,-0.600049 -0.43656,-0.229972 -1.37418,-0.795248 -2.08359,-1.256172 -5.95935,-3.871915 -7.31428,-4.77167 -7.8039,-5.182205 -1.12827,-0.946043 -0.0342,-0.430038 2.47385,1.166779 4.99146,3.177914 9.41417,5.91491 10.78709,6.675595 6.84082,3.790258 9.93153,5.379893 10.45336,5.376452 0.37025,-0.0024 0.40226,-0.0408 0.16304,-0.195401 -0.26459,-0.170986 -0.26459,-0.193113 0,-0.19914 0.16371,-0.0038 -1.13109,-0.749709 -2.87735,-1.657732 -1.74624,-0.908024 -4.0986,-2.201146 -5.22744,-2.873604 -1.12884,-0.672459 -2.09793,-1.222652 -2.1535,-1.222652 -0.15939,0 -5.2691,-3.083355 -7.9693,-4.808924 -1.3485,-0.861755 -2.67801,-1.65283 -2.95447,-1.757943 -0.73011,-0.277584 -0.38765,-0.465536 0.36817,-0.202059 0.35069,0.12225 0.67563,0.18426 0.72209,0.137805 0.0465,-0.04645 -0.43682,-0.236829 -1.07397,-0.423038 -0.63714,-0.186207 -1.54158,-0.456943 -2.00984,-0.601638 -0.46827,-0.14469 -0.97474,-0.215748 -1.12551,-0.157893 -0.15076,0.05785 -0.47992,-0.0049 -0.73144,-0.13956 -0.25154,-0.13461 -0.72732,-0.310385 -1.05731,-0.3906 -1.60584,-0.390369 -10.97313,-3.213914 -13.20077,-3.979057 -1.19197,-0.409418 1.33725,0.096 3.22968,0.645393 1.11591,0.323959 3.90416,1.123675 6.19612,1.77715 2.29195,0.653477 4.56901,1.320189 5.06014,1.481581 0.49115,0.161396 2.72357,0.77732 4.96095,1.368724 2.23737,0.591405 5.09487,1.347506 6.35,1.680229 6.34601,1.682272 8.98773,2.254055 9.35484,2.024794 0.63416,-0.396038 0.69113,-0.24162 0.071,0.192282 -0.3363,0.235282 -0.42264,0.35539 -0.19843,0.276049 1.27314,-0.450535 1.48828,-0.549838 1.48828,-0.686935 0,-0.08326 -0.42415,-0.203199 -0.94258,-0.266526 -0.84803,-0.10359 -12.13922,-2.936514 -14.33711,-3.597137 -0.49113,-0.147615 -1.78593,-0.512432 -2.87735,-0.810689 -1.0914,-0.29826 -3.14523,-0.879625 -4.56406,-1.291924 -1.41882,-0.412298 -3.91914,-1.129553 -5.55625,-1.593895 -3.00339,-0.851868 -4.42354,-1.355699 -3.86161,-1.369984 0.16806,-0.0042 0.83779,0.133261 1.48827,0.305641 0.65049,0.172374 1.31665,0.344943 1.48036,0.383488 0.16371,0.03853 0.74415,0.209082 1.28986,0.378976 1.34379,0.41836 1.348,0.4033 0.10845,-0.38642 -0.88246,-0.562179 -1.28539,-0.692924 -2.18282,-0.708268 -0.60534,-0.01035 -1.99358,-0.139995 -3.08498,-0.288106 l -1.98438,-0.269291 2.08359,0.08691 c 1.14599,0.04779 2.46311,0.12972 2.92695,0.182051 0.46386,0.05233 0.84336,0.05811 0.84336,0.0129 0,-0.04526 -0.29599,-0.308058 -0.65778,-0.584004 -0.61072,-0.465824 -0.85564,-0.509351 -3.42304,-0.608372 -1.5209,-0.05865 -3.666,-0.196173 -4.76691,-0.305592 -2.30255,-0.228844 -3.66894,-0.310825 -8.21789,-0.49306 -1.80083,-0.07213 -3.54212,-0.160629 -3.86954,-0.196639 -0.67152,-0.07386 -12.34533,-0.450113 -21.03437,-0.677957 l -5.75469,-0.150902 4.68756,-0.03126 c 7.41296,-0.04942 23.71673,0.483032 29.33896,0.95818 1.25208,0.10581 2.34539,0.12351 2.42957,0.03933 0.0841,-0.08418 1.02429,-0.04734 2.08911,0.08187 2.00059,0.242766 6.9277,0.534783 6.78135,0.401914 -0.0455,-0.04134 -1.17765,-0.759273 -2.51582,-1.595408 -2.82678,-1.766275 -5.95306,-3.474825 -10.61424,-5.800797 -1.82811,-0.912242 -3.32382,-1.704601 -3.32382,-1.760798 0,-0.388531 5.23076,2.029159 9.20214,4.253288 1.1867,0.66459 2.18891,1.208348 2.22714,1.208348 0.33297,0 10.06849,6.372891 10.29472,6.738938 0.0702,0.113505 0.0105,0.209093 -0.13215,0.212412 -0.77706,0.01806 1.6152,0.740525 3.51055,1.060207 0.32742,0.05523 1.6515,0.418149 2.94239,0.806499 1.29088,0.388353 3.16612,0.922886 4.16718,1.187854 2.81784,0.745842 9.81276,2.565868 13.3295,3.468237 l 3.175,0.814679 1.78593,-0.686852 c 0.98228,-0.377769 2.97723,-1.168182 4.43324,-1.756472 l 2.64729,-1.069616 -1.55589,-0.243626 c -0.85574,-0.133995 -4.23479,-0.679991 -7.509,-1.213323 -5.61747,-0.915023 -9.80931,-1.513453 -13.89064,-1.983041 -0.98226,-0.11301 -2.41101,-0.291352 -3.175,-0.3963 -0.76398,-0.10494 -2.81781,-0.325813 -4.56405,-0.490815 -1.74626,-0.165003 -3.39825,-0.347793 -3.6711,-0.4062 -0.46913,-0.100425 -0.46374,-0.08484 0.0991,0.286669 0.98755,0.651722 1.60204,1.202286 1.34712,1.206966 -0.13215,0.0024 -0.98054,-0.501875 -1.88517,-1.120671 -8.25937,-5.649691 -10.80295,-7.182495 -17.79131,-10.721332 -3.82579,-1.93733 -3.99185,-1.982651 -6.06221,-1.654475 -0.66378,0.10521 -2.63564,0.332091 -4.38189,0.504164 -3.10583,0.306045 -6.2052,0.64675 -10.05335,1.105143 -2.18489,0.260262 -2.98602,0.152972 -1.35681,-0.18171 1.2777,-0.262469 11.64353,-1.420406 18.05783,-2.017186 9.14388,-0.850734 10.7532,-0.983204 16.66875,-1.372063 7.87757,-0.517833 13.00414,-0.761441 21.6297,-1.027821 13.14966,-0.406094 36.472341,0.280831 51.49453,1.516676 1.964536,0.161618 4.598791,0.349388 5.853917,0.417267 1.25511,0.06788 2.408475,0.190328 2.563035,0.272108 0.396106,0.209592 2.127061,-0.396627 1.773046,-0.620963 -0.14745,-0.09345 -0.58065,-0.158601 -0.96264,-0.14478 l -0.69453,0.02512 0.79374,0.142125 c 0.59403,0.106365 0.668925,0.154955 0.29766,0.19313 -0.730965,0.07516 -1.218781,3.96e-4 -1.885156,-0.288692 -1.519425,-0.659291 -23.443836,-1.938372 -39.495652,-2.304198 -22.79449,-0.519494 -49.73366,0.98233 -75.28032,4.196781 -4.88695,0.614911 -5.55441,0.669592 -4.88187,0.399955 0.764,-0.30631 13.74116,-1.998538 15.32615,-1.998538 0.8295,0 0.831,-0.280949 0.003,-0.587673 -0.3547,-0.131415 -0.95746,-0.374871 -1.33945,-0.540999 -2.32298,-1.010262 -13.20535,-4.845146 -15.37891,-5.419443 -0.32742,-0.0865 -2.47054,-0.695495 -4.7625,-1.353298 -3.57331,-1.02556 -7.64807,-2.069338 -11.75742,-3.011757 -0.57299,-0.131415 -1.0418,-0.311102 -1.0418,-0.399321 0,-0.08822 0.42416,-0.03831 0.94257,0.110925 0.51842,0.149235 3.17501,0.80829 5.90353,1.464579 2.72851,0.656294 5.7646,1.414884 6.74686,1.685758 3.26919,0.901526 5.15423,1.454922 5.65548,1.660293 0.27285,0.111795 1.56765,0.537648 2.87735,0.946349 2.07856,0.648641 5.12481,1.717448 10.12031,3.550821 0.76398,0.280388 1.9531,0.78506 2.64249,1.121495 0.98388,0.480149 1.43197,0.591212 2.0836,0.516436 0.45659,-0.0524 2.75004,-0.281939 5.09657,-0.510094 2.34653,-0.228156 4.7129,-0.463983 5.2586,-0.524058 2.50635,-0.275924 13.13085,-0.973264 21.27866,-1.396625 19.73747,-1.02557 48.138701,-0.299979 70.526537,1.801801 l 3.103636,0.291367 1.361221,-0.474223 c 0.748665,-0.260825 2.78997,-0.984331 4.536211,-1.607791 12.141843,-4.334988 24.200122,-7.899411 33.645726,-9.945678 l 2.491008,-0.539647 -0.08266,-0.56336 c -0.07155,-0.48748 -0.01746,-0.56336 0.40134,-0.56336 0.266203,0 0.675838,0.204179 0.910272,0.453731 0.403364,0.42936 0.50034,0.443493 1.805386,0.263116 l 1.379121,-0.190615 -0.780813,-1.55296 c -0.429458,-0.854129 -0.860762,-1.552961 -0.958453,-1.552961 -0.09771,0 -0.13095,-0.178594 -0.07386,-0.396875 0.12522,-0.478823 0.957242,-0.529212 1.534081,-0.09291 0.211872,0.16024 0.630753,0.291345 0.93087,0.291345 0.590054,0 0.847745,0.267707 0.859374,0.892731 0.0051,0.281032 0.1524,0.405899 0.503476,0.427169 0.272851,0.01653 0.614442,0.03885 0.759103,0.0496 0.174962,0.01305 0.241379,0.235424 0.198437,0.664477 -0.07374,0.736497 -0.247551,0.709743 2.856628,0.439684 1.2920865,-0.11241 1.8074686,-0.08676 2.0339852,0.10125 0.8556617,0.710125 -0.1974661,1.426536 -2.6234842,1.784704 -1.820902,0.268829 -2.13487,0.44527 -1.786076,1.00376 0.315198,0.504701 0.06353,0.914401 -0.649268,1.056959 -0.505758,0.101145 -0.605016,0.197083 -0.491113,0.474701 0.275371,0.671194 0.192822,0.902258 -0.393979,1.102637 -0.325536,0.111165 -0.756165,0.410987 -0.956985,0.66628 -0.384531,0.488856 -1.328379,0.642387 -1.328658,0.216123 -8e-5,-0.136425 0.14652,-0.986969 0.325795,-1.890094 0.179268,-0.903125 0.279778,-1.688218 0.223341,-1.744648 -0.177225,-0.177236 -2.626836,0.293686 -2.702084,0.519462 -0.0394,0.11823 -0.271383,0.44717 -0.5155,0.730971 -0.525127,0.610486 -1.101706,0.50155 -1.101706,-0.208152 v -0.471711 l -1.438673,0.271176 c -1.593374,0.300338 -7.946391,1.834593 -10.269144,2.479998 -3.861881,1.073078 -5.773917,1.622339 -7.143747,2.05215 -8.410352,2.638899 -11.701218,3.726332 -17.3633,5.737534 -1.82232,0.647305 -1.916251,0.705026 -1.150155,0.706865 0.458835,0.0012 2.78055,0.220911 5.159386,0.488471 28.142386,3.165296 58.0031491,4.641031 78.243145,3.866814 6.314303,-0.241534 5.766794,-0.167233 5.705933,-0.774321 -0.07088,-0.706737 0.615335,-0.770565 1.231622,-0.114555 0.42295,0.450213 0.628213,0.504347 1.912283,0.504347 h 1.438494 l -0.776765,-1.817364 c -0.589834,-1.380047 -0.723582,-1.881425 -0.555802,-2.083594 0.319503,-0.384974 0.661709,-0.329774 1.303496,0.21026 0.311467,0.262071 0.787122,0.507638 1.057036,0.545703 0.395705,0.05581 0.492028,0.184493 0.497384,0.664524 0.006,0.526178 0.08653,0.606836 0.694532,0.694532 0.634961,0.09159 0.687884,0.152652 0.687884,0.793751 v 0.694531 l 2.182814,0.04026 c 3.045023,0.05617 2.907764,0.02052 2.837834,0.736952 -0.07787,0.797949 -0.869474,1.081518 -3.061592,1.096743 -1.180963,0.0083 -1.678942,0.0909 -1.859837,0.308856 -0.170676,0.205653 -0.178198,0.297656 -0.02428,0.297656 0.241062,0 0.29575,0.571001 0.10281,1.073767 -0.08205,0.213832 -0.266423,0.275701 -0.584023,0.195984 -0.664824,-0.16686 -0.934501,0.05024 -0.671889,0.540915 0.272555,0.509271 -0.07337,0.967461 -0.730389,0.967461 -0.258564,0 -0.58164,0.178594 -0.717966,0.396875 -0.321171,0.514281 -1.343026,0.552027 -1.342987,0.0496 2e-5,-0.190996 0.212348,-1.035353 0.471845,-1.876346 0.259478,-0.840997 0.423188,-1.577697 0.363776,-1.63711 -0.172125,-0.172124 -1.268789,-0.1233 -2.039462,0.09078 -0.389236,0.108135 -0.902117,0.420173 -1.139705,0.693425 -0.23759,0.273252 -0.621288,0.496822 -0.852687,0.496822 -0.358676,0 -0.407234,-0.0918 -0.329327,-0.622657 l 0.09139,-0.622658 -1.904426,0.12438 c -7.083685,0.462642 -26.163753,0.328122 -38.9130081,-0.274344 -15.5172009,-0.733267 -36.8474759,-2.542704 -50.2592199,-4.263466 l -2.336535,-0.299786 -3.517366,1.314794 c -5.467457,2.043744 -16.90538,6.58515 -20.682201,8.211831 -0.49113,0.211532 -2.812861,1.205128 -5.159387,2.207991 -8.213732,3.510411 -9.62149,4.137637 -9.6799,4.312891 -0.0324,0.09714 0.41338,0.239045 0.9906,0.31535 1.082873,0.143145 4.904499,0.838551 10.525391,1.915252 1.77324,0.339669 4.340281,0.825831 5.704546,1.08036 1.364251,0.254528 4.891487,0.953561 7.838283,1.55341 2.946795,0.599847 6.072181,1.235622 6.945317,1.412831 0.87312,0.177209 2.30187,0.503432 3.17499,0.72494 l 1.587511,0.402744 5.457031,-0.708495 c 3.001366,-0.389672 6.216047,-0.798002 7.143752,-0.907402 4.149002,-0.48927 7.171502,-0.818487 8.731248,-0.95103 1.643985,-0.139695 1.688295,-0.15692 1.748595,-0.679557 0.08835,-0.765203 0.673111,-0.881078 1.337806,-0.265071 0.56247,0.521281 1.12803,0.606283 2.511796,0.377515 l 0.73647,-0.121755 -0.29769,-0.712466 c -0.163725,-0.391857 -0.361185,-0.760244 -0.43881,-0.818639 -0.07755,-0.0584 -0.170401,-0.240118 -0.206176,-0.40383 -0.03585,-0.163711 -0.2001,-0.583383 -0.365145,-0.932603 -0.16506,-0.349221 -0.24213,-0.728732 -0.171285,-0.84336 0.21015,-0.340039 1.009606,-0.237635 1.385251,0.177439 0.19206,0.212219 0.630045,0.413138 0.97332,0.446484 0.54609,0.05306 0.62493,0.135091 0.630285,0.655946 0.006,0.544403 0.07035,0.600649 0.757755,0.657713 0.715126,0.05937 0.748546,0.09309 0.688396,0.694532 l -0.06315,0.632132 2.214051,-0.06642 c 2.44874,-0.07345 3.109219,0.107115 3.006984,0.822129 -0.08606,0.601892 -0.805042,0.887197 -2.809875,1.115 -0.950238,0.10797 -1.80864,0.24633 -1.907535,0.307458 -0.09885,0.06113 -0.13035,0.415987 -0.0699,0.788581 0.10545,0.649358 0.0801,0.683028 -0.608386,0.812199 -0.81171,0.152279 -0.808155,0.146955 -0.47025,0.701516 0.215055,0.352979 0.18432,0.459311 -0.23115,0.799738 -0.263565,0.215947 -0.618015,0.339358 -0.787695,0.274245 -0.16968,-0.06511 -0.24729,-0.05717 -0.172455,0.01766 0.201195,0.201199 -0.73992,0.877113 -1.221255,0.877113 -0.51945,0 -0.52119,-0.240771 -0.01695,-2.344212 0.21753,-0.907325 0.39549,-1.666991 0.39549,-1.688149 0,-0.05639 -1.850566,0.0762 -2.083591,0.149281 -0.1092,0.03423 -0.28773,0.09329 -0.396885,0.131235 -0.1092,0.03795 -0.40728,0.317208 -0.66255,0.620577 -0.608655,0.723357 -1.22259,0.738366 -1.22259,0.02989 v -0.521691 l -1.835551,0.141765 c -1.77966,0.137445 -3.801376,0.363313 -9.177738,1.025349 -5.790946,0.713087 -6.336406,0.796558 -5.953126,0.910985 0.60537,0.180726 3.572131,0.853195 7.639847,1.731708 4.386106,0.947276 14.944219,3.331619 18.553912,4.19004 2.783265,0.661888 2.56929,0.657056 8.235159,0.185921 2.904054,-0.241481 9.643866,-1.069566 12.203909,-1.499429 2.7155187,-0.455973 7.12492,-1.308308 7.2931165,-1.409755 0.082155,-0.04956 0.061695,-0.253893 -0.045435,-0.454091 -0.1436701,-0.26844 -0.1122,-0.432546 0.119835,-0.625122 0.2647756,-0.21975 0.4387051,-0.189725 1.0976373,0.189506 0.7266392,0.418207 0.8607633,0.433225 1.86400406,0.208713 1.34165588,-0.300251 1.37284989,-0.540433 0.28725758,-2.211128 -0.96033924,-1.477941 -1.01671524,-1.936391 -0.23812507,-1.936391 0.30559359,0 0.66051919,0.10491 0.78874972,0.233117 0.12820504,0.12822 0.52558215,0.254485 0.88304725,0.280605 0.35744556,0.02612 0.71096116,0.05515 0.78557426,0.06454 0.074595,0.0095 0.16389,0.262618 0.198438,0.562755 0.04866,0.422909 0.1744261,0.552467 0.5588792,0.575759 0.2728516,0.01653 0.6077147,0.03885 0.7441412,0.0496 0.136425,0.0108 0.2480461,0.241095 0.2480461,0.511868 0,0.676964 0.6378376,0.800997 2.1303261,0.414256 1.3842214,-0.358687 2.7487372,-0.405838 2.9368373,-0.10149 0.175596,0.284133 0.2638426,1.166644 0.113505,1.135219 -0.06627,-0.0138 -0.3437521,0.07951 -0.6166051,0.207479 -0.2728516,0.127965 -1.2436474,0.407416 -2.1573337,0.620995 -0.9136847,0.213581 -1.7139634,0.441067 -1.778417,0.50552 -0.064455,0.06446 0,0.30408 0.1421851,0.532503 0.3399046,0.544289 -0.03963,1.350867 -0.5703482,1.212081 -0.3962401,-0.10362 -0.7151297,0.242514 -0.4018171,0.43615 0.110925,0.06855 0.2016721,0.335519 0.2016721,0.593258 0,0.349797 -0.1383751,0.499082 -0.5457032,0.58877 -0.3186901,0.07018 -0.6863162,0.365663 -0.8837417,0.710315 -0.2424511,0.423273 -0.4881557,0.590144 -0.8689188,0.590144 -0.52141364,0 -0.52865714,-0.0177 -0.4061011,-0.99219 0.068625,-0.545703 0.18093455,-1.438671 0.24955507,-1.984375 0.14301003,-1.137105 0.078105,-1.168095 -1.55080994,-0.740313 -0.69905573,0.183587 -1.04564733,0.416307 -1.39604743,0.937378 -0.6180346,0.919094 -1.0710468,0.99591 -1.2434703,0.210858 -0.073245,-0.333498 -0.1651786,-0.606361 -0.2043106,-0.606361 -0.039135,0 -0.6347822,0.130635 -1.3236784,0.290285 -3.5231784,0.816513 -12.3234272,2.113951 -16.2958502,2.402529 -1.070531,0.07777 -1.874202,0.203551 -1.785938,0.279516 0.08826,0.07596 1.232039,0.381923 2.541727,0.679907 1.309688,0.297981 9.703597,2.374411 18.6531306,4.614286 8.9495336,2.239873 16.5174454,4.119206 16.8175814,4.176295 0.44849,0.08531 0.545704,0.03286 0.545704,-0.294371 0,-0.859617 0.881103,-0.693757 1.270933,0.239245 0.229811,0.550021 0.439996,0.691523 1.446749,0.974007 0.647838,0.181773 1.252418,0.330496 1.343521,0.330496 0.09109,0 0.107115,-0.89297 0.0356,-1.984377 l -0.130035,-1.984375 h 0.572233 c 0.44591,0 0.625477,0.128565 0.813476,0.582434 0.14238,0.343745 0.473928,0.663544 0.80901,0.780355 0.565347,0.197081 0.61839,0.42229 0.292655,1.242859 -0.09423,0.237432 0.03335,0.380014 0.479009,0.535381 0.61347,0.213854 0.840541,0.858699 0.398562,1.131852 -0.238125,0.14717 -0.14793,0.580146 0.126225,0.605979 0.10005,0.0094 0.315852,0.07153 0.479563,0.138003 0.163712,0.06648 0.967384,0.313648 1.785938,0.549271 1.771352,0.50989 2.023349,0.6864 1.944808,1.362196 -0.05238,0.450656 -0.162501,0.520516 -0.904955,0.574195 -0.4649,0.03361 -1.529081,-0.126481 -2.364821,-0.355763 -1.646753,-0.451781 -2.06504,-0.422827 -1.931273,0.133682 0.04752,0.197671 0.01825,0.457275 -0.06501,0.576898 -0.179883,0.258389 -1.324531,0.571375 -1.168955,0.319627 0.05892,-0.09533 -0.02419,-0.173319 -0.184686,-0.173319 -0.174983,0 -0.25275,0.125772 -0.194231,0.314194 0.171152,0.551187 -0.219115,0.896193 -0.957541,0.846462 -0.380543,-0.02563 -0.748546,0.04504 -0.817781,0.15705 -0.205998,0.333319 -1.491496,0.25269 -1.491496,-0.09355 0,-0.296706 1.107064,-1.983919 1.855213,-2.827413 0.217428,-0.245136 0.357743,-0.477272 0.311844,-0.51586 -0.0459,-0.03859 -0.663893,-0.215075 -1.373307,-0.392194 -1.250096,-0.312111 -1.306949,-0.309581 -1.844794,0.08215 -0.729695,0.531462 -1.228368,0.425911 -1.240056,-0.262465 -0.005,-0.294029 -0.05925,-0.58477 -0.12057,-0.646089 -0.06132,-0.06132 -0.771603,-0.29498 -1.578431,-0.519248 -2.228156,-0.619362 -22.6677605,-5.737658 -27.958343,-7.001075 -2.564806,-0.61249 -6.359924,-1.522003 -8.433596,-2.021142 -6.593525,-1.58708 -6.702883,-1.60343 -9.453267,-1.413292 -1.349145,0.09327 -6.158807,0.122055 -10.688148,0.06397 -13.778149,-0.176689 -24.440557,-1.204353 -38.397671,-3.700836 -4.989811,-0.89252 -4.884031,-0.890192 -9.921873,-0.21843 -2.510235,0.33472 -6.439307,0.834335 -8.731245,1.110252 -4.54863,0.547587 -7.01508,0.852362 -7.93751,0.980821 -0.32742,0.0456 -0.81855,0.09189 -1.0914,0.10287 -0.47694,0.01919 1.26843,0.853311 6.44921,3.082083 14.643871,6.299796 29.88032,11.016509 43.953924,13.606711 2.627116,0.483514 2.579686,0.485474 2.579686,-0.106588 0,-0.742571 0.881355,-0.690705 1.277401,0.07517 0.3474,0.671785 0.48618,0.736861 1.965705,0.921715 1.288305,0.160963 1.24971,0.240084 0.824865,-1.691417 -0.416085,-1.891606 -0.39153,-2.182815 0.184035,-2.182815 0.289695,0 0.651856,0.217509 0.908596,0.545703 0.23481,0.300137 0.620805,0.596144 0.857775,0.657792 0.348405,0.09064 0.426675,0.250169 0.409065,0.833706 -0.0195,0.646006 0.04005,0.735198 0.568305,0.851221 0.545145,0.119733 0.58164,0.181608 0.479265,0.812499 -0.1323,0.815251 0.02295,0.901242 2.251576,1.2470235 1.6362,0.253868 2.378101,0.623208 2.378101,1.183899 0,0.708516 -0.496771,0.881585 -2.038531,0.710194 -0.788775,-0.08768 -1.78971,-0.167288 -2.224321,-0.176901 -0.72738,-0.01609 -0.798585,0.02984 -0.89583,0.577837 -0.0927,0.522613 -0.190125,0.597547 -0.797325,0.613612 -0.447345,0.01185 -0.6717,0.10671 -0.63519,0.268598 0.1389,0.615581 -0.185295,1.002947 -0.839281,1.002947 -0.361275,0 -0.76803,0.133945 -0.9039,0.297656 -0.37449,0.45123 -1.38906,0.391736 -1.38906,-0.08145 z m 1.190625,-0.51386 c 0.1359,-0.163711 0.46461,-0.297656 0.730545,-0.297656 0.29091,0 0.431566,-0.08402 0.35313,-0.210942 -0.209625,-0.339175 0.516946,-0.979684 1.111321,-0.979684 0.426855,0 0.52572,-0.07747 0.45312,-0.355068 -0.05295,-0.202478 0.0867,-0.517506 0.32481,-0.733047 0.38787,-0.351014 0.534555,-0.361073 2.056486,-0.141024 1.94415,0.281093 2.908095,0.301838 2.908095,0.06259 0,-0.253457 -0.942885,-0.582857 -2.083605,-0.727915 -1.801051,-0.229029 -2.401831,-0.454027 -2.646571,-0.9911585 -0.314955,-0.69125 -0.290655,-0.880642 0.11655,-0.908168 0.19101,-0.01291 0.0957,-0.07989 -0.21192,-0.148828 -0.310635,-0.06963 -0.707565,-0.370983 -0.89298,-0.677959 -0.294105,-0.48695 -0.298395,-0.575005 -0.03615,-0.741103 0.25725,-0.162912 0.252915,-0.188905 -0.03195,-0.191532 -0.18129,-0.0016 -0.57243,-0.29161 -0.86922,-0.644311 l -0.539596,-0.641274 0.12015,0.591664 c 0.352336,1.734174 0.556306,3.30724 0.443476,3.420079 -0.07035,0.07033 -0.861706,0.02229 -1.758586,-0.106752 -1.394055,-0.200573 -1.695375,-0.314299 -2.076211,-0.783612 l -0.4455,-0.54899 -9.9e-4,0.632004 c -6e-4,0.347604 -0.09285,0.873445 -0.204975,1.1685385 -0.26205,0.689249 -0.10335,0.840028 0.402345,0.382345 0.369285,-0.334204 0.526726,-0.342324 2.099776,-0.108292 0.97959,0.145737 1.74132,0.359247 1.796715,0.503609 0.05295,0.137835 -0.30501,0.975906 -0.79536,1.862376 -0.807525,1.459902 -0.96048,2.082307 -0.322935,1.314112 z m -3.502561,-4.3592715 c 0.0615,-0.160217 0.0159,-0.350594 -0.1014,-0.423061 -0.1173,-0.07247 -1.564425,-0.381108 -3.215941,-0.685866 -11.132838,-2.054368 -23.306871,-5.559696 -35.1682,-10.126139 -6.920819,-2.664422 -15.784879,-6.524607 -15.614679,-6.8 0.058,-0.09402 -0.10635,-0.09896 -0.36574,-0.01095 -0.25925,0.08793 -0.68123,0.151038 -0.93776,0.140235 -0.65583,-0.02763 -0.322,0.222833 1.06173,0.796642 0.65485,0.27155 2.70868,1.181101 4.56407,2.021222 15.220085,6.891672 33.363191,12.544079 48.91485,15.239218 0.27285,0.04729 0.553515,0.09813 0.6237,0.1129985 0.0702,0.01486 0.1779,-0.1040635 0.23937,-0.2642775 z m 74.852588,-1.513613 c 0.07389,-0.119576 0.431979,-0.182665 0.795755,-0.140196 0.550663,0.06429 0.622557,0.03044 0.429478,-0.202208 -0.369273,-0.444935 0.539393,-1.078957 1.325722,-0.925029 0.44184,0.08649 0.531654,0.06464 0.32256,-0.0785 -0.249237,-0.170613 -0.238641,-0.254869 0.07577,-0.602286 0.572829,-0.632963 0.88894,-0.644939 2.985493,-0.113106 1.198522,0.304032 2.036742,0.42722 2.148245,0.315718 0.286603,-0.286605 -0.596047,-0.731081 -2.219545,-1.117701 -1.705232,-0.406084 -2.282269,-0.860842 -2.158901,-1.701421 0.05633,-0.383602 -0.002,-0.575674 -0.173693,-0.575674 -0.388777,0 -0.864511,-1.040083 -0.650577,-1.422363 0.133215,-0.23801 0.07916,-0.344638 -0.213439,-0.421152 -0.215483,-0.05635 -0.479941,-0.33434 -0.587693,-0.617752 -0.107745,-0.283413 -0.243225,-0.515296 -0.301049,-0.515296 -0.05781,0 -0.04659,0.892969 0.02493,1.984375 0.15137,2.309832 0.230406,2.247113 -2.063115,1.63711 -1.032907,-0.274719 -1.378705,-0.467288 -1.655287,-0.921792 l -0.349606,-0.574526 -0.14013,0.772964 c -0.07707,0.42513 -0.270749,1.03074 -0.430392,1.3458 l -0.290275,0.572833 0.606406,-0.431792 0.606385,-0.431792 1.694776,0.444494 c 1.865531,0.489286 1.977887,0.637165 1.242873,1.635943 -0.908406,1.234412 -1.533446,2.300762 -1.348581,2.300762 0.104235,0 0.250012,-0.09784 0.32391,-0.217413 z m -2.928938,-4.983024 c 0.0359,-0.185071 -0.120811,-0.344121 -0.396875,-0.402809 -0.250925,-0.05334 -2.554705,-0.640235 -5.119511,-1.304211 -11.2557147,-2.913881 -30.152329,-7.578247 -36.810166,-9.086075 -0.654843,-0.148305 -2.708672,-0.618261 -4.564063,-1.044348 -1.855388,-0.426088 -4.846839,-1.105544 -6.647665,-1.509903 -1.80081,-0.404359 -4.173511,-0.949244 -5.272666,-1.210854 -1.099155,-0.261612 -3.019036,-0.695522 -4.266406,-0.964246 -1.247371,-0.268725 -4.321787,-0.939441 -6.832022,-1.490483 -2.510236,-0.551043 -4.876607,-1.008608 -5.258597,-1.016812 -0.569115,-0.01215 -0.62286,-0.0457 -0.297645,-0.18546 0.3474,-0.14928 0.3528,-0.172281 0.04335,-0.184489 -0.19443,-0.0077 -0.404895,0.12 -0.467715,0.283708 -0.06285,0.16371 -0.305595,0.29629 -0.539475,0.294619 -0.355365,-0.0025 -0.376335,-0.0379 -0.12765,-0.215144 0.22401,-0.159626 0.12585,-0.181667 -0.39687,-0.08909 -0.38199,0.06767 -2.301886,0.34679 -4.266406,0.620276 -11.822734,1.645865 -15.07136,2.07124 -16.01303,2.096753 -0.91455,0.02478 -0.844395,0.04819 0.5349,0.17855 0.87312,0.08252 3.150196,0.419979 5.060147,0.749912 5.674126,0.98016 13.485258,1.875235 21.232821,2.433058 3.359536,0.241884 17.185714,0.556412 17.65337,0.401591 0.39435,-0.130545 -1.172131,-0.541659 -6.143987,-1.61242 -0.92769,-0.199793 -4.142386,-0.908389 -7.143752,-1.574656 -3.001366,-0.666269 -6.707192,-1.487029 -8.235152,-1.823914 -1.527976,-0.336884 -3.046021,-0.731202 -3.373441,-0.876264 -0.584386,-0.258906 -0.578926,-0.26171 0.297645,-0.152669 2.32332,0.289005 17.746835,3.651131 30.162514,6.575035 1.364259,0.321282 3.552032,0.828632 4.86172,1.127438 7.2241,1.648196 30.9087928,7.498874 39.389854,9.730221 1.364259,0.358932 2.569766,0.631433 2.678907,0.605554 0.10914,-0.02588 0.225148,-0.184674 0.257791,-0.352879 z m -181.38581,-7.619461 c -0.066,-0.06594 -0.23709,-0.07299 -0.38034,-0.01566 -0.15829,0.06334 -0.1113,0.110371 0.11985,0.119896 0.20919,0.0085 0.32639,-0.03828 0.26045,-0.104221 z m 11.46391,-0.872296 c -0.36435,-0.156568 -0.35622,-0.171935 0.0992,-0.187531 0.52755,-0.01806 1.31091,-0.399135 0.832,-0.404745 -0.45076,-0.0053 -2.11378,0.440466 -2.31036,0.619255 -0.1083,0.09846 0.22967,0.16552 0.79374,0.15751 0.7316,-0.01035 0.88098,-0.05746 0.58539,-0.184489 z m 3.07578,-0.158593 c 0,-0.08723 -0.33486,-0.12672 -0.74414,-0.08778 -1.27617,0.121441 -1.38012,0.199436 -0.29766,0.223354 0.57299,0.0126 1.0418,-0.04835 1.0418,-0.13557 z m 4.66329,-0.242238 c 15.44598,-1.018395 29.33978,-2.34514 46.930483,-4.481479 8.086742,-0.982112 8.383922,-1.028555 8.225177,-1.285404 -0.06195,-0.10026 0.02655,-0.182291 0.196695,-0.182291 0.17016,0 0.309375,0.08929 0.309375,0.198438 0,0.10914 0.14025,0.198438 0.311835,0.198438 0.277171,0 0.278746,-0.03308 0.0135,-0.297657 -0.39603,-0.396032 -1.3842,-0.377288 -5.088496,0.09652 -15.003589,1.919068 -34.399209,3.827948 -49.510169,4.872703 -2.51024,0.173553 -4.9659,0.384552 -5.45705,0.468884 l -0.89296,0.15333 0.69453,0.212559 c 0.90063,0.275634 0.79945,0.274542 4.2664,0.04596 z m -5.54318,-0.173316 c -0.0603,-0.0975 0.1236,-0.235789 0.40859,-0.307312 0.28497,-0.07152 0.4824,-0.165788 0.4387,-0.209473 -0.0437,-0.04368 -0.47308,0.02049 -0.95421,0.142621 -0.70723,0.179514 -0.80103,0.25092 -0.48969,0.372795 0.5343,0.209152 0.7253,0.209593 0.59661,0.0014 z m 2.81052,-0.934808 c -0.066,-0.06594 -0.23709,-0.07299 -0.38034,-0.01566 -0.15829,0.06334 -0.1113,0.11037 0.11985,0.11988 0.20919,0.0085 0.32639,-0.03828 0.26045,-0.10422 z m 6.99907,-0.480198 c 9.65956,-0.708512 25.40142,-2.157745 25.64045,-2.360521 0.0777,-0.0659 -1.39572,-0.948269 -3.27422,-1.960831 -1.87849,-1.012562 -3.86109,-2.096263 -4.40575,-2.408228 -0.98346,-0.563286 -0.99512,-0.564795 -1.68672,-0.218175 -1.09476,0.548674 -10.98838,3.775184 -17.06752,5.56607 -0.81855,0.241141 -1.89012,0.558991 -2.38125,0.706334 -0.49113,0.147345 -1.47339,0.441592 -2.18282,0.653887 -1.70919,0.511486 -1.34295,0.512954 5.35783,0.02146 z m 111.220412,0.03313 c -0.368042,-0.34469 -3.725706,-1.020638 -3.988101,-0.802865 -0.34329,0.2849 -13.280824,0.07307 -19.02683,-0.311547 -8.943033,-0.598596 -14.278324,-1.206023 -22.972552,-2.615433 -5.241586,-0.849708 -5.698981,-0.955286 -5.592481,-1.29086 0.1035,-0.326192 -0.0075,-0.365792 -1.038391,-0.368502 -0.818535,-0.0021 -1.06779,-0.05901 -0.85674,-0.195401 0.381735,-0.246689 0.23694,-0.245063 -0.9558,0.0108 -0.846075,0.181448 -1.47207,0.113745 -4.722661,-0.510819 -4.425797,-0.850351 -10.859596,-2.202402 -15.157476,-3.185303 -6.78885,-1.552576 -8.23616,-1.910016 -8.33276,-2.057923 -0.0555,-0.08493 -0.50268,0.02316 -0.99381,0.240197 l -0.89296,0.394603 1.38906,0.250608 c 0.76398,0.137835 2.17041,0.438929 3.12538,0.669098 4.07297,0.981665 5.36516,1.268846 12.154313,2.701226 8.837793,1.864607 8.222942,1.714715 7.735352,1.885753 -0.674595,0.236637 1.458376,0.617663 3.832756,0.684674 1.202656,0.03394 2.277301,0.117735 2.388076,0.186198 0.30426,0.188038 11.491968,2.03758 15.060034,2.489707 7.582952,0.960876 14.104624,1.512757 20.990046,1.776232 5.868527,0.224564 18.078569,0.258497 17.855545,0.04962 z m 7.589939,-0.148245 c -0.06594,-0.06594 -0.237093,-0.07299 -0.380345,-0.01566 -0.158295,0.06334 -0.111285,0.11037 0.119895,0.119895 0.209174,0.0085 0.32639,-0.03828 0.26045,-0.10422 z m 1.244363,-0.47238 c 0.927695,-0.1095 3.249415,-0.382924 5.159376,-0.607604 4.477465,-0.526718 12.2978883,-1.829766 13.6271826,-2.270577 0.1279501,-0.04244 0.1867501,-0.252627 0.1306651,-0.467102 -0.086715,-0.331573 -0.1920676,-0.364116 -0.7037792,-0.21736 -3.494287,1.002144 -18.1333625,2.964288 -22.1158655,2.964288 -0.83685,0 -1.456352,0.06697 -1.3767,0.14883 0.232728,0.239115 2.760941,0.815196 3.19552,0.728133 0.218281,-0.04374 1.155899,-0.169105 2.083595,-0.278607 z m 24.5061833,-0.913529 c 0.4235851,-0.10632 0.4487071,-0.15828 0.1978425,-0.409157 -0.3838771,-0.383865 -0.022005,-1.009619 0.7951982,-1.375126 0.3702451,-0.1656 0.4640267,-0.269196 0.2480476,-0.274027 -0.4222951,-0.0095 -0.4372171,-0.250405 -0.060585,-0.978734 0.2495761,-0.482618 0.5000236,-0.60008 1.9347665,-0.907397 0.9064428,-0.194159 1.9159746,-0.498136 2.2433962,-0.675506 l 0.5953126,-0.322493 -0.6559546,-0.06349 c -0.3607802,-0.03492 -1.2713704,0.07647 -2.0235471,0.247554 -0.7521782,0.17108 -1.5816875,0.311054 -1.843367,0.311054 -0.5564582,0 -1.2275344,-0.657011 -1.0755708,-1.053035 0.07683,-0.200226 -0.025485,-0.24909 -0.3797492,-0.181367 -0.5203636,0.09948 -1.26478231,-0.418445 -1.26478231,-0.879948 0,-0.14874 -0.20887506,-0.266902 -0.47180414,-0.266902 -0.25947757,0 -0.58295116,-0.13395 -0.7188212,-0.297657 -0.13587004,-0.16371 -0.32359209,-0.297655 -0.41717562,-0.297655 -0.09357,0 0.27791258,0.686321 0.82550124,1.525154 0.54760815,0.838835 0.96887123,1.66418 0.93612923,1.834102 -0.04068,0.211313 -0.58102513,0.427314 -1.70971845,0.68348 l -1.65022695,0.374526 -0.5871962,-0.434138 -0.5871962,-0.434137 0.3050971,0.73021 c 0.1677991,0.401617 0.3054361,1.054168 0.3058321,1.450117 v 0.719908 l 0.3870721,-0.634838 c 0.2684071,-0.440196 0.6180137,-0.692243 1.1402824,-0.822082 2.02078852,-0.502372 2.5294432,-0.594759 2.6986912,-0.490158 0.1663306,0.102795 0.1229551,0.904348 -0.180519,3.336141 l -0.099045,0.79375 0.3130561,-0.543181 c 0.1721836,-0.29875 0.5314157,-0.597984 0.7982733,-0.664962 z m -37.9465563,0.383448 c -0.1344,-0.05436 -0.40224,-0.05766 -0.59532,-0.0074 -0.19305,0.05031 -0.0831,0.09478 0.244275,0.09884 0.327435,0.004 0.4854,-0.03713 0.351045,-0.09149 z m -71.887771,-2.159067 c 2.36401,-0.279454 8.276533,-0.986621 12.650384,-1.513045 1.118701,-0.13464 2.033986,-0.296413 2.033986,-0.359491 0,-0.06308 -2.254741,-0.587171 -5.010542,-1.16465 -6.429468,-1.347298 -14.943048,-3.293707 -16.685718,-3.814757 l -1.35642,-0.405563 -1.42172,0.528318 c -0.78193,0.290574 -1.96098,0.737259 -2.62011,0.992632 -0.65913,0.25537 -1.6132,0.575251 -2.12017,0.710844 l -0.92177,0.246533 2.61627,1.421903 c 1.43895,0.782046 3.64319,1.971047 4.8983,2.642224 l 2.28204,1.220324 1.58749,-0.10602 c 0.87312,-0.05832 2.70371,-0.237975 4.06798,-0.399247 z m 31.15469,-2.783188 c 2.019105,-0.276239 5.501686,-0.762634 7.739072,-1.080875 4.112716,-0.58499 9.374672,-1.275255 15.180469,-1.991376 1.746255,-0.215393 3.889381,-0.480149 4.762501,-0.588345 2.777926,-0.344241 7.204427,-0.79199 7.829718,-0.79199 0.477045,0 0.60387,0.08568 0.60387,0.40794 0,0.379896 0.03075,0.372534 0.44649,-0.1071 0.3972,-0.458178 0.638175,-0.528377 2.182815,-0.635853 2.028361,-0.141135 1.960501,-0.248588 1.339456,2.120951 -0.490035,1.869649 -0.489075,1.956676 0.015,1.316605 0.2262,-0.28757 0.605715,-0.524222 0.84336,-0.525893 0.349845,-0.0024 0.375435,-0.03891 0.1344,-0.191532 -0.26229,-0.166098 -0.258015,-0.254153 0.03615,-0.741102 0.1854,-0.306978 0.58233,-0.608327 0.892965,-0.67796 0.30756,-0.06894 0.447571,-0.135915 0.311145,-0.14883 -0.354285,-0.03354 -0.298455,-0.645707 0.10365,-1.136482 0.275416,-0.336146 0.719881,-0.462858 2.259219,-0.644085 2.106593,-0.248007 2.548493,-0.365159 2.548493,-0.675635 0,-0.139995 -0.752078,-0.164494 -2.313088,-0.07535 -2.002398,0.11436 -2.362218,0.08765 -2.678914,-0.198949 -0.201195,-0.182082 -0.36774,-0.473491 -0.370095,-0.647572 -0.003,-0.174079 -0.292575,-0.450454 -0.644925,-0.614166 -0.39477,-0.18342 -0.664965,-0.469011 -0.704055,-0.744141 -0.03855,-0.271561 -0.201435,-0.446485 -0.415725,-0.446485 -0.19377,0 -0.51444,-0.179142 -0.712575,-0.398091 -0.628066,-0.693992 -0.564751,-0.264254 0.20169,1.369003 0.40914,0.871853 0.69474,1.713289 0.63465,1.869856 -0.0768,0.200137 -0.61866,0.327106 -1.824796,0.427575 -1.483875,0.1236 -1.767375,0.096 -2.099325,-0.204411 -0.36741,-0.332429 -0.383865,-0.330207 -0.383865,0.05183 0,0.351357 -0.172215,0.414535 -1.438666,0.527785 -6.981047,0.624269 -18.80081,2.115099 -32.974209,4.159048 -6.606827,0.952772 -8.082857,1.28974 -6.922727,1.580413 0.430725,0.10791 0.727785,0.07695 5.418407,-0.564783 z m -6.296612,0.179752 c -0.1344,-0.05436 -0.40224,-0.05766 -0.59532,-0.0074 -0.193065,0.05031 -0.0831,0.09479 0.244275,0.09884 0.32742,0.004 0.485385,-0.03712 0.351045,-0.09148 z m 3.289066,-1.047083 c 5.767216,-0.871115 8.535992,-1.261986 10.448958,-1.475096 0.502245,-0.05595 0.478305,-0.07097 -0.153195,-0.09605 -0.411691,-0.01635 -4.519352,-0.781977 -9.128133,-1.701386 -4.608796,-0.919409 -10.076253,-1.994547 -12.149928,-2.389195 -2.073676,-0.394648 -4.216802,-0.805171 -4.762502,-0.912274 -0.5457,-0.1071 -2.725996,-0.509265 -4.845094,-0.893693 -2.11908,-0.384428 -3.91873,-0.739652 -3.99921,-0.789387 -0.0806,-0.04974 -1.78459,0.581595 -3.78694,1.402956 -4.52654,1.856779 -4.958,2.030062 -5.32736,2.139531 -0.19337,0.05731 -0.1239,0.127575 0.19845,0.200568 0.27285,0.0618 1.65694,0.380042 3.07578,0.707223 6.00959,1.385808 12.223624,2.722356 19.446876,4.182742 1.52796,0.308922 3.16602,0.570947 3.640111,0.582273 0.47409,0.0114 3.778081,-0.419866 7.342187,-0.958212 z m -40.251834,-2.784651 c 6.01443,-2.245462 14.73486,-5.801464 19.29059,-7.866283 6.81618,-3.089332 20.877199,-8.941089 29.921916,-12.452565 17.747975,-6.890385 36.433795,-12.81421 47.525796,-15.066754 2.061845,-0.418718 2.389486,-0.538415 2.442626,-0.892394 0.0459,-0.305673 -0.0292,-0.389171 -0.297655,-0.33095 -0.197465,0.04283 -1.252003,0.263021 -2.343409,0.489325 -4.338738,0.899643 -13.096568,3.208947 -18.008215,4.748491 -1.064115,0.333546 -2.76075,0.864833 -3.770311,1.180637 -6.871337,2.149463 -22.342311,7.692475 -28.326953,10.149116 -0.49113,0.201605 -2.902155,1.169375 -5.357821,2.150601 -7.170917,2.865328 -14.416039,5.916441 -21.133596,8.899919 -8.605968,3.82218 -18.356498,7.733032 -23.366018,9.371907 -0.73671,0.241013 -1.33945,0.472719 -1.33945,0.514905 0,0.206193 1.11693,0.628792 1.28983,0.488019 0.1092,-0.08886 1.67184,-0.711643 3.47267,-1.383974 z m -3.77031,0.786896 c 0,-0.10914 0.084,-0.198438 0.18672,-0.198438 0.10275,0 0.24192,0.08929 0.30937,0.198438 0.0675,0.10914 -0.0165,0.198438 -0.18673,0.198438 -0.17015,0 -0.30936,-0.08929 -0.30936,-0.198438 z m 56.284497,0.09923 c 0.06285,-0.163711 0.26094,-0.305178 0.44025,-0.314372 0.179325,-0.0092 -1.23666,-0.317743 -3.146611,-0.685668 -1.909965,-0.367926 -3.829846,-0.760235 -4.266406,-0.871799 -1.300905,-0.332439 -14.425624,-2.882403 -23.018766,-4.472243 -4.487644,-0.830268 -4.872494,-0.919352 -4.759774,-1.101747 0.0589,-0.09549 -0.33951,0.02271 -0.88561,0.262672 -0.54611,0.239952 -0.99503,0.503252 -0.99759,0.585107 -0.003,0.08185 0.33018,0.150453 0.73947,0.152439 0.99648,0.0048 5.185753,0.711486 11.658195,1.966512 1.637116,0.317437 4.449962,0.857439 6.250787,1.199996 3.034201,0.577177 10.488618,2.068563 14.859199,2.972843 1.023856,0.211837 2.140066,0.343373 2.480476,0.292306 0.499005,-0.07487 0.542025,-0.05637 0.222045,0.09543 -0.350295,0.166183 -0.35538,0.189921 -0.04335,0.20223 0.194415,0.0077 0.404895,-0.12 0.467715,-0.283709 z m -35.845437,-6.758475 c 0,-0.04052 0.17859,-0.169239 0.39687,-0.286059 0.21926,-0.117345 0.39687,-0.13083 0.39687,-0.03012 0,0.10026 -0.17859,0.228979 -0.39687,0.286062 -0.21828,0.05707 -0.39687,0.07063 -0.39687,0.03012 z m 37.405483,6.659256 c 0.505665,-0.217292 -0.01605,-0.217292 -0.694531,0 -0.398805,0.127725 -0.418275,0.16002 -0.09915,0.164709 0.21828,0.0031 0.575476,-0.0709 0.793756,-0.164709 z m -57.447673,-0.906597 c 0.70941,-0.296843 1.85193,-0.736576 2.53893,-0.977185 l 1.24908,-0.437472 -2.34048,-0.544389 c -1.28729,-0.299415 -2.92094,-0.707157 -3.63035,-0.906098 -0.70941,-0.198938 -2.22745,-0.603171 -3.37344,-0.898297 -1.14597,-0.295126 -2.66402,-0.697755 -3.37343,-0.894729 -0.70942,-0.196976 -1.55773,-0.408296 -1.88517,-0.469601 -0.6876,-0.128745 -0.8151,-0.22951 1.86024,1.470304 2.19221,1.392848 2.15726,1.371376 4.39055,2.696824 1.03685,0.615354 2.06376,1.240333 2.28204,1.388839 0.45885,0.312179 0.55635,0.293882 2.28203,-0.428196 z m 16.55301,-6.660775 c -0.0569,-0.09193 0.0364,-0.113535 0.20718,-0.048 0.17078,0.06553 0.42516,0.02397 0.56532,-0.09236 0.1401,-0.116325 1.18827,-0.605464 2.32913,-1.086981 1.14084,-0.481515 2.61004,-1.117372 3.2649,-1.413013 1.465603,-0.66168 1.667188,-0.750213 5.357804,-2.353131 1.637116,-0.711033 3.869536,-1.667098 4.960937,-2.124587 1.091415,-0.45749 3.123616,-1.314136 4.516036,-1.903656 1.392405,-0.589518 2.580481,-1.071853 2.640181,-1.071853 0.0597,0 0.52779,-0.191013 1.04022,-0.424471 0.931725,-0.424482 4.620121,-1.897387 11.150823,-4.452901 3.276136,-1.281982 3.433036,-1.367027 2.778121,-1.505812 -0.812115,-0.172101 -9.862143,-0.839754 -16.965995,-1.251646 -12.150483,-0.704501 -15.261004,-0.783509 -30.956257,-0.786297 -14.28989,-0.0025 -16.92119,0.04665 -23.7133,0.443285 -11.93996,0.697245 -23.41919,1.59074 -23.41277,1.822354 10e-4,0.05673 1.72055,0.974666 3.81993,2.039863 6.0386,3.063895 13.23078,7.444487 15.16325,9.235581 0.50651,0.469452 0.97538,0.765443 1.04193,0.657757 0.0666,-0.107685 0.43184,-0.165878 0.81176,-0.129315 10.08766,0.970703 17.98541,2.007416 28.76484,3.775878 2.99871,0.491967 5.57128,0.894484 5.71679,0.894484 0.1455,0 0.20898,0.08997 0.141,0.199944 -0.0723,0.11709 0.0846,0.105075 0.37895,-0.02903 0.27637,-0.125925 0.45601,-0.304178 0.39921,-0.396107 z m -0.67801,-0.505197 c -0.27285,-0.04455 -2.41598,-0.390102 -4.76251,-0.767873 -2.34652,-0.377772 -5.02542,-0.821391 -5.95312,-0.985823 -4.27896,-0.758432 -13.96717,-2.016301 -20.6375,-2.679471 -4.39517,-0.436971 -6.11541,-0.743613 -4.34163,-0.773916 0.99087,-0.01694 9.10519,0.790593 12.97366,1.291112 1.30968,0.169452 3.05098,0.388172 3.86954,0.486041 4.96782,0.593976 20.04349,3.101041 20.32993,3.380843 0.19117,0.186757 -0.49571,0.209566 -1.47837,0.04908 z m 143.880026,-8.413419 c 0.265806,-0.0085 0.371673,-0.0607 0.235247,-0.115755 -0.671492,-0.270951 0.07755,-1.454126 0.923727,-1.459118 0.40384,-0.0024 0.45073,-0.04413 0.217288,-0.193457 -0.26412,-0.168966 -0.263305,-0.252381 0.0072,-0.740405 0.353874,-0.638381 0.890767,-0.792188 2.88181,-0.825561 0.862032,-0.0144 1.548785,-0.13173 1.7857,-0.304964 0.369252,-0.270012 0.361752,-0.287305 -0.18419,-0.424329 -0.313035,-0.07857 -1.305938,-0.0862 -2.206467,-0.01698 -1.478855,0.11367 -1.689379,0.0849 -2.175213,-0.297248 -0.351036,-0.276132 -0.504289,-0.551565 -0.441166,-0.79293 0.06417,-0.245405 -0.0085,-0.36983 -0.216357,-0.36983 -0.441582,0 -1.038841,-0.588122 -1.038841,-1.022945 0,-0.201365 -0.129885,-0.366119 -0.288627,-0.366119 -0.158749,0 -0.515937,-0.227301 -0.79375,-0.505113 -0.277812,-0.277812 -0.505123,-0.437444 -0.505123,-0.354737 0,0.08271 0.325894,0.93662 0.724198,1.897579 0.398323,0.960961 0.665023,1.806388 0.592674,1.878729 -0.07233,0.07234 -0.893763,0.171537 -1.825388,0.220434 -1.535648,0.0806 -1.736944,0.04844 -2.155012,-0.344309 l -0.461128,-0.433216 0.02445,1.287425 0.02444,1.287424 0.496093,-0.457352 c 0.404258,-0.372675 0.800736,-0.479385 2.141558,-0.576382 1.298993,-0.09398 1.66763,-0.06132 1.750657,0.15505 0.05784,0.150747 -0.1245,1.001172 -0.40523,1.889836 -0.621228,1.966526 -0.621249,1.966997 -0.05114,1.431413 0.252591,-0.237305 0.676752,-0.438515 0.942579,-0.447131 z m -5.609057,-2.864718 c 0.255171,-0.08252 0.430015,-0.277772 0.396877,-0.443205 -0.04963,-0.247841 -0.460774,-0.283842 -2.539684,-0.22239 -5.768223,0.170509 -31.3890106,0.03285 -36.0164159,-0.193511 -10.2444781,-0.501138 -19.1738691,-1.080695 -26.4914141,-1.719412 -1.800826,-0.157185 -4.345787,-0.377348 -5.655467,-0.489248 -2.264686,-0.193497 -4.452571,-0.416799 -14.485939,-1.47848 -5.208152,-0.551099 -5.853917,-0.58625 -5.853917,-0.318653 0,0.112561 0.1488,0.204655 0.330735,0.204655 0.181905,0 0.265995,0.06474 0.18687,0.143865 -0.0792,0.07913 2.875111,0.477219 6.564977,0.88466 9.758973,1.0776 19.363656,1.93966 30.422119,2.730502 3.74926,0.26813 13.4498007,0.779419 18.8515677,0.993617 5.0256104,0.199283 33.6260573,0.12222 34.2896913,-0.0924 z m -91.796895,-4.699931 c -0.185205,-0.185209 -0.291045,-0.185209 -0.47625,0 -0.185205,0.185208 -0.1323,0.238125 0.238125,0.238125 0.370425,0 0.42333,-0.05292 0.238125,-0.238125 z m 45.667109,-10.282107 c 0.33657,-0.0024 0.367745,-0.04239 0.143565,-0.184227 -0.389355,-0.246335 0.03514,-1.199203 0.600016,-1.346923 0.248404,-0.06495 0.361434,-0.21462 0.294282,-0.389619 -0.05997,-0.156279 0.02272,-0.538944 0.183774,-0.850364 0.308709,-0.596976 0.439141,-0.6443 2.759292,-1.001021 0.752516,-0.115695 1.5481314,-0.306659 1.76806,-0.424361 0.3514726,-0.188097 0.3616531,-0.235392 0.084105,-0.390717 -0.193932,-0.10854 -1.101686,-0.05866 -2.352794,0.12924 l -2.037041,0.30596 -0.490776,-0.490788 c -0.400248,-0.400237 -0.445869,-0.544919 -0.247272,-0.784198 0.203953,-0.245766 0.177264,-0.276092 -0.164367,-0.186753 -0.583367,0.152555 -1.463695,-0.471095 -1.338838,-0.948485 0.07637,-0.29204 -0.0049,-0.380024 -0.351393,-0.380024 -0.247908,0 -0.692925,-0.1905 -0.988934,-0.42333 -0.494665,-0.389109 -0.46474,-0.28752 0.370125,1.256545 0.499547,0.923933 0.90829,1.817644 0.90829,1.986026 0,0.332691 -0.396776,0.445414 -2.340156,0.664834 -1.132383,0.12786 -1.293673,0.09877 -1.730951,-0.312014 l -0.482202,-0.453003 0.193059,0.673146 c 0.106185,0.370232 0.194568,1.030925 0.196394,1.468208 l 0.0033,0.795061 0.400686,-0.625432 c 0.369411,-0.576642 0.531773,-0.644938 2.081213,-0.875457 0.924302,-0.13752 1.740139,-0.19044 1.812965,-0.117615 0.12273,0.12273 -0.229195,2.923596 -0.46113,3.669917 -0.05637,0.181412 0.09082,0.08427 0.327125,-0.215864 0.23628,-0.300136 0.623094,-0.547071 0.859552,-0.548742 z m -148.150183,45.115392 c 0.13635,-0.05505 0.35967,-0.05505 0.4961,0 0.1365,0.05505 0.0248,0.100095 -0.24804,0.100095 -0.27287,0 -0.38449,-0.04504 -0.24806,-0.100095 z m 26.34259,-17.331089 c -0.0675,-0.10914 -0.0281,-0.198438 0.0874,-0.198438 0.11565,0 0.21015,0.08929 0.21015,0.198438 0,0.109141 -0.0394,0.198439 -0.0874,0.198439 -0.0481,0 -0.14265,-0.08929 -0.21015,-0.198439 z m -97.78341,-3.5965 c 0.13455,-0.135616 0.29472,-0.196586 0.35581,-0.135496 0.061,0.0611 -0.049,0.172055 -0.24474,0.246575 -0.28281,0.107685 -0.30559,0.0849 -0.111,-0.11109 z m 91.33419,-0.582401 c 0,-0.115575 0.0892,-0.154959 0.19843,-0.08751 0.1092,0.06745 0.19844,0.162021 0.19844,0.21015 0,0.04814 -0.0892,0.08751 -0.19844,0.08751 -0.1092,0 -0.19843,-0.09457 -0.19843,-0.21015 z m -91.39218,-0.87031 c 0.21186,-0.169734 0.4723,-0.308604 0.57877,-0.308604 0.25212,0 0.1395,0.09167 -0.46788,0.380943 -0.46776,0.222776 -0.47409,0.218645 -0.11085,-0.07235 z m 3.85439,-0.01871 c 0.36724,-0.159438 0.76908,-0.282636 0.89296,-0.273772 0.31313,0.02239 -0.89631,0.561021 -1.26301,0.562477 -0.16371,5.96e-4 0.003,-0.12927 0.37005,-0.288705 z m 2.03628,-0.673422 c 0.38895,-0.24591 2.59167,-0.836188 2.7034,-0.724451 0.0679,0.06802 -1.35955,0.51924 -2.62926,0.831036 -0.33757,0.08291 -0.34866,0.06697 -0.0741,-0.10659 z m 72.9834,-0.288393 c -0.0455,-0.04213 -1.0203,-0.132465 -2.16627,-0.200739 -1.14598,-0.06828 -2.70867,-0.168383 -3.47266,-0.222469 -4.26151,-0.30169 -20.56233,-0.872083 -26.11698,-0.913876 -2.24973,-0.01694 -4.66074,-0.09539 -5.35782,-0.174359 -4.43421,-0.502349 18.29912,0.04283 33.35995,0.800018 4.09977,0.206118 4.96095,0.311204 4.96095,0.605366 0,0.174568 -1.03507,0.265507 -1.20717,0.106065 z m 1.85481,-0.264222 c 0.30164,-0.04561 0.74813,-0.04438 0.99219,0.0027 0.24407,0.0471 -0.003,0.08442 -0.54843,0.08293 -0.5457,-0.0016 -0.74539,-0.04003 -0.44376,-0.08563 z m -75.95469,-0.452918 c 0.0675,-0.10914 0.27364,-0.19707 0.45819,-0.195399 0.28918,0.0025 0.29442,0.02962 0.0379,0.195399 -0.38862,0.251143 -0.65132,0.251143 -0.4961,0 z m 4.56406,0.04863 c 0.26952,-0.282813 1.99376,-0.84571 2.53701,-0.828238 0.24176,0.0078 -0.0963,0.173912 -0.75108,0.36919 -0.65484,0.195279 -1.36921,0.425301 -1.58749,0.511164 -0.27453,0.107985 -0.3357,0.09192 -0.19844,-0.05211 z m 25.35764,-0.989234 c 0.63155,-0.03949 1.61381,-0.03913 2.18282,7.93e-4 0.569,0.03994 0.0523,0.07227 -1.14827,0.07182 -1.20055,-3.96e-4 -1.66609,-0.03313 -1.03455,-0.07263 z m -23.86937,-0.944546 c 0.90932,-0.350175 1.46249,-0.344469 0.69455,0.0072 -0.32744,0.149925 -0.77391,0.269824 -0.99219,0.266445 -0.25754,-0.0041 -0.15303,-0.10005 0.29764,-0.273611 z m 59.72972,-0.04218 c -0.60029,-0.169298 -2.922,-0.825725 -5.15939,-1.458727 -5.73823,-1.623464 -11.08033,-2.886024 -16.66875,-3.939511 -2.90402,-0.547446 -2.96921,-0.563967 -2.28203,-0.578401 1.2879,-0.02706 10.08721,1.735433 14.70328,2.94504 3.63291,0.951977 9.84492,2.799573 10.39906,3.092922 0.63919,0.338357 0.36482,0.321399 -0.99217,-0.06132 z m 4.56405,0.148695 c -5.86242,-1.855602 -11.13825,-3.383006 -15.47813,-4.481073 -3.4792,-0.880307 -3.8133,-0.955977 -6.9453,-1.573118 -0.92771,-0.182794 -1.77323,-0.416747 -1.87896,-0.51989 -0.34746,-0.33897 2.62776,0.263477 10.01489,2.027892 4.92499,1.176334 15.08126,4.311487 15.08126,4.655456 0,0.1077 -0.1916,0.08133 -0.79376,-0.109275 z m -37.25665,-0.347867 c 0.30015,-0.04547 0.79128,-0.04547 1.09142,0 0.30013,0.04547 0.0546,0.08266 -0.5457,0.08266 -0.60029,0 -0.84585,-0.0372 -0.54572,-0.08266 z m -24.95351,-0.348265 c 1.81053,-0.594484 8.42975,-2.254647 11.41016,-2.861777 0.49113,-0.10005 2.67891,-0.55062 4.86171,-1.001275 5.03481,-1.039463 10.69934,-2.003158 11.60484,-1.974305 0.7524,0.02397 -0.38112,0.270483 -3.96499,0.862281 -2.58058,0.426125 -9.86773,1.837324 -11.80703,2.2865 -0.87312,0.202231 -2.12328,0.474334 -2.77812,0.604678 -0.65486,0.130335 -3.08843,0.718234 -5.40796,1.306422 -4.02549,1.020791 -5.62794,1.338726 -3.91861,0.777476 z m 4.28293,0.209943 c 0.0455,-0.04511 1.69004,-0.449296 3.65456,-0.898192 1.96454,-0.448895 4.08651,-0.948471 4.71551,-1.110168 3.17677,-0.816658 16.82883,-3.26744 18.20124,-3.26744 1.14917,0 0.24474,0.208147 -3.86674,0.889887 -5.99756,0.99448 -11.82241,2.118354 -16.17266,3.120426 -6.04123,1.391586 -6.80897,1.54033 -6.53191,1.265487 z m 23.49832,-6.466426 -0.99219,-0.13608 0.89297,-0.02814 c 0.49114,-0.01548 1.02691,0.05842 1.19062,0.164223 0.16373,0.105795 0.20837,0.179699 0.0992,0.164223 -0.1092,-0.01548 -0.64492,-0.08937 -1.19062,-0.164223 z m -1.93476,-0.329859 c 0.13635,-0.05505 0.35967,-0.05505 0.4961,0 0.13635,0.05505 0.0248,0.100095 -0.24806,0.100095 -0.27285,0 -0.38446,-0.04505 -0.24804,-0.100095 z m 7.78866,-0.06702 -0.69453,-0.14619 0.85508,-0.02612 c 0.52533,-0.01605 0.80778,0.0504 0.73243,0.172315 -0.0675,0.10914 -0.13965,0.186682 -0.16054,0.172315 -0.0208,-0.0144 -0.35043,-0.09191 -0.73244,-0.172315 z m -8.76844,-0.135555 c 0.14325,-0.05732 0.3144,-0.05028 0.38034,0.01566 0.066,0.06594 -0.0513,0.112845 -0.26046,0.10422 -0.23117,-0.0095 -0.27819,-0.05654 -0.11985,-0.11988 z m 6.98251,-0.05571 c -0.38199,-0.08327 -1.34767,-0.262032 -2.14597,-0.397245 -0.79829,-0.13521 -1.41432,-0.282959 -1.36896,-0.328324 0.14595,-0.14589 4.50712,0.582409 4.50712,0.752653 0,0.184326 -0.0256,0.183627 -0.99219,-0.02709 z m -4.66327,-0.800918 -0.59532,-0.151481 0.63321,-0.02348 c 0.34827,-0.0129 0.68839,0.06582 0.75585,0.17496 0.13575,0.219604 0.0693,0.219604 -0.79374,1e-6 z m -11.15834,-0.13752 c 0.19306,-0.05031 0.46096,-0.04701 0.5953,0.0074 0.1344,0.05436 -0.0236,0.09552 -0.35104,0.09148 -0.32742,-0.004 -0.43734,-0.04852 -0.24426,-0.09884 z m 8.18177,-0.259361 c -0.35168,-0.151122 -0.33473,-0.172131 0.1488,-0.184489 0.30013,-0.0077 0.5457,0.07534 0.5457,0.184489 0,0.232908 -0.15252,0.232908 -0.69453,0 z m 1.14102,0.06165 c 0.19099,-0.0499 0.50353,-0.0499 0.69453,0 0.19099,0.04992 0.0348,0.09075 -0.34727,0.09075 -0.38199,0 -0.53826,-0.04085 -0.34726,-0.09075 z m -4.76251,-0.595313 c 0.191,-0.0499 0.50354,-0.0499 0.69453,0 0.191,0.0499 0.0348,0.09075 -0.34726,0.09075 -0.38199,0 -0.53826,-0.04085 -0.34727,-0.09075 z m -2.17903,-0.199164 c 0.19306,-0.05031 0.46096,-0.04701 0.5953,0.0073 0.1344,0.05436 -0.0236,0.09552 -0.35104,0.09149 -0.32742,-0.004 -0.43734,-0.04851 -0.24426,-0.09884 z m 32.16983,-2.329204 c -2.86473,-1.162721 -3.96757,-1.573652 -8.80759,-3.281816 -3.54724,-1.251905 -7.55897,-2.539624 -9.92188,-3.184794 -2.22141,-0.606539 -4.34247,-1.192255 -5.45703,-1.506928 -0.5457,-0.154063 -2.1084,-0.551477 -3.47267,-0.883136 -2.32054,-0.56414 -3.19938,-0.785348 -4.33096,-1.090128 -0.25379,-0.06836 -0.41397,-0.171755 -0.35595,-0.229772 0.0581,-0.05802 0.6675,0.03819 1.35441,0.213813 0.68691,0.175616 2.94556,0.730573 5.01923,1.233236 9.43971,2.288219 22.13796,6.427382 28.27736,9.217387 2.25001,1.022505 0.50782,0.65375 -2.30492,-0.487862 z m -35.39822,-9.442298 c -0.20942,-0.13728 -0.0918,-0.15734 0.39687,-0.06768 0.85582,0.157041 1.01725,0.269871 0.38034,0.265836 -0.26376,-0.0017 -0.6135,-0.09084 -0.77721,-0.198161 z m -1.43867,-0.327098 c 0.13635,-0.05505 0.35966,-0.05505 0.49608,0 0.1365,0.05505 0.0247,0.100095 -0.24804,0.100095 -0.27285,0 -0.38448,-0.04505 -0.24804,-0.100095 z m 3.47643,-0.601406 c 0.19307,-0.05031 0.46097,-0.04701 0.59531,0.0073 0.1344,0.05436 -0.0236,0.09552 -0.35105,0.09149 -0.32742,-0.004 -0.43734,-0.04853 -0.24426,-0.09884 z m -0.88435,-0.196477 c 0.14325,-0.05732 0.3144,-0.05028 0.38034,0.01566 0.066,0.06594 -0.0513,0.112845 -0.26045,0.10422 -0.23116,-0.0095 -0.27819,-0.05654 -0.11985,-0.11988 z m -1.64951,-0.261321 -0.39687,-0.170543 h 0.39687 c 0.21828,0 0.57548,0.07674 0.79376,0.170543 l 0.39687,0.170544 h -0.39687 c -0.21828,0 -0.57548,-0.07674 -0.79376,-0.170544 z m -6.69726,-0.131415 c 0.13635,-0.05505 0.35967,-0.05505 0.4961,0 0.13635,0.05505 0.0247,0.100095 -0.24806,0.100095 -0.27285,0 -0.38446,-0.04504 -0.24804,-0.100095 z m 5.55624,-0.198437 c 0.1365,-0.05505 0.35967,-0.05505 0.4961,0 0.13635,0.05505 0.0247,0.100095 -0.24804,0.100095 -0.27285,0 -0.38448,-0.04504 -0.24806,-0.100095 z m -5.14696,-0.996322 c 0.14325,-0.05733 0.3144,-0.05028 0.38034,0.01566 0.066,0.06594 -0.0513,0.112846 -0.26045,0.104221 -0.23118,-0.0095 -0.27819,-0.05655 -0.11985,-0.119896 z"
         style="fill:#f2f2f2;fill-opacity:1;stroke-width:0.198438" />
      <path
         id="rect2500"
         style="fill:url(#linearGradient3577);fill-opacity:1;stroke-width:0.3;stroke-linecap:round;stroke-linejoin:round;paint-order:stroke fill markers"
         d="m 821.57812,154.42383 c -1.11784,0.0677 -2.02312,0.56779 -2.25976,1.47265 -0.21577,0.825 -0.09,1.5 0.2793,1.5 0.36922,0 1.99989,2.64289 3.62304,5.8711 l 2.95118,5.86914 -5.2129,0.7207 c -4.93245,0.68174 -5.29774,0.62669 -6.82226,-0.99609 -0.88605,-0.94319 -2.43529,-1.71485 -3.44141,-1.71485 -1.58286,0 -1.78605,0.28842 -1.51562,2.13086 l 0.31054,2.12891 -9.41406,2.03906 c -15.14458,3.28088 -32.13065,7.64502 -50.09961,12.77539 v 2.15821 c 17.77414,-5.01564 39.04403,-10.45315 51.18555,-12.97071 4.125,-0.85532 8.1111,-1.68773 8.85742,-1.84961 1.01463,-0.22004 1.29848,0.0947 1.125,1.25 -0.20084,1.33788 -1.43962,1.79049 -9.23242,3.37305 -14.33144,2.9104 -32.18405,7.53998 -51.93555,13.28516 v 2.14648 c 4.19362,-1.20189 9.32213,-2.64411 16.31055,-4.58594 8.77891,-2.43932 32.7903,-8.23791 38.8125,-9.37304 l 5.4375,-1.02539 v 1.7832 c 0,2.68234 2.17933,3.0925 4.16406,0.78516 0.92265,-1.07264 1.79835,-2.31487 1.94727,-2.76172 0.2844,-0.85333 9.54306,-2.63276 10.21289,-1.96289 0.2133,0.21327 -0.1662,3.18036 -0.84375,6.59375 -0.67758,3.41338 -1.23273,6.62695 -1.23242,7.14257 10e-4,1.61108 3.56814,1.03124 5.02148,-0.8164 0.75901,-0.96489 2.38682,-2.09743 3.61719,-2.51758 2.21783,-0.75734 2.531,-1.63117 1.49023,-4.16797 -0.4305,-1.04926 -0.0561,-1.41264 1.85547,-1.79492 2.69404,-0.5388 3.64638,-2.08661 2.45508,-3.99414 -1.31828,-2.11083 -0.13215,-2.77692 6.75,-3.79297 9.1692,-1.35371 13.15001,-4.06216 9.91601,-6.74609 -0.85612,-0.71059 -2.80402,-0.80767 -7.6875,-0.38282 -11.73233,1.0207 -11.07557,1.12151 -10.79687,-1.66211 0.1623,-1.62161 -0.0887,-2.46044 -0.75,-2.50976 -0.54675,-0.0406 -1.83789,-0.12503 -2.86914,-0.1875 -1.3269,-0.0804 -1.88502,-0.55307 -1.9043,-1.61524 -0.0439,-2.36229 -1.01792,-3.375 -3.24804,-3.375 -1.1343,0 -2.71681,-0.49397 -3.51758,-1.0996 -1.09009,-0.82451 -2.42122,-1.19075 -3.53907,-1.12305 z m 1.11329,2.17383 c 0.203,0.0796 0.54627,0.33155 1.01367,0.69922 1.11877,0.87998 2.8013,1.5996 3.73828,1.5996 1.30958,0 1.61677,0.33373 1.32812,1.4375 -0.4719,1.80431 2.85375,4.16057 5.0586,3.58399 1.2912,-0.33766 1.39389,-0.2238 0.62304,0.70508 -0.7506,0.90436 -0.57915,1.45213 0.9336,2.96484 l 1.85547,1.85547 7.69922,-1.15625 c 4.72859,-0.71017 8.1596,-0.89851 8.89257,-0.48828 1.04901,0.58705 1.01005,0.76564 -0.31836,1.47656 -0.83122,0.44486 -3.83943,1.16624 -6.68359,1.60352 -8.76907,1.34823 -9.26096,1.52691 -10.42773,3.7832 -0.60871,1.17702 -0.92197,2.62223 -0.69532,3.21289 0.25381,0.66141 -0.17247,1.22718 -1.11132,1.47266 -2.13497,0.55831 -3.73916,4.16076 -2.26758,5.09179 0.84729,0.53608 0.7291,0.68624 -0.54297,0.69532 -0.8937,0.006 -2.35697,0.93984 -3.25,2.07421 -0.89312,1.13437 -1.44938,1.50206 -1.23633,0.81641 0.87661,-2.82074 2.208,-13.40723 1.74414,-13.87109 -0.27525,-0.27525 -3.36009,-0.0745 -6.85351,0.44531 -5.85615,0.87125 -6.46904,1.12916 -7.86524,3.30859 l -1.51367,2.36328 -0.0137,-3.0039 c -0.007,-1.65273 -0.34086,-4.14953 -0.74219,-5.54883 l -0.72852,-2.54492 1.82227,1.71289 c 1.6527,1.55257 2.26114,1.66098 6.54102,1.17773 7.34505,-0.8293 8.8457,-1.2543 8.8457,-2.51172 0,-0.6364 -1.54554,-4.01382 -3.43359,-7.50585 -2.36655,-4.37688 -3.02113,-5.68811 -2.41211,-5.44922 z"
         transform="matrix(0.26458333,0,0,0.26458333,-235.10118,-119.44048)" />
      <path
         id="rect2500-2"
         style="fill:url(#linearGradient6449);fill-opacity:1;stroke-width:0.3;stroke-linecap:round;stroke-linejoin:round;paint-order:stroke fill markers"
         d="m 1019.8359,220.47656 c -0.5321,0.0688 -0.9983,0.3821 -1.4511,0.92774 -0.6342,0.7641 -0.1278,2.65907 2.1015,7.875 l 2.9356,6.86718 h -5.4375 c -4.8532,0 -5.628,-0.20465 -7.2266,-1.90625 -2.3293,-2.4794 -4.9241,-2.23753 -4.6562,0.4336 0.23,2.2945 2.3006,2.01289 -21.56449,2.92578 -49.70614,1.90135 -114.78802,0.19241 -183.44141,-4.50586 v 1.9043 c 18.59761,1.25541 38.79778,2.43852 60.81641,3.51562 17.48941,0.85554 114.32384,1.37491 136.125,0.73047 7.85729,-0.23226 9.41009,-0.0949 9.59769,0.8418 0.1252,0.62526 -0.5356,1.36194 -1.5,1.67383 -2.5083,0.81116 -110.60326,1.1028 -129.59769,0.34961 -20.41613,-0.80957 -57.07957,-2.74246 -71.25,-3.75586 -1.44006,-0.10299 -2.76415,-0.21276 -4.19141,-0.31641 v 1.76367 c 18.05603,1.25809 35.57404,2.32245 51.44141,3.07227 48.18616,2.27703 120.29928,2.78567 147.07227,1.03711 l 7.19722,-0.46875 -0.3457,2.35156 c -0.2944,2.00639 -0.1095,2.35351 1.2461,2.35351 0.8746,0 2.3247,-0.84419 3.2227,-1.87695 0.898,-1.03276 2.8355,-2.21239 4.3066,-2.62109 2.9128,-0.80912 7.0585,-0.9943 7.709,-0.34375 0.2246,0.22455 -0.3943,3.00893 -1.375,6.1875 -0.9808,3.17855 -1.7831,6.36992 -1.7832,7.09179 -10e-5,1.89894 3.8623,1.75624 5.0762,-0.1875 0.5152,-0.82499 1.7356,-1.5 2.7129,-1.5 2.4832,0 3.7899,-1.73144 2.7597,-3.65625 -0.9925,-1.85452 0.028,-2.67557 2.5411,-2.04492 1.2003,0.3013 1.8969,0.0679 2.207,-0.74023 0.7292,-1.90022 0.5224,-4.0586 -0.3887,-4.0586 -0.5817,0 -0.5533,-0.34772 0.092,-1.125 0.6837,-0.82377 2.5658,-1.13464 7.0293,-1.16601 8.2852,-0.0575 11.276,-1.13062 11.5703,-4.14649 0.2643,-2.70777 0.7842,-2.57286 -10.7246,-2.78515 l -8.25,-0.15235 v -2.625 c 0,-2.42305 -0.1997,-2.65383 -2.5996,-3 -2.298,-0.33145 -2.6023,-0.63629 -2.625,-2.625 -0.02,-1.81429 -0.3853,-2.30078 -1.8809,-2.51171 -1.0201,-0.14387 -2.8169,-1.072 -3.9941,-2.0625 -1.516,-1.27568 -2.5896,-1.83542 -3.4766,-1.72071 z m 0.8516,2.60156 c 0.2908,0.087 0.9703,0.62266 1.7578,1.41016 1.05,1.05 2.4,1.9082 3,1.9082 0.6,0 1.0918,0.62371 1.0918,1.38477 0,1.64343 2.2568,3.86523 3.9258,3.86523 0.7856,0 1.0609,0.47093 0.8183,1.39844 -0.2385,0.91225 0.3413,1.95245 1.668,2.9961 1.8362,1.44433 2.6313,1.55461 8.2207,1.125 3.4036,-0.26162 7.1567,-0.23446 8.3399,0.0625 2.0634,0.51788 2.0909,0.58495 0.6953,1.60546 -0.8954,0.65475 -3.4919,1.09792 -6.75,1.15235 -7.5252,0.12613 -9.5532,0.70636 -10.8906,3.11914 -1.0224,1.8445 -1.0256,2.16022 -0.027,2.79883 0.8823,0.56438 0.7041,0.72139 -0.8223,0.73047 -3.1981,0.0189 -6.0281,4.49155 -3.4902,5.51562 0.5156,0.20808 0.116,0.40537 -0.8887,0.4375 -1.0047,0.0326 -2.6078,0.79255 -3.5625,1.68945 -2.1547,2.02426 -2.1546,2.02239 0.1934,-5.41015 1.061,-3.35873 1.7499,-6.57283 1.5312,-7.14258 -0.3138,-0.81778 -1.7076,-0.94114 -6.6171,-0.58594 -5.0677,0.3666 -6.5659,0.77115 -8.0938,2.17969 l -1.875,1.72852 -0.092,-4.86719 -0.094,-4.86524 1.7441,1.63672 c 1.5801,1.48441 2.3405,1.60737 8.1445,1.30274 3.5211,-0.18481 6.6251,-0.56058 6.8985,-0.83399 0.2734,-0.27341 -0.7348,-3.46958 -2.2403,-7.10156 -1.5054,-3.63197 -2.7363,-6.85927 -2.7363,-7.17188 0,-0.0781 0.053,-0.0974 0.1504,-0.0684 z"
         transform="matrix(0.26458333,0,0,0.26458333,-235.10118,-119.44048)" />
      <path
         id="rect2500-2-3"
         style="fill:url(#linearGradient7232);fill-opacity:1;stroke-width:0.3;stroke-linecap:round;stroke-linejoin:round;paint-order:stroke fill markers"
         d="M 882.29492,368.67383 V 370.5 c 16.05978,4.02538 31.6342,7.96234 44.49219,11.29102 9.69375,2.50951 18.40123,4.72613 19.34961,4.92773 1.04339,0.22181 1.63568,0.82396 1.5,1.52344 -0.12338,0.63573 -0.56211,1.23617 -0.97461,1.33398 -0.4125,0.0978 -4.96875,-0.93247 -10.125,-2.28906 -11.95746,-3.14598 -32.50461,-8.31783 -54.24219,-13.73633 v 1.99219 c 26.1432,6.52825 51.61842,12.94484 56.41211,14.27734 3.04943,0.84763 5.73308,1.73113 5.96485,1.96289 0.23176,0.23176 0.43618,1.33012 0.45507,2.44141 0.0442,2.60174 1.9296,3.00086 4.6875,0.99219 2.0328,-1.48056 2.24789,-1.49018 6.97266,-0.31055 2.68125,0.66943 5.01597,1.33657 5.18945,1.48242 0.17348,0.14585 -0.35596,1.02272 -1.17773,1.94922 -2.82765,3.18801 -7.01172,9.56414 -7.01172,10.68555 0,1.30862 4.85814,1.6133 5.63672,0.35351 0.26167,-0.42334 1.65352,-0.69062 3.09179,-0.59375 2.79091,0.18796 4.26602,-1.11599 3.61915,-3.19922 -0.22118,-0.71214 0.0711,-1.1875 0.73242,-1.1875 0.6066,0 0.92191,0.29595 0.69922,0.65625 -0.58801,0.95149 3.73809,-0.23239 4.41797,-1.20898 0.31468,-0.45212 0.42569,-1.43258 0.24609,-2.17969 -0.50558,-2.10334 1.07488,-2.21338 7.29883,-0.50586 3.1587,0.86658 7.18039,1.47274 8.9375,1.34571 2.80612,-0.20289 3.22195,-0.46666 3.41992,-2.16993 0.29685,-2.55419 -0.65474,-3.22129 -7.34961,-5.14843 -3.09375,-0.89055 -6.13125,-1.82491 -6.75,-2.07617 -0.61875,-0.25124 -1.43436,-0.48596 -1.8125,-0.52149 -1.03618,-0.0976 -1.37656,-1.73478 -0.47656,-2.29101 1.67047,-1.03239 0.81081,-3.46908 -1.50782,-4.27735 -1.68438,-0.58721 -2.16669,-1.12606 -1.81054,-2.02344 1.23112,-3.10136 1.03127,-3.95239 -1.10547,-4.69726 -1.26645,-0.44149 -2.51851,-1.65198 -3.05664,-2.95117 -0.71055,-1.71541 -1.39084,-2.20118 -3.07617,-2.20118 h -2.16211 l 0.49218,7.5 c 0.2703,4.12501 0.20952,7.5 -0.13476,7.5 -0.34433,0 -2.6296,-0.56103 -5.07813,-1.24804 -3.80505,-1.06766 -4.60017,-1.60282 -5.46875,-3.68164 -1.47337,-3.52631 -4.80273,-4.15325 -4.80273,-0.9043 0,1.23678 -0.36742,1.43571 -2.0625,1.11328 -1.132,-0.21532 -29.69726,-7.30969 -63.42969,-15.75195 z m 83.13086,7.72265 c 0.21855,0 0.73145,0.8761 1.13867,1.94727 0.40725,1.07116 1.40628,2.12296 2.22071,2.33594 1.10588,0.28918 1.31013,0.69223 0.80664,1.59179 -0.80857,1.44484 0.98959,5.375 2.45898,5.375 0.64892,0 0.86915,0.72595 0.65625,2.17579 -0.46627,3.17699 1.71519,4.89683 8.16016,6.43164 6.13605,1.46124 9.47189,3.14137 8.38867,4.22461 -0.42143,0.42142 -3.58929,-0.0443 -8.11914,-1.19336 -7.92398,-2.01008 -9.11818,-1.96457 -11.2832,0.42773 -1.18833,1.31307 -1.22911,1.63055 -0.28711,2.27539 0.79027,0.541 0.45119,0.62377 -1.21875,0.29688 -2.97196,-0.58178 -6.40545,1.81445 -5.00977,3.49609 0.72975,0.8793 0.45625,1.00666 -1.625,0.76367 -1.3749,-0.16051 -2.72659,0.0793 -3.00586,0.53125 -0.2793,0.45193 -0.83065,0.82031 -1.22461,0.82031 -0.6987,0 1.66236,-4.02981 5.0957,-8.69531 2.77801,-3.77491 2.35357,-4.33432 -4.69726,-6.18359 l -6.4043,-1.67969 -2.29297,1.63281 -2.29101,1.63086 1.09765,-2.16406 c 0.60338,-1.19078 1.33372,-3.47915 1.625,-5.08594 l 0.53125,-2.92187 1.32032,2.17187 c 1.04535,1.71781 2.35196,2.44412 6.25586,3.48242 8.66842,2.30553 8.37093,2.54258 7.79882,-6.1875 -0.27031,-4.12499 -0.31419,-7.5 -0.0957,-7.5 z"
         transform="matrix(0.26458333,0,0,0.26458333,-235.10118,-119.44048)" />
      <path
         id="rect2500-2-3-8"
         style="fill:url(#linearGradient7481);fill-opacity:1;stroke-width:0.3;stroke-linecap:round;stroke-linejoin:round;paint-order:stroke fill markers"
         d="m 552.25,376.33984 v 2.03321 c 37.76072,13.33378 75.76583,23.72841 111.01172,30.23242 6.24195,1.15184 11.71096,2.31789 12.1543,2.5918 0.44333,0.27389 0.61525,0.99406 0.38281,1.59961 -0.23233,0.60553 -0.63898,1.05421 -0.9043,0.99804 -0.26526,-0.0562 -1.32618,-0.249 -2.35742,-0.42773 C 634.64724,406.80078 592.69693,395.57323 552.25,381.45703 v 2.12305 c 40.86781,14.14276 83.46887,25.50199 119.7793,31.4375 2.04349,0.33403 2.67594,0.72485 2.20312,1.36133 -2.18404,2.9398 1.76188,4.75886 4.58008,2.11132 1.37832,-1.29489 2.32068,-1.47471 6.10352,-1.16211 2.45979,0.20326 4.75901,0.65738 5.10937,1.00782 0.35042,0.35044 -0.74132,3.06849 -2.42578,6.04101 -1.6844,2.97252 -3.0625,6.04983 -3.0625,6.83789 0,1.78842 3.8346,2.01208 5.25,0.30664 0.51352,-0.61875 2.05057,-1.125 3.41601,-1.125 2.47176,0 3.69686,-1.46245 3.17188,-3.78906 -0.13799,-0.61186 0.70964,-0.97084 2.40039,-1.01562 2.29493,-0.0607 2.66331,-0.34509 3.01367,-2.32032 0.36754,-2.07117 0.63757,-2.2444 3.38672,-2.18359 1.64263,0.0363 5.42505,0.33853 8.40625,0.66992 5.82713,0.64778 7.70508,-0.008 7.70508,-2.68554 0,-2.11915 -2.80422,-3.51511 -8.98828,-4.47461 -8.42316,-1.30689 -9.0098,-1.63163 -8.50977,-4.71289 0.38693,-2.38447 0.24789,-2.61778 -1.8125,-3.07032 -1.99655,-0.43851 -2.22018,-0.7752 -2.14648,-3.21679 0.0666,-2.2055 -0.23007,-2.80977 -1.54688,-3.15235 -0.89563,-0.233 -2.35471,-1.35195 -3.24218,-2.48633 -0.97036,-1.24041 -2.33869,-2.0625 -3.4336,-2.0625 -2.17536,0 -2.26792,1.10063 -0.69531,8.25 1.60571,7.30017 1.752,7.00095 -3.11719,6.39258 -5.5919,-0.69866 -6.11668,-0.94339 -7.42969,-3.48242 -1.49686,-2.89465 -4.82812,-3.09172 -4.82812,-0.28516 0,2.23772 0.17926,2.23176 -9.75,0.4043 C 629.29574,400.45966 590.73614,389.95816 552.25,376.33984 Z m 139.5918,21.45899 2.03906,2.42383 c 1.12173,1.33304 2.59997,2.4295 3.28516,2.43554 1.07665,0.01 1.09337,0.10888 0.12109,0.72461 -0.99116,0.62777 -0.97486,0.96034 0.13672,2.80078 0.70078,1.16023 2.20094,2.29934 3.375,2.5625 1.16266,0.26056 1.52271,0.51371 0.80078,0.5625 -1.53904,0.10404 -1.63179,0.81905 -0.44141,3.43164 0.925,2.03011 3.19679,2.88048 10.00391,3.7461 4.31138,0.54825 7.875,1.794 7.875,2.75195 0,0.90425 -3.64422,0.82607 -10.99219,-0.23633 -5.75218,-0.83168 -6.30552,-0.79346 -7.77148,0.53321 -0.89995,0.81464 -1.42864,2.00426 -1.22852,2.76953 0.2744,1.04919 -0.0996,1.34179 -1.71289,1.34179 -2.24646,0 -4.9915,2.42121 -4.19922,3.70313 0.29645,0.4797 -0.23448,0.79687 -1.33398,0.79687 -1.00511,0 -2.24808,0.50625 -2.76172,1.125 -2.40962,2.90342 -1.83136,0.55095 1.2207,-4.96679 1.85329,-3.35044 3.20599,-6.51811 3.00586,-7.03907 -0.20937,-0.54562 -3.08863,-1.35152 -6.79101,-1.90234 -5.94539,-0.88453 -6.53983,-0.85493 -7.93555,0.4082 -1.91129,1.72983 -2.51191,1.16168 -1.52149,-1.44336 0.42378,-1.11531 0.77313,-3.10418 0.7754,-4.41796 l 0.004,-2.38868 1.6836,2.07618 c 1.43938,1.77378 2.57683,2.20286 7.8457,2.96093 3.38978,0.48772 6.38255,0.67011 6.64844,0.4043 0.42644,-0.42648 -0.34607,-6.37338 -1.67774,-12.92773 z"
         transform="matrix(0.26458333,0,0,0.26458333,-235.10118,-119.44048)" />
      <path
         id="rect2500-2-5"
         style="fill:url(#linearGradient6779);fill-opacity:1;stroke-width:0.299999;stroke-linecap:round;stroke-linejoin:round;paint-order:stroke fill markers"
         d="m 745.76953,287.16797 c -0.72235,0.0375 -1.33301,0.28563 -1.63086,0.76758 -0.26776,0.43324 0.0226,1.86761 0.64649,3.1875 0.62379,1.31988 1.24536,2.90468 1.38086,3.52343 0.13521,0.61876 0.48619,1.30662 0.77929,1.52735 0.29339,0.2207 1.0394,1.61271 1.65821,3.09375 l 1.125,2.69336 -2.78321,0.45898 c -5.22998,0.86464 -7.36827,0.54442 -9.49414,-1.42578 -2.51223,-2.32821 -4.72272,-1.89015 -5.05664,1.00195 -0.2279,1.97532 -0.39393,2.04038 -6.60742,2.56836 -3.00577,0.25543 -7.51668,0.71237 -13.22852,1.33594 v 2.06641 c 6.27321,-0.67713 12.52708,-1.35029 17.54297,-1.79883 4.78659,-0.42803 5.4375,-0.66618 5.4375,-1.99414 0,-1.44392 0.0625,-1.45369 1.45117,-0.19727 1.25462,1.13541 2.32525,1.24059 7.9336,0.77344 4.55862,-0.37973 6.60621,-0.86076 6.89648,-1.61719 0.22711,-0.59175 -0.85208,-3.77121 -2.39843,-7.0664 -2.89679,-6.17294 -3.13552,-7.79679 -0.76172,-5.17383 0.74885,0.82752 1.961,1.5039 2.69336,1.5039 0.80991,0 1.42461,0.66113 1.57031,1.6875 0.14774,1.03987 1.17006,2.11926 2.66211,2.8125 1.33171,0.61876 2.42616,1.66433 2.4375,2.32227 0.009,0.65794 0.63801,1.75908 1.39844,2.44727 1.19696,1.0832 2.55688,1.18418 10.125,0.75195 5.89988,-0.33692 8.74218,-0.24396 8.74218,0.28515 0,1.17346 -1.67088,1.61539 -9.63281,2.55274 -5.81797,0.68495 -7.49617,1.16312 -8.53711,2.43359 -1.51977,1.8549 -1.73161,4.17011 -0.39258,4.29688 0.51563,0.0488 -0.0133,0.30194 -1.17578,0.5625 -1.17405,0.26318 -2.67427,1.40227 -3.375,2.5625 -1.1118,1.84044 -1.12805,2.17301 -0.13672,2.80078 0.911,0.57684 0.81444,0.71358 -0.50781,0.72266 -0.89819,0.006 -2.33257,0.9014 -3.1875,1.98828 -1.90517,2.41916 -1.90874,2.08982 -0.0566,-4.97657 2.34726,-8.95573 2.60375,-8.54904 -5.0625,-8.01562 -5.83801,0.40621 -6.74877,0.67065 -8.25,2.40234 -1.5713,1.81279 -1.6875,1.84208 -1.6875,0.40625 0,-1.21799 -0.4802,-1.54297 -2.2832,-1.54297 -1.82394,0 -11.97528,1.0297 -21.44532,2.0879 v 1.97265 c 6.23215,-0.70934 10.83397,-1.1805 14.54102,-1.4668 l 6.9375,-0.53711 v 1.97266 c 0,2.67771 2.32066,2.62067 4.62109,-0.11328 0.9648,-1.14659 2.09118,-2.20227 2.50391,-2.3457 0.41255,-0.14342 1.08727,-0.36672 1.5,-0.4961 0.88072,-0.27621 7.875,-0.77758 7.875,-0.56445 0,0.08 -0.67393,2.9516 -1.49609,6.38086 -1.90579,7.95001 -1.89883,8.85937 0.0644,8.85937 1.81922,0 5.37761,-2.55401 4.61719,-3.31445 -0.28284,-0.28282 0.009,-0.31249 0.65039,-0.0664 0.64131,0.2461 1.98236,-0.22093 2.97851,-1.0371 1.57028,-1.28666 1.68586,-1.68739 0.87305,-3.02149 -1.27712,-2.09598 -1.29054,-2.0768 1.77734,-2.65234 2.60215,-0.48821 2.69738,-0.61605 2.29883,-3.07031 -0.22847,-1.40823 -0.10993,-2.74943 0.26367,-2.98047 0.37378,-0.23104 3.61949,-0.75404 7.21094,-1.16211 7.57732,-0.86099 10.29388,-1.93803 10.61914,-4.21289 0.3864,-2.70242 -2.11015,-3.38503 -11.36523,-3.10743 l -8.36719,0.25 0.23828,-2.38867 c 0.22734,-2.27316 0.10128,-2.40061 -2.60156,-2.625 -2.59807,-0.21567 -2.84061,-0.42874 -2.86328,-2.48633 -0.0202,-1.96858 -0.31885,-2.27797 -2.38282,-2.47851 -1.29741,-0.12603 -2.95379,-0.88541 -3.67968,-1.6875 -0.88735,-0.98049 -2.3996,-1.5 -3.60352,-1.4375 z"
         transform="matrix(0.26458333,0,0,0.26458333,-235.10118,-119.44048)" />
      <path
         id="rect2500-2-5-7"
         style="fill:url(#linearGradient7028);fill-opacity:1;stroke-width:0.299999;stroke-linecap:round;stroke-linejoin:round;paint-order:stroke fill markers"
         d="m 885.38672,312.64648 c -2.9427,0 -2.72924,1.7344 0.90039,7.32032 4.10303,6.31443 3.98489,7.22066 -1.08594,8.35547 -3.79177,0.84854 -4.29857,0.79156 -7.04492,-0.78907 -2.49045,-1.43331 -3.14771,-1.54539 -4.14844,-0.71484 -0.87698,0.72785 -0.99613,1.34675 -0.45312,2.36133 0.4049,0.75665 0.48238,1.52948 0.17187,1.71679 -0.6357,0.38343 -17.30107,3.60477 -27.56445,5.32813 -4.08888,0.68657 -11.15857,1.64465 -18.60352,2.58789 v 1.75 c 18.90264,-2.43307 38.60996,-5.55237 45.81641,-7.61914 1.93403,-0.55467 2.33241,-0.43092 2.66016,0.82226 0.21197,0.81062 -0.0105,1.60523 -0.49414,1.76563 -4.71866,1.56477 -30.77469,5.92412 -47.98243,8.10742 v 1.85938 c 15.53055,-2.00956 33.7468,-4.89701 42.83789,-7.00391 2.60371,-0.6034 4.85405,-1.09766 5.00196,-1.09766 0.1479,0 0.4966,1.03251 0.77344,2.29297 0.65167,2.96713 2.36333,2.67687 4.69921,-0.79687 1.32435,-1.9694 2.63329,-2.8491 5.27539,-3.54297 6.15653,-1.61681 6.40184,-1.50085 5.86133,2.79687 -0.25935,2.06251 -0.68399,5.4375 -0.94336,7.5 -0.4632,3.68312 -0.43554,3.75 1.53516,3.75 1.4391,0 2.36881,-0.63069 3.28516,-2.23046 0.74617,-1.30263 2.13534,-2.41835 3.33984,-2.6836 1.53951,-0.33898 2.0625,-0.90254 2.0625,-2.22461 0,-0.97413 -0.34248,-1.98505 -0.76172,-2.24414 -1.18417,-0.73185 0.02,-2.04007 1.51758,-1.64844 2.00586,0.52455 3.44093,-2.52292 2.15625,-4.58007 -0.53739,-0.86333 -0.78072,-1.76809 -0.53711,-2.01172 0.2436,-0.2436 3.26741,-1.10488 6.7207,-1.91211 3.45331,-0.80723 7.12305,-1.86206 8.1543,-2.34571 1.03125,-0.48366 2.07961,-0.83731 2.33008,-0.78515 0.5682,0.11877 0.23398,-3.21713 -0.42969,-4.29102 -0.71093,-1.15029 -5.86791,-0.9709 -11.09961,0.38477 -5.6409,1.4617 -8.05078,0.9922 -8.05078,-1.56641 0,-1.02339 -0.42188,-1.89277 -0.9375,-1.93359 -0.51563,-0.0406 -1.78125,-0.12503 -2.8125,-0.1875 -1.45305,-0.088 -1.92937,-0.57934 -2.11328,-2.17774 -0.13058,-1.13437 -0.46807,-2.09104 -0.75,-2.12695 -0.282,-0.0355 -1.61778,-0.14542 -2.96875,-0.24414 -1.35105,-0.0987 -2.85334,-0.57594 -3.33789,-1.06055 -0.48465,-0.48456 -1.82547,-0.88086 -2.98047,-0.88086 z m 0.82422,2.25 c 0.3537,0 1.06264,0.50626 1.57617,1.125 0.51352,0.61874 1.73609,1.125 2.7168,1.125 0.99374,0 1.7832,0.4476 1.7832,1.00977 0,1.74426 2.81257,3.70216 4.7793,3.32617 1.33895,-0.25596 1.72592,-0.0712 1.43554,0.68555 -0.57435,1.49678 1.96326,3.97851 4.06641,3.97851 0.98902,0 4.12392,-0.52918 6.9668,-1.17578 2.84287,-0.64661 6.28486,-1.06752 7.64843,-0.93554 l 2.47852,0.24023 -2.25,1.21875 c -1.2375,0.67038 -5.05259,1.81891 -8.47852,2.55274 -5.42265,1.16151 -6.36922,1.60561 -7.3125,3.42968 -1.42349,2.75274 -1.36756,3.66332 0.22852,3.69922 0.8163,0.0183 0.46185,0.41122 -0.9375,1.03711 -3.08864,1.38144 -4.45673,3.74644 -3.00586,5.19727 0.94815,0.94819 0.8529,1.14308 -0.74805,1.54492 h -0.002 c -1.0086,0.25314 -2.36681,1.38454 -3.01758,2.51367 l -1.18359,2.05273 0.375,-3 c 1.14699,-9.19102 1.31029,-12.22085 0.68164,-12.60937 -0.63968,-0.39534 -2.56159,-0.0452 -10.19922,1.85351 -1.97393,0.49074 -3.29609,1.44369 -4.31055,3.10743 l -1.46289,2.39843 v -2.7207 c -10e-4,-1.4965 -0.52205,-3.96254 -1.15625,-5.48047 l -1.15234,-2.75976 2.21875,1.64062 2.2207,1.64063 6.23633,-1.41602 c 4.26593,-0.96819 6.30914,-1.78337 6.46289,-2.58203 0.12375,-0.64222 -1.46936,-3.76124 -3.53906,-6.93164 -2.06963,-3.17039 -3.47279,-5.76563 -3.11914,-5.76563 z"
         transform="matrix(0.26458333,0,0,0.26458333,-235.10118,-119.44048)" />
    </g>
  </g>
</svg>
